solid OpenSCAD_Model
  facet normal -0.2928241422332794 -0.9561663148873967 0
    outer loop
      vertex 26.710968017578125 -24.465089797973633 0
      vertex 27.029056549072266 -24.562503814697266 4
      vertex 26.710968017578125 -24.465089797973633 4
    endloop
  endfacet
  facet normal -0.2928241422332794 -0.9561663148873967 0
    outer loop
      vertex 27.029056549072266 -24.562503814697266 4
      vertex 26.710968017578125 -24.465089797973633 0
      vertex 27.029056549072266 -24.562503814697266 0
    endloop
  endfacet
  facet normal 0.3728583974784584 -0.9278882558960405 0
    outer loop
      vertex 24.794408798217773 -24.710514068603516 0
      vertex 25.250812530517578 -24.527114868164062 4
      vertex 24.794408798217773 -24.710514068603516 4
    endloop
  endfacet
  facet normal 0.3728583974784584 -0.9278882558960405 0
    outer loop
      vertex 25.250812530517578 -24.527114868164062 4
      vertex 24.794408798217773 -24.710514068603516 0
      vertex 25.250812530517578 -24.527114868164062 0
    endloop
  endfacet
  facet normal -0.4502030278909357 0.8929262196160629 0
    outer loop
      vertex 27.62049102783203 -29.769433975219727 0
      vertex 27.599998474121094 -29.779766082763672 4
      vertex 27.62049102783203 -29.769433975219727 4
    endloop
  endfacet
  facet normal -0.4502030278909357 0.8929262196160629 0
    outer loop
      vertex 27.599998474121094 -29.779766082763672 4
      vertex 27.62049102783203 -29.769433975219727 0
      vertex 27.599998474121094 -29.779766082763672 0
    endloop
  endfacet
  facet normal 1 0 0
    outer loop
      vertex 23.210445404052734 -27.299999237060547 4
      vertex 23.210445404052734 -27.054061889648438 0
      vertex 23.210445404052734 -27.054061889648438 4
    endloop
  endfacet
  facet normal 1 0 0
    outer loop
      vertex 23.210445404052734 -27.054061889648438 0
      vertex 23.210445404052734 -27.299999237060547 4
      vertex 23.210445404052734 -27.299999237060547 0
    endloop
  endfacet
  facet normal -0.7219543048862488 0.6919407356531434 0
    outer loop
      vertex 28.01595687866211 -29.476947784423828 0
      vertex 28.356304168701172 -29.121837615966797 4
      vertex 28.356304168701172 -29.121837615966797 0
    endloop
  endfacet
  facet normal -0.7219543048862488 0.6919407356531434 0
    outer loop
      vertex 28.356304168701172 -29.121837615966797 4
      vertex 28.01595687866211 -29.476947784423828 0
      vertex 28.01595687866211 -29.476947784423828 4
    endloop
  endfacet
  facet normal 0.7780374753138978 -0.6282178658770983 0
    outer loop
      vertex 23.697322845458984 -25.67607307434082 4
      vertex 24.00632667541504 -25.293376922607422 0
      vertex 24.00632667541504 -25.293376922607422 4
    endloop
  endfacet
  facet normal 0.7780374753138978 -0.6282178658770983 0
    outer loop
      vertex 24.00632667541504 -25.293376922607422 0
      vertex 23.697322845458984 -25.67607307434082 4
      vertex 23.697322845458984 -25.67607307434082 0
    endloop
  endfacet
  facet normal 0.8730116619663031 -0.48769933162844653 0
    outer loop
      vertex 23.457435607910156 -26.105485916137695 4
      vertex 23.697322845458984 -25.67607307434082 0
      vertex 23.697322845458984 -25.67607307434082 4
    endloop
  endfacet
  facet normal 0.8730116619663031 -0.48769933162844653 0
    outer loop
      vertex 23.697322845458984 -25.67607307434082 0
      vertex 23.457435607910156 -26.105485916137695 4
      vertex 23.457435607910156 -26.105485916137695 0
    endloop
  endfacet
  facet normal -0.8285113676538427 0.5599722436588791 0
    outer loop
      vertex 28.356304168701172 -29.121837615966797 0
      vertex 28.63174057006836 -28.714313507080078 4
      vertex 28.63174057006836 -28.714313507080078 0
    endloop
  endfacet
  facet normal -0.8285113676538427 0.5599722436588791 0
    outer loop
      vertex 28.63174057006836 -28.714313507080078 4
      vertex 28.356304168701172 -29.121837615966797 0
      vertex 28.356304168701172 -29.121837615966797 4
    endloop
  endfacet
  facet normal 0.9856149474233897 -0.16900643601824347 0
    outer loop
      vertex 23.210445404052734 -27.054061889648438 4
      vertex 23.293575286865234 -26.569263458251953 0
      vertex 23.293575286865234 -26.569263458251953 4
    endloop
  endfacet
  facet normal 0.9856149474233897 -0.16900643601824347 0
    outer loop
      vertex 23.293575286865234 -26.569263458251953 0
      vertex 23.210445404052734 -27.054061889648438 4
      vertex 23.210445404052734 -27.054061889648438 0
    endloop
  endfacet
  facet normal -0.1270189523850761 -0.9919002902182245 0
    outer loop
      vertex 26.223079681396484 -24.402612686157227 0
      vertex 26.710968017578125 -24.465089797973633 4
      vertex 26.223079681396484 -24.402612686157227 4
    endloop
  endfacet
  facet normal -0.1270189523850761 -0.9919002902182245 0
    outer loop
      vertex 26.710968017578125 -24.465089797973633 4
      vertex 26.223079681396484 -24.402612686157227 0
      vertex 26.710968017578125 -24.465089797973633 0
    endloop
  endfacet
  facet normal -0.9112287485326162 0.4119006771634178 0
    outer loop
      vertex 28.63174057006836 -28.714313507080078 0
      vertex 28.83434295654297 -28.26610565185547 4
      vertex 28.83434295654297 -28.26610565185547 0
    endloop
  endfacet
  facet normal -0.9112287485326162 0.4119006771634178 0
    outer loop
      vertex 28.83434295654297 -28.26610565185547 4
      vertex 28.63174057006836 -28.714313507080078 0
      vertex 28.63174057006836 -28.714313507080078 4
    endloop
  endfacet
  facet normal 0.6606747476884726 -0.7506722838674497 0
    outer loop
      vertex 24.00632667541504 -25.293376922607422 0
      vertex 24.375564575195312 -24.968406677246094 4
      vertex 24.00632667541504 -25.293376922607422 4
    endloop
  endfacet
  facet normal 0.6606747476884726 -0.7506722838674497 0
    outer loop
      vertex 24.375564575195312 -24.968406677246094 4
      vertex 24.00632667541504 -25.293376922607422 0
      vertex 24.375564575195312 -24.968406677246094 0
    endloop
  endfacet
  facet normal 0.5243072729253673 -0.8515291442796097 0
    outer loop
      vertex 24.375564575195312 -24.968406677246094 0
      vertex 24.794408798217773 -24.710514068603516 4
      vertex 24.375564575195312 -24.968406677246094 4
    endloop
  endfacet
  facet normal 0.5243072729253673 -0.8515291442796097 0
    outer loop
      vertex 24.794408798217773 -24.710514068603516 4
      vertex 24.375564575195312 -24.968406677246094 0
      vertex 24.794408798217773 -24.710514068603516 0
    endloop
  endfacet
  facet normal -0.5946347178071945 0.8039959902750499 0
    outer loop
      vertex 28.01595687866211 -29.476947784423828 0
      vertex 27.62049102783203 -29.769433975219727 4
      vertex 28.01595687866211 -29.476947784423828 4
    endloop
  endfacet
  facet normal -0.5946347178071945 0.8039959902750499 0
    outer loop
      vertex 27.62049102783203 -29.769433975219727 4
      vertex 28.01595687866211 -29.476947784423828 0
      vertex 27.62049102783203 -29.769433975219727 0
    endloop
  endfacet
  facet normal 0.9428791754203801 -0.33313489843993227 0
    outer loop
      vertex 23.293575286865234 -26.569263458251953 4
      vertex 23.457435607910156 -26.105485916137695 0
      vertex 23.457435607910156 -26.105485916137695 4
    endloop
  endfacet
  facet normal 0.9428791754203801 -0.33313489843993227 0
    outer loop
      vertex 23.457435607910156 -26.105485916137695 0
      vertex 23.293575286865234 -26.569263458251953 4
      vertex 23.293575286865234 -26.569263458251953 0
    endloop
  endfacet
  facet normal -0.9677321443174546 0.2519811438475929 0
    outer loop
      vertex 28.83434295654297 -28.26610565185547 0
      vertex 28.95828628540039 -27.790102005004883 4
      vertex 28.95828628540039 -27.790102005004883 0
    endloop
  endfacet
  facet normal -0.9677321443174546 0.2519811438475929 0
    outer loop
      vertex 28.95828628540039 -27.790102005004883 4
      vertex 28.83434295654297 -28.26610565185547 0
      vertex 28.83434295654297 -28.26610565185547 4
    endloop
  endfacet
  facet normal -0.9963975192077301 0.08480556418467458 0
    outer loop
      vertex 28.95828628540039 -27.790102005004883 0
      vertex 29 -27.299999237060547 4
      vertex 29 -27.299999237060547 0
    endloop
  endfacet
  facet normal -0.9963975192077301 0.08480556418467458 0
    outer loop
      vertex 29 -27.299999237060547 4
      vertex 28.95828628540039 -27.790102005004883 0
      vertex 28.95828628540039 -27.790102005004883 4
    endloop
  endfacet
  facet normal 0.042441502669775935 -0.999098953483153 0
    outer loop
      vertex 25.731647491455078 -24.42348861694336 0
      vertex 26.223079681396484 -24.402612686157227 4
      vertex 25.731647491455078 -24.42348861694336 4
    endloop
  endfacet
  facet normal 0.042441502669775935 -0.999098953483153 0
    outer loop
      vertex 26.223079681396484 -24.402612686157227 4
      vertex 25.731647491455078 -24.42348861694336 0
      vertex 26.223079681396484 -24.402612686157227 0
    endloop
  endfacet
  facet normal 0.2106761422420223 -0.9775559130249375 0
    outer loop
      vertex 25.250812530517578 -24.527114868164062 0
      vertex 25.731647491455078 -24.42348861694336 4
      vertex 25.250812530517578 -24.527114868164062 4
    endloop
  endfacet
  facet normal 0.2106761422420223 -0.9775559130249375 0
    outer loop
      vertex 25.731647491455078 -24.42348861694336 4
      vertex 25.250812530517578 -24.527114868164062 0
      vertex 25.731647491455078 -24.42348861694336 0
    endloop
  endfacet
  facet normal -1 0 0
    outer loop
      vertex 27.599998474121094 -30.381572723388672 0
      vertex 27.599998474121094 -29.779766082763672 4
      vertex 27.599998474121094 -29.779766082763672 0
    endloop
  endfacet
  facet normal -1 0 0
    outer loop
      vertex 27.599998474121094 -29.779766082763672 4
      vertex 27.599998474121094 -30.381572723388672 0
      vertex 27.599998474121094 -30.381572723388672 4
    endloop
  endfacet
  facet normal 1 0 0
    outer loop
      vertex 23.200000762939453 -30.381572723388672 4
      vertex 23.200000762939453 -27.299999237060547 0
      vertex 23.200000762939453 -27.299999237060547 4
    endloop
  endfacet
  facet normal 1 0 0
    outer loop
      vertex 23.200000762939453 -27.299999237060547 0
      vertex 23.200000762939453 -30.381572723388672 4
      vertex 23.200000762939453 -30.381572723388672 0
    endloop
  endfacet
  facet normal 0 -1 0
    outer loop
      vertex 23.200000762939453 -27.299999237060547 0
      vertex 23.210445404052734 -27.299999237060547 4
      vertex 23.200000762939453 -27.299999237060547 4
    endloop
  endfacet
  facet normal 0 -1 0
    outer loop
      vertex 23.210445404052734 -27.299999237060547 4
      vertex 23.200000762939453 -27.299999237060547 0
      vertex 23.210445404052734 -27.299999237060547 0
    endloop
  endfacet
  facet normal -0.707104547666438 -0.7071090146996021 0
    outer loop
      vertex 27.599998474121094 -30.381572723388672 0
      vertex 28.203845977783203 -30.985416412353516 4
      vertex 27.599998474121094 -30.381572723388672 4
    endloop
  endfacet
  facet normal -0.707104547666438 -0.7071090146996021 0
    outer loop
      vertex 28.203845977783203 -30.985416412353516 4
      vertex 27.599998474121094 -30.381572723388672 0
      vertex 28.203845977783203 -30.985416412353516 0
    endloop
  endfacet
  facet normal 0.707104547666438 -0.7071090146996021 0
    outer loop
      vertex 22.596153259277344 -30.985416412353516 0
      vertex 23.200000762939453 -30.381572723388672 4
      vertex 22.596153259277344 -30.985416412353516 4
    endloop
  endfacet
  facet normal 0.707104547666438 -0.7071090146996021 0
    outer loop
      vertex 23.200000762939453 -30.381572723388672 4
      vertex 22.596153259277344 -30.985416412353516 0
      vertex 23.200000762939453 -30.381572723388672 0
    endloop
  endfacet
  facet normal -1 0 0
    outer loop
      vertex 29 -27.299999237060547 0
      vertex 29 -22.599998474121094 4
      vertex 29 -22.599998474121094 0
    endloop
  endfacet
  facet normal -1 0 0
    outer loop
      vertex 29 -22.599998474121094 4
      vertex 29 -27.299999237060547 0
      vertex 29 -27.299999237060547 4
    endloop
  endfacet
  facet normal -0.7485119970490608 -0.6631212485463175 0
    outer loop
      vertex 28.885456085205078 -22.135276794433594 0
      vertex 28.568065643310547 -21.777015686035156 4
      vertex 28.568065643310547 -21.777015686035156 0
    endloop
  endfacet
  facet normal -0.7485119970490608 -0.6631212485463175 0
    outer loop
      vertex 28.568065643310547 -21.777015686035156 4
      vertex 28.885456085205078 -22.135276794433594 0
      vertex 28.885456085205078 -22.135276794433594 4
    endloop
  endfacet
  facet normal 1 0 0
    outer loop
      vertex 27.029056549072266 -24.562503814697266 4
      vertex 27.029056549072266 -22.36068344116211 0
      vertex 27.029056549072266 -22.36068344116211 4
    endloop
  endfacet
  facet normal 1 0 0
    outer loop
      vertex 27.029056549072266 -22.36068344116211 0
      vertex 27.029056549072266 -24.562503814697266 4
      vertex 27.029056549072266 -24.562503814697266 0
    endloop
  endfacet
  facet normal -0.9709416677639884 -0.23931627148960202 0
    outer loop
      vertex 29 -22.599998474121094 0
      vertex 28.885456085205078 -22.135276794433594 4
      vertex 28.885456085205078 -22.135276794433594 0
    endloop
  endfacet
  facet normal -0.9709416677639884 -0.23931627148960202 0
    outer loop
      vertex 28.885456085205078 -22.135276794433594 4
      vertex 29 -22.599998474121094 0
      vertex 29 -22.599998474121094 4
    endloop
  endfacet
  facet normal 0.12053796408237348 -0.992708718212385 0
    outer loop
      vertex 27.64539337158203 -21.66498374938965 0
      vertex 28.12053680419922 -21.607290267944336 4
      vertex 27.64539337158203 -21.66498374938965 4
    endloop
  endfacet
  facet normal 0.12053796408237348 -0.992708718212385 0
    outer loop
      vertex 28.12053680419922 -21.607290267944336 4
      vertex 27.64539337158203 -21.66498374938965 0
      vertex 28.12053680419922 -21.607290267944336 0
    endloop
  endfacet
  facet normal -0.3546051005036283 -0.9350161617302728 0
    outer loop
      vertex 28.12053680419922 -21.607290267944336 0
      vertex 28.568065643310547 -21.777015686035156 4
      vertex 28.12053680419922 -21.607290267944336 4
    endloop
  endfacet
  facet normal -0.3546051005036283 -0.9350161617302728 0
    outer loop
      vertex 28.568065643310547 -21.777015686035156 4
      vertex 28.12053680419922 -21.607290267944336 0
      vertex 28.568065643310547 -21.777015686035156 0
    endloop
  endfacet
  facet normal 0.5680661949071655 -0.82298286628805 0
    outer loop
      vertex 27.251487731933594 -21.936878204345703 0
      vertex 27.64539337158203 -21.66498374938965 4
      vertex 27.251487731933594 -21.936878204345703 4
    endloop
  endfacet
  facet normal 0.5680661949071655 -0.82298286628805 0
    outer loop
      vertex 27.64539337158203 -21.66498374938965 4
      vertex 27.251487731933594 -21.936878204345703 0
      vertex 27.64539337158203 -21.66498374938965 0
    endloop
  endfacet
  facet normal 0.8854551351245921 -0.464724868800337 0
    outer loop
      vertex 27.029056549072266 -22.36068344116211 4
      vertex 27.251487731933594 -21.936878204345703 0
      vertex 27.251487731933594 -21.936878204345703 4
    endloop
  endfacet
  facet normal 0.8854551351245921 -0.464724868800337 0
    outer loop
      vertex 27.251487731933594 -21.936878204345703 0
      vertex 27.029056549072266 -22.36068344116211 4
      vertex 27.029056549072266 -22.36068344116211 0
    endloop
  endfacet
  facet normal 0.11196839567047451 -0.9937117682562586 0
    outer loop
      vertex -25.489545822143555 -24.855159759521484 0
      vertex -25 -24.799999237060547 4
      vertex -25.489545822143555 -24.855159759521484 4
    endloop
  endfacet
  facet normal 0.11196839567047451 -0.9937117682562586 0
    outer loop
      vertex -25 -24.799999237060547 4
      vertex -25.489545822143555 -24.855159759521484 0
      vertex -25 -24.799999237060547 0
    endloop
  endfacet
  facet normal -0.5320346825015553 -0.8467225617730221 0
    outer loop
      vertex -24.045455932617188 -25.017868041992188 0
      vertex -23.62832260131836 -25.279972076416016 4
      vertex -24.045455932617188 -25.017868041992188 4
    endloop
  endfacet
  facet normal -0.5320346825015553 -0.8467225617730221 0
    outer loop
      vertex -23.62832260131836 -25.279972076416016 4
      vertex -24.045455932617188 -25.017868041992188 0
      vertex -23.62832260131836 -25.279972076416016 0
    endloop
  endfacet
  facet normal -0.33027730163587626 -0.9438839462688855 0
    outer loop
      vertex -24.510452270507812 -24.855159759521484 0
      vertex -24.045455932617188 -25.017868041992188 4
      vertex -24.510452270507812 -24.855159759521484 4
    endloop
  endfacet
  facet normal -0.33027730163587626 -0.9438839462688855 0
    outer loop
      vertex -24.045455932617188 -25.017868041992188 4
      vertex -24.510452270507812 -24.855159759521484 0
      vertex -24.045455932617188 -25.017868041992188 0
    endloop
  endfacet
  facet normal -0.7071065447984859 -0.70710701757453 0
    outer loop
      vertex -23.62832260131836 -25.279972076416016 0
      vertex -17.922874450683594 -30.985416412353516 4
      vertex -23.62832260131836 -25.279972076416016 4
    endloop
  endfacet
  facet normal -0.7071065447984859 -0.70710701757453 0
    outer loop
      vertex -17.922874450683594 -30.985416412353516 4
      vertex -23.62832260131836 -25.279972076416016 0
      vertex -17.922874450683594 -30.985416412353516 0
    endloop
  endfacet
  facet normal 0.7071067811865476 0.7071067811865476 0
    outer loop
      vertex -24.10628890991211 -30.985416412353516 4
      vertex -26.720027923583984 -28.37167739868164 0
      vertex -26.720027923583984 -28.37167739868164 4
    endloop
  endfacet
  facet normal 0.7071067811865476 0.7071067811865476 0
    outer loop
      vertex -26.720027923583984 -28.37167739868164 0
      vertex -24.10628890991211 -30.985416412353516 4
      vertex -24.10628890991211 -30.985416412353516 0
    endloop
  endfacet
  facet normal 0.9438839462688855 0.33027730163587626 0
    outer loop
      vertex -26.982131958007812 -27.954544067382812 4
      vertex -27.144840240478516 -27.489547729492188 0
      vertex -27.144840240478516 -27.489547729492188 4
    endloop
  endfacet
  facet normal 0.9438839462688855 0.33027730163587626 0
    outer loop
      vertex -27.144840240478516 -27.489547729492188 0
      vertex -26.982131958007812 -27.954544067382812 4
      vertex -26.982131958007812 -27.954544067382812 0
    endloop
  endfacet
  facet normal 0.8467225617730221 0.5320346825015553 0
    outer loop
      vertex -26.720027923583984 -28.37167739868164 4
      vertex -26.982131958007812 -27.954544067382812 0
      vertex -26.982131958007812 -27.954544067382812 4
    endloop
  endfacet
  facet normal 0.8467225617730221 0.5320346825015553 0
    outer loop
      vertex -26.982131958007812 -27.954544067382812 0
      vertex -26.720027923583984 -28.37167739868164 4
      vertex -26.720027923583984 -28.37167739868164 0
    endloop
  endfacet
  facet normal 0.8467225617730221 -0.5320346825015553 0
    outer loop
      vertex -26.982131958007812 -26.045455932617188 4
      vertex -26.720027923583984 -25.62832260131836 0
      vertex -26.720027923583984 -25.62832260131836 4
    endloop
  endfacet
  facet normal 0.8467225617730221 -0.5320346825015553 0
    outer loop
      vertex -26.720027923583984 -25.62832260131836 0
      vertex -26.982131958007812 -26.045455932617188 4
      vertex -26.982131958007812 -26.045455932617188 0
    endloop
  endfacet
  facet normal 0.9438843686011142 -0.33027609467001373 0
    outer loop
      vertex -27.144840240478516 -26.510454177856445 4
      vertex -26.982131958007812 -26.045455932617188 0
      vertex -26.982131958007812 -26.045455932617188 4
    endloop
  endfacet
  facet normal 0.9438843686011142 -0.33027609467001373 0
    outer loop
      vertex -26.982131958007812 -26.045455932617188 0
      vertex -27.144840240478516 -26.510454177856445 4
      vertex -27.144840240478516 -26.510454177856445 0
    endloop
  endfacet
  facet normal 0.9937118167946714 0.11196796489457772 0
    outer loop
      vertex -27.144840240478516 -27.489547729492188 4
      vertex -27.200000762939453 -27 0
      vertex -27.200000762939453 -27 4
    endloop
  endfacet
  facet normal 0.9937118167946714 0.11196796489457772 0
    outer loop
      vertex -27.200000762939453 -27 0
      vertex -27.144840240478516 -27.489547729492188 4
      vertex -27.144840240478516 -27.489547729492188 0
    endloop
  endfacet
  facet normal 0.9937117682562586 -0.11196839567047451 0
    outer loop
      vertex -27.200000762939453 -27 4
      vertex -27.144840240478516 -26.510454177856445 0
      vertex -27.144840240478516 -26.510454177856445 4
    endloop
  endfacet
  facet normal 0.9937117682562586 -0.11196839567047451 0
    outer loop
      vertex -27.144840240478516 -26.510454177856445 0
      vertex -27.200000762939453 -27 4
      vertex -27.200000762939453 -27 0
    endloop
  endfacet
  facet normal 0.7071067811865476 -0.7071067811865476 0
    outer loop
      vertex -26.720027923583984 -25.62832260131836 4
      vertex -26.37167739868164 -25.279972076416016 0
      vertex -26.37167739868164 -25.279972076416016 4
    endloop
  endfacet
  facet normal 0.7071067811865476 -0.7071067811865476 0
    outer loop
      vertex -26.37167739868164 -25.279972076416016 0
      vertex -26.720027923583984 -25.62832260131836 4
      vertex -26.720027923583984 -25.62832260131836 0
    endloop
  endfacet
  facet normal -0.11196796489457772 -0.9937118167946714 0
    outer loop
      vertex -25 -24.799999237060547 0
      vertex -24.510452270507812 -24.855159759521484 4
      vertex -25 -24.799999237060547 4
    endloop
  endfacet
  facet normal -0.11196796489457772 -0.9937118167946714 0
    outer loop
      vertex -24.510452270507812 -24.855159759521484 4
      vertex -25 -24.799999237060547 0
      vertex -24.510452270507812 -24.855159759521484 0
    endloop
  endfacet
  facet normal 0.5320346825015553 -0.8467225617730221 0
    outer loop
      vertex -26.37167739868164 -25.279972076416016 0
      vertex -25.954544067382812 -25.017868041992188 4
      vertex -26.37167739868164 -25.279972076416016 4
    endloop
  endfacet
  facet normal 0.5320346825015553 -0.8467225617730221 0
    outer loop
      vertex -25.954544067382812 -25.017868041992188 4
      vertex -26.37167739868164 -25.279972076416016 0
      vertex -25.954544067382812 -25.017868041992188 0
    endloop
  endfacet
  facet normal 0.33027609467001373 -0.9438843686011142 0
    outer loop
      vertex -25.954544067382812 -25.017868041992188 0
      vertex -25.489545822143555 -24.855159759521484 4
      vertex -25.954544067382812 -25.017868041992188 4
    endloop
  endfacet
  facet normal 0.33027609467001373 -0.9438843686011142 0
    outer loop
      vertex -25.489545822143555 -24.855159759521484 4
      vertex -25.954544067382812 -25.017868041992188 0
      vertex -25.489545822143555 -24.855159759521484 0
    endloop
  endfacet
  facet normal -0.464724656319929 -0.8854552466433997 0
    outer loop
      vertex -30.13612937927246 -30.645967483520508 0
      vertex -29.709209442138672 -30.870033264160156 4
      vertex -30.13612937927246 -30.645967483520508 4
    endloop
  endfacet
  facet normal -0.464724656319929 -0.8854552466433997 0
    outer loop
      vertex -29.709209442138672 -30.870033264160156 4
      vertex -30.13612937927246 -30.645967483520508 0
      vertex -29.709209442138672 -30.870033264160156 0
    endloop
  endfacet
  facet normal -1 0 0
    outer loop
      vertex -31 -29 0
      vertex -31 29 4
      vertex -31 29 0
    endloop
  endfacet
  facet normal -1 0 0
    outer loop
      vertex -31 29 4
      vertex -31 -29 0
      vertex -31 -29 4
    endloop
  endfacet
  facet normal 0.8229817994973584 0.5680677404113791 0
    outer loop
      vertex 30.770912170410156 29.929447174072266 4
      vertex 30.497020721435547 30.326244354248047 0
      vertex 30.497020721435547 30.326244354248047 4
    endloop
  endfacet
  facet normal 0.8229817994973584 0.5680677404113791 0
    outer loop
      vertex 30.497020721435547 30.326244354248047 0
      vertex 30.770912170410156 29.929447174072266 4
      vertex 30.770912170410156 29.929447174072266 0
    endloop
  endfacet
  facet normal 0 1 0
    outer loop
      vertex 29.241073608398438 30.985416412353516 0
      vertex -29.241073608398438 30.985416412353516 4
      vertex 29.241073608398438 30.985416412353516 4
    endloop
  endfacet
  facet normal 0 1 0
    outer loop
      vertex -29.241073608398438 30.985416412353516 4
      vertex 29.241073608398438 30.985416412353516 0
      vertex -29.241073608398438 30.985416412353516 0
    endloop
  endfacet
  facet normal -0.9350172469839487 -0.35460223891362763 0
    outer loop
      vertex -30.770912170410156 -29.929447174072266 0
      vertex -30.941883087158203 -29.47863006591797 4
      vertex -30.941883087158203 -29.47863006591797 0
    endloop
  endfacet
  facet normal -0.9350172469839487 -0.35460223891362763 0
    outer loop
      vertex -30.941883087158203 -29.47863006591797 4
      vertex -30.770912170410156 -29.929447174072266 0
      vertex -30.770912170410156 -29.929447174072266 4
    endloop
  endfacet
  facet normal -0.2393118090366464 -0.9709427676519393 0
    outer loop
      vertex -29.709209442138672 -30.870033264160156 0
      vertex -29.241073608398438 -30.985416412353516 4
      vertex -29.709209442138672 -30.870033264160156 4
    endloop
  endfacet
  facet normal -0.2393118090366464 -0.9709427676519393 0
    outer loop
      vertex -29.241073608398438 -30.985416412353516 4
      vertex -29.709209442138672 -30.870033264160156 0
      vertex -29.241073608398438 -30.985416412353516 0
    endloop
  endfacet
  facet normal 0 -1 0
    outer loop
      vertex 28.203845977783203 -30.985416412353516 0
      vertex 29.241073608398438 -30.985416412353516 4
      vertex 28.203845977783203 -30.985416412353516 4
    endloop
  endfacet
  facet normal 0 -1 0
    outer loop
      vertex 29.241073608398438 -30.985416412353516 4
      vertex 28.203845977783203 -30.985416412353516 0
      vertex 29.241073608398438 -30.985416412353516 0
    endloop
  endfacet
  facet normal 0 -1 0
    outer loop
      vertex -29.241073608398438 -30.985416412353516 0
      vertex -24.10628890991211 -30.985416412353516 4
      vertex -29.241073608398438 -30.985416412353516 4
    endloop
  endfacet
  facet normal 0 -1 0
    outer loop
      vertex -24.10628890991211 -30.985416412353516 4
      vertex -29.241073608398438 -30.985416412353516 0
      vertex -24.10628890991211 -30.985416412353516 0
    endloop
  endfacet
  facet normal 0 -1 0
    outer loop
      vertex -17.922874450683594 -30.985416412353516 0
      vertex 22.596153259277344 -30.985416412353516 4
      vertex -17.922874450683594 -30.985416412353516 4
    endloop
  endfacet
  facet normal 0 -1 0
    outer loop
      vertex 22.596153259277344 -30.985416412353516 4
      vertex -17.922874450683594 -30.985416412353516 0
      vertex 22.596153259277344 -30.985416412353516 0
    endloop
  endfacet
  facet normal 0.9350172469839487 0.35460223891362763 0
    outer loop
      vertex 30.941883087158203 29.47863006591797 4
      vertex 30.770912170410156 29.929447174072266 0
      vertex 30.770912170410156 29.929447174072266 4
    endloop
  endfacet
  facet normal 0.9350172469839487 0.35460223891362763 0
    outer loop
      vertex 30.770912170410156 29.929447174072266 0
      vertex 30.941883087158203 29.47863006591797 4
      vertex 30.941883087158203 29.47863006591797 0
    endloop
  endfacet
  facet normal 0.9350172469839487 -0.35460223891362763 0
    outer loop
      vertex 30.770912170410156 -29.929447174072266 4
      vertex 30.941883087158203 -29.47863006591797 0
      vertex 30.941883087158203 -29.47863006591797 4
    endloop
  endfacet
  facet normal 0.9350172469839487 -0.35460223891362763 0
    outer loop
      vertex 30.941883087158203 -29.47863006591797 0
      vertex 30.770912170410156 -29.929447174072266 4
      vertex 30.770912170410156 -29.929447174072266 0
    endloop
  endfacet
  facet normal 0.663124168075928 0.7485094105711754 0
    outer loop
      vertex 30.497020721435547 30.326244354248047 0
      vertex 30.13612937927246 30.645967483520508 4
      vertex 30.497020721435547 30.326244354248047 4
    endloop
  endfacet
  facet normal 0.663124168075928 0.7485094105711754 0
    outer loop
      vertex 30.13612937927246 30.645967483520508 4
      vertex 30.497020721435547 30.326244354248047 0
      vertex 30.13612937927246 30.645967483520508 0
    endloop
  endfacet
  facet normal 0.663124168075928 -0.7485094105711754 0
    outer loop
      vertex 30.13612937927246 -30.645967483520508 0
      vertex 30.497020721435547 -30.326244354248047 4
      vertex 30.13612937927246 -30.645967483520508 4
    endloop
  endfacet
  facet normal 0.663124168075928 -0.7485094105711754 0
    outer loop
      vertex 30.497020721435547 -30.326244354248047 4
      vertex 30.13612937927246 -30.645967483520508 0
      vertex 30.497020721435547 -30.326244354248047 0
    endloop
  endfacet
  facet normal 1 0 0
    outer loop
      vertex 31 -29 4
      vertex 31 29 0
      vertex 31 29 4
    endloop
  endfacet
  facet normal 1 0 0
    outer loop
      vertex 31 29 0
      vertex 31 -29 4
      vertex 31 -29 0
    endloop
  endfacet
  facet normal -0.2393118090366464 0.9709427676519393 0
    outer loop
      vertex -29.241073608398438 30.985416412353516 0
      vertex -29.709209442138672 30.870033264160156 4
      vertex -29.241073608398438 30.985416412353516 4
    endloop
  endfacet
  facet normal -0.2393118090366464 0.9709427676519393 0
    outer loop
      vertex -29.709209442138672 30.870033264160156 4
      vertex -29.241073608398438 30.985416412353516 0
      vertex -29.709209442138672 30.870033264160156 0
    endloop
  endfacet
  facet normal -0.9927087001223174 -0.12053811306578072 0
    outer loop
      vertex -30.941883087158203 -29.47863006591797 0
      vertex -31 -29 4
      vertex -31 -29 0
    endloop
  endfacet
  facet normal -0.9927087001223174 -0.12053811306578072 0
    outer loop
      vertex -31 -29 4
      vertex -30.941883087158203 -29.47863006591797 0
      vertex -30.941883087158203 -29.47863006591797 4
    endloop
  endfacet
  facet normal -0.464724656319929 0.8854552466433997 0
    outer loop
      vertex -29.709209442138672 30.870033264160156 0
      vertex -30.13612937927246 30.645967483520508 4
      vertex -29.709209442138672 30.870033264160156 4
    endloop
  endfacet
  facet normal -0.464724656319929 0.8854552466433997 0
    outer loop
      vertex -30.13612937927246 30.645967483520508 4
      vertex -29.709209442138672 30.870033264160156 0
      vertex -30.13612937927246 30.645967483520508 0
    endloop
  endfacet
  facet normal -0.8229817994973584 -0.5680677404113791 0
    outer loop
      vertex -30.497020721435547 -30.326244354248047 0
      vertex -30.770912170410156 -29.929447174072266 4
      vertex -30.770912170410156 -29.929447174072266 0
    endloop
  endfacet
  facet normal -0.8229817994973584 -0.5680677404113791 0
    outer loop
      vertex -30.770912170410156 -29.929447174072266 4
      vertex -30.497020721435547 -30.326244354248047 0
      vertex -30.497020721435547 -30.326244354248047 4
    endloop
  endfacet
  facet normal 0.9927087001223174 -0.12053811306578072 0
    outer loop
      vertex 30.941883087158203 -29.47863006591797 4
      vertex 31 -29 0
      vertex 31 -29 4
    endloop
  endfacet
  facet normal 0.9927087001223174 -0.12053811306578072 0
    outer loop
      vertex 31 -29 0
      vertex 30.941883087158203 -29.47863006591797 4
      vertex 30.941883087158203 -29.47863006591797 0
    endloop
  endfacet
  facet normal -0.663124168075928 -0.7485094105711754 0
    outer loop
      vertex -30.497020721435547 -30.326244354248047 0
      vertex -30.13612937927246 -30.645967483520508 4
      vertex -30.497020721435547 -30.326244354248047 4
    endloop
  endfacet
  facet normal -0.663124168075928 -0.7485094105711754 0
    outer loop
      vertex -30.13612937927246 -30.645967483520508 4
      vertex -30.497020721435547 -30.326244354248047 0
      vertex -30.13612937927246 -30.645967483520508 0
    endloop
  endfacet
  facet normal -0.663124168075928 0.7485094105711754 0
    outer loop
      vertex -30.13612937927246 30.645967483520508 0
      vertex -30.497020721435547 30.326244354248047 4
      vertex -30.13612937927246 30.645967483520508 4
    endloop
  endfacet
  facet normal -0.663124168075928 0.7485094105711754 0
    outer loop
      vertex -30.497020721435547 30.326244354248047 4
      vertex -30.13612937927246 30.645967483520508 0
      vertex -30.497020721435547 30.326244354248047 0
    endloop
  endfacet
  facet normal 0.8229817994973584 -0.5680677404113791 0
    outer loop
      vertex 30.497020721435547 -30.326244354248047 4
      vertex 30.770912170410156 -29.929447174072266 0
      vertex 30.770912170410156 -29.929447174072266 4
    endloop
  endfacet
  facet normal 0.8229817994973584 -0.5680677404113791 0
    outer loop
      vertex 30.770912170410156 -29.929447174072266 0
      vertex 30.497020721435547 -30.326244354248047 4
      vertex 30.497020721435547 -30.326244354248047 0
    endloop
  endfacet
  facet normal -0.9927087001223174 0.12053811306578072 0
    outer loop
      vertex -31 29 0
      vertex -30.941883087158203 29.47863006591797 4
      vertex -30.941883087158203 29.47863006591797 0
    endloop
  endfacet
  facet normal -0.9927087001223174 0.12053811306578072 0
    outer loop
      vertex -30.941883087158203 29.47863006591797 4
      vertex -31 29 0
      vertex -31 29 4
    endloop
  endfacet
  facet normal 0.464724656319929 -0.8854552466433997 0
    outer loop
      vertex 29.709209442138672 -30.870033264160156 0
      vertex 30.13612937927246 -30.645967483520508 4
      vertex 29.709209442138672 -30.870033264160156 4
    endloop
  endfacet
  facet normal 0.464724656319929 -0.8854552466433997 0
    outer loop
      vertex 30.13612937927246 -30.645967483520508 4
      vertex 29.709209442138672 -30.870033264160156 0
      vertex 30.13612937927246 -30.645967483520508 0
    endloop
  endfacet
  facet normal 0.2393118090366464 -0.9709427676519393 0
    outer loop
      vertex 29.241073608398438 -30.985416412353516 0
      vertex 29.709209442138672 -30.870033264160156 4
      vertex 29.241073608398438 -30.985416412353516 4
    endloop
  endfacet
  facet normal 0.2393118090366464 -0.9709427676519393 0
    outer loop
      vertex 29.709209442138672 -30.870033264160156 4
      vertex 29.241073608398438 -30.985416412353516 0
      vertex 29.709209442138672 -30.870033264160156 0
    endloop
  endfacet
  facet normal 0 0 -1
    outer loop
      vertex -26.982131958007812 -27.954544067382812 0
      vertex -31 -29 0
      vertex -27.144840240478516 -27.489547729492188 0
    endloop
  endfacet
  facet normal 0 0 -1
    outer loop
      vertex -31 -29 0
      vertex -26.982131958007812 -27.954544067382812 0
      vertex -29.241073608398438 -30.985416412353516 0
    endloop
  endfacet
  facet normal 0 0 -1
    outer loop
      vertex -26.720027923583984 -28.37167739868164 0
      vertex -29.241073608398438 -30.985416412353516 0
      vertex -26.982131958007812 -27.954544067382812 0
    endloop
  endfacet
  facet normal 0 0 -1
    outer loop
      vertex -29.241073608398438 -30.985416412353516 0
      vertex -26.720027923583984 -28.37167739868164 0
      vertex -24.10628890991211 -30.985416412353516 0
    endloop
  endfacet
  facet normal 0 0 -1
    outer loop
      vertex 23.200000762939453 -30.381572723388672 0
      vertex 22.596153259277344 -30.985416412353516 0
      vertex 23.200000762939453 -27.299999237060547 0
    endloop
  endfacet
  facet normal 0 0 -1
    outer loop
      vertex 23.210445404052734 -27.299999237060547 0
      vertex 23.200000762939453 -27.299999237060547 0
      vertex 23.210445404052734 -27.054061889648438 0
    endloop
  endfacet
  facet normal 0 0 -1
    outer loop
      vertex 27.029056549072266 -24.562503814697266 0
      vertex 26.710968017578125 -24.465089797973633 0
      vertex 27.029056549072266 -22.36068344116211 0
    endloop
  endfacet
  facet normal 0 0 -1
    outer loop
      vertex 28.63174057006836 -28.714313507080078 0
      vertex 31 -29 0
      vertex 30.941883087158203 -29.47863006591797 0
    endloop
  endfacet
  facet normal 0 0 -1
    outer loop
      vertex 28.885456085205078 -22.135276794433594 0
      vertex 31 -29 0
      vertex 29 -22.599998474121094 0
    endloop
  endfacet
  facet normal 0 0 -1
    outer loop
      vertex 28.63174057006836 -28.714313507080078 0
      vertex 30.941883087158203 -29.47863006591797 0
      vertex 30.770912170410156 -29.929447174072266 0
    endloop
  endfacet
  facet normal 0 0 -1
    outer loop
      vertex 31 -29 0
      vertex 28.885456085205078 -22.135276794433594 0
      vertex 31 29 0
    endloop
  endfacet
  facet normal 0 0 -1
    outer loop
      vertex 28.63174057006836 -28.714313507080078 0
      vertex 30.770912170410156 -29.929447174072266 0
      vertex 30.497020721435547 -30.326244354248047 0
    endloop
  endfacet
  facet normal 0 0 -1
    outer loop
      vertex 28.568065643310547 -21.777015686035156 0
      vertex 31 29 0
      vertex 28.885456085205078 -22.135276794433594 0
    endloop
  endfacet
  facet normal 0 0 -1
    outer loop
      vertex 28.63174057006836 -28.714313507080078 0
      vertex 30.497020721435547 -30.326244354248047 0
      vertex 30.13612937927246 -30.645967483520508 0
    endloop
  endfacet
  facet normal 0 0 -1
    outer loop
      vertex 28.12053680419922 -21.607290267944336 0
      vertex 31 29 0
      vertex 28.568065643310547 -21.777015686035156 0
    endloop
  endfacet
  facet normal 0 0 -1
    outer loop
      vertex 28.356304168701172 -29.121837615966797 0
      vertex 30.13612937927246 -30.645967483520508 0
      vertex 29.709209442138672 -30.870033264160156 0
    endloop
  endfacet
  facet normal 0 0 -1
    outer loop
      vertex 27.64539337158203 -21.66498374938965 0
      vertex 31 29 0
      vertex 28.12053680419922 -21.607290267944336 0
    endloop
  endfacet
  facet normal 0 0 -1
    outer loop
      vertex 28.356304168701172 -29.121837615966797 0
      vertex 29.709209442138672 -30.870033264160156 0
      vertex 29.241073608398438 -30.985416412353516 0
    endloop
  endfacet
  facet normal 0 0 -1
    outer loop
      vertex 27.251487731933594 -21.936878204345703 0
      vertex 31 29 0
      vertex 27.64539337158203 -21.66498374938965 0
    endloop
  endfacet
  facet normal 0 0 -1
    outer loop
      vertex 31 -29 0
      vertex 29 -27.299999237060547 0
      vertex 29 -22.599998474121094 0
    endloop
  endfacet
  facet normal 0 0 -1
    outer loop
      vertex 31 -29 0
      vertex 28.95828628540039 -27.790102005004883 0
      vertex 29 -27.299999237060547 0
    endloop
  endfacet
  facet normal 0 0 -1
    outer loop
      vertex 31 -29 0
      vertex 28.83434295654297 -28.26610565185547 0
      vertex 28.95828628540039 -27.790102005004883 0
    endloop
  endfacet
  facet normal 0 0 -1
    outer loop
      vertex 31 -29 0
      vertex 28.63174057006836 -28.714313507080078 0
      vertex 28.83434295654297 -28.26610565185547 0
    endloop
  endfacet
  facet normal 0 0 -1
    outer loop
      vertex 30.13612937927246 -30.645967483520508 0
      vertex 28.356304168701172 -29.121837615966797 0
      vertex 28.63174057006836 -28.714313507080078 0
    endloop
  endfacet
  facet normal 0 0 -1
    outer loop
      vertex 28.01595687866211 -29.476947784423828 0
      vertex 29.241073608398438 -30.985416412353516 0
      vertex 28.203845977783203 -30.985416412353516 0
    endloop
  endfacet
  facet normal 0 0 -1
    outer loop
      vertex 29.241073608398438 -30.985416412353516 0
      vertex 28.01595687866211 -29.476947784423828 0
      vertex 28.356304168701172 -29.121837615966797 0
    endloop
  endfacet
  facet normal 0 0 -1
    outer loop
      vertex 27.599998474121094 -30.381572723388672 0
      vertex 28.01595687866211 -29.476947784423828 0
      vertex 28.203845977783203 -30.985416412353516 0
    endloop
  endfacet
  facet normal 0 0 -1
    outer loop
      vertex 28.01595687866211 -29.476947784423828 0
      vertex 27.599998474121094 -30.381572723388672 0
      vertex 27.62049102783203 -29.769433975219727 0
    endloop
  endfacet
  facet normal 0 0 -1
    outer loop
      vertex 27.62049102783203 -29.769433975219727 0
      vertex 27.599998474121094 -30.381572723388672 0
      vertex 27.599998474121094 -29.779766082763672 0
    endloop
  endfacet
  facet normal 0 0 -1
    outer loop
      vertex 29.241073608398438 30.985416412353516 0
      vertex 31 29 0
      vertex 27.251487731933594 -21.936878204345703 0
    endloop
  endfacet
  facet normal 0 0 -1
    outer loop
      vertex 30.941883087158203 29.47863006591797 0
      vertex 29.241073608398438 30.985416412353516 0
      vertex 30.770912170410156 29.929447174072266 0
    endloop
  endfacet
  facet normal 0 0 -1
    outer loop
      vertex 30.770912170410156 29.929447174072266 0
      vertex 29.241073608398438 30.985416412353516 0
      vertex 30.497020721435547 30.326244354248047 0
    endloop
  endfacet
  facet normal 0 0 -1
    outer loop
      vertex 30.497020721435547 30.326244354248047 0
      vertex 29.241073608398438 30.985416412353516 0
      vertex 30.13612937927246 30.645967483520508 0
    endloop
  endfacet
  facet normal 0 0 -1
    outer loop
      vertex 30.13612937927246 30.645967483520508 0
      vertex 29.241073608398438 30.985416412353516 0
      vertex 29.709209442138672 30.870033264160156 0
    endloop
  endfacet
  facet normal 0 0 -1
    outer loop
      vertex 31 29 0
      vertex 29.241073608398438 30.985416412353516 0
      vertex 30.941883087158203 29.47863006591797 0
    endloop
  endfacet
  facet normal 0 0 -1
    outer loop
      vertex 24.794408798217773 -24.710514068603516 0
      vertex 27.251487731933594 -21.936878204345703 0
      vertex 27.029056549072266 -22.36068344116211 0
    endloop
  endfacet
  facet normal 0 0 -1
    outer loop
      vertex 26.223079681396484 -24.402612686157227 0
      vertex 27.029056549072266 -22.36068344116211 0
      vertex 26.710968017578125 -24.465089797973633 0
    endloop
  endfacet
  facet normal 0 0 -1
    outer loop
      vertex 25.731647491455078 -24.42348861694336 0
      vertex 27.029056549072266 -22.36068344116211 0
      vertex 26.223079681396484 -24.402612686157227 0
    endloop
  endfacet
  facet normal 0 0 -1
    outer loop
      vertex 25.250812530517578 -24.527114868164062 0
      vertex 27.029056549072266 -22.36068344116211 0
      vertex 25.731647491455078 -24.42348861694336 0
    endloop
  endfacet
  facet normal 0 0 -1
    outer loop
      vertex 24.794408798217773 -24.710514068603516 0
      vertex 27.029056549072266 -22.36068344116211 0
      vertex 25.250812530517578 -24.527114868164062 0
    endloop
  endfacet
  facet normal 0 0 -1
    outer loop
      vertex 27.251487731933594 -21.936878204345703 0
      vertex 24.794408798217773 -24.710514068603516 0
      vertex 24.375564575195312 -24.968406677246094 0
    endloop
  endfacet
  facet normal 0 0 -1
    outer loop
      vertex 24.00632667541504 -25.293376922607422 0
      vertex 27.251487731933594 -21.936878204345703 0
      vertex 24.375564575195312 -24.968406677246094 0
    endloop
  endfacet
  facet normal 0 0 -1
    outer loop
      vertex 27.251487731933594 -21.936878204345703 0
      vertex 24.00632667541504 -25.293376922607422 0
      vertex -23.62832260131836 -25.279972076416016 0
    endloop
  endfacet
  facet normal 0 0 -1
    outer loop
      vertex -23.62832260131836 -25.279972076416016 0
      vertex 24.00632667541504 -25.293376922607422 0
      vertex 23.697322845458984 -25.67607307434082 0
    endloop
  endfacet
  facet normal 0 0 -1
    outer loop
      vertex -17.922874450683594 -30.985416412353516 0
      vertex 23.697322845458984 -25.67607307434082 0
      vertex 23.457435607910156 -26.105485916137695 0
    endloop
  endfacet
  facet normal 0 0 -1
    outer loop
      vertex -17.922874450683594 -30.985416412353516 0
      vertex 23.457435607910156 -26.105485916137695 0
      vertex 23.293575286865234 -26.569263458251953 0
    endloop
  endfacet
  facet normal 0 0 -1
    outer loop
      vertex -17.922874450683594 -30.985416412353516 0
      vertex 23.293575286865234 -26.569263458251953 0
      vertex 23.210445404052734 -27.054061889648438 0
    endloop
  endfacet
  facet normal 0 0 -1
    outer loop
      vertex 22.596153259277344 -30.985416412353516 0
      vertex 23.210445404052734 -27.054061889648438 0
      vertex 23.200000762939453 -27.299999237060547 0
    endloop
  endfacet
  facet normal 0 0 -1
    outer loop
      vertex -17.922874450683594 -30.985416412353516 0
      vertex 23.210445404052734 -27.054061889648438 0
      vertex 22.596153259277344 -30.985416412353516 0
    endloop
  endfacet
  facet normal 0 0 -1
    outer loop
      vertex 23.697322845458984 -25.67607307434082 0
      vertex -17.922874450683594 -30.985416412353516 0
      vertex -23.62832260131836 -25.279972076416016 0
    endloop
  endfacet
  facet normal 0 0 -1
    outer loop
      vertex 27.251487731933594 -21.936878204345703 0
      vertex -23.62832260131836 -25.279972076416016 0
      vertex 29.241073608398438 30.985416412353516 0
    endloop
  endfacet
  facet normal 0 0 -1
    outer loop
      vertex -31 29 0
      vertex -23.62832260131836 -25.279972076416016 0
      vertex -24.045455932617188 -25.017868041992188 0
    endloop
  endfacet
  facet normal 0 0 -1
    outer loop
      vertex -31 29 0
      vertex -24.045455932617188 -25.017868041992188 0
      vertex -24.510452270507812 -24.855159759521484 0
    endloop
  endfacet
  facet normal 0 0 -1
    outer loop
      vertex -31 29 0
      vertex -24.510452270507812 -24.855159759521484 0
      vertex -25 -24.799999237060547 0
    endloop
  endfacet
  facet normal 0 0 -1
    outer loop
      vertex -31 29 0
      vertex -25 -24.799999237060547 0
      vertex -25.489545822143555 -24.855159759521484 0
    endloop
  endfacet
  facet normal 0 0 -1
    outer loop
      vertex -31 29 0
      vertex -25.489545822143555 -24.855159759521484 0
      vertex -25.954544067382812 -25.017868041992188 0
    endloop
  endfacet
  facet normal 0 0 -1
    outer loop
      vertex -31 29 0
      vertex -25.954544067382812 -25.017868041992188 0
      vertex -26.37167739868164 -25.279972076416016 0
    endloop
  endfacet
  facet normal 0 0 -1
    outer loop
      vertex -31 -29 0
      vertex -26.37167739868164 -25.279972076416016 0
      vertex -26.720027923583984 -25.62832260131836 0
    endloop
  endfacet
  facet normal 0 0 -1
    outer loop
      vertex -27.144840240478516 -27.489547729492188 0
      vertex -31 -29 0
      vertex -27.200000762939453 -27 0
    endloop
  endfacet
  facet normal 0 0 -1
    outer loop
      vertex -27.200000762939453 -27 0
      vertex -31 -29 0
      vertex -27.144840240478516 -26.510454177856445 0
    endloop
  endfacet
  facet normal 0 0 -1
    outer loop
      vertex -23.62832260131836 -25.279972076416016 0
      vertex -29.241073608398438 30.985416412353516 0
      vertex 29.241073608398438 30.985416412353516 0
    endloop
  endfacet
  facet normal 0 0 -1
    outer loop
      vertex -31 -29 0
      vertex -26.720027923583984 -25.62832260131836 0
      vertex -26.982131958007812 -26.045455932617188 0
    endloop
  endfacet
  facet normal 0 0 -1
    outer loop
      vertex -27.144840240478516 -26.510454177856445 0
      vertex -31 -29 0
      vertex -26.982131958007812 -26.045455932617188 0
    endloop
  endfacet
  facet normal 0 0 -1
    outer loop
      vertex -31 -29 0
      vertex -29.241073608398438 -30.985416412353516 0
      vertex -29.709209442138672 -30.870033264160156 0
    endloop
  endfacet
  facet normal 0 0 -1
    outer loop
      vertex -26.37167739868164 -25.279972076416016 0
      vertex -31 -29 0
      vertex -31 29 0
    endloop
  endfacet
  facet normal 0 0 -1
    outer loop
      vertex -31 -29 0
      vertex -29.709209442138672 -30.870033264160156 0
      vertex -30.13612937927246 -30.645967483520508 0
    endloop
  endfacet
  facet normal 0 0 -1
    outer loop
      vertex -23.62832260131836 -25.279972076416016 0
      vertex -31 29 0
      vertex -29.241073608398438 30.985416412353516 0
    endloop
  endfacet
  facet normal 0 0 -1
    outer loop
      vertex -31 -29 0
      vertex -30.13612937927246 -30.645967483520508 0
      vertex -30.497020721435547 -30.326244354248047 0
    endloop
  endfacet
  facet normal 0 0 -1
    outer loop
      vertex -29.241073608398438 30.985416412353516 0
      vertex -31 29 0
      vertex -29.709209442138672 30.870033264160156 0
    endloop
  endfacet
  facet normal 0 0 -1
    outer loop
      vertex -31 -29 0
      vertex -30.497020721435547 -30.326244354248047 0
      vertex -30.770912170410156 -29.929447174072266 0
    endloop
  endfacet
  facet normal 0 0 -1
    outer loop
      vertex -29.709209442138672 30.870033264160156 0
      vertex -31 29 0
      vertex -30.13612937927246 30.645967483520508 0
    endloop
  endfacet
  facet normal 0 0 -1
    outer loop
      vertex -31 -29 0
      vertex -30.770912170410156 -29.929447174072266 0
      vertex -30.941883087158203 -29.47863006591797 0
    endloop
  endfacet
  facet normal 0 0 -1
    outer loop
      vertex -30.13612937927246 30.645967483520508 0
      vertex -31 29 0
      vertex -30.497020721435547 30.326244354248047 0
    endloop
  endfacet
  facet normal 0 0 -1
    outer loop
      vertex -30.497020721435547 30.326244354248047 0
      vertex -31 29 0
      vertex -30.770912170410156 29.929447174072266 0
    endloop
  endfacet
  facet normal 0 0 -1
    outer loop
      vertex -30.770912170410156 29.929447174072266 0
      vertex -31 29 0
      vertex -30.941883087158203 29.47863006591797 0
    endloop
  endfacet
  facet normal -0.9350172469839487 0.35460223891362763 0
    outer loop
      vertex -30.941883087158203 29.47863006591797 0
      vertex -30.770912170410156 29.929447174072266 4
      vertex -30.770912170410156 29.929447174072266 0
    endloop
  endfacet
  facet normal -0.9350172469839487 0.35460223891362763 0
    outer loop
      vertex -30.770912170410156 29.929447174072266 4
      vertex -30.941883087158203 29.47863006591797 0
      vertex -30.941883087158203 29.47863006591797 4
    endloop
  endfacet
  facet normal 0.464724656319929 0.8854552466433997 0
    outer loop
      vertex 30.13612937927246 30.645967483520508 0
      vertex 29.709209442138672 30.870033264160156 4
      vertex 30.13612937927246 30.645967483520508 4
    endloop
  endfacet
  facet normal 0.464724656319929 0.8854552466433997 0
    outer loop
      vertex 29.709209442138672 30.870033264160156 4
      vertex 30.13612937927246 30.645967483520508 0
      vertex 29.709209442138672 30.870033264160156 0
    endloop
  endfacet
  facet normal 0.9927087001223174 0.12053811306578072 0
    outer loop
      vertex 31 29 4
      vertex 30.941883087158203 29.47863006591797 0
      vertex 30.941883087158203 29.47863006591797 4
    endloop
  endfacet
  facet normal 0.9927087001223174 0.12053811306578072 0
    outer loop
      vertex 30.941883087158203 29.47863006591797 0
      vertex 31 29 4
      vertex 31 29 0
    endloop
  endfacet
  facet normal 0 0 1
    outer loop
      vertex 29.241073608398438 30.985416412353516 4
      vertex 31 29 4
      vertex 30.941883087158203 29.47863006591797 4
    endloop
  endfacet
  facet normal 0 0 1
    outer loop
      vertex 31 29 4
      vertex 28.885456085205078 -22.135276794433594 4
      vertex 31 -29 4
    endloop
  endfacet
  facet normal 0 0 1
    outer loop
      vertex 29.241073608398438 30.985416412353516 4
      vertex 30.941883087158203 29.47863006591797 4
      vertex 30.770912170410156 29.929447174072266 4
    endloop
  endfacet
  facet normal 0 0 1
    outer loop
      vertex 29 -27.299999237060547 4
      vertex 31 -29 4
      vertex 29 -22.599998474121094 4
    endloop
  endfacet
  facet normal 0 0 1
    outer loop
      vertex 29.241073608398438 30.985416412353516 4
      vertex 30.770912170410156 29.929447174072266 4
      vertex 30.497020721435547 30.326244354248047 4
    endloop
  endfacet
  facet normal 0 0 1
    outer loop
      vertex 28.95828628540039 -27.790102005004883 4
      vertex 31 -29 4
      vertex 29 -27.299999237060547 4
    endloop
  endfacet
  facet normal 0 0 1
    outer loop
      vertex 29.241073608398438 30.985416412353516 4
      vertex 30.497020721435547 30.326244354248047 4
      vertex 30.13612937927246 30.645967483520508 4
    endloop
  endfacet
  facet normal 0 0 1
    outer loop
      vertex 28.83434295654297 -28.26610565185547 4
      vertex 31 -29 4
      vertex 28.95828628540039 -27.790102005004883 4
    endloop
  endfacet
  facet normal 0 0 1
    outer loop
      vertex 29.241073608398438 30.985416412353516 4
      vertex 30.13612937927246 30.645967483520508 4
      vertex 29.709209442138672 30.870033264160156 4
    endloop
  endfacet
  facet normal 0 0 1
    outer loop
      vertex 28.63174057006836 -28.714313507080078 4
      vertex 31 -29 4
      vertex 28.83434295654297 -28.26610565185547 4
    endloop
  endfacet
  facet normal 0 0 1
    outer loop
      vertex 31 29 4
      vertex 29.241073608398438 30.985416412353516 4
      vertex 27.251487731933594 -21.936878204345703 4
    endloop
  endfacet
  facet normal 0 0 1
    outer loop
      vertex 31 -29 4
      vertex 28.63174057006836 -28.714313507080078 4
      vertex 30.941883087158203 -29.47863006591797 4
    endloop
  endfacet
  facet normal 0 0 1
    outer loop
      vertex 30.941883087158203 -29.47863006591797 4
      vertex 28.63174057006836 -28.714313507080078 4
      vertex 30.770912170410156 -29.929447174072266 4
    endloop
  endfacet
  facet normal 0 0 1
    outer loop
      vertex 31 -29 4
      vertex 28.885456085205078 -22.135276794433594 4
      vertex 29 -22.599998474121094 4
    endloop
  endfacet
  facet normal 0 0 1
    outer loop
      vertex 31 29 4
      vertex 28.568065643310547 -21.777015686035156 4
      vertex 28.885456085205078 -22.135276794433594 4
    endloop
  endfacet
  facet normal 0 0 1
    outer loop
      vertex 31 29 4
      vertex 28.12053680419922 -21.607290267944336 4
      vertex 28.568065643310547 -21.777015686035156 4
    endloop
  endfacet
  facet normal 0 0 1
    outer loop
      vertex 31 29 4
      vertex 27.64539337158203 -21.66498374938965 4
      vertex 28.12053680419922 -21.607290267944336 4
    endloop
  endfacet
  facet normal 0 0 1
    outer loop
      vertex 31 29 4
      vertex 27.251487731933594 -21.936878204345703 4
      vertex 27.64539337158203 -21.66498374938965 4
    endloop
  endfacet
  facet normal 0 0 1
    outer loop
      vertex -23.62832260131836 -25.279972076416016 4
      vertex 27.251487731933594 -21.936878204345703 4
      vertex 29.241073608398438 30.985416412353516 4
    endloop
  endfacet
  facet normal 0 0 1
    outer loop
      vertex 27.029056549072266 -22.36068344116211 4
      vertex 26.710968017578125 -24.465089797973633 4
      vertex 27.029056549072266 -24.562503814697266 4
    endloop
  endfacet
  facet normal 0 0 1
    outer loop
      vertex 24.00632667541504 -25.293376922607422 4
      vertex 27.251487731933594 -21.936878204345703 4
      vertex -23.62832260131836 -25.279972076416016 4
    endloop
  endfacet
  facet normal 0 0 1
    outer loop
      vertex 27.029056549072266 -22.36068344116211 4
      vertex 26.223079681396484 -24.402612686157227 4
      vertex 26.710968017578125 -24.465089797973633 4
    endloop
  endfacet
  facet normal 0 0 1
    outer loop
      vertex 27.029056549072266 -22.36068344116211 4
      vertex 25.731647491455078 -24.42348861694336 4
      vertex 26.223079681396484 -24.402612686157227 4
    endloop
  endfacet
  facet normal 0 0 1
    outer loop
      vertex 27.029056549072266 -22.36068344116211 4
      vertex 25.250812530517578 -24.527114868164062 4
      vertex 25.731647491455078 -24.42348861694336 4
    endloop
  endfacet
  facet normal 0 0 1
    outer loop
      vertex 27.029056549072266 -22.36068344116211 4
      vertex 24.794408798217773 -24.710514068603516 4
      vertex 25.250812530517578 -24.527114868164062 4
    endloop
  endfacet
  facet normal 0 0 1
    outer loop
      vertex 27.251487731933594 -21.936878204345703 4
      vertex 24.794408798217773 -24.710514068603516 4
      vertex 27.029056549072266 -22.36068344116211 4
    endloop
  endfacet
  facet normal 0 0 1
    outer loop
      vertex 24.794408798217773 -24.710514068603516 4
      vertex 27.251487731933594 -21.936878204345703 4
      vertex 24.375564575195312 -24.968406677246094 4
    endloop
  endfacet
  facet normal 0 0 1
    outer loop
      vertex 27.251487731933594 -21.936878204345703 4
      vertex 24.00632667541504 -25.293376922607422 4
      vertex 24.375564575195312 -24.968406677246094 4
    endloop
  endfacet
  facet normal 0 0 1
    outer loop
      vertex 24.00632667541504 -25.293376922607422 4
      vertex -23.62832260131836 -25.279972076416016 4
      vertex 23.697322845458984 -25.67607307434082 4
    endloop
  endfacet
  facet normal 0 0 1
    outer loop
      vertex -17.922874450683594 -30.985416412353516 4
      vertex 23.697322845458984 -25.67607307434082 4
      vertex -23.62832260131836 -25.279972076416016 4
    endloop
  endfacet
  facet normal 0 0 1
    outer loop
      vertex 23.697322845458984 -25.67607307434082 4
      vertex -17.922874450683594 -30.985416412353516 4
      vertex 23.457435607910156 -26.105485916137695 4
    endloop
  endfacet
  facet normal 0 0 1
    outer loop
      vertex 23.210445404052734 -27.054061889648438 4
      vertex 23.200000762939453 -27.299999237060547 4
      vertex 23.210445404052734 -27.299999237060547 4
    endloop
  endfacet
  facet normal 0 0 1
    outer loop
      vertex 23.200000762939453 -27.299999237060547 4
      vertex 22.596153259277344 -30.985416412353516 4
      vertex 23.200000762939453 -30.381572723388672 4
    endloop
  endfacet
  facet normal 0 0 1
    outer loop
      vertex 23.210445404052734 -27.054061889648438 4
      vertex 22.596153259277344 -30.985416412353516 4
      vertex 23.200000762939453 -27.299999237060547 4
    endloop
  endfacet
  facet normal 0 0 1
    outer loop
      vertex 23.457435607910156 -26.105485916137695 4
      vertex -17.922874450683594 -30.985416412353516 4
      vertex 23.293575286865234 -26.569263458251953 4
    endloop
  endfacet
  facet normal 0 0 1
    outer loop
      vertex 23.293575286865234 -26.569263458251953 4
      vertex -17.922874450683594 -30.985416412353516 4
      vertex 23.210445404052734 -27.054061889648438 4
    endloop
  endfacet
  facet normal 0 0 1
    outer loop
      vertex 23.210445404052734 -27.054061889648438 4
      vertex -17.922874450683594 -30.985416412353516 4
      vertex 22.596153259277344 -30.985416412353516 4
    endloop
  endfacet
  facet normal 0 0 1
    outer loop
      vertex -29.241073608398438 30.985416412353516 4
      vertex -23.62832260131836 -25.279972076416016 4
      vertex 29.241073608398438 30.985416412353516 4
    endloop
  endfacet
  facet normal 0 0 1
    outer loop
      vertex -31 29 4
      vertex -23.62832260131836 -25.279972076416016 4
      vertex -29.241073608398438 30.985416412353516 4
    endloop
  endfacet
  facet normal 0 0 1
    outer loop
      vertex -23.62832260131836 -25.279972076416016 4
      vertex -31 29 4
      vertex -24.045455932617188 -25.017868041992188 4
    endloop
  endfacet
  facet normal 0 0 1
    outer loop
      vertex -24.045455932617188 -25.017868041992188 4
      vertex -31 29 4
      vertex -24.510452270507812 -24.855159759521484 4
    endloop
  endfacet
  facet normal 0 0 1
    outer loop
      vertex -24.510452270507812 -24.855159759521484 4
      vertex -31 29 4
      vertex -25 -24.799999237060547 4
    endloop
  endfacet
  facet normal 0 0 1
    outer loop
      vertex -25 -24.799999237060547 4
      vertex -31 29 4
      vertex -25.489545822143555 -24.855159759521484 4
    endloop
  endfacet
  facet normal 0 0 1
    outer loop
      vertex -25.489545822143555 -24.855159759521484 4
      vertex -31 29 4
      vertex -25.954544067382812 -25.017868041992188 4
    endloop
  endfacet
  facet normal 0 0 1
    outer loop
      vertex -26.720027923583984 -25.62832260131836 4
      vertex -31 -29 4
      vertex -26.982131958007812 -26.045455932617188 4
    endloop
  endfacet
  facet normal 0 0 1
    outer loop
      vertex -26.37167739868164 -25.279972076416016 4
      vertex -31 -29 4
      vertex -26.720027923583984 -25.62832260131836 4
    endloop
  endfacet
  facet normal 0 0 1
    outer loop
      vertex -31 -29 4
      vertex -26.37167739868164 -25.279972076416016 4
      vertex -31 29 4
    endloop
  endfacet
  facet normal 0 0 1
    outer loop
      vertex -25.954544067382812 -25.017868041992188 4
      vertex -31 29 4
      vertex -26.37167739868164 -25.279972076416016 4
    endloop
  endfacet
  facet normal 0 0 1
    outer loop
      vertex 30.770912170410156 -29.929447174072266 4
      vertex 28.63174057006836 -28.714313507080078 4
      vertex 30.497020721435547 -30.326244354248047 4
    endloop
  endfacet
  facet normal 0 0 1
    outer loop
      vertex 30.497020721435547 -30.326244354248047 4
      vertex 28.63174057006836 -28.714313507080078 4
      vertex 30.13612937927246 -30.645967483520508 4
    endloop
  endfacet
  facet normal 0 0 1
    outer loop
      vertex 28.356304168701172 -29.121837615966797 4
      vertex 30.13612937927246 -30.645967483520508 4
      vertex 28.63174057006836 -28.714313507080078 4
    endloop
  endfacet
  facet normal 0 0 1
    outer loop
      vertex 30.13612937927246 -30.645967483520508 4
      vertex 28.356304168701172 -29.121837615966797 4
      vertex 29.709209442138672 -30.870033264160156 4
    endloop
  endfacet
  facet normal 0 0 1
    outer loop
      vertex 29.709209442138672 -30.870033264160156 4
      vertex 28.356304168701172 -29.121837615966797 4
      vertex 29.241073608398438 -30.985416412353516 4
    endloop
  endfacet
  facet normal 0 0 1
    outer loop
      vertex 28.01595687866211 -29.476947784423828 4
      vertex 29.241073608398438 -30.985416412353516 4
      vertex 28.356304168701172 -29.121837615966797 4
    endloop
  endfacet
  facet normal 0 0 1
    outer loop
      vertex 29.241073608398438 -30.985416412353516 4
      vertex 28.01595687866211 -29.476947784423828 4
      vertex 28.203845977783203 -30.985416412353516 4
    endloop
  endfacet
  facet normal 0 0 1
    outer loop
      vertex 27.599998474121094 -30.381572723388672 4
      vertex 28.01595687866211 -29.476947784423828 4
      vertex 27.62049102783203 -29.769433975219727 4
    endloop
  endfacet
  facet normal 0 0 1
    outer loop
      vertex 27.599998474121094 -30.381572723388672 4
      vertex 27.62049102783203 -29.769433975219727 4
      vertex 27.599998474121094 -29.779766082763672 4
    endloop
  endfacet
  facet normal 0 0 1
    outer loop
      vertex 28.01595687866211 -29.476947784423828 4
      vertex 27.599998474121094 -30.381572723388672 4
      vertex 28.203845977783203 -30.985416412353516 4
    endloop
  endfacet
  facet normal 0 0 1
    outer loop
      vertex -26.720027923583984 -28.37167739868164 4
      vertex -29.241073608398438 -30.985416412353516 4
      vertex -24.10628890991211 -30.985416412353516 4
    endloop
  endfacet
  facet normal 0 0 1
    outer loop
      vertex -26.982131958007812 -27.954544067382812 4
      vertex -29.241073608398438 -30.985416412353516 4
      vertex -26.720027923583984 -28.37167739868164 4
    endloop
  endfacet
  facet normal 0 0 1
    outer loop
      vertex -31 -29 4
      vertex -26.982131958007812 -27.954544067382812 4
      vertex -27.144840240478516 -27.489547729492188 4
    endloop
  endfacet
  facet normal 0 0 1
    outer loop
      vertex -31 -29 4
      vertex -27.144840240478516 -27.489547729492188 4
      vertex -27.200000762939453 -27 4
    endloop
  endfacet
  facet normal 0 0 1
    outer loop
      vertex -26.982131958007812 -26.045455932617188 4
      vertex -31 -29 4
      vertex -27.144840240478516 -26.510454177856445 4
    endloop
  endfacet
  facet normal 0 0 1
    outer loop
      vertex -31 29 4
      vertex -29.241073608398438 30.985416412353516 4
      vertex -29.709209442138672 30.870033264160156 4
    endloop
  endfacet
  facet normal 0 0 1
    outer loop
      vertex -27.144840240478516 -26.510454177856445 4
      vertex -31 -29 4
      vertex -27.200000762939453 -27 4
    endloop
  endfacet
  facet normal 0 0 1
    outer loop
      vertex -31 29 4
      vertex -29.709209442138672 30.870033264160156 4
      vertex -30.13612937927246 30.645967483520508 4
    endloop
  endfacet
  facet normal 0 0 1
    outer loop
      vertex -26.982131958007812 -27.954544067382812 4
      vertex -31 -29 4
      vertex -29.241073608398438 -30.985416412353516 4
    endloop
  endfacet
  facet normal 0 0 1
    outer loop
      vertex -31 29 4
      vertex -30.13612937927246 30.645967483520508 4
      vertex -30.497020721435547 30.326244354248047 4
    endloop
  endfacet
  facet normal 0 0 1
    outer loop
      vertex -29.241073608398438 -30.985416412353516 4
      vertex -31 -29 4
      vertex -29.709209442138672 -30.870033264160156 4
    endloop
  endfacet
  facet normal 0 0 1
    outer loop
      vertex -31 29 4
      vertex -30.497020721435547 30.326244354248047 4
      vertex -30.770912170410156 29.929447174072266 4
    endloop
  endfacet
  facet normal 0 0 1
    outer loop
      vertex -29.709209442138672 -30.870033264160156 4
      vertex -31 -29 4
      vertex -30.13612937927246 -30.645967483520508 4
    endloop
  endfacet
  facet normal 0 0 1
    outer loop
      vertex -31 29 4
      vertex -30.770912170410156 29.929447174072266 4
      vertex -30.941883087158203 29.47863006591797 4
    endloop
  endfacet
  facet normal 0 0 1
    outer loop
      vertex -30.13612937927246 -30.645967483520508 4
      vertex -31 -29 4
      vertex -30.497020721435547 -30.326244354248047 4
    endloop
  endfacet
  facet normal 0 0 1
    outer loop
      vertex -30.497020721435547 -30.326244354248047 4
      vertex -31 -29 4
      vertex -30.770912170410156 -29.929447174072266 4
    endloop
  endfacet
  facet normal 0 0 1
    outer loop
      vertex -30.770912170410156 -29.929447174072266 4
      vertex -31 -29 4
      vertex -30.941883087158203 -29.47863006591797 4
    endloop
  endfacet
  facet normal 0.2393118090366464 0.9709427676519393 0
    outer loop
      vertex 29.709209442138672 30.870033264160156 0
      vertex 29.241073608398438 30.985416412353516 4
      vertex 29.709209442138672 30.870033264160156 4
    endloop
  endfacet
  facet normal 0.2393118090366464 0.9709427676519393 0
    outer loop
      vertex 29.241073608398438 30.985416412353516 4
      vertex 29.709209442138672 30.870033264160156 0
      vertex 29.241073608398438 30.985416412353516 0
    endloop
  endfacet
  facet normal -0.8229817994973584 0.5680677404113791 0
    outer loop
      vertex -30.770912170410156 29.929447174072266 0
      vertex -30.497020721435547 30.326244354248047 4
      vertex -30.497020721435547 30.326244354248047 0
    endloop
  endfacet
  facet normal -0.8229817994973584 0.5680677404113791 0
    outer loop
      vertex -30.497020721435547 30.326244354248047 4
      vertex -30.770912170410156 29.929447174072266 0
      vertex -30.770912170410156 29.929447174072266 4
    endloop
  endfacet
endsolid OpenSCAD_Model
