solid OpenSCAD_Model
  facet normal 0.8951625041086807 0.4457399367769016 0
    outer loop
      vertex 28.61767578125 4.675353050231934 120
      vertex 28.395586013793945 5.121367454528809 0
      vertex 28.395586013793945 5.121367454528809 120
    endloop
  endfacet
  facet normal 0.8951625041086807 0.4457399367769016 0
    outer loop
      vertex 28.395586013793945 5.121367454528809 0
      vertex 28.61767578125 4.675353050231934 120
      vertex 28.61767578125 4.675353050231934 0
    endloop
  endfacet
  facet normal -0.6736956328843713 0.7390089270316877 0
    outer loop
      vertex 24.472885131835938 5.854646682739258 0
      vertex 24.10467529296875 5.518979072570801 120
      vertex 24.472885131835938 5.854646682739258 120
    endloop
  endfacet
  facet normal -0.6736956328843713 0.7390089270316877 0
    outer loop
      vertex 24.10467529296875 5.518979072570801 120
      vertex 24.472885131835938 5.854646682739258 0
      vertex 24.10467529296875 5.518979072570801 0
    endloop
  endfacet
  facet normal 0.9957344857978715 0.09226501933478642 0
    outer loop
      vertex 28.799999237060547 3.700000762939453 120
      vertex 28.7540283203125 4.196124076843262 0
      vertex 28.7540283203125 4.196124076843262 120
    endloop
  endfacet
  facet normal 0.9957344857978715 0.09226501933478642 0
    outer loop
      vertex 28.7540283203125 4.196124076843262 0
      vertex 28.799999237060547 3.700000762939453 120
      vertex 28.799999237060547 3.700000762939453 0
    endloop
  endfacet
  facet normal 0.961825569136583 0.273663250282328 0
    outer loop
      vertex 28.7540283203125 4.196124076843262 120
      vertex 28.61767578125 4.675353050231934 0
      vertex 28.61767578125 4.675353050231934 120
    endloop
  endfacet
  facet normal 0.961825569136583 0.273663250282328 0
    outer loop
      vertex 28.61767578125 4.675353050231934 0
      vertex 28.7540283203125 4.196124076843262 120
      vertex 28.7540283203125 4.196124076843262 0
    endloop
  endfacet
  facet normal -0.961825569136583 0.273663250282328 0
    outer loop
      vertex 23.445972442626953 4.196124076843262 0
      vertex 23.582324981689453 4.675353050231934 120
      vertex 23.582324981689453 4.675353050231934 0
    endloop
  endfacet
  facet normal -0.961825569136583 0.273663250282328 0
    outer loop
      vertex 23.582324981689453 4.675353050231934 120
      vertex 23.445972442626953 4.196124076843262 0
      vertex 23.445972442626953 4.196124076843262 120
    endloop
  endfacet
  facet normal 0.961825569136583 -0.273663250282328 0
    outer loop
      vertex 28.61767578125 2.7246475219726562 120
      vertex 28.7540283203125 3.203876495361328 0
      vertex 28.7540283203125 3.203876495361328 120
    endloop
  endfacet
  facet normal 0.961825569136583 -0.273663250282328 0
    outer loop
      vertex 28.7540283203125 3.203876495361328 0
      vertex 28.61767578125 2.7246475219726562 120
      vertex 28.61767578125 2.7246475219726562 0
    endloop
  endfacet
  facet normal -0.9957341340970361 0.09226881485109602 0
    outer loop
      vertex 23.399999618530273 3.700000762939453 0
      vertex 23.445972442626953 4.196124076843262 120
      vertex 23.445972442626953 4.196124076843262 0
    endloop
  endfacet
  facet normal -0.9957341340970361 0.09226881485109602 0
    outer loop
      vertex 23.445972442626953 4.196124076843262 120
      vertex 23.399999618530273 3.700000762939453 0
      vertex 23.399999618530273 3.700000762939453 120
    endloop
  endfacet
  facet normal 0.9957345020918414 -0.09226484348825723 0
    outer loop
      vertex 28.7540283203125 3.203876495361328 120
      vertex 28.799999237060547 3.700000762939453 0
      vertex 28.799999237060547 3.700000762939453 120
    endloop
  endfacet
  facet normal 0.9957345020918414 -0.09226484348825723 0
    outer loop
      vertex 28.799999237060547 3.700000762939453 0
      vertex 28.7540283203125 3.203876495361328 120
      vertex 28.7540283203125 3.203876495361328 0
    endloop
  endfacet
  facet normal 0.8951621238165883 -0.4457407005021809 0
    outer loop
      vertex 28.395586013793945 2.2786340713500977 120
      vertex 28.61767578125 2.7246475219726562 0
      vertex 28.61767578125 2.7246475219726562 120
    endloop
  endfacet
  facet normal 0.8951621238165883 -0.4457407005021809 0
    outer loop
      vertex 28.61767578125 2.7246475219726562 0
      vertex 28.395586013793945 2.2786340713500977 120
      vertex 28.395586013793945 2.2786340713500977 0
    endloop
  endfacet
  facet normal -0.361240936789117 0.9324725119743322 0
    outer loop
      vertex 25.36111068725586 6.296929359436035 0
      vertex 24.896507263183594 6.116941452026367 120
      vertex 25.36111068725586 6.296929359436035 120
    endloop
  endfacet
  facet normal -0.361240936789117 0.9324725119743322 0
    outer loop
      vertex 24.896507263183594 6.116941452026367 120
      vertex 25.36111068725586 6.296929359436035 0
      vertex 24.896507263183594 6.116941452026367 0
    endloop
  endfacet
  facet normal 0.7980171355010925 0.6026347579144692 0
    outer loop
      vertex 28.395586013793945 5.121367454528809 120
      vertex 28.09532356262207 5.518979072570801 0
      vertex 28.09532356262207 5.518979072570801 120
    endloop
  endfacet
  facet normal 0.7980171355010925 0.6026347579144692 0
    outer loop
      vertex 28.09532356262207 5.518979072570801 0
      vertex 28.395586013793945 5.121367454528809 120
      vertex 28.395586013793945 5.121367454528809 0
    endloop
  endfacet
  facet normal 0.673694772328431 -0.7390097115311431 0
    outer loop
      vertex 27.72711181640625 1.545353889465332 0
      vertex 28.09532356262207 1.8810224533081055 120
      vertex 27.72711181640625 1.545353889465332 120
    endloop
  endfacet
  facet normal 0.673694772328431 -0.7390097115311431 0
    outer loop
      vertex 28.09532356262207 1.8810224533081055 120
      vertex 27.72711181640625 1.545353889465332 0
      vertex 28.09532356262207 1.8810224533081055 0
    endloop
  endfacet
  facet normal 0.5264344528888685 -0.8502157178102494 0
    outer loop
      vertex 27.399999618530273 1.3428133726119995 0
      vertex 27.72711181640625 1.545353889465332 120
      vertex 27.399999618530273 1.3428133726119995 120
    endloop
  endfacet
  facet normal 0.5264344528888685 -0.8502157178102494 0
    outer loop
      vertex 27.72711181640625 1.545353889465332 120
      vertex 27.399999618530273 1.3428133726119995 0
      vertex 27.72711181640625 1.545353889465332 0
    endloop
  endfacet
  facet normal 0.6736937269976838 0.7390106644724218 0
    outer loop
      vertex 28.09532356262207 5.518979072570801 0
      vertex 27.72711181640625 5.854646682739258 120
      vertex 28.09532356262207 5.518979072570801 120
    endloop
  endfacet
  facet normal 0.6736937269976838 0.7390106644724218 0
    outer loop
      vertex 27.72711181640625 5.854646682739258 120
      vertex 28.09532356262207 5.518979072570801 0
      vertex 27.72711181640625 5.854646682739258 0
    endloop
  endfacet
  facet normal 0.7980171355010925 -0.6026347579144692 0
    outer loop
      vertex 28.09532356262207 1.8810224533081055 120
      vertex 28.395586013793945 2.2786340713500977 0
      vertex 28.395586013793945 2.2786340713500977 120
    endloop
  endfacet
  facet normal 0.7980171355010925 -0.6026347579144692 0
    outer loop
      vertex 28.395586013793945 2.2786340713500977 0
      vertex 28.09532356262207 1.8810224533081055 120
      vertex 28.09532356262207 1.8810224533081055 0
    endloop
  endfacet
  facet normal -0.18375089724932767 0.9829728418222281 0
    outer loop
      vertex 25.850875854492188 6.388483047485352 0
      vertex 25.36111068725586 6.296929359436035 120
      vertex 25.850875854492188 6.388483047485352 120
    endloop
  endfacet
  facet normal -0.18375089724932767 0.9829728418222281 0
    outer loop
      vertex 25.36111068725586 6.296929359436035 120
      vertex 25.850875854492188 6.388483047485352 0
      vertex 25.36111068725586 6.296929359436035 0
    endloop
  endfacet
  facet normal 0.526434211922751 0.8502158670110033 0
    outer loop
      vertex 27.72711181640625 5.854646682739258 0
      vertex 27.30349349975586 6.116941452026367 120
      vertex 27.72711181640625 5.854646682739258 120
    endloop
  endfacet
  facet normal 0.526434211922751 0.8502158670110033 0
    outer loop
      vertex 27.30349349975586 6.116941452026367 120
      vertex 27.72711181640625 5.854646682739258 0
      vertex 27.30349349975586 6.116941452026367 0
    endloop
  endfacet
  facet normal -0.5264307851478318 0.8502179887820754 0
    outer loop
      vertex 24.896507263183594 6.116941452026367 0
      vertex 24.472885131835938 5.854646682739258 120
      vertex 24.896507263183594 6.116941452026367 120
    endloop
  endfacet
  facet normal -0.5264307851478318 0.8502179887820754 0
    outer loop
      vertex 24.472885131835938 5.854646682739258 120
      vertex 24.896507263183594 6.116941452026367 0
      vertex 24.472885131835938 5.854646682739258 0
    endloop
  endfacet
  facet normal 0 1 0
    outer loop
      vertex 26.349124908447266 6.388483047485352 0
      vertex 25.850875854492188 6.388483047485352 120
      vertex 26.349124908447266 6.388483047485352 120
    endloop
  endfacet
  facet normal 0 1 0
    outer loop
      vertex 25.850875854492188 6.388483047485352 120
      vertex 26.349124908447266 6.388483047485352 0
      vertex 25.850875854492188 6.388483047485352 0
    endloop
  endfacet
  facet normal 0.361240936789117 0.9324725119743322 0
    outer loop
      vertex 27.30349349975586 6.116941452026367 0
      vertex 26.838890075683594 6.296929359436035 120
      vertex 27.30349349975586 6.116941452026367 120
    endloop
  endfacet
  facet normal 0.361240936789117 0.9324725119743322 0
    outer loop
      vertex 26.838890075683594 6.296929359436035 120
      vertex 27.30349349975586 6.116941452026367 0
      vertex 26.838890075683594 6.296929359436035 0
    endloop
  endfacet
  facet normal -0.7980171355010925 0.6026347579144692 0
    outer loop
      vertex 23.804412841796875 5.121367454528809 0
      vertex 24.10467529296875 5.518979072570801 120
      vertex 24.10467529296875 5.518979072570801 0
    endloop
  endfacet
  facet normal -0.7980171355010925 0.6026347579144692 0
    outer loop
      vertex 24.10467529296875 5.518979072570801 120
      vertex 23.804412841796875 5.121367454528809 0
      vertex 23.804412841796875 5.121367454528809 120
    endloop
  endfacet
  facet normal -0.8951640315542971 0.4457368692529903 0
    outer loop
      vertex 23.582324981689453 4.675353050231934 0
      vertex 23.804412841796875 5.121367454528809 120
      vertex 23.804412841796875 5.121367454528809 0
    endloop
  endfacet
  facet normal -0.8951640315542971 0.4457368692529903 0
    outer loop
      vertex 23.804412841796875 5.121367454528809 120
      vertex 23.582324981689453 4.675353050231934 0
      vertex 23.582324981689453 4.675353050231934 120
    endloop
  endfacet
  facet normal 0 0 -1
    outer loop
      vertex 31 -4.189999580383301 0
      vertex 27.399999618530273 -0.19999980926513672 0
      vertex 31 -3.1999998092651367 0
    endloop
  endfacet
  facet normal 0 0 -1
    outer loop
      vertex 23.399999618530273 -0.19999980926513672 0
      vertex 27.399999618530273 1.3428133726119995 0
      vertex 27.399999618530273 -0.19999980926513672 0
    endloop
  endfacet
  facet normal 0 0 -1
    outer loop
      vertex 27.399999618530273 1.3428133726119995 0
      vertex 23.399999618530273 3.700000762939453 0
      vertex 27.30349349975586 6.116941452026367 0
    endloop
  endfacet
  facet normal 0 0 -1
    outer loop
      vertex 27.30349349975586 6.116941452026367 0
      vertex 23.399999618530273 3.700000762939453 0
      vertex 26.838890075683594 6.296929359436035 0
    endloop
  endfacet
  facet normal 0 0 -1
    outer loop
      vertex 26.838890075683594 6.296929359436035 0
      vertex 23.399999618530273 3.700000762939453 0
      vertex 26.349124908447266 6.388483047485352 0
    endloop
  endfacet
  facet normal 0 0 -1
    outer loop
      vertex 26.349124908447266 6.388483047485352 0
      vertex 23.399999618530273 3.700000762939453 0
      vertex 25.850875854492188 6.388483047485352 0
    endloop
  endfacet
  facet normal 0 0 -1
    outer loop
      vertex 25.850875854492188 6.388483047485352 0
      vertex 23.399999618530273 3.700000762939453 0
      vertex 25.36111068725586 6.296929359436035 0
    endloop
  endfacet
  facet normal 0 0 -1
    outer loop
      vertex 25.36111068725586 6.296929359436035 0
      vertex 23.399999618530273 3.700000762939453 0
      vertex 24.896507263183594 6.116941452026367 0
    endloop
  endfacet
  facet normal 0 0 -1
    outer loop
      vertex 24.896507263183594 6.116941452026367 0
      vertex 23.399999618530273 3.700000762939453 0
      vertex 24.472885131835938 5.854646682739258 0
    endloop
  endfacet
  facet normal 0 0 -1
    outer loop
      vertex 24.472885131835938 5.854646682739258 0
      vertex 23.399999618530273 3.700000762939453 0
      vertex 24.10467529296875 5.518979072570801 0
    endloop
  endfacet
  facet normal 0 0 -1
    outer loop
      vertex 24.10467529296875 5.518979072570801 0
      vertex 23.399999618530273 3.700000762939453 0
      vertex 23.804412841796875 5.121367454528809 0
    endloop
  endfacet
  facet normal 0 0 -1
    outer loop
      vertex 23.804412841796875 5.121367454528809 0
      vertex 23.399999618530273 3.700000762939453 0
      vertex 23.582324981689453 4.675353050231934 0
    endloop
  endfacet
  facet normal 0 0 -1
    outer loop
      vertex 27.399999618530273 1.3428133726119995 0
      vertex 23.399999618530273 -0.19999980926513672 0
      vertex 23.399999618530273 3.700000762939453 0
    endloop
  endfacet
  facet normal 0 0 -1
    outer loop
      vertex 31 -4.189999580383301 0
      vertex 23.399999618530273 -0.19999980926513672 0
      vertex 27.399999618530273 -0.19999980926513672 0
    endloop
  endfacet
  facet normal 0 0 -1
    outer loop
      vertex 31 -4.189999580383301 0
      vertex -17.976734161376953 -0.19999980926513672 0
      vertex 23.399999618530273 -0.19999980926513672 0
    endloop
  endfacet
  facet normal 0 0 -1
    outer loop
      vertex -31 -4.189999580383301 0
      vertex -17.976734161376953 -0.19999980926513672 0
      vertex 31 -4.189999580383301 0
    endloop
  endfacet
  facet normal 0 0 -1
    outer loop
      vertex -17.976734161376953 -0.19999980926513672 0
      vertex -31 -4.189999580383301 0
      vertex -23.174922943115234 -0.6483443379402161 0
    endloop
  endfacet
  facet normal 0 0 -1
    outer loop
      vertex -23.174922943115234 -0.6483443379402161 0
      vertex -31 -4.189999580383301 0
      vertex -31 -3.1999998092651367 0
    endloop
  endfacet
  facet normal 0 0 -1
    outer loop
      vertex 28.7540283203125 3.203876495361328 0
      vertex 28.7540283203125 4.196124076843262 0
      vertex 28.799999237060547 3.700000762939453 0
    endloop
  endfacet
  facet normal 0 0 -1
    outer loop
      vertex 28.61767578125 2.7246475219726562 0
      vertex 28.7540283203125 4.196124076843262 0
      vertex 28.7540283203125 3.203876495361328 0
    endloop
  endfacet
  facet normal 0 0 -1
    outer loop
      vertex 28.61767578125 2.7246475219726562 0
      vertex 28.61767578125 4.675353050231934 0
      vertex 28.7540283203125 4.196124076843262 0
    endloop
  endfacet
  facet normal 0 0 -1
    outer loop
      vertex 28.395586013793945 2.2786340713500977 0
      vertex 28.61767578125 4.675353050231934 0
      vertex 28.61767578125 2.7246475219726562 0
    endloop
  endfacet
  facet normal 0 0 -1
    outer loop
      vertex 28.395586013793945 2.2786340713500977 0
      vertex 28.395586013793945 5.121367454528809 0
      vertex 28.61767578125 4.675353050231934 0
    endloop
  endfacet
  facet normal 0 0 -1
    outer loop
      vertex 28.09532356262207 1.8810224533081055 0
      vertex 28.395586013793945 5.121367454528809 0
      vertex 28.395586013793945 2.2786340713500977 0
    endloop
  endfacet
  facet normal 0 0 -1
    outer loop
      vertex 28.09532356262207 1.8810224533081055 0
      vertex 28.09532356262207 5.518979072570801 0
      vertex 28.395586013793945 5.121367454528809 0
    endloop
  endfacet
  facet normal 0 0 -1
    outer loop
      vertex 27.399999618530273 1.3428133726119995 0
      vertex 28.09532356262207 1.8810224533081055 0
      vertex 27.72711181640625 1.545353889465332 0
    endloop
  endfacet
  facet normal 0 0 -1
    outer loop
      vertex 28.09532356262207 1.8810224533081055 0
      vertex 27.399999618530273 1.3428133726119995 0
      vertex 28.09532356262207 5.518979072570801 0
    endloop
  endfacet
  facet normal 0 0 -1
    outer loop
      vertex 28.09532356262207 5.518979072570801 0
      vertex 27.399999618530273 1.3428133726119995 0
      vertex 27.72711181640625 5.854646682739258 0
    endloop
  endfacet
  facet normal 0 0 -1
    outer loop
      vertex 27.72711181640625 5.854646682739258 0
      vertex 27.399999618530273 1.3428133726119995 0
      vertex 27.30349349975586 6.116941452026367 0
    endloop
  endfacet
  facet normal 0 0 -1
    outer loop
      vertex 23.582324981689453 4.675353050231934 0
      vertex 23.399999618530273 3.700000762939453 0
      vertex 23.445972442626953 4.196124076843262 0
    endloop
  endfacet
  facet normal 0 0 -1
    outer loop
      vertex -23.174922943115234 -0.6483443379402161 0
      vertex -23.67375373840332 5.497020721435547 0
      vertex -17.976734161376953 -0.19999980926513672 0
    endloop
  endfacet
  facet normal 0 0 -1
    outer loop
      vertex -26.326244354248047 2.5029783248901367 0
      vertex -23.67375373840332 5.497020721435547 0
      vertex -23.174922943115234 -0.6483443379402161 0
    endloop
  endfacet
  facet normal 0 0 -1
    outer loop
      vertex -23.67375373840332 5.497020721435547 0
      vertex -26.326244354248047 2.5029783248901367 0
      vertex -24.070552825927734 5.77091121673584 0
    endloop
  endfacet
  facet normal 0 0 -1
    outer loop
      vertex -24.070552825927734 5.77091121673584 0
      vertex -26.326244354248047 2.5029783248901367 0
      vertex -24.5213680267334 5.941883087158203 0
    endloop
  endfacet
  facet normal 0 0 -1
    outer loop
      vertex -24.5213680267334 5.941883087158203 0
      vertex -26.326244354248047 2.5029783248901367 0
      vertex -25 6 0
    endloop
  endfacet
  facet normal 0 0 -1
    outer loop
      vertex -25 6 0
      vertex -26.326244354248047 2.5029783248901367 0
      vertex -25.47863006591797 5.941883087158203 0
    endloop
  endfacet
  facet normal 0 0 -1
    outer loop
      vertex -25.47863006591797 5.941883087158203 0
      vertex -26.326244354248047 2.5029783248901367 0
      vertex -25.929447174072266 5.77091121673584 0
    endloop
  endfacet
  facet normal 0 0 -1
    outer loop
      vertex -26.326244354248047 2.5029783248901367 0
      vertex -26.326244354248047 5.497020721435547 0
      vertex -25.929447174072266 5.77091121673584 0
    endloop
  endfacet
  facet normal 0 0 -1
    outer loop
      vertex -26.645967483520508 2.8638696670532227 0
      vertex -26.326244354248047 5.497020721435547 0
      vertex -26.326244354248047 2.5029783248901367 0
    endloop
  endfacet
  facet normal 0 0 -1
    outer loop
      vertex -26.645967483520508 2.8638696670532227 0
      vertex -26.645967483520508 5.136129379272461 0
      vertex -26.326244354248047 5.497020721435547 0
    endloop
  endfacet
  facet normal 0 0 -1
    outer loop
      vertex -26.870033264160156 3.2907896041870117 0
      vertex -26.645967483520508 5.136129379272461 0
      vertex -26.645967483520508 2.8638696670532227 0
    endloop
  endfacet
  facet normal 0 0 -1
    outer loop
      vertex -26.870033264160156 3.2907896041870117 0
      vertex -26.870033264160156 4.709209442138672 0
      vertex -26.645967483520508 5.136129379272461 0
    endloop
  endfacet
  facet normal 0 0 -1
    outer loop
      vertex -26.985416412353516 3.7589263916015625 0
      vertex -26.870033264160156 4.709209442138672 0
      vertex -26.870033264160156 3.2907896041870117 0
    endloop
  endfacet
  facet normal 0 0 -1
    outer loop
      vertex -26.870033264160156 4.709209442138672 0
      vertex -26.985416412353516 3.7589263916015625 0
      vertex -26.985416412353516 4.241072654724121 0
    endloop
  endfacet
  facet normal 0.18375089724932767 0.9829728418222281 0
    outer loop
      vertex 26.838890075683594 6.296929359436035 0
      vertex 26.349124908447266 6.388483047485352 120
      vertex 26.838890075683594 6.296929359436035 120
    endloop
  endfacet
  facet normal 0.18375089724932767 0.9829728418222281 0
    outer loop
      vertex 26.349124908447266 6.388483047485352 120
      vertex 26.838890075683594 6.296929359436035 0
      vertex 26.349124908447266 6.388483047485352 0
    endloop
  endfacet
  facet normal 0 0 1
    outer loop
      vertex 28.7540283203125 4.196124076843262 120
      vertex 28.7540283203125 3.203876495361328 120
      vertex 28.799999237060547 3.700000762939453 120
    endloop
  endfacet
  facet normal 0 0 1
    outer loop
      vertex 28.61767578125 4.675353050231934 120
      vertex 28.7540283203125 3.203876495361328 120
      vertex 28.7540283203125 4.196124076843262 120
    endloop
  endfacet
  facet normal 0 0 1
    outer loop
      vertex 28.61767578125 4.675353050231934 120
      vertex 28.61767578125 2.7246475219726562 120
      vertex 28.7540283203125 3.203876495361328 120
    endloop
  endfacet
  facet normal 0 0 1
    outer loop
      vertex 28.395586013793945 5.121367454528809 120
      vertex 28.61767578125 2.7246475219726562 120
      vertex 28.61767578125 4.675353050231934 120
    endloop
  endfacet
  facet normal 0 0 1
    outer loop
      vertex 28.395586013793945 5.121367454528809 120
      vertex 28.395586013793945 2.2786340713500977 120
      vertex 28.61767578125 2.7246475219726562 120
    endloop
  endfacet
  facet normal 0 0 1
    outer loop
      vertex 28.09532356262207 5.518979072570801 120
      vertex 28.395586013793945 2.2786340713500977 120
      vertex 28.395586013793945 5.121367454528809 120
    endloop
  endfacet
  facet normal 0 0 1
    outer loop
      vertex 28.09532356262207 5.518979072570801 120
      vertex 28.09532356262207 1.8810224533081055 120
      vertex 28.395586013793945 2.2786340713500977 120
    endloop
  endfacet
  facet normal 0 0 1
    outer loop
      vertex 27.72711181640625 5.854646682739258 120
      vertex 28.09532356262207 1.8810224533081055 120
      vertex 28.09532356262207 5.518979072570801 120
    endloop
  endfacet
  facet normal 0 0 1
    outer loop
      vertex 27.399999618530273 1.3428133726119995 120
      vertex 28.09532356262207 1.8810224533081055 120
      vertex 27.72711181640625 5.854646682739258 120
    endloop
  endfacet
  facet normal 0 0 1
    outer loop
      vertex 28.09532356262207 1.8810224533081055 120
      vertex 27.399999618530273 1.3428133726119995 120
      vertex 27.72711181640625 1.545353889465332 120
    endloop
  endfacet
  facet normal 0 0 1
    outer loop
      vertex 23.399999618530273 3.700000762939453 120
      vertex 27.399999618530273 1.3428133726119995 120
      vertex 27.30349349975586 6.116941452026367 120
    endloop
  endfacet
  facet normal 0 0 1
    outer loop
      vertex 27.30349349975586 6.116941452026367 120
      vertex 27.399999618530273 1.3428133726119995 120
      vertex 27.72711181640625 5.854646682739258 120
    endloop
  endfacet
  facet normal 0 0 1
    outer loop
      vertex 27.399999618530273 -0.19999980926513672 120
      vertex 31 -4.189999580383301 120
      vertex 31 -3.1999998092651367 120
    endloop
  endfacet
  facet normal 0 0 1
    outer loop
      vertex 23.399999618530273 3.700000762939453 120
      vertex 27.30349349975586 6.116941452026367 120
      vertex 26.838890075683594 6.296929359436035 120
    endloop
  endfacet
  facet normal 0 0 1
    outer loop
      vertex 23.399999618530273 3.700000762939453 120
      vertex 26.838890075683594 6.296929359436035 120
      vertex 26.349124908447266 6.388483047485352 120
    endloop
  endfacet
  facet normal 0 0 1
    outer loop
      vertex 23.399999618530273 3.700000762939453 120
      vertex 26.349124908447266 6.388483047485352 120
      vertex 25.850875854492188 6.388483047485352 120
    endloop
  endfacet
  facet normal 0 0 1
    outer loop
      vertex 23.399999618530273 3.700000762939453 120
      vertex 25.850875854492188 6.388483047485352 120
      vertex 25.36111068725586 6.296929359436035 120
    endloop
  endfacet
  facet normal 0 0 1
    outer loop
      vertex 23.399999618530273 3.700000762939453 120
      vertex 25.36111068725586 6.296929359436035 120
      vertex 24.896507263183594 6.116941452026367 120
    endloop
  endfacet
  facet normal 0 0 1
    outer loop
      vertex 23.399999618530273 3.700000762939453 120
      vertex 24.896507263183594 6.116941452026367 120
      vertex 24.472885131835938 5.854646682739258 120
    endloop
  endfacet
  facet normal 0 0 1
    outer loop
      vertex 23.399999618530273 3.700000762939453 120
      vertex 24.472885131835938 5.854646682739258 120
      vertex 24.10467529296875 5.518979072570801 120
    endloop
  endfacet
  facet normal 0 0 1
    outer loop
      vertex 23.399999618530273 3.700000762939453 120
      vertex 24.10467529296875 5.518979072570801 120
      vertex 23.804412841796875 5.121367454528809 120
    endloop
  endfacet
  facet normal 0 0 1
    outer loop
      vertex 23.399999618530273 3.700000762939453 120
      vertex 23.804412841796875 5.121367454528809 120
      vertex 23.582324981689453 4.675353050231934 120
    endloop
  endfacet
  facet normal 0 0 1
    outer loop
      vertex 23.399999618530273 3.700000762939453 120
      vertex 23.582324981689453 4.675353050231934 120
      vertex 23.445972442626953 4.196124076843262 120
    endloop
  endfacet
  facet normal 0 0 1
    outer loop
      vertex 23.399999618530273 -0.19999980926513672 120
      vertex 27.399999618530273 1.3428133726119995 120
      vertex 23.399999618530273 3.700000762939453 120
    endloop
  endfacet
  facet normal 0 0 1
    outer loop
      vertex 27.399999618530273 1.3428133726119995 120
      vertex 23.399999618530273 -0.19999980926513672 120
      vertex 27.399999618530273 -0.19999980926513672 120
    endloop
  endfacet
  facet normal 0 0 1
    outer loop
      vertex 27.399999618530273 -0.19999980926513672 120
      vertex 23.399999618530273 -0.19999980926513672 120
      vertex 31 -4.189999580383301 120
    endloop
  endfacet
  facet normal 0 0 1
    outer loop
      vertex -17.976734161376953 -0.19999980926513672 120
      vertex 31 -4.189999580383301 120
      vertex 23.399999618530273 -0.19999980926513672 120
    endloop
  endfacet
  facet normal 0 0 1
    outer loop
      vertex -31 -4.189999580383301 120
      vertex -17.976734161376953 -0.19999980926513672 120
      vertex -23.174922943115234 -0.6483443379402161 120
    endloop
  endfacet
  facet normal 0 0 1
    outer loop
      vertex -31 -4.189999580383301 120
      vertex -23.174922943115234 -0.6483443379402161 120
      vertex -31 -3.1999998092651367 120
    endloop
  endfacet
  facet normal 0 0 1
    outer loop
      vertex -17.976734161376953 -0.19999980926513672 120
      vertex -31 -4.189999580383301 120
      vertex 31 -4.189999580383301 120
    endloop
  endfacet
  facet normal 0 0 1
    outer loop
      vertex -23.67375373840332 5.497020721435547 120
      vertex -23.174922943115234 -0.6483443379402161 120
      vertex -17.976734161376953 -0.19999980926513672 120
    endloop
  endfacet
  facet normal 0 0 1
    outer loop
      vertex -26.326244354248047 2.5029783248901367 120
      vertex -23.67375373840332 5.497020721435547 120
      vertex -24.070552825927734 5.77091121673584 120
    endloop
  endfacet
  facet normal 0 0 1
    outer loop
      vertex -26.326244354248047 2.5029783248901367 120
      vertex -24.070552825927734 5.77091121673584 120
      vertex -24.5213680267334 5.941883087158203 120
    endloop
  endfacet
  facet normal 0 0 1
    outer loop
      vertex -26.326244354248047 2.5029783248901367 120
      vertex -24.5213680267334 5.941883087158203 120
      vertex -25 6 120
    endloop
  endfacet
  facet normal 0 0 1
    outer loop
      vertex -26.326244354248047 2.5029783248901367 120
      vertex -25 6 120
      vertex -25.47863006591797 5.941883087158203 120
    endloop
  endfacet
  facet normal 0 0 1
    outer loop
      vertex -26.326244354248047 2.5029783248901367 120
      vertex -25.47863006591797 5.941883087158203 120
      vertex -25.929447174072266 5.77091121673584 120
    endloop
  endfacet
  facet normal 0 0 1
    outer loop
      vertex -26.326244354248047 2.5029783248901367 120
      vertex -25.929447174072266 5.77091121673584 120
      vertex -26.326244354248047 5.497020721435547 120
    endloop
  endfacet
  facet normal 0 0 1
    outer loop
      vertex -23.67375373840332 5.497020721435547 120
      vertex -26.326244354248047 2.5029783248901367 120
      vertex -23.174922943115234 -0.6483443379402161 120
    endloop
  endfacet
  facet normal 0 0 1
    outer loop
      vertex -26.645967483520508 5.136129379272461 120
      vertex -26.326244354248047 2.5029783248901367 120
      vertex -26.326244354248047 5.497020721435547 120
    endloop
  endfacet
  facet normal 0 0 1
    outer loop
      vertex -26.645967483520508 5.136129379272461 120
      vertex -26.645967483520508 2.8638696670532227 120
      vertex -26.326244354248047 2.5029783248901367 120
    endloop
  endfacet
  facet normal 0 0 1
    outer loop
      vertex -26.870033264160156 4.709209442138672 120
      vertex -26.645967483520508 2.8638696670532227 120
      vertex -26.645967483520508 5.136129379272461 120
    endloop
  endfacet
  facet normal 0 0 1
    outer loop
      vertex -26.870033264160156 4.709209442138672 120
      vertex -26.870033264160156 3.2907896041870117 120
      vertex -26.645967483520508 2.8638696670532227 120
    endloop
  endfacet
  facet normal 0 0 1
    outer loop
      vertex -26.985416412353516 4.241072654724121 120
      vertex -26.870033264160156 3.2907896041870117 120
      vertex -26.870033264160156 4.709209442138672 120
    endloop
  endfacet
  facet normal 0 0 1
    outer loop
      vertex -26.870033264160156 3.2907896041870117 120
      vertex -26.985416412353516 4.241072654724121 120
      vertex -26.985416412353516 3.7589263916015625 120
    endloop
  endfacet
  facet normal 1 0 0
    outer loop
      vertex 27.399999618530273 -0.19999980926513672 120
      vertex 27.399999618530273 1.3428133726119995 0
      vertex 27.399999618530273 1.3428133726119995 120
    endloop
  endfacet
  facet normal 1 0 0
    outer loop
      vertex 27.399999618530273 1.3428133726119995 0
      vertex 27.399999618530273 -0.19999980926513672 120
      vertex 27.399999618530273 -0.19999980926513672 0
    endloop
  endfacet
  facet normal -1 0 0
    outer loop
      vertex 23.399999618530273 -0.19999980926513672 0
      vertex 23.399999618530273 3.700000762939453 120
      vertex 23.399999618530273 3.700000762939453 0
    endloop
  endfacet
  facet normal -1 0 0
    outer loop
      vertex 23.399999618530273 3.700000762939453 120
      vertex 23.399999618530273 -0.19999980926513672 0
      vertex 23.399999618530273 -0.19999980926513672 120
    endloop
  endfacet
  facet normal 0 1 0
    outer loop
      vertex 23.399999618530273 -0.19999980926513672 0
      vertex -17.976734161376953 -0.19999980926513672 120
      vertex 23.399999618530273 -0.19999980926513672 120
    endloop
  endfacet
  facet normal 0 1 0
    outer loop
      vertex -17.976734161376953 -0.19999980926513672 120
      vertex 23.399999618530273 -0.19999980926513672 0
      vertex -17.976734161376953 -0.19999980926513672 0
    endloop
  endfacet
  facet normal 0.6401843596298966 0.7682213129595268 0
    outer loop
      vertex 31 -3.1999998092651367 0
      vertex 27.399999618530273 -0.19999980926513672 120
      vertex 31 -3.1999998092651367 120
    endloop
  endfacet
  facet normal 0.6401843596298966 0.7682213129595268 0
    outer loop
      vertex 27.399999618530273 -0.19999980926513672 120
      vertex 31 -3.1999998092651367 0
      vertex 27.399999618530273 -0.19999980926513672 0
    endloop
  endfacet
  facet normal 1 0 0
    outer loop
      vertex 31 -4.189999580383301 120
      vertex 31 -3.1999998092651367 0
      vertex 31 -3.1999998092651367 120
    endloop
  endfacet
  facet normal 1 0 0
    outer loop
      vertex 31 -3.1999998092651367 0
      vertex 31 -4.189999580383301 120
      vertex 31 -4.189999580383301 0
    endloop
  endfacet
  facet normal -1 0 0
    outer loop
      vertex -31 -4.189999580383301 0
      vertex -31 -3.1999998092651367 120
      vertex -31 -3.1999998092651367 0
    endloop
  endfacet
  facet normal -1 0 0
    outer loop
      vertex -31 -3.1999998092651367 120
      vertex -31 -4.189999580383301 0
      vertex -31 -4.189999580383301 120
    endloop
  endfacet
  facet normal -0.3100205898699141 0.9507298427296319 0
    outer loop
      vertex -23.174922943115234 -0.6483443379402161 0
      vertex -31 -3.1999998092651367 120
      vertex -23.174922943115234 -0.6483443379402161 120
    endloop
  endfacet
  facet normal -0.3100205898699141 0.9507298427296319 0
    outer loop
      vertex -31 -3.1999998092651367 120
      vertex -23.174922943115234 -0.6483443379402161 0
      vertex -31 -3.1999998092651367 0
    endloop
  endfacet
  facet normal -0.9709428809307916 -0.23931134943795415 0
    outer loop
      vertex -26.870033264160156 3.2907896041870117 0
      vertex -26.985416412353516 3.7589263916015625 120
      vertex -26.985416412353516 3.7589263916015625 0
    endloop
  endfacet
  facet normal -0.9709428809307916 -0.23931134943795415 0
    outer loop
      vertex -26.985416412353516 3.7589263916015625 120
      vertex -26.870033264160156 3.2907896041870117 0
      vertex -26.870033264160156 3.2907896041870117 120
    endloop
  endfacet
  facet normal -0.7071069216170907 -0.7071066407559764 0
    outer loop
      vertex -23.174922943115234 -0.6483443379402161 0
      vertex -26.326244354248047 2.5029783248901367 120
      vertex -26.326244354248047 2.5029783248901367 0
    endloop
  endfacet
  facet normal -0.7071069216170907 -0.7071066407559764 0
    outer loop
      vertex -26.326244354248047 2.5029783248901367 120
      vertex -23.174922943115234 -0.6483443379402161 0
      vertex -23.174922943115234 -0.6483443379402161 120
    endloop
  endfacet
  facet normal -1 0 0
    outer loop
      vertex -26.985416412353516 3.7589263916015625 0
      vertex -26.985416412353516 4.241072654724121 120
      vertex -26.985416412353516 4.241072654724121 0
    endloop
  endfacet
  facet normal -1 0 0
    outer loop
      vertex -26.985416412353516 4.241072654724121 120
      vertex -26.985416412353516 3.7589263916015625 0
      vertex -26.985416412353516 3.7589263916015625 120
    endloop
  endfacet
  facet normal -0.7485094105711754 0.663124168075928 0
    outer loop
      vertex -26.645967483520508 5.136129379272461 0
      vertex -26.326244354248047 5.497020721435547 120
      vertex -26.326244354248047 5.497020721435547 0
    endloop
  endfacet
  facet normal -0.7485094105711754 0.663124168075928 0
    outer loop
      vertex -26.326244354248047 5.497020721435547 120
      vertex -26.645967483520508 5.136129379272461 0
      vertex -26.645967483520508 5.136129379272461 120
    endloop
  endfacet
  facet normal 0.5680645512825666 0.8229840008020426 0
    outer loop
      vertex -23.67375373840332 5.497020721435547 0
      vertex -24.070552825927734 5.77091121673584 120
      vertex -23.67375373840332 5.497020721435547 120
    endloop
  endfacet
  facet normal 0.5680645512825666 0.8229840008020426 0
    outer loop
      vertex -24.070552825927734 5.77091121673584 120
      vertex -23.67375373840332 5.497020721435547 0
      vertex -24.070552825927734 5.77091121673584 0
    endloop
  endfacet
  facet normal 0.12053763970043786 0.9927087575998548 0
    outer loop
      vertex -24.5213680267334 5.941883087158203 0
      vertex -25 6 120
      vertex -24.5213680267334 5.941883087158203 120
    endloop
  endfacet
  facet normal 0.12053763970043786 0.9927087575998548 0
    outer loop
      vertex -25 6 120
      vertex -24.5213680267334 5.941883087158203 0
      vertex -25 6 0
    endloop
  endfacet
  facet normal -0.8854552466433998 0.464724656319929 0
    outer loop
      vertex -26.870033264160156 4.709209442138672 0
      vertex -26.645967483520508 5.136129379272461 120
      vertex -26.645967483520508 5.136129379272461 0
    endloop
  endfacet
  facet normal -0.8854552466433998 0.464724656319929 0
    outer loop
      vertex -26.645967483520508 5.136129379272461 120
      vertex -26.870033264160156 4.709209442138672 0
      vertex -26.870033264160156 4.709209442138672 120
    endloop
  endfacet
  facet normal -0.8854552466433998 -0.464724656319929 0
    outer loop
      vertex -26.645967483520508 2.8638696670532227 0
      vertex -26.870033264160156 3.2907896041870117 120
      vertex -26.870033264160156 3.2907896041870117 0
    endloop
  endfacet
  facet normal -0.8854552466433998 -0.464724656319929 0
    outer loop
      vertex -26.870033264160156 3.2907896041870117 120
      vertex -26.645967483520508 2.8638696670532227 0
      vertex -26.645967483520508 2.8638696670532227 120
    endloop
  endfacet
  facet normal -0.7485094105711754 -0.663124168075928 0
    outer loop
      vertex -26.326244354248047 2.5029783248901367 0
      vertex -26.645967483520508 2.8638696670532227 120
      vertex -26.645967483520508 2.8638696670532227 0
    endloop
  endfacet
  facet normal -0.7485094105711754 -0.663124168075928 0
    outer loop
      vertex -26.645967483520508 2.8638696670532227 120
      vertex -26.326244354248047 2.5029783248901367 0
      vertex -26.326244354248047 2.5029783248901367 120
    endloop
  endfacet
  facet normal 0.7071068403709582 0.707106722002132 0
    outer loop
      vertex -17.976734161376953 -0.19999980926513672 120
      vertex -23.67375373840332 5.497020721435547 0
      vertex -23.67375373840332 5.497020721435547 120
    endloop
  endfacet
  facet normal 0.7071068403709582 0.707106722002132 0
    outer loop
      vertex -23.67375373840332 5.497020721435547 0
      vertex -17.976734161376953 -0.19999980926513672 120
      vertex -17.976734161376953 -0.19999980926513672 0
    endloop
  endfacet
  facet normal 0.3546052798011571 0.935016093731623 0
    outer loop
      vertex -24.070552825927734 5.77091121673584 0
      vertex -24.5213680267334 5.941883087158203 120
      vertex -24.070552825927734 5.77091121673584 120
    endloop
  endfacet
  facet normal 0.3546052798011571 0.935016093731623 0
    outer loop
      vertex -24.5213680267334 5.941883087158203 120
      vertex -24.070552825927734 5.77091121673584 0
      vertex -24.5213680267334 5.941883087158203 0
    endloop
  endfacet
  facet normal -0.3546039681649097 0.9350165911692154 0
    outer loop
      vertex -25.47863006591797 5.941883087158203 0
      vertex -25.929447174072266 5.77091121673584 120
      vertex -25.47863006591797 5.941883087158203 120
    endloop
  endfacet
  facet normal -0.3546039681649097 0.9350165911692154 0
    outer loop
      vertex -25.929447174072266 5.77091121673584 120
      vertex -25.47863006591797 5.941883087158203 0
      vertex -25.929447174072266 5.77091121673584 0
    endloop
  endfacet
  facet normal -0.1205381130657807 0.9927087001223174 0
    outer loop
      vertex -25 6 0
      vertex -25.47863006591797 5.941883087158203 120
      vertex -25 6 120
    endloop
  endfacet
  facet normal -0.1205381130657807 0.9927087001223174 0
    outer loop
      vertex -25.47863006591797 5.941883087158203 120
      vertex -25 6 0
      vertex -25.47863006591797 5.941883087158203 0
    endloop
  endfacet
  facet normal -0.5680664007256417 0.8229827242212406 0
    outer loop
      vertex -25.929447174072266 5.77091121673584 0
      vertex -26.326244354248047 5.497020721435547 120
      vertex -25.929447174072266 5.77091121673584 120
    endloop
  endfacet
  facet normal -0.5680664007256417 0.8229827242212406 0
    outer loop
      vertex -26.326244354248047 5.497020721435547 120
      vertex -25.929447174072266 5.77091121673584 0
      vertex -26.326244354248047 5.497020721435547 0
    endloop
  endfacet
  facet normal -0.9709428809307916 0.23931134943795415 0
    outer loop
      vertex -26.985416412353516 4.241072654724121 0
      vertex -26.870033264160156 4.709209442138672 120
      vertex -26.870033264160156 4.709209442138672 0
    endloop
  endfacet
  facet normal -0.9709428809307916 0.23931134943795415 0
    outer loop
      vertex -26.870033264160156 4.709209442138672 120
      vertex -26.985416412353516 4.241072654724121 0
      vertex -26.985416412353516 4.241072654724121 120
    endloop
  endfacet
  facet normal 0 -1 0
    outer loop
      vertex -31 -4.189999580383301 0
      vertex 31 -4.189999580383301 120
      vertex -31 -4.189999580383301 120
    endloop
  endfacet
  facet normal 0 -1 0
    outer loop
      vertex 31 -4.189999580383301 120
      vertex -31 -4.189999580383301 0
      vertex 31 -4.189999580383301 0
    endloop
  endfacet
endsolid OpenSCAD_Model
