solid OpenSCAD_Model
  facet normal 0.9986291841783388 0.05234264520737973 0
    outer loop
      vertex 57.70000076293945 6.350000381469727 120
      vertex 57.672332763671875 6.877869606018066 0
      vertex 57.672332763671875 6.877869606018066 120
    endloop
  endfacet
  facet normal 0.9986291841783388 0.05234264520737973 0
    outer loop
      vertex 57.672332763671875 6.877869606018066 0
      vertex 57.70000076293945 6.350000381469727 120
      vertex 57.70000076293945 6.350000381469727 0
    endloop
  endfacet
  facet normal -0.5446372349269872 0.8386717369335189 0
    outer loop
      vertex 50.125 10.723428726196289 0
      vertex 49.68168258666992 10.43553638458252 120
      vertex 50.125 10.723428726196289 120
    endloop
  endfacet
  facet normal -0.5446372349269872 0.8386717369335189 0
    outer loop
      vertex 49.68168258666992 10.43553638458252 120
      vertex 50.125 10.723428726196289 0
      vertex 49.68168258666992 10.43553638458252 0
    endloop
  endfacet
  facet normal 0.5446372349269872 0.8386717369335189 0
    outer loop
      vertex 55.618316650390625 10.43553638458252 0
      vertex 55.17499923706055 10.723428726196289 120
      vertex 55.618316650390625 10.43553638458252 120
    endloop
  endfacet
  facet normal 0.5446372349269872 0.8386717369335189 0
    outer loop
      vertex 55.17499923706055 10.723428726196289 120
      vertex 55.618316650390625 10.43553638458252 0
      vertex 55.17499923706055 10.723428726196289 0
    endloop
  endfacet
  facet normal 0.99862917923534 -0.052342739513243995 0
    outer loop
      vertex 57.672332763671875 5.822132110595703 120
      vertex 57.70000076293945 6.350000381469727 0
      vertex 57.70000076293945 6.350000381469727 120
    endloop
  endfacet
  facet normal 0.99862917923534 -0.052342739513243995 0
    outer loop
      vertex 57.70000076293945 6.350000381469727 0
      vertex 57.672332763671875 5.822132110595703 120
      vertex 57.672332763671875 5.822132110595703 0
    endloop
  endfacet
  facet normal 0.6293216411621828 0.7771449491342891 0
    outer loop
      vertex 56.029109954833984 10.10288143157959 0
      vertex 55.618316650390625 10.43553638458252 120
      vertex 56.029109954833984 10.10288143157959 120
    endloop
  endfacet
  facet normal 0.6293216411621828 0.7771449491342891 0
    outer loop
      vertex 55.618316650390625 10.43553638458252 120
      vertex 56.029109954833984 10.10288143157959 0
      vertex 55.618316650390625 10.43553638458252 0
    endloop
  endfacet
  facet normal -0.15643403368323025 0.9876884089152783 0
    outer loop
      vertex 52.12213134765625 11.372336387634277 0
      vertex 51.60004425048828 11.28964614868164 120
      vertex 52.12213134765625 11.372336387634277 120
    endloop
  endfacet
  facet normal -0.15643403368323025 0.9876884089152783 0
    outer loop
      vertex 51.60004425048828 11.28964614868164 120
      vertex 52.12213134765625 11.372336387634277 0
      vertex 51.60004425048828 11.28964614868164 0
    endloop
  endfacet
  facet normal 0.3583683456289732 0.9335802744548285 0
    outer loop
      vertex 54.704017639160156 10.963404655456543 0
      vertex 54.210533142089844 11.152835845947266 120
      vertex 54.704017639160156 10.963404655456543 120
    endloop
  endfacet
  facet normal 0.3583683456289732 0.9335802744548285 0
    outer loop
      vertex 54.210533142089844 11.152835845947266 120
      vertex 54.704017639160156 10.963404655456543 0
      vertex 54.210533142089844 11.152835845947266 0
    endloop
  endfacet
  facet normal 0.2588213367117283 0.9659252122513182 0
    outer loop
      vertex 54.210533142089844 11.152835845947266 0
      vertex 53.699954986572266 11.28964614868164 120
      vertex 54.210533142089844 11.152835845947266 120
    endloop
  endfacet
  facet normal 0.2588213367117283 0.9659252122513182 0
    outer loop
      vertex 53.699954986572266 11.28964614868164 120
      vertex 54.210533142089844 11.152835845947266 0
      vertex 53.699954986572266 11.28964614868164 0
    endloop
  endfacet
  facet normal 0.15643403368323025 0.9876884089152783 0
    outer loop
      vertex 53.699954986572266 11.28964614868164 0
      vertex 53.1778678894043 11.372336387634277 120
      vertex 53.699954986572266 11.28964614868164 120
    endloop
  endfacet
  facet normal 0.15643403368323025 0.9876884089152783 0
    outer loop
      vertex 53.1778678894043 11.372336387634277 120
      vertex 53.699954986572266 11.28964614868164 0
      vertex 53.1778678894043 11.372336387634277 0
    endloop
  endfacet
  facet normal 0.8386687294734337 0.5446418660031713 0
    outer loop
      vertex 57.02342987060547 8.875 120
      vertex 56.73553466796875 9.318316459655762 0
      vertex 56.73553466796875 9.318316459655762 120
    endloop
  endfacet
  facet normal 0.8386687294734337 0.5446418660031713 0
    outer loop
      vertex 56.73553466796875 9.318316459655762 0
      vertex 57.02342987060547 8.875 120
      vertex 57.02342987060547 8.875 0
    endloop
  endfacet
  facet normal 0.891007414137532 -0.4539887531117355 0
    outer loop
      vertex 57.02342987060547 3.825000762939453 120
      vertex 57.263404846191406 4.295980453491211 0
      vertex 57.263404846191406 4.295980453491211 120
    endloop
  endfacet
  facet normal 0.891007414137532 -0.4539887531117355 0
    outer loop
      vertex 57.263404846191406 4.295980453491211 0
      vertex 57.02342987060547 3.825000762939453 120
      vertex 57.02342987060547 3.825000762939453 0
    endloop
  endfacet
  facet normal -0.3583683456289732 0.9335802744548285 0
    outer loop
      vertex 51.08946228027344 11.152835845947266 0
      vertex 50.595977783203125 10.963404655456543 120
      vertex 51.08946228027344 11.152835845947266 120
    endloop
  endfacet
  facet normal -0.3583683456289732 0.9335802744548285 0
    outer loop
      vertex 50.595977783203125 10.963404655456543 120
      vertex 51.08946228027344 11.152835845947266 0
      vertex 50.595977783203125 10.963404655456543 0
    endloop
  endfacet
  facet normal 0.9335808780682344 -0.3583667731603258 0
    outer loop
      vertex 57.263404846191406 4.295980453491211 120
      vertex 57.45283508300781 4.789464950561523 0
      vertex 57.45283508300781 4.789464950561523 120
    endloop
  endfacet
  facet normal 0.9335808780682344 -0.3583667731603258 0
    outer loop
      vertex 57.45283508300781 4.789464950561523 0
      vertex 57.263404846191406 4.295980453491211 120
      vertex 57.263404846191406 4.295980453491211 0
    endloop
  endfacet
  facet normal 0.45398872583182176 0.8910074280372745 0
    outer loop
      vertex 55.17499923706055 10.723428726196289 0
      vertex 54.704017639160156 10.963404655456543 120
      vertex 55.17499923706055 10.723428726196289 120
    endloop
  endfacet
  facet normal 0.45398872583182176 0.8910074280372745 0
    outer loop
      vertex 54.704017639160156 10.963404655456543 120
      vertex 55.17499923706055 10.723428726196289 0
      vertex 54.704017639160156 10.963404655456543 0
    endloop
  endfacet
  facet normal -0.9335806463634025 0.35836737677373953 0
    outer loop
      vertex 47.847164154052734 7.910536766052246 0
      vertex 48.03659439086914 8.404020309448242 120
      vertex 48.03659439086914 8.404020309448242 0
    endloop
  endfacet
  facet normal -0.9335806463634025 0.35836737677373953 0
    outer loop
      vertex 48.03659439086914 8.404020309448242 120
      vertex 47.847164154052734 7.910536766052246 0
      vertex 47.847164154052734 7.910536766052246 120
    endloop
  endfacet
  facet normal 0.9335806463634025 0.35836737677373953 0
    outer loop
      vertex 57.45283508300781 7.910536766052246 120
      vertex 57.263404846191406 8.404020309448242 0
      vertex 57.263404846191406 8.404020309448242 120
    endloop
  endfacet
  facet normal 0.9335806463634025 0.35836737677373953 0
    outer loop
      vertex 57.263404846191406 8.404020309448242 0
      vertex 57.45283508300781 7.910536766052246 120
      vertex 57.45283508300781 7.910536766052246 0
    endloop
  endfacet
  facet normal 0.9876891568813039 0.15642931112518235 0
    outer loop
      vertex 57.672332763671875 6.877869606018066 120
      vertex 57.58964538574219 7.399954795837402 0
      vertex 57.58964538574219 7.399954795837402 120
    endloop
  endfacet
  facet normal 0.9876891568813039 0.15642931112518235 0
    outer loop
      vertex 57.58964538574219 7.399954795837402 0
      vertex 57.672332763671875 6.877869606018066 120
      vertex 57.672332763671875 6.877869606018066 0
    endloop
  endfacet
  facet normal 0.9659256956850615 0.2588195325228176 0
    outer loop
      vertex 57.58964538574219 7.399954795837402 120
      vertex 57.45283508300781 7.910536766052246 0
      vertex 57.45283508300781 7.910536766052246 120
    endloop
  endfacet
  facet normal 0.9659256956850615 0.2588195325228176 0
    outer loop
      vertex 57.45283508300781 7.910536766052246 0
      vertex 57.58964538574219 7.399954795837402 120
      vertex 57.58964538574219 7.399954795837402 0
    endloop
  endfacet
  facet normal -0.8910044949167294 0.4539944823873788 0
    outer loop
      vertex 48.03659439086914 8.404020309448242 0
      vertex 48.276573181152344 8.875 120
      vertex 48.276573181152344 8.875 0
    endloop
  endfacet
  facet normal -0.8910044949167294 0.4539944823873788 0
    outer loop
      vertex 48.276573181152344 8.875 120
      vertex 48.03659439086914 8.404020309448242 0
      vertex 48.03659439086914 8.404020309448242 120
    endloop
  endfacet
  facet normal -0.8386720258576614 0.544636790020474 0
    outer loop
      vertex 48.276573181152344 8.875 0
      vertex 48.5644645690918 9.318316459655762 120
      vertex 48.5644645690918 9.318316459655762 0
    endloop
  endfacet
  facet normal -0.8386720258576614 0.544636790020474 0
    outer loop
      vertex 48.5644645690918 9.318316459655762 120
      vertex 48.276573181152344 8.875 0
      vertex 48.276573181152344 8.875 120
    endloop
  endfacet
  facet normal 0.891007414137532 0.4539887531117355 0
    outer loop
      vertex 57.263404846191406 8.404020309448242 120
      vertex 57.02342987060547 8.875 0
      vertex 57.02342987060547 8.875 120
    endloop
  endfacet
  facet normal 0.891007414137532 0.4539887531117355 0
    outer loop
      vertex 57.02342987060547 8.875 0
      vertex 57.263404846191406 8.404020309448242 120
      vertex 57.263404846191406 8.404020309448242 0
    endloop
  endfacet
  facet normal 0.7771467138862955 0.6293194618758683 0
    outer loop
      vertex 56.73553466796875 9.318316459655762 120
      vertex 56.40288162231445 9.729109764099121 0
      vertex 56.40288162231445 9.729109764099121 120
    endloop
  endfacet
  facet normal 0.7771467138862955 0.6293194618758683 0
    outer loop
      vertex 56.40288162231445 9.729109764099121 0
      vertex 56.73553466796875 9.318316459655762 120
      vertex 56.73553466796875 9.318316459655762 0
    endloop
  endfacet
  facet normal -0.2588195325228176 0.9659256956850615 0
    outer loop
      vertex 51.60004425048828 11.28964614868164 0
      vertex 51.08946228027344 11.152835845947266 120
      vertex 51.60004425048828 11.28964614868164 120
    endloop
  endfacet
  facet normal -0.2588195325228176 0.9659256956850615 0
    outer loop
      vertex 51.08946228027344 11.152835845947266 120
      vertex 51.60004425048828 11.28964614868164 0
      vertex 51.08946228027344 11.152835845947266 0
    endloop
  endfacet
  facet normal 0.7071067811865476 0.7071067811865476 0
    outer loop
      vertex 56.40288162231445 9.729109764099121 120
      vertex 56.029109954833984 10.10288143157959 0
      vertex 56.029109954833984 10.10288143157959 120
    endloop
  endfacet
  facet normal 0.7071067811865476 0.7071067811865476 0
    outer loop
      vertex 56.029109954833984 10.10288143157959 0
      vertex 56.40288162231445 9.729109764099121 120
      vertex 56.40288162231445 9.729109764099121 0
    endloop
  endfacet
  facet normal 0.9876892010296159 -0.15642903237404135 0
    outer loop
      vertex 57.58964538574219 5.300045967102051 120
      vertex 57.672332763671875 5.822132110595703 0
      vertex 57.672332763671875 5.822132110595703 120
    endloop
  endfacet
  facet normal 0.9876892010296159 -0.15642903237404135 0
    outer loop
      vertex 57.672332763671875 5.822132110595703 0
      vertex 57.58964538574219 5.300045967102051 120
      vertex 57.58964538574219 5.300045967102051 0
    endloop
  endfacet
  facet normal 0.9659255748275735 -0.2588199835677718 0
    outer loop
      vertex 57.45283508300781 4.789464950561523 120
      vertex 57.58964538574219 5.300045967102051 0
      vertex 57.58964538574219 5.300045967102051 120
    endloop
  endfacet
  facet normal 0.9659255748275735 -0.2588199835677718 0
    outer loop
      vertex 57.58964538574219 5.300045967102051 0
      vertex 57.45283508300781 4.789464950561523 120
      vertex 57.45283508300781 4.789464950561523 0
    endloop
  endfacet
  facet normal 0.6293216411621828 -0.7771449491342891 0
    outer loop
      vertex 55.618316650390625 2.2644643783569336 0
      vertex 56.029109954833984 2.5971193313598633 120
      vertex 55.618316650390625 2.2644643783569336 120
    endloop
  endfacet
  facet normal 0.6293216411621828 -0.7771449491342891 0
    outer loop
      vertex 56.029109954833984 2.5971193313598633 120
      vertex 55.618316650390625 2.2644643783569336 0
      vertex 56.029109954833984 2.5971193313598633 0
    endloop
  endfacet
  facet normal -0.7771467138862955 0.6293194618758683 0
    outer loop
      vertex 48.5644645690918 9.318316459655762 0
      vertex 48.897117614746094 9.729109764099121 120
      vertex 48.897117614746094 9.729109764099121 0
    endloop
  endfacet
  facet normal -0.7771467138862955 0.6293194618758683 0
    outer loop
      vertex 48.897117614746094 9.729109764099121 120
      vertex 48.5644645690918 9.318316459655762 0
      vertex 48.5644645690918 9.318316459655762 120
    endloop
  endfacet
  facet normal -0.9876880418509464 0.15643635122516533 0
    outer loop
      vertex 47.627662658691406 6.877869606018066 0
      vertex 47.71035385131836 7.399954795837402 120
      vertex 47.71035385131836 7.399954795837402 0
    endloop
  endfacet
  facet normal -0.9876880418509464 0.15643635122516533 0
    outer loop
      vertex 47.71035385131836 7.399954795837402 120
      vertex 47.627662658691406 6.877869606018066 0
      vertex 47.627662658691406 6.877869606018066 120
    endloop
  endfacet
  facet normal -0.6293216411621828 0.7771449491342891 0
    outer loop
      vertex 49.68168258666992 10.43553638458252 0
      vertex 49.27088928222656 10.10288143157959 120
      vertex 49.68168258666992 10.43553638458252 120
    endloop
  endfacet
  facet normal -0.6293216411621828 0.7771449491342891 0
    outer loop
      vertex 49.27088928222656 10.10288143157959 120
      vertex 49.68168258666992 10.43553638458252 0
      vertex 49.27088928222656 10.10288143157959 0
    endloop
  endfacet
  facet normal 0.0523357311661832 0.9986295465503217 0
    outer loop
      vertex 53.1778678894043 11.372336387634277 0
      vertex 52.650001525878906 11.40000057220459 120
      vertex 53.1778678894043 11.372336387634277 120
    endloop
  endfacet
  facet normal 0.0523357311661832 0.9986295465503217 0
    outer loop
      vertex 52.650001525878906 11.40000057220459 120
      vertex 53.1778678894043 11.372336387634277 0
      vertex 52.650001525878906 11.40000057220459 0
    endloop
  endfacet
  facet normal -0.7071067811865476 0.7071067811865476 0
    outer loop
      vertex 48.897117614746094 9.729109764099121 0
      vertex 49.27088928222656 10.10288143157959 120
      vertex 49.27088928222656 10.10288143157959 0
    endloop
  endfacet
  facet normal -0.7071067811865476 0.7071067811865476 0
    outer loop
      vertex 49.27088928222656 10.10288143157959 120
      vertex 48.897117614746094 9.729109764099121 0
      vertex 48.897117614746094 9.729109764099121 120
    endloop
  endfacet
  facet normal 0.5445754265733659 -0.8387118723211426 0
    outer loop
      vertex 55.599998474121094 2.252570390701294 0
      vertex 55.618316650390625 2.2644643783569336 120
      vertex 55.599998474121094 2.252570390701294 120
    endloop
  endfacet
  facet normal 0.5445754265733659 -0.8387118723211426 0
    outer loop
      vertex 55.618316650390625 2.2644643783569336 120
      vertex 55.599998474121094 2.252570390701294 0
      vertex 55.618316650390625 2.2644643783569336 0
    endloop
  endfacet
  facet normal -0.052335353993629444 0.9986295663169409 0
    outer loop
      vertex 52.650001525878906 11.40000057220459 0
      vertex 52.12213134765625 11.372336387634277 120
      vertex 52.650001525878906 11.40000057220459 120
    endloop
  endfacet
  facet normal -0.052335353993629444 0.9986295663169409 0
    outer loop
      vertex 52.12213134765625 11.372336387634277 120
      vertex 52.650001525878906 11.40000057220459 0
      vertex 52.12213134765625 11.372336387634277 0
    endloop
  endfacet
  facet normal 0 0 -1
    outer loop
      vertex 63.32406997680664 -6.16372013092041 0
      vertex 63.30479431152344 -5.20665168762207 0
      vertex 63.372535705566406 -5.684016227722168 0
    endloop
  endfacet
  facet normal 0 0 -1
    outer loop
      vertex 63.162208557128906 -6.617887496948242 0
      vertex 63.30479431152344 -5.20665168762207 0
      vertex 63.32406997680664 -6.16372013092041 0
    endloop
  endfacet
  facet normal 0 0 -1
    outer loop
      vertex 63.162208557128906 -6.617887496948242 0
      vertex 63.124778747558594 -4.759371757507324 0
      vertex 63.30479431152344 -5.20665168762207 0
    endloop
  endfacet
  facet normal 0 0 -1
    outer loop
      vertex 62.896366119384766 -7.0201215744018555 0
      vertex 63.124778747558594 -4.759371757507324 0
      vertex 63.162208557128906 -6.617887496948242 0
    endloop
  endfacet
  facet normal 0 0 -1
    outer loop
      vertex 62.896366119384766 -7.0201215744018555 0
      vertex 62.842952728271484 -4.368167877197266 0
      vertex 63.124778747558594 -4.759371757507324 0
    endloop
  endfacet
  facet normal 0 0 -1
    outer loop
      vertex 62.54198455810547 -7.3470458984375 0
      vertex 62.842952728271484 -4.368167877197266 0
      vertex 62.896366119384766 -7.0201215744018555 0
    endloop
  endfacet
  facet normal 0 0 -1
    outer loop
      vertex 62.54198455810547 -7.3470458984375 0
      vertex 62.4756965637207 -4.055777549743652 0
      vertex 62.842952728271484 -4.368167877197266 0
    endloop
  endfacet
  facet normal 0 0 -1
    outer loop
      vertex 62.11966323852539 -7.579662322998047 0
      vertex 62.4756965637207 -4.055777549743652 0
      vertex 62.54198455810547 -7.3470458984375 0
    endloop
  endfacet
  facet normal 0 0 -1
    outer loop
      vertex 62.11966323852539 -7.579662322998047 0
      vertex 62.044349670410156 -3.84035587310791 0
      vertex 62.4756965637207 -4.055777549743652 0
    endloop
  endfacet
  facet normal 0 0 -1
    outer loop
      vertex 62.11966323852539 -7.579662322998047 0
      vertex 55.599998474121094 -1.4980489015579224 0
      vertex 62.044349670410156 -3.84035587310791 0
    endloop
  endfacet
  facet normal 0 0 -1
    outer loop
      vertex 47.599998474121094 -0.3018970489501953 0
      vertex 55.599998474121094 2.252570390701294 0
      vertex 55.599998474121094 -1.4980489015579224 0
    endloop
  endfacet
  facet normal 0 0 -1
    outer loop
      vertex 55.599998474121094 2.252570390701294 0
      vertex 47.599998474121094 6.350000381469727 0
      vertex 55.17499923706055 10.723428726196289 0
    endloop
  endfacet
  facet normal 0 0 -1
    outer loop
      vertex 55.17499923706055 10.723428726196289 0
      vertex 47.599998474121094 6.350000381469727 0
      vertex 54.704017639160156 10.963404655456543 0
    endloop
  endfacet
  facet normal 0 0 -1
    outer loop
      vertex 54.704017639160156 10.963404655456543 0
      vertex 47.599998474121094 6.350000381469727 0
      vertex 54.210533142089844 11.152835845947266 0
    endloop
  endfacet
  facet normal 0 0 -1
    outer loop
      vertex 54.210533142089844 11.152835845947266 0
      vertex 47.599998474121094 6.350000381469727 0
      vertex 53.699954986572266 11.28964614868164 0
    endloop
  endfacet
  facet normal 0 0 -1
    outer loop
      vertex 53.699954986572266 11.28964614868164 0
      vertex 47.599998474121094 6.350000381469727 0
      vertex 53.1778678894043 11.372336387634277 0
    endloop
  endfacet
  facet normal 0 0 -1
    outer loop
      vertex 53.1778678894043 11.372336387634277 0
      vertex 47.599998474121094 6.350000381469727 0
      vertex 52.650001525878906 11.40000057220459 0
    endloop
  endfacet
  facet normal 0 0 -1
    outer loop
      vertex 52.650001525878906 11.40000057220459 0
      vertex 47.599998474121094 6.350000381469727 0
      vertex 52.12213134765625 11.372336387634277 0
    endloop
  endfacet
  facet normal 0 0 -1
    outer loop
      vertex 52.12213134765625 11.372336387634277 0
      vertex 47.599998474121094 6.350000381469727 0
      vertex 51.60004425048828 11.28964614868164 0
    endloop
  endfacet
  facet normal 0 0 -1
    outer loop
      vertex 51.60004425048828 11.28964614868164 0
      vertex 47.599998474121094 6.350000381469727 0
      vertex 51.08946228027344 11.152835845947266 0
    endloop
  endfacet
  facet normal 0 0 -1
    outer loop
      vertex 51.08946228027344 11.152835845947266 0
      vertex 47.599998474121094 6.350000381469727 0
      vertex 50.595977783203125 10.963404655456543 0
    endloop
  endfacet
  facet normal 0 0 -1
    outer loop
      vertex 50.595977783203125 10.963404655456543 0
      vertex 47.599998474121094 6.350000381469727 0
      vertex 50.125 10.723428726196289 0
    endloop
  endfacet
  facet normal 0 0 -1
    outer loop
      vertex 50.125 10.723428726196289 0
      vertex 47.599998474121094 6.350000381469727 0
      vertex 49.68168258666992 10.43553638458252 0
    endloop
  endfacet
  facet normal 0 0 -1
    outer loop
      vertex 49.68168258666992 10.43553638458252 0
      vertex 47.599998474121094 6.350000381469727 0
      vertex 49.27088928222656 10.10288143157959 0
    endloop
  endfacet
  facet normal 0 0 -1
    outer loop
      vertex 49.27088928222656 10.10288143157959 0
      vertex 47.599998474121094 6.350000381469727 0
      vertex 48.897117614746094 9.729109764099121 0
    endloop
  endfacet
  facet normal 0 0 -1
    outer loop
      vertex 48.897117614746094 9.729109764099121 0
      vertex 47.599998474121094 6.350000381469727 0
      vertex 48.5644645690918 9.318316459655762 0
    endloop
  endfacet
  facet normal 0 0 -1
    outer loop
      vertex 48.5644645690918 9.318316459655762 0
      vertex 47.599998474121094 6.350000381469727 0
      vertex 48.276573181152344 8.875 0
    endloop
  endfacet
  facet normal 0 0 -1
    outer loop
      vertex 48.276573181152344 8.875 0
      vertex 47.599998474121094 6.350000381469727 0
      vertex 48.03659439086914 8.404020309448242 0
    endloop
  endfacet
  facet normal 0 0 -1
    outer loop
      vertex 48.03659439086914 8.404020309448242 0
      vertex 47.599998474121094 6.350000381469727 0
      vertex 47.847164154052734 7.910536766052246 0
    endloop
  endfacet
  facet normal 0 0 -1
    outer loop
      vertex 47.847164154052734 7.910536766052246 0
      vertex 47.599998474121094 6.350000381469727 0
      vertex 47.71035385131836 7.399954795837402 0
    endloop
  endfacet
  facet normal 0 0 -1
    outer loop
      vertex 55.599998474121094 2.252570390701294 0
      vertex 47.599998474121094 -0.3018970489501953 0
      vertex 47.599998474121094 6.350000381469727 0
    endloop
  endfacet
  facet normal 0 0 -1
    outer loop
      vertex 62.11966323852539 -7.579662322998047 0
      vertex 47.599998474121094 -0.3018970489501953 0
      vertex 55.599998474121094 -1.4980489015579224 0
    endloop
  endfacet
  facet normal 0 0 -1
    outer loop
      vertex -51.859580993652344 -38.12030792236328 0
      vertex 47.599998474121094 -0.3018970489501953 0
      vertex 62.11966323852539 -7.579662322998047 0
    endloop
  endfacet
  facet normal 0 0 -1
    outer loop
      vertex 47.599998474121094 -0.3018970489501953 0
      vertex -51.859580993652344 -38.12030792236328 0
      vertex -36.39728546142578 -0.3018970489501953 0
    endloop
  endfacet
  facet normal 0 0 -1
    outer loop
      vertex -36.39728546142578 -0.3018970489501953 0
      vertex -51.859580993652344 -38.12030792236328 0
      vertex -42.71695327758789 -5.289228916168213 0
    endloop
  endfacet
  facet normal 0 0 -1
    outer loop
      vertex -54.395572662353516 -35.371337890625 0
      vertex -51.859580993652344 -38.12030792236328 0
      vertex -52.32529830932617 -38.24509811401367 0
    endloop
  endfacet
  facet normal 0 0 -1
    outer loop
      vertex -54.395572662353516 -35.371337890625 0
      vertex -52.32529830932617 -38.24509811401367 0
      vertex -52.807350158691406 -38.25480651855469 0
    endloop
  endfacet
  facet normal 0 0 -1
    outer loop
      vertex -54.395572662353516 -35.371337890625 0
      vertex -52.807350158691406 -38.25480651855469 0
      vertex -53.277713775634766 -38.14887237548828 0
    endloop
  endfacet
  facet normal 0 0 -1
    outer loop
      vertex -54.395572662353516 -35.371337890625 0
      vertex -53.277713775634766 -38.14887237548828 0
      vertex -53.70905685424805 -37.933448791503906 0
    endloop
  endfacet
  facet normal 0 0 -1
    outer loop
      vertex -54.395572662353516 -35.371337890625 0
      vertex -53.70905685424805 -37.933448791503906 0
      vertex -54.076316833496094 -37.62105941772461 0
    endloop
  endfacet
  facet normal 0 0 -1
    outer loop
      vertex -54.395572662353516 -35.371337890625 0
      vertex -54.076316833496094 -37.62105941772461 0
      vertex -54.35813903808594 -37.2298583984375 0
    endloop
  endfacet
  facet normal 0 0 -1
    outer loop
      vertex -51.859580993652344 -38.12030792236328 0
      vertex -54.395572662353516 -35.371337890625 0
      vertex -42.71695327758789 -5.289228916168213 0
    endloop
  endfacet
  facet normal 0 0 -1
    outer loop
      vertex -54.53815460205078 -36.78257751464844 0
      vertex -54.395572662353516 -35.371337890625 0
      vertex -54.35813903808594 -37.2298583984375 0
    endloop
  endfacet
  facet normal 0 0 -1
    outer loop
      vertex -54.53815460205078 -36.78257751464844 0
      vertex -54.557430267333984 -35.82550811767578 0
      vertex -54.395572662353516 -35.371337890625 0
    endloop
  endfacet
  facet normal 0 0 -1
    outer loop
      vertex -54.557430267333984 -35.82550811767578 0
      vertex -54.53815460205078 -36.78257751464844 0
      vertex -54.60589599609375 -36.30521011352539 0
    endloop
  endfacet
  facet normal 0 0 -1
    outer loop
      vertex 57.672332763671875 5.822132110595703 0
      vertex 57.672332763671875 6.877869606018066 0
      vertex 57.70000076293945 6.350000381469727 0
    endloop
  endfacet
  facet normal 0 0 -1
    outer loop
      vertex 57.58964538574219 5.300045967102051 0
      vertex 57.672332763671875 6.877869606018066 0
      vertex 57.672332763671875 5.822132110595703 0
    endloop
  endfacet
  facet normal 0 0 -1
    outer loop
      vertex 57.58964538574219 5.300045967102051 0
      vertex 57.58964538574219 7.399954795837402 0
      vertex 57.672332763671875 6.877869606018066 0
    endloop
  endfacet
  facet normal 0 0 -1
    outer loop
      vertex 57.45283508300781 4.789464950561523 0
      vertex 57.58964538574219 7.399954795837402 0
      vertex 57.58964538574219 5.300045967102051 0
    endloop
  endfacet
  facet normal 0 0 -1
    outer loop
      vertex 57.45283508300781 4.789464950561523 0
      vertex 57.45283508300781 7.910536766052246 0
      vertex 57.58964538574219 7.399954795837402 0
    endloop
  endfacet
  facet normal 0 0 -1
    outer loop
      vertex 57.263404846191406 4.295980453491211 0
      vertex 57.45283508300781 7.910536766052246 0
      vertex 57.45283508300781 4.789464950561523 0
    endloop
  endfacet
  facet normal 0 0 -1
    outer loop
      vertex 57.263404846191406 4.295980453491211 0
      vertex 57.263404846191406 8.404020309448242 0
      vertex 57.45283508300781 7.910536766052246 0
    endloop
  endfacet
  facet normal 0 0 -1
    outer loop
      vertex 57.02342987060547 3.825000762939453 0
      vertex 57.263404846191406 8.404020309448242 0
      vertex 57.263404846191406 4.295980453491211 0
    endloop
  endfacet
  facet normal 0 0 -1
    outer loop
      vertex 57.02342987060547 3.825000762939453 0
      vertex 57.02342987060547 8.875 0
      vertex 57.263404846191406 8.404020309448242 0
    endloop
  endfacet
  facet normal 0 0 -1
    outer loop
      vertex 56.73553466796875 3.381685256958008 0
      vertex 57.02342987060547 8.875 0
      vertex 57.02342987060547 3.825000762939453 0
    endloop
  endfacet
  facet normal 0 0 -1
    outer loop
      vertex 56.73553466796875 3.381685256958008 0
      vertex 56.73553466796875 9.318316459655762 0
      vertex 57.02342987060547 8.875 0
    endloop
  endfacet
  facet normal 0 0 -1
    outer loop
      vertex 56.40288162231445 2.970890998840332 0
      vertex 56.73553466796875 9.318316459655762 0
      vertex 56.73553466796875 3.381685256958008 0
    endloop
  endfacet
  facet normal 0 0 -1
    outer loop
      vertex 56.40288162231445 2.970890998840332 0
      vertex 56.40288162231445 9.729109764099121 0
      vertex 56.73553466796875 9.318316459655762 0
    endloop
  endfacet
  facet normal 0 0 -1
    outer loop
      vertex 56.029109954833984 2.5971193313598633 0
      vertex 56.40288162231445 9.729109764099121 0
      vertex 56.40288162231445 2.970890998840332 0
    endloop
  endfacet
  facet normal 0 0 -1
    outer loop
      vertex 56.029109954833984 2.5971193313598633 0
      vertex 56.029109954833984 10.10288143157959 0
      vertex 56.40288162231445 9.729109764099121 0
    endloop
  endfacet
  facet normal 0 0 -1
    outer loop
      vertex 55.599998474121094 2.252570390701294 0
      vertex 56.029109954833984 2.5971193313598633 0
      vertex 55.618316650390625 2.2644643783569336 0
    endloop
  endfacet
  facet normal 0 0 -1
    outer loop
      vertex 56.029109954833984 2.5971193313598633 0
      vertex 55.599998474121094 2.252570390701294 0
      vertex 56.029109954833984 10.10288143157959 0
    endloop
  endfacet
  facet normal 0 0 -1
    outer loop
      vertex 56.029109954833984 10.10288143157959 0
      vertex 55.599998474121094 2.252570390701294 0
      vertex 55.618316650390625 10.43553638458252 0
    endloop
  endfacet
  facet normal 0 0 -1
    outer loop
      vertex 55.618316650390625 10.43553638458252 0
      vertex 55.599998474121094 2.252570390701294 0
      vertex 55.17499923706055 10.723428726196289 0
    endloop
  endfacet
  facet normal 0 0 -1
    outer loop
      vertex 47.71035385131836 7.399954795837402 0
      vertex 47.599998474121094 6.350000381469727 0
      vertex 47.627662658691406 6.877869606018066 0
    endloop
  endfacet
  facet normal 0 0 -1
    outer loop
      vertex -42.71695327758789 -5.289228916168213 0
      vertex -45.74396514892578 9.044782638549805 0
      vertex -36.39728546142578 -0.3018970489501953 0
    endloop
  endfacet
  facet normal 0 0 -1
    outer loop
      vertex -51.484535217285156 3.4783525466918945 0
      vertex -45.74396514892578 9.044782638549805 0
      vertex -42.71695327758789 -5.289228916168213 0
    endloop
  endfacet
  facet normal 0 0 -1
    outer loop
      vertex -45.74396514892578 9.044782638549805 0
      vertex -51.484535217285156 3.4783525466918945 0
      vertex -46.09752655029297 9.387619972229004 0
    endloop
  endfacet
  facet normal 0 0 -1
    outer loop
      vertex -46.09752655029297 9.387619972229004 0
      vertex -51.484535217285156 3.4783525466918945 0
      vertex -46.49053955078125 9.684410095214844 0
    endloop
  endfacet
  facet normal 0 0 -1
    outer loop
      vertex -46.49053955078125 9.684410095214844 0
      vertex -51.484535217285156 3.4783525466918945 0
      vertex -46.91704559326172 9.93065357208252 0
    endloop
  endfacet
  facet normal 0 0 -1
    outer loop
      vertex -46.91704559326172 9.93065357208252 0
      vertex -51.484535217285156 3.4783525466918945 0
      vertex -47.370582580566406 10.122618675231934 0
    endloop
  endfacet
  facet normal 0 0 -1
    outer loop
      vertex -47.370582580566406 10.122618675231934 0
      vertex -51.484535217285156 3.4783525466918945 0
      vertex -47.844268798828125 10.257393836975098 0
    endloop
  endfacet
  facet normal 0 0 -1
    outer loop
      vertex -47.844268798828125 10.257393836975098 0
      vertex -51.484535217285156 3.4783525466918945 0
      vertex -48.33092498779297 10.332937240600586 0
    endloop
  endfacet
  facet normal 0 0 -1
    outer loop
      vertex -48.33092498779297 10.332937240600586 0
      vertex -51.484535217285156 3.4783525466918945 0
      vertex -48.82318115234375 10.348103523254395 0
    endloop
  endfacet
  facet normal 0 0 -1
    outer loop
      vertex -48.82318115234375 10.348103523254395 0
      vertex -51.484535217285156 3.4783525466918945 0
      vertex -49.313568115234375 10.302661895751953 0
    endloop
  endfacet
  facet normal 0 0 -1
    outer loop
      vertex -49.313568115234375 10.302661895751953 0
      vertex -51.484535217285156 3.4783525466918945 0
      vertex -49.79465103149414 10.19730281829834 0
    endloop
  endfacet
  facet normal 0 0 -1
    outer loop
      vertex -49.79465103149414 10.19730281829834 0
      vertex -51.484535217285156 3.4783525466918945 0
      vertex -50.2591438293457 10.033622741699219 0
    endloop
  endfacet
  facet normal 0 0 -1
    outer loop
      vertex -50.2591438293457 10.033622741699219 0
      vertex -51.484535217285156 3.4783525466918945 0
      vertex -50.70000076293945 9.814102172851562 0
    endloop
  endfacet
  facet normal 0 0 -1
    outer loop
      vertex -50.70000076293945 9.814102172851562 0
      vertex -51.484535217285156 3.4783525466918945 0
      vertex -51.110538482666016 9.542069435119629 0
    endloop
  endfacet
  facet normal 0 0 -1
    outer loop
      vertex -51.484535217285156 3.4783525466918945 0
      vertex -51.484535217285156 9.221648216247559 0
      vertex -51.110538482666016 9.542069435119629 0
    endloop
  endfacet
  facet normal 0 0 -1
    outer loop
      vertex -51.816322326660156 3.8423051834106445 0
      vertex -51.484535217285156 9.221648216247559 0
      vertex -51.484535217285156 3.4783525466918945 0
    endloop
  endfacet
  facet normal 0 0 -1
    outer loop
      vertex -51.816322326660156 3.8423051834106445 0
      vertex -51.816322326660156 8.857695579528809 0
      vertex -51.484535217285156 9.221648216247559 0
    endloop
  endfacet
  facet normal 0 0 -1
    outer loop
      vertex -52.100868225097656 4.244272232055664 0
      vertex -51.816322326660156 8.857695579528809 0
      vertex -51.816322326660156 3.8423051834106445 0
    endloop
  endfacet
  facet normal 0 0 -1
    outer loop
      vertex -52.100868225097656 4.244272232055664 0
      vertex -52.100868225097656 8.455729484558105 0
      vertex -51.816322326660156 8.857695579528809 0
    endloop
  endfacet
  facet normal 0 0 -1
    outer loop
      vertex -52.3338623046875 4.678158760070801 0
      vertex -52.100868225097656 8.455729484558105 0
      vertex -52.100868225097656 4.244272232055664 0
    endloop
  endfacet
  facet normal 0 0 -1
    outer loop
      vertex -52.3338623046875 4.678158760070801 0
      vertex -52.3338623046875 8.021842002868652 0
      vertex -52.100868225097656 8.455729484558105 0
    endloop
  endfacet
  facet normal 0 0 -1
    outer loop
      vertex -52.51176834106445 5.13739013671875 0
      vertex -52.3338623046875 8.021842002868652 0
      vertex -52.3338623046875 4.678158760070801 0
    endloop
  endfacet
  facet normal 0 0 -1
    outer loop
      vertex -52.51176834106445 5.13739013671875 0
      vertex -52.51176834106445 7.5626115798950195 0
      vertex -52.3338623046875 8.021842002868652 0
    endloop
  endfacet
  facet normal 0 0 -1
    outer loop
      vertex -52.631893157958984 5.615002632141113 0
      vertex -52.51176834106445 7.5626115798950195 0
      vertex -52.51176834106445 5.13739013671875 0
    endloop
  endfacet
  facet normal 0 0 -1
    outer loop
      vertex -52.631893157958984 5.615002632141113 0
      vertex -52.631893157958984 7.08499813079834 0
      vertex -52.51176834106445 7.5626115798950195 0
    endloop
  endfacet
  facet normal 0 0 -1
    outer loop
      vertex -52.692413330078125 6.103756904602051 0
      vertex -52.631893157958984 7.08499813079834 0
      vertex -52.631893157958984 5.615002632141113 0
    endloop
  endfacet
  facet normal 0 0 -1
    outer loop
      vertex -52.631893157958984 7.08499813079834 0
      vertex -52.692413330078125 6.103756904602051 0
      vertex -52.692413330078125 6.596243858337402 0
    endloop
  endfacet
  facet normal 0.8386681942936368 -0.5446426901008133 0
    outer loop
      vertex 56.73553466796875 3.381685256958008 120
      vertex 57.02342987060547 3.825000762939453 0
      vertex 57.02342987060547 3.825000762939453 120
    endloop
  endfacet
  facet normal 0.8386681942936368 -0.5446426901008133 0
    outer loop
      vertex 57.02342987060547 3.825000762939453 0
      vertex 56.73553466796875 3.381685256958008 120
      vertex 56.73553466796875 3.381685256958008 0
    endloop
  endfacet
  facet normal 0.7771474284174299 -0.6293185795002207 0
    outer loop
      vertex 56.40288162231445 2.970890998840332 120
      vertex 56.73553466796875 3.381685256958008 0
      vertex 56.73553466796875 3.381685256958008 120
    endloop
  endfacet
  facet normal 0.7771474284174299 -0.6293185795002207 0
    outer loop
      vertex 56.73553466796875 3.381685256958008 0
      vertex 56.40288162231445 2.970890998840332 120
      vertex 56.40288162231445 2.970890998840332 0
    endloop
  endfacet
  facet normal -0.4539916450481967 0.891005940623536 0
    outer loop
      vertex 50.595977783203125 10.963404655456543 0
      vertex 50.125 10.723428726196289 120
      vertex 50.595977783203125 10.963404655456543 120
    endloop
  endfacet
  facet normal -0.4539916450481967 0.891005940623536 0
    outer loop
      vertex 50.125 10.723428726196289 120
      vertex 50.595977783203125 10.963404655456543 0
      vertex 50.125 10.723428726196289 0
    endloop
  endfacet
  facet normal -0.9986295613753261 0.05233544828625892 0
    outer loop
      vertex 47.599998474121094 6.350000381469727 0
      vertex 47.627662658691406 6.877869606018066 120
      vertex 47.627662658691406 6.877869606018066 0
    endloop
  endfacet
  facet normal -0.9986295613753261 0.05233544828625892 0
    outer loop
      vertex 47.627662658691406 6.877869606018066 120
      vertex 47.599998474121094 6.350000381469727 0
      vertex 47.599998474121094 6.350000381469727 120
    endloop
  endfacet
  facet normal -0.9659256956850615 0.2588195325228176 0
    outer loop
      vertex 47.71035385131836 7.399954795837402 0
      vertex 47.847164154052734 7.910536766052246 120
      vertex 47.847164154052734 7.910536766052246 0
    endloop
  endfacet
  facet normal -0.9659256956850615 0.2588195325228176 0
    outer loop
      vertex 47.847164154052734 7.910536766052246 120
      vertex 47.71035385131836 7.399954795837402 0
      vertex 47.71035385131836 7.399954795837402 120
    endloop
  endfacet
  facet normal 0.7071067811865476 -0.7071067811865476 0
    outer loop
      vertex 56.029109954833984 2.5971193313598633 120
      vertex 56.40288162231445 2.970890998840332 0
      vertex 56.40288162231445 2.970890998840332 120
    endloop
  endfacet
  facet normal 0.7071067811865476 -0.7071067811865476 0
    outer loop
      vertex 56.40288162231445 2.970890998840332 0
      vertex 56.029109954833984 2.5971193313598633 120
      vertex 56.029109954833984 2.5971193313598633 0
    endloop
  endfacet
  facet normal 0 0 1
    outer loop
      vertex 57.672332763671875 6.877869606018066 120
      vertex 57.672332763671875 5.822132110595703 120
      vertex 57.70000076293945 6.350000381469727 120
    endloop
  endfacet
  facet normal 0 0 1
    outer loop
      vertex 57.58964538574219 7.399954795837402 120
      vertex 57.672332763671875 5.822132110595703 120
      vertex 57.672332763671875 6.877869606018066 120
    endloop
  endfacet
  facet normal 0 0 1
    outer loop
      vertex 57.58964538574219 7.399954795837402 120
      vertex 57.58964538574219 5.300045967102051 120
      vertex 57.672332763671875 5.822132110595703 120
    endloop
  endfacet
  facet normal 0 0 1
    outer loop
      vertex 57.45283508300781 7.910536766052246 120
      vertex 57.58964538574219 5.300045967102051 120
      vertex 57.58964538574219 7.399954795837402 120
    endloop
  endfacet
  facet normal 0 0 1
    outer loop
      vertex 57.45283508300781 7.910536766052246 120
      vertex 57.45283508300781 4.789464950561523 120
      vertex 57.58964538574219 5.300045967102051 120
    endloop
  endfacet
  facet normal 0 0 1
    outer loop
      vertex 57.263404846191406 8.404020309448242 120
      vertex 57.45283508300781 4.789464950561523 120
      vertex 57.45283508300781 7.910536766052246 120
    endloop
  endfacet
  facet normal 0 0 1
    outer loop
      vertex 57.263404846191406 8.404020309448242 120
      vertex 57.263404846191406 4.295980453491211 120
      vertex 57.45283508300781 4.789464950561523 120
    endloop
  endfacet
  facet normal 0 0 1
    outer loop
      vertex 57.02342987060547 8.875 120
      vertex 57.263404846191406 4.295980453491211 120
      vertex 57.263404846191406 8.404020309448242 120
    endloop
  endfacet
  facet normal 0 0 1
    outer loop
      vertex 57.02342987060547 8.875 120
      vertex 57.02342987060547 3.825000762939453 120
      vertex 57.263404846191406 4.295980453491211 120
    endloop
  endfacet
  facet normal 0 0 1
    outer loop
      vertex 56.73553466796875 9.318316459655762 120
      vertex 57.02342987060547 3.825000762939453 120
      vertex 57.02342987060547 8.875 120
    endloop
  endfacet
  facet normal 0 0 1
    outer loop
      vertex 56.73553466796875 9.318316459655762 120
      vertex 56.73553466796875 3.381685256958008 120
      vertex 57.02342987060547 3.825000762939453 120
    endloop
  endfacet
  facet normal 0 0 1
    outer loop
      vertex 56.40288162231445 9.729109764099121 120
      vertex 56.73553466796875 3.381685256958008 120
      vertex 56.73553466796875 9.318316459655762 120
    endloop
  endfacet
  facet normal 0 0 1
    outer loop
      vertex 56.40288162231445 9.729109764099121 120
      vertex 56.40288162231445 2.970890998840332 120
      vertex 56.73553466796875 3.381685256958008 120
    endloop
  endfacet
  facet normal 0 0 1
    outer loop
      vertex 56.029109954833984 10.10288143157959 120
      vertex 56.40288162231445 2.970890998840332 120
      vertex 56.40288162231445 9.729109764099121 120
    endloop
  endfacet
  facet normal 0 0 1
    outer loop
      vertex 56.029109954833984 10.10288143157959 120
      vertex 56.029109954833984 2.5971193313598633 120
      vertex 56.40288162231445 2.970890998840332 120
    endloop
  endfacet
  facet normal 0 0 1
    outer loop
      vertex 55.618316650390625 10.43553638458252 120
      vertex 56.029109954833984 2.5971193313598633 120
      vertex 56.029109954833984 10.10288143157959 120
    endloop
  endfacet
  facet normal 0 0 1
    outer loop
      vertex 55.599998474121094 2.252570390701294 120
      vertex 56.029109954833984 2.5971193313598633 120
      vertex 55.618316650390625 10.43553638458252 120
    endloop
  endfacet
  facet normal 0 0 1
    outer loop
      vertex 56.029109954833984 2.5971193313598633 120
      vertex 55.599998474121094 2.252570390701294 120
      vertex 55.618316650390625 2.2644643783569336 120
    endloop
  endfacet
  facet normal 0 0 1
    outer loop
      vertex 47.599998474121094 6.350000381469727 120
      vertex 55.599998474121094 2.252570390701294 120
      vertex 55.17499923706055 10.723428726196289 120
    endloop
  endfacet
  facet normal 0 0 1
    outer loop
      vertex 55.17499923706055 10.723428726196289 120
      vertex 55.599998474121094 2.252570390701294 120
      vertex 55.618316650390625 10.43553638458252 120
    endloop
  endfacet
  facet normal 0 0 1
    outer loop
      vertex 63.30479431152344 -5.20665168762207 120
      vertex 63.32406997680664 -6.16372013092041 120
      vertex 63.372535705566406 -5.684016227722168 120
    endloop
  endfacet
  facet normal 0 0 1
    outer loop
      vertex 63.30479431152344 -5.20665168762207 120
      vertex 63.162208557128906 -6.617887496948242 120
      vertex 63.32406997680664 -6.16372013092041 120
    endloop
  endfacet
  facet normal 0 0 1
    outer loop
      vertex 63.124778747558594 -4.759371757507324 120
      vertex 63.162208557128906 -6.617887496948242 120
      vertex 63.30479431152344 -5.20665168762207 120
    endloop
  endfacet
  facet normal 0 0 1
    outer loop
      vertex 63.124778747558594 -4.759371757507324 120
      vertex 62.896366119384766 -7.0201215744018555 120
      vertex 63.162208557128906 -6.617887496948242 120
    endloop
  endfacet
  facet normal 0 0 1
    outer loop
      vertex 62.842952728271484 -4.368167877197266 120
      vertex 62.896366119384766 -7.0201215744018555 120
      vertex 63.124778747558594 -4.759371757507324 120
    endloop
  endfacet
  facet normal 0 0 1
    outer loop
      vertex 62.842952728271484 -4.368167877197266 120
      vertex 62.54198455810547 -7.3470458984375 120
      vertex 62.896366119384766 -7.0201215744018555 120
    endloop
  endfacet
  facet normal 0 0 1
    outer loop
      vertex 62.4756965637207 -4.055777549743652 120
      vertex 62.54198455810547 -7.3470458984375 120
      vertex 62.842952728271484 -4.368167877197266 120
    endloop
  endfacet
  facet normal 0 0 1
    outer loop
      vertex 62.4756965637207 -4.055777549743652 120
      vertex 62.11966323852539 -7.579662322998047 120
      vertex 62.54198455810547 -7.3470458984375 120
    endloop
  endfacet
  facet normal 0 0 1
    outer loop
      vertex 62.044349670410156 -3.84035587310791 120
      vertex 62.11966323852539 -7.579662322998047 120
      vertex 62.4756965637207 -4.055777549743652 120
    endloop
  endfacet
  facet normal 0 0 1
    outer loop
      vertex 55.599998474121094 -1.4980489015579224 120
      vertex 62.11966323852539 -7.579662322998047 120
      vertex 62.044349670410156 -3.84035587310791 120
    endloop
  endfacet
  facet normal 0 0 1
    outer loop
      vertex 47.599998474121094 6.350000381469727 120
      vertex 55.17499923706055 10.723428726196289 120
      vertex 54.704017639160156 10.963404655456543 120
    endloop
  endfacet
  facet normal 0 0 1
    outer loop
      vertex 47.599998474121094 6.350000381469727 120
      vertex 54.704017639160156 10.963404655456543 120
      vertex 54.210533142089844 11.152835845947266 120
    endloop
  endfacet
  facet normal 0 0 1
    outer loop
      vertex 47.599998474121094 6.350000381469727 120
      vertex 54.210533142089844 11.152835845947266 120
      vertex 53.699954986572266 11.28964614868164 120
    endloop
  endfacet
  facet normal 0 0 1
    outer loop
      vertex 47.599998474121094 6.350000381469727 120
      vertex 53.699954986572266 11.28964614868164 120
      vertex 53.1778678894043 11.372336387634277 120
    endloop
  endfacet
  facet normal 0 0 1
    outer loop
      vertex 47.599998474121094 6.350000381469727 120
      vertex 53.1778678894043 11.372336387634277 120
      vertex 52.650001525878906 11.40000057220459 120
    endloop
  endfacet
  facet normal 0 0 1
    outer loop
      vertex 47.599998474121094 6.350000381469727 120
      vertex 52.650001525878906 11.40000057220459 120
      vertex 52.12213134765625 11.372336387634277 120
    endloop
  endfacet
  facet normal 0 0 1
    outer loop
      vertex 47.599998474121094 6.350000381469727 120
      vertex 52.12213134765625 11.372336387634277 120
      vertex 51.60004425048828 11.28964614868164 120
    endloop
  endfacet
  facet normal 0 0 1
    outer loop
      vertex 47.599998474121094 6.350000381469727 120
      vertex 51.60004425048828 11.28964614868164 120
      vertex 51.08946228027344 11.152835845947266 120
    endloop
  endfacet
  facet normal 0 0 1
    outer loop
      vertex 47.599998474121094 6.350000381469727 120
      vertex 51.08946228027344 11.152835845947266 120
      vertex 50.595977783203125 10.963404655456543 120
    endloop
  endfacet
  facet normal 0 0 1
    outer loop
      vertex 47.599998474121094 6.350000381469727 120
      vertex 50.595977783203125 10.963404655456543 120
      vertex 50.125 10.723428726196289 120
    endloop
  endfacet
  facet normal 0 0 1
    outer loop
      vertex 47.599998474121094 6.350000381469727 120
      vertex 50.125 10.723428726196289 120
      vertex 49.68168258666992 10.43553638458252 120
    endloop
  endfacet
  facet normal 0 0 1
    outer loop
      vertex 47.599998474121094 6.350000381469727 120
      vertex 49.68168258666992 10.43553638458252 120
      vertex 49.27088928222656 10.10288143157959 120
    endloop
  endfacet
  facet normal 0 0 1
    outer loop
      vertex 47.599998474121094 6.350000381469727 120
      vertex 49.27088928222656 10.10288143157959 120
      vertex 48.897117614746094 9.729109764099121 120
    endloop
  endfacet
  facet normal 0 0 1
    outer loop
      vertex 47.599998474121094 6.350000381469727 120
      vertex 48.897117614746094 9.729109764099121 120
      vertex 48.5644645690918 9.318316459655762 120
    endloop
  endfacet
  facet normal 0 0 1
    outer loop
      vertex 47.599998474121094 6.350000381469727 120
      vertex 48.5644645690918 9.318316459655762 120
      vertex 48.276573181152344 8.875 120
    endloop
  endfacet
  facet normal 0 0 1
    outer loop
      vertex 47.599998474121094 6.350000381469727 120
      vertex 48.276573181152344 8.875 120
      vertex 48.03659439086914 8.404020309448242 120
    endloop
  endfacet
  facet normal 0 0 1
    outer loop
      vertex 47.599998474121094 6.350000381469727 120
      vertex 48.03659439086914 8.404020309448242 120
      vertex 47.847164154052734 7.910536766052246 120
    endloop
  endfacet
  facet normal 0 0 1
    outer loop
      vertex 47.599998474121094 6.350000381469727 120
      vertex 47.847164154052734 7.910536766052246 120
      vertex 47.71035385131836 7.399954795837402 120
    endloop
  endfacet
  facet normal 0 0 1
    outer loop
      vertex 47.599998474121094 6.350000381469727 120
      vertex 47.71035385131836 7.399954795837402 120
      vertex 47.627662658691406 6.877869606018066 120
    endloop
  endfacet
  facet normal 0 0 1
    outer loop
      vertex 47.599998474121094 -0.3018970489501953 120
      vertex 55.599998474121094 2.252570390701294 120
      vertex 47.599998474121094 6.350000381469727 120
    endloop
  endfacet
  facet normal 0 0 1
    outer loop
      vertex 55.599998474121094 2.252570390701294 120
      vertex 47.599998474121094 -0.3018970489501953 120
      vertex 55.599998474121094 -1.4980489015579224 120
    endloop
  endfacet
  facet normal 0 0 1
    outer loop
      vertex 47.599998474121094 -0.3018970489501953 120
      vertex 62.11966323852539 -7.579662322998047 120
      vertex 55.599998474121094 -1.4980489015579224 120
    endloop
  endfacet
  facet normal 0 0 1
    outer loop
      vertex -51.859580993652344 -38.12030792236328 120
      vertex 47.599998474121094 -0.3018970489501953 120
      vertex -36.39728546142578 -0.3018970489501953 120
    endloop
  endfacet
  facet normal 0 0 1
    outer loop
      vertex -51.859580993652344 -38.12030792236328 120
      vertex -36.39728546142578 -0.3018970489501953 120
      vertex -42.71695327758789 -5.289228916168213 120
    endloop
  endfacet
  facet normal 0 0 1
    outer loop
      vertex 47.599998474121094 -0.3018970489501953 120
      vertex -51.859580993652344 -38.12030792236328 120
      vertex 62.11966323852539 -7.579662322998047 120
    endloop
  endfacet
  facet normal 0 0 1
    outer loop
      vertex -54.395572662353516 -35.371337890625 120
      vertex -51.859580993652344 -38.12030792236328 120
      vertex -42.71695327758789 -5.289228916168213 120
    endloop
  endfacet
  facet normal 0 0 1
    outer loop
      vertex -51.859580993652344 -38.12030792236328 120
      vertex -54.395572662353516 -35.371337890625 120
      vertex -52.32529830932617 -38.24509811401367 120
    endloop
  endfacet
  facet normal 0 0 1
    outer loop
      vertex -52.32529830932617 -38.24509811401367 120
      vertex -54.395572662353516 -35.371337890625 120
      vertex -52.807350158691406 -38.25480651855469 120
    endloop
  endfacet
  facet normal 0 0 1
    outer loop
      vertex -52.807350158691406 -38.25480651855469 120
      vertex -54.395572662353516 -35.371337890625 120
      vertex -53.277713775634766 -38.14887237548828 120
    endloop
  endfacet
  facet normal 0 0 1
    outer loop
      vertex -53.277713775634766 -38.14887237548828 120
      vertex -54.395572662353516 -35.371337890625 120
      vertex -53.70905685424805 -37.933448791503906 120
    endloop
  endfacet
  facet normal 0 0 1
    outer loop
      vertex -53.70905685424805 -37.933448791503906 120
      vertex -54.395572662353516 -35.371337890625 120
      vertex -54.076316833496094 -37.62105941772461 120
    endloop
  endfacet
  facet normal 0 0 1
    outer loop
      vertex -54.076316833496094 -37.62105941772461 120
      vertex -54.395572662353516 -35.371337890625 120
      vertex -54.35813903808594 -37.2298583984375 120
    endloop
  endfacet
  facet normal 0 0 1
    outer loop
      vertex -54.395572662353516 -35.371337890625 120
      vertex -54.53815460205078 -36.78257751464844 120
      vertex -54.35813903808594 -37.2298583984375 120
    endloop
  endfacet
  facet normal 0 0 1
    outer loop
      vertex -54.557430267333984 -35.82550811767578 120
      vertex -54.53815460205078 -36.78257751464844 120
      vertex -54.395572662353516 -35.371337890625 120
    endloop
  endfacet
  facet normal 0 0 1
    outer loop
      vertex -54.53815460205078 -36.78257751464844 120
      vertex -54.557430267333984 -35.82550811767578 120
      vertex -54.60589599609375 -36.30521011352539 120
    endloop
  endfacet
  facet normal 0 0 1
    outer loop
      vertex -45.74396514892578 9.044782638549805 120
      vertex -42.71695327758789 -5.289228916168213 120
      vertex -36.39728546142578 -0.3018970489501953 120
    endloop
  endfacet
  facet normal 0 0 1
    outer loop
      vertex -51.484535217285156 3.4783525466918945 120
      vertex -45.74396514892578 9.044782638549805 120
      vertex -46.09752655029297 9.387619972229004 120
    endloop
  endfacet
  facet normal 0 0 1
    outer loop
      vertex -51.484535217285156 3.4783525466918945 120
      vertex -46.09752655029297 9.387619972229004 120
      vertex -46.49053955078125 9.684410095214844 120
    endloop
  endfacet
  facet normal 0 0 1
    outer loop
      vertex -51.484535217285156 3.4783525466918945 120
      vertex -46.49053955078125 9.684410095214844 120
      vertex -46.91704559326172 9.93065357208252 120
    endloop
  endfacet
  facet normal 0 0 1
    outer loop
      vertex -51.484535217285156 3.4783525466918945 120
      vertex -46.91704559326172 9.93065357208252 120
      vertex -47.370582580566406 10.122618675231934 120
    endloop
  endfacet
  facet normal 0 0 1
    outer loop
      vertex -51.484535217285156 3.4783525466918945 120
      vertex -47.370582580566406 10.122618675231934 120
      vertex -47.844268798828125 10.257393836975098 120
    endloop
  endfacet
  facet normal 0 0 1
    outer loop
      vertex -51.484535217285156 3.4783525466918945 120
      vertex -47.844268798828125 10.257393836975098 120
      vertex -48.33092498779297 10.332937240600586 120
    endloop
  endfacet
  facet normal 0 0 1
    outer loop
      vertex -51.484535217285156 3.4783525466918945 120
      vertex -48.33092498779297 10.332937240600586 120
      vertex -48.82318115234375 10.348103523254395 120
    endloop
  endfacet
  facet normal 0 0 1
    outer loop
      vertex -51.484535217285156 3.4783525466918945 120
      vertex -48.82318115234375 10.348103523254395 120
      vertex -49.313568115234375 10.302661895751953 120
    endloop
  endfacet
  facet normal 0 0 1
    outer loop
      vertex -51.484535217285156 3.4783525466918945 120
      vertex -49.313568115234375 10.302661895751953 120
      vertex -49.79465103149414 10.19730281829834 120
    endloop
  endfacet
  facet normal 0 0 1
    outer loop
      vertex -51.484535217285156 3.4783525466918945 120
      vertex -49.79465103149414 10.19730281829834 120
      vertex -50.2591438293457 10.033622741699219 120
    endloop
  endfacet
  facet normal 0 0 1
    outer loop
      vertex -51.484535217285156 3.4783525466918945 120
      vertex -50.2591438293457 10.033622741699219 120
      vertex -50.70000076293945 9.814102172851562 120
    endloop
  endfacet
  facet normal 0 0 1
    outer loop
      vertex -51.484535217285156 3.4783525466918945 120
      vertex -50.70000076293945 9.814102172851562 120
      vertex -51.110538482666016 9.542069435119629 120
    endloop
  endfacet
  facet normal 0 0 1
    outer loop
      vertex -51.484535217285156 3.4783525466918945 120
      vertex -51.110538482666016 9.542069435119629 120
      vertex -51.484535217285156 9.221648216247559 120
    endloop
  endfacet
  facet normal 0 0 1
    outer loop
      vertex -45.74396514892578 9.044782638549805 120
      vertex -51.484535217285156 3.4783525466918945 120
      vertex -42.71695327758789 -5.289228916168213 120
    endloop
  endfacet
  facet normal 0 0 1
    outer loop
      vertex -51.816322326660156 8.857695579528809 120
      vertex -51.484535217285156 3.4783525466918945 120
      vertex -51.484535217285156 9.221648216247559 120
    endloop
  endfacet
  facet normal 0 0 1
    outer loop
      vertex -51.816322326660156 8.857695579528809 120
      vertex -51.816322326660156 3.8423051834106445 120
      vertex -51.484535217285156 3.4783525466918945 120
    endloop
  endfacet
  facet normal 0 0 1
    outer loop
      vertex -52.100868225097656 8.455729484558105 120
      vertex -51.816322326660156 3.8423051834106445 120
      vertex -51.816322326660156 8.857695579528809 120
    endloop
  endfacet
  facet normal 0 0 1
    outer loop
      vertex -52.100868225097656 8.455729484558105 120
      vertex -52.100868225097656 4.244272232055664 120
      vertex -51.816322326660156 3.8423051834106445 120
    endloop
  endfacet
  facet normal 0 0 1
    outer loop
      vertex -52.3338623046875 8.021842002868652 120
      vertex -52.100868225097656 4.244272232055664 120
      vertex -52.100868225097656 8.455729484558105 120
    endloop
  endfacet
  facet normal 0 0 1
    outer loop
      vertex -52.3338623046875 8.021842002868652 120
      vertex -52.3338623046875 4.678158760070801 120
      vertex -52.100868225097656 4.244272232055664 120
    endloop
  endfacet
  facet normal 0 0 1
    outer loop
      vertex -52.51176834106445 7.5626115798950195 120
      vertex -52.3338623046875 4.678158760070801 120
      vertex -52.3338623046875 8.021842002868652 120
    endloop
  endfacet
  facet normal 0 0 1
    outer loop
      vertex -52.51176834106445 7.5626115798950195 120
      vertex -52.51176834106445 5.13739013671875 120
      vertex -52.3338623046875 4.678158760070801 120
    endloop
  endfacet
  facet normal 0 0 1
    outer loop
      vertex -52.631893157958984 7.08499813079834 120
      vertex -52.51176834106445 5.13739013671875 120
      vertex -52.51176834106445 7.5626115798950195 120
    endloop
  endfacet
  facet normal 0 0 1
    outer loop
      vertex -52.631893157958984 7.08499813079834 120
      vertex -52.631893157958984 5.615002632141113 120
      vertex -52.51176834106445 5.13739013671875 120
    endloop
  endfacet
  facet normal 0 0 1
    outer loop
      vertex -52.692413330078125 6.596243858337402 120
      vertex -52.631893157958984 5.615002632141113 120
      vertex -52.631893157958984 7.08499813079834 120
    endloop
  endfacet
  facet normal 0 0 1
    outer loop
      vertex -52.631893157958984 5.615002632141113 120
      vertex -52.692413330078125 6.596243858337402 120
      vertex -52.692413330078125 6.103756904602051 120
    endloop
  endfacet
  facet normal 1 0 0
    outer loop
      vertex 55.599998474121094 -1.4980489015579224 120
      vertex 55.599998474121094 2.252570390701294 0
      vertex 55.599998474121094 2.252570390701294 120
    endloop
  endfacet
  facet normal 1 0 0
    outer loop
      vertex 55.599998474121094 2.252570390701294 0
      vertex 55.599998474121094 -1.4980489015579224 120
      vertex 55.599998474121094 -1.4980489015579224 0
    endloop
  endfacet
  facet normal -1 0 0
    outer loop
      vertex 47.599998474121094 -0.3018970489501953 0
      vertex 47.599998474121094 6.350000381469727 120
      vertex 47.599998474121094 6.350000381469727 0
    endloop
  endfacet
  facet normal -1 0 0
    outer loop
      vertex 47.599998474121094 6.350000381469727 120
      vertex 47.599998474121094 -0.3018970489501953 0
      vertex 47.599998474121094 -0.3018970489501953 120
    endloop
  endfacet
  facet normal 0.4467957993945813 0.8946359671080506 0
    outer loop
      vertex 62.4756965637207 -4.055777549743652 0
      vertex 62.044349670410156 -3.84035587310791 120
      vertex 62.4756965637207 -4.055777549743652 120
    endloop
  endfacet
  facet normal 0.4467957993945813 0.8946359671080506 0
    outer loop
      vertex 62.044349670410156 -3.84035587310791 120
      vertex 62.4756965637207 -4.055777549743652 0
      vertex 62.044349670410156 -3.84035587310791 0
    endloop
  endfacet
  facet normal 0.6479163974962401 0.7617114557727842 0
    outer loop
      vertex 62.842952728271484 -4.368167877197266 0
      vertex 62.4756965637207 -4.055777549743652 120
      vertex 62.842952728271484 -4.368167877197266 120
    endloop
  endfacet
  facet normal 0.6479163974962401 0.7617114557727842 0
    outer loop
      vertex 62.4756965637207 -4.055777549743652 120
      vertex 62.842952728271484 -4.368167877197266 0
      vertex 62.4756965637207 -4.055777549743652 0
    endloop
  endfacet
  facet normal 0.34160221278619907 0.9398446298296184 0
    outer loop
      vertex 62.044349670410156 -3.84035587310791 0
      vertex 55.599998474121094 -1.4980489015579224 120
      vertex 62.044349670410156 -3.84035587310791 120
    endloop
  endfacet
  facet normal 0.34160221278619907 0.9398446298296184 0
    outer loop
      vertex 55.599998474121094 -1.4980489015579224 120
      vertex 62.044349670410156 -3.84035587310791 0
      vertex 55.599998474121094 -1.4980489015579224 0
    endloop
  endfacet
  facet normal 0.8113777169985689 0.5845221983451016 0
    outer loop
      vertex 63.124778747558594 -4.759371757507324 120
      vertex 62.842952728271484 -4.368167877197266 0
      vertex 62.842952728271484 -4.368167877197266 120
    endloop
  endfacet
  facet normal 0.8113777169985689 0.5845221983451016 0
    outer loop
      vertex 62.842952728271484 -4.368167877197266 0
      vertex 63.124778747558594 -4.759371757507324 120
      vertex 63.124778747558594 -4.759371757507324 0
    endloop
  endfacet
  facet normal 0.48245958266195843 -0.8759182331117722 0
    outer loop
      vertex 62.11966323852539 -7.579662322998047 0
      vertex 62.54198455810547 -7.3470458984375 120
      vertex 62.11966323852539 -7.579662322998047 120
    endloop
  endfacet
  facet normal 0.48245958266195843 -0.8759182331117722 0
    outer loop
      vertex 62.54198455810547 -7.3470458984375 120
      vertex 62.11966323852539 -7.579662322998047 0
      vertex 62.54198455810547 -7.3470458984375 0
    endloop
  endfacet
  facet normal 0.6780593289801156 -0.7350071743752135 0
    outer loop
      vertex 62.54198455810547 -7.3470458984375 0
      vertex 62.896366119384766 -7.0201215744018555 120
      vertex 62.54198455810547 -7.3470458984375 120
    endloop
  endfacet
  facet normal 0.6780593289801156 -0.7350071743752135 0
    outer loop
      vertex 62.896366119384766 -7.0201215744018555 120
      vertex 62.54198455810547 -7.3470458984375 0
      vertex 62.896366119384766 -7.0201215744018555 0
    endloop
  endfacet
  facet normal 0.927685312907269 0.37336304077418053 0
    outer loop
      vertex 63.30479431152344 -5.20665168762207 120
      vertex 63.124778747558594 -4.759371757507324 0
      vertex 63.124778747558594 -4.759371757507324 120
    endloop
  endfacet
  facet normal 0.927685312907269 0.37336304077418053 0
    outer loop
      vertex 63.124778747558594 -4.759371757507324 0
      vertex 63.30479431152344 -5.20665168762207 120
      vertex 63.30479431152344 -5.20665168762207 0
    endloop
  endfacet
  facet normal 0 1 0
    outer loop
      vertex 47.599998474121094 -0.3018970489501953 0
      vertex -36.39728546142578 -0.3018970489501953 120
      vertex 47.599998474121094 -0.3018970489501953 120
    endloop
  endfacet
  facet normal 0 1 0
    outer loop
      vertex -36.39728546142578 -0.3018970489501953 120
      vertex 47.599998474121094 -0.3018970489501953 0
      vertex -36.39728546142578 -0.3018970489501953 0
    endloop
  endfacet
  facet normal -0.4468021281810189 -0.8946328063808706 0
    outer loop
      vertex -53.70905685424805 -37.933448791503906 0
      vertex -53.277713775634766 -38.14887237548828 120
      vertex -53.70905685424805 -37.933448791503906 120
    endloop
  endfacet
  facet normal -0.4468021281810189 -0.8946328063808706 0
    outer loop
      vertex -53.277713775634766 -38.14887237548828 120
      vertex -53.70905685424805 -37.933448791503906 0
      vertex -53.277713775634766 -38.14887237548828 0
    endloop
  endfacet
  facet normal -0.9949349113161287 0.10052125269995 0
    outer loop
      vertex -54.60589599609375 -36.30521011352539 0
      vertex -54.557430267333984 -35.82550811767578 120
      vertex -54.557430267333984 -35.82550811767578 0
    endloop
  endfacet
  facet normal -0.9949349113161287 0.10052125269995 0
    outer loop
      vertex -54.557430267333984 -35.82550811767578 120
      vertex -54.60589599609375 -36.30521011352539 0
      vertex -54.60589599609375 -36.30521011352539 120
    endloop
  endfacet
  facet normal -0.9419690279129816 0.33569979215464574 0
    outer loop
      vertex -54.557430267333984 -35.82550811767578 0
      vertex -54.395572662353516 -35.371337890625 120
      vertex -54.395572662353516 -35.371337890625 0
    endloop
  endfacet
  facet normal -0.9419690279129816 0.33569979215464574 0
    outer loop
      vertex -54.395572662353516 -35.371337890625 120
      vertex -54.557430267333984 -35.82550811767578 0
      vertex -54.557430267333984 -35.82550811767578 120
    endloop
  endfacet
  facet normal -0.9900808750751598 -0.14049861497682328 0
    outer loop
      vertex -54.53815460205078 -36.78257751464844 0
      vertex -54.60589599609375 -36.30521011352539 120
      vertex -54.60589599609375 -36.30521011352539 0
    endloop
  endfacet
  facet normal -0.9900808750751598 -0.14049861497682328 0
    outer loop
      vertex -54.60589599609375 -36.30521011352539 120
      vertex -54.53815460205078 -36.78257751464844 0
      vertex -54.53815460205078 -36.78257751464844 120
    endloop
  endfacet
  facet normal 0.25882216648241535 -0.9659249899124408 0
    outer loop
      vertex -52.32529830932617 -38.24509811401367 0
      vertex -51.859580993652344 -38.12030792236328 120
      vertex -52.32529830932617 -38.24509811401367 120
    endloop
  endfacet
  facet normal 0.25882216648241535 -0.9659249899124408 0
    outer loop
      vertex -51.859580993652344 -38.12030792236328 120
      vertex -52.32529830932617 -38.24509811401367 0
      vertex -51.859580993652344 -38.12030792236328 0
    endloop
  endfacet
  facet normal 0.9900807579400288 0.14049944041489337 0
    outer loop
      vertex 63.372535705566406 -5.684016227722168 120
      vertex 63.30479431152344 -5.20665168762207 0
      vertex 63.30479431152344 -5.20665168762207 120
    endloop
  endfacet
  facet normal 0.9900807579400288 0.14049944041489337 0
    outer loop
      vertex 63.30479431152344 -5.20665168762207 0
      vertex 63.372535705566406 -5.684016227722168 120
      vertex 63.372535705566406 -5.684016227722168 0
    endloop
  endfacet
  facet normal -0.9322136543387166 0.36190841750981095 0
    outer loop
      vertex -54.395572662353516 -35.371337890625 0
      vertex -42.71695327758789 -5.289228916168213 120
      vertex -42.71695327758789 -5.289228916168213 0
    endloop
  endfacet
  facet normal -0.9322136543387166 0.36190841750981095 0
    outer loop
      vertex -42.71695327758789 -5.289228916168213 120
      vertex -54.395572662353516 -35.371337890625 0
      vertex -54.395572662353516 -35.371337890625 120
    endloop
  endfacet
  facet normal -0.6479113451451943 -0.7617157533044362 0
    outer loop
      vertex -54.076316833496094 -37.62105941772461 0
      vertex -53.70905685424805 -37.933448791503906 120
      vertex -54.076316833496094 -37.62105941772461 120
    endloop
  endfacet
  facet normal -0.6479113451451943 -0.7617157533044362 0
    outer loop
      vertex -53.70905685424805 -37.933448791503906 120
      vertex -54.076316833496094 -37.62105941772461 0
      vertex -53.70905685424805 -37.933448791503906 0
    endloop
  endfacet
  facet normal -0.21971420105794998 -0.9755642827889235 0
    outer loop
      vertex -53.277713775634766 -38.14887237548828 0
      vertex -52.807350158691406 -38.25480651855469 120
      vertex -53.277713775634766 -38.14887237548828 120
    endloop
  endfacet
  facet normal -0.21971420105794998 -0.9755642827889235 0
    outer loop
      vertex -52.807350158691406 -38.25480651855469 120
      vertex -53.277713775634766 -38.14887237548828 0
      vertex -52.807350158691406 -38.25480651855469 0
    endloop
  endfacet
  facet normal 0.9949349512891014 -0.10052085705640118 0
    outer loop
      vertex 63.32406997680664 -6.16372013092041 120
      vertex 63.372535705566406 -5.684016227722168 0
      vertex 63.372535705566406 -5.684016227722168 120
    endloop
  endfacet
  facet normal 0.9949349512891014 -0.10052085705640118 0
    outer loop
      vertex 63.372535705566406 -5.684016227722168 0
      vertex 63.32406997680664 -6.16372013092041 120
      vertex 63.32406997680664 -6.16372013092041 0
    endloop
  endfacet
  facet normal 0.2588190384088938 -0.9659258280826202 0
    outer loop
      vertex -51.859580993652344 -38.12030792236328 0
      vertex 62.11966323852539 -7.579662322998047 120
      vertex -51.859580993652344 -38.12030792236328 120
    endloop
  endfacet
  facet normal 0.2588190384088938 -0.9659258280826202 0
    outer loop
      vertex 62.11966323852539 -7.579662322998047 120
      vertex -51.859580993652344 -38.12030792236328 0
      vertex 62.11966323852539 -7.579662322998047 0
    endloop
  endfacet
  facet normal 0.020135668479484475 -0.9997972568750548 0
    outer loop
      vertex -52.807350158691406 -38.25480651855469 0
      vertex -52.32529830932617 -38.24509811401367 120
      vertex -52.807350158691406 -38.25480651855469 120
    endloop
  endfacet
  facet normal 0.020135668479484475 -0.9997972568750548 0
    outer loop
      vertex -52.32529830932617 -38.24509811401367 120
      vertex -52.807350158691406 -38.25480651855469 0
      vertex -52.32529830932617 -38.24509811401367 0
    endloop
  endfacet
  facet normal -0.8113794419498356 -0.5845198039255586 0
    outer loop
      vertex -54.076316833496094 -37.62105941772461 0
      vertex -54.35813903808594 -37.2298583984375 120
      vertex -54.35813903808594 -37.2298583984375 0
    endloop
  endfacet
  facet normal -0.8113794419498356 -0.5845198039255586 0
    outer loop
      vertex -54.35813903808594 -37.2298583984375 120
      vertex -54.076316833496094 -37.62105941772461 0
      vertex -54.076316833496094 -37.62105941772461 120
    endloop
  endfacet
  facet normal 0.8342583908657116 -0.5513736820615883 0
    outer loop
      vertex 62.896366119384766 -7.0201215744018555 120
      vertex 63.162208557128906 -6.617887496948242 0
      vertex 63.162208557128906 -6.617887496948242 120
    endloop
  endfacet
  facet normal 0.8342583908657116 -0.5513736820615883 0
    outer loop
      vertex 63.162208557128906 -6.617887496948242 0
      vertex 62.896366119384766 -7.0201215744018555 120
      vertex 62.896366119384766 -7.0201215744018555 0
    endloop
  endfacet
  facet normal 0.9419658572703342 -0.3357086888017114 0
    outer loop
      vertex 63.162208557128906 -6.617887496948242 120
      vertex 63.32406997680664 -6.16372013092041 0
      vertex 63.32406997680664 -6.16372013092041 120
    endloop
  endfacet
  facet normal 0.9419658572703342 -0.3357086888017114 0
    outer loop
      vertex 63.32406997680664 -6.16372013092041 0
      vertex 63.162208557128906 -6.617887496948242 120
      vertex 63.162208557128906 -6.617887496948242 0
    endloop
  endfacet
  facet normal -0.9276855886365007 -0.37336235567629095 0
    outer loop
      vertex -54.35813903808594 -37.2298583984375 0
      vertex -54.53815460205078 -36.78257751464844 120
      vertex -54.53815460205078 -36.78257751464844 0
    endloop
  endfacet
  facet normal -0.9276855886365007 -0.37336235567629095 0
    outer loop
      vertex -54.53815460205078 -36.78257751464844 120
      vertex -54.35813903808594 -37.2298583984375 0
      vertex -54.35813903808594 -37.2298583984375 120
    endloop
  endfacet
  facet normal -0.7390084704556413 -0.6736961337241097 0
    outer loop
      vertex -51.484535217285156 3.4783525466918945 0
      vertex -51.816322326660156 3.8423051834106445 120
      vertex -51.816322326660156 3.8423051834106445 0
    endloop
  endfacet
  facet normal -0.7390084704556413 -0.6736961337241097 0
    outer loop
      vertex -51.816322326660156 3.8423051834106445 120
      vertex -51.484535217285156 3.4783525466918945 0
      vertex -51.484535217285156 3.4783525466918945 120
    endloop
  endfacet
  facet normal 0.7071067811865476 0.7071067811865476 0
    outer loop
      vertex -36.39728546142578 -0.3018970489501953 120
      vertex -45.74396514892578 9.044782638549805 0
      vertex -45.74396514892578 9.044782638549805 120
    endloop
  endfacet
  facet normal 0.7071067811865476 0.7071067811865476 0
    outer loop
      vertex -45.74396514892578 9.044782638549805 0
      vertex -36.39728546142578 -0.3018970489501953 120
      vertex -36.39728546142578 -0.3018970489501953 0
    endloop
  endfacet
  facet normal 0.6026352592339859 0.7980167569217997 0
    outer loop
      vertex -46.09752655029297 9.387619972229004 0
      vertex -46.49053955078125 9.684410095214844 120
      vertex -46.09752655029297 9.387619972229004 120
    endloop
  endfacet
  facet normal 0.6026352592339859 0.7980167569217997 0
    outer loop
      vertex -46.49053955078125 9.684410095214844 120
      vertex -46.09752655029297 9.387619972229004 0
      vertex -46.49053955078125 9.684410095214844 0
    endloop
  endfacet
  facet normal 0.15339242722474633 0.988165352190665 0
    outer loop
      vertex -47.844268798828125 10.257393836975098 0
      vertex -48.33092498779297 10.332937240600586 120
      vertex -47.844268798828125 10.257393836975098 120
    endloop
  endfacet
  facet normal 0.15339242722474633 0.988165352190665 0
    outer loop
      vertex -48.33092498779297 10.332937240600586 120
      vertex -47.844268798828125 10.257393836975098 0
      vertex -48.33092498779297 10.332937240600586 0
    endloop
  endfacet
  facet normal -0.707106761958053 -0.7071068004150415 0
    outer loop
      vertex -42.71695327758789 -5.289228916168213 0
      vertex -51.484535217285156 3.4783525466918945 120
      vertex -51.484535217285156 3.4783525466918945 0
    endloop
  endfacet
  facet normal -0.707106761958053 -0.7071068004150415 0
    outer loop
      vertex -51.484535217285156 3.4783525466918945 120
      vertex -42.71695327758789 -5.289228916168213 0
      vertex -42.71695327758789 -5.289228916168213 120
    endloop
  endfacet
  facet normal -0.33235322794427063 0.9431549882575099 0
    outer loop
      vertex -49.79465103149414 10.19730281829834 0
      vertex -50.2591438293457 10.033622741699219 120
      vertex -49.79465103149414 10.19730281829834 120
    endloop
  endfacet
  facet normal -0.33235322794427063 0.9431549882575099 0
    outer loop
      vertex -50.2591438293457 10.033622741699219 120
      vertex -49.79465103149414 10.19730281829834 0
      vertex -50.2591438293457 10.033622741699219 0
    endloop
  endfacet
  facet normal 0.3897847739352912 0.9209059832622514 0
    outer loop
      vertex -46.91704559326172 9.93065357208252 0
      vertex -47.370582580566406 10.122618675231934 120
      vertex -46.91704559326172 9.93065357208252 120
    endloop
  endfacet
  facet normal 0.3897847739352912 0.9209059832622514 0
    outer loop
      vertex -47.370582580566406 10.122618675231934 120
      vertex -46.91704559326172 9.93065357208252 0
      vertex -47.370582580566406 10.122618675231934 0
    endloop
  endfacet
  facet normal 0.27366263810631364 0.9618257433156449 0
    outer loop
      vertex -47.370582580566406 10.122618675231934 0
      vertex -47.844268798828125 10.257393836975098 120
      vertex -47.370582580566406 10.122618675231934 120
    endloop
  endfacet
  facet normal 0.27366263810631364 0.9618257433156449 0
    outer loop
      vertex -47.844268798828125 10.257393836975098 120
      vertex -47.370582580566406 10.122618675231934 0
      vertex -47.844268798828125 10.257393836975098 0
    endloop
  endfacet
  facet normal -0.5523657897868092 0.8336018439718056 0
    outer loop
      vertex -50.70000076293945 9.814102172851562 0
      vertex -51.110538482666016 9.542069435119629 120
      vertex -50.70000076293945 9.814102172851562 120
    endloop
  endfacet
  facet normal -0.5523657897868092 0.8336018439718056 0
    outer loop
      vertex -51.110538482666016 9.542069435119629 120
      vertex -50.70000076293945 9.814102172851562 0
      vertex -51.110538482666016 9.542069435119629 0
    endloop
  endfacet
  facet normal -0.9697968338991715 0.24391412619842823 0
    outer loop
      vertex -52.631893157958984 7.08499813079834 0
      vertex -52.51176834106445 7.5626115798950195 120
      vertex -52.51176834106445 7.5626115798950195 0
    endloop
  endfacet
  facet normal -0.9697968338991715 0.24391412619842823 0
    outer loop
      vertex -52.51176834106445 7.5626115798950195 120
      vertex -52.631893157958984 7.08499813079834 0
      vertex -52.631893157958984 7.08499813079834 120
    endloop
  endfacet
  facet normal -0.9697967186920222 -0.2439145842588893 0
    outer loop
      vertex -52.51176834106445 5.13739013671875 0
      vertex -52.631893157958984 5.615002632141113 120
      vertex -52.631893157958984 5.615002632141113 0
    endloop
  endfacet
  facet normal -0.9697967186920222 -0.2439145842588893 0
    outer loop
      vertex -52.631893157958984 5.615002632141113 120
      vertex -52.51176834106445 5.13739013671875 0
      vertex -52.51176834106445 5.13739013671875 120
    endloop
  endfacet
  facet normal 0.5000001498982852 0.866025317240606 0
    outer loop
      vertex -46.49053955078125 9.684410095214844 0
      vertex -46.91704559326172 9.93065357208252 120
      vertex -46.49053955078125 9.684410095214844 120
    endloop
  endfacet
  facet normal 0.5000001498982852 0.866025317240606 0
    outer loop
      vertex -46.91704559326172 9.93065357208252 120
      vertex -46.49053955078125 9.684410095214844 0
      vertex -46.91704559326172 9.93065357208252 0
    endloop
  endfacet
  facet normal -0.881010556889757 -0.4730966060423602 0
    outer loop
      vertex -52.100868225097656 4.244272232055664 0
      vertex -52.3338623046875 4.678158760070801 120
      vertex -52.3338623046875 4.678158760070801 0
    endloop
  endfacet
  facet normal -0.881010556889757 -0.4730966060423602 0
    outer loop
      vertex -52.3338623046875 4.678158760070801 120
      vertex -52.100868225097656 4.244272232055664 0
      vertex -52.100868225097656 4.244272232055664 120
    endloop
  endfacet
  facet normal -0.4457381925837972 0.8951633726153734 0
    outer loop
      vertex -50.2591438293457 10.033622741699219 0
      vertex -50.70000076293945 9.814102172851562 120
      vertex -50.2591438293457 10.033622741699219 120
    endloop
  endfacet
  facet normal -0.4457381925837972 0.8951633726153734 0
    outer loop
      vertex -50.70000076293945 9.814102172851562 120
      vertex -50.2591438293457 10.033622741699219 0
      vertex -50.70000076293945 9.814102172851562 0
    endloop
  endfacet
  facet normal -1 0 0
    outer loop
      vertex -52.692413330078125 6.103756904602051 0
      vertex -52.692413330078125 6.596243858337402 120
      vertex -52.692413330078125 6.596243858337402 0
    endloop
  endfacet
  facet normal -1 0 0
    outer loop
      vertex -52.692413330078125 6.596243858337402 120
      vertex -52.692413330078125 6.103756904602051 0
      vertex -52.692413330078125 6.103756904602051 120
    endloop
  endfacet
  facet normal -0.9324730137387075 -0.3612396415802841 0
    outer loop
      vertex -52.3338623046875 4.678158760070801 0
      vertex -52.51176834106445 5.13739013671875 120
      vertex -52.51176834106445 5.13739013671875 0
    endloop
  endfacet
  facet normal -0.9324730137387075 -0.3612396415802841 0
    outer loop
      vertex -52.51176834106445 5.13739013671875 120
      vertex -52.3338623046875 4.678158760070801 0
      vertex -52.3338623046875 4.678158760070801 120
    endloop
  endfacet
  facet normal 0.6961352813082573 0.7179106282246234 0
    outer loop
      vertex -45.74396514892578 9.044782638549805 0
      vertex -46.09752655029297 9.387619972229004 120
      vertex -45.74396514892578 9.044782638549805 120
    endloop
  endfacet
  facet normal 0.6961352813082573 0.7179106282246234 0
    outer loop
      vertex -46.09752655029297 9.387619972229004 120
      vertex -45.74396514892578 9.044782638549805 0
      vertex -46.09752655029297 9.387619972229004 0
    endloop
  endfacet
  facet normal -0.9924206885904562 0.12288684574699187 0
    outer loop
      vertex -52.692413330078125 6.596243858337402 0
      vertex -52.631893157958984 7.08499813079834 120
      vertex -52.631893157958984 7.08499813079834 0
    endloop
  endfacet
  facet normal -0.9924206885904562 0.12288684574699187 0
    outer loop
      vertex -52.631893157958984 7.08499813079834 120
      vertex -52.692413330078125 6.596243858337402 0
      vertex -52.692413330078125 6.596243858337402 120
    endloop
  endfacet
  facet normal -0.7390084704556413 0.6736961337241097 0
    outer loop
      vertex -51.816322326660156 8.857695579528809 0
      vertex -51.484535217285156 9.221648216247559 120
      vertex -51.484535217285156 9.221648216247559 0
    endloop
  endfacet
  facet normal -0.7390084704556413 0.6736961337241097 0
    outer loop
      vertex -51.484535217285156 9.221648216247559 120
      vertex -51.816322326660156 8.857695579528809 0
      vertex -51.816322326660156 8.857695579528809 120
    endloop
  endfacet
  facet normal -0.8810109903044071 0.47309579892749826 0
    outer loop
      vertex -52.3338623046875 8.021842002868652 0
      vertex -52.100868225097656 8.455729484558105 120
      vertex -52.100868225097656 8.455729484558105 0
    endloop
  endfacet
  facet normal -0.8810109903044071 0.47309579892749826 0
    outer loop
      vertex -52.100868225097656 8.455729484558105 120
      vertex -52.3338623046875 8.021842002868652 0
      vertex -52.3338623046875 8.021842002868652 120
    endloop
  endfacet
  facet normal -0.932472761043627 0.3612402938650045 0
    outer loop
      vertex -52.51176834106445 7.5626115798950195 0
      vertex -52.3338623046875 8.021842002868652 120
      vertex -52.3338623046875 8.021842002868652 0
    endloop
  endfacet
  facet normal -0.932472761043627 0.3612402938650045 0
    outer loop
      vertex -52.3338623046875 8.021842002868652 120
      vertex -52.51176834106445 7.5626115798950195 0
      vertex -52.51176834106445 7.5626115798950195 120
    endloop
  endfacet
  facet normal -0.6506188079042636 0.7594044816836644 0
    outer loop
      vertex -51.110538482666016 9.542069435119629 0
      vertex -51.484535217285156 9.221648216247559 120
      vertex -51.110538482666016 9.542069435119629 120
    endloop
  endfacet
  facet normal -0.6506188079042636 0.7594044816836644 0
    outer loop
      vertex -51.484535217285156 9.221648216247559 120
      vertex -51.110538482666016 9.542069435119629 0
      vertex -51.484535217285156 9.221648216247559 0
    endloop
  endfacet
  facet normal 0.03079512385232853 0.9995257177016106 0
    outer loop
      vertex -48.33092498779297 10.332937240600586 0
      vertex -48.82318115234375 10.348103523254395 120
      vertex -48.33092498779297 10.332937240600586 120
    endloop
  endfacet
  facet normal 0.03079512385232853 0.9995257177016106 0
    outer loop
      vertex -48.82318115234375 10.348103523254395 120
      vertex -48.33092498779297 10.332937240600586 0
      vertex -48.82318115234375 10.348103523254395 0
    endloop
  endfacet
  facet normal -0.21393365052555363 0.9768481935146373 0
    outer loop
      vertex -49.313568115234375 10.302661895751953 0
      vertex -49.79465103149414 10.19730281829834 120
      vertex -49.313568115234375 10.302661895751953 120
    endloop
  endfacet
  facet normal -0.21393365052555363 0.9768481935146373 0
    outer loop
      vertex -49.79465103149414 10.19730281829834 120
      vertex -49.313568115234375 10.302661895751953 0
      vertex -49.79465103149414 10.19730281829834 0
    endloop
  endfacet
  facet normal -0.8161975670660333 -0.577772906525988 0
    outer loop
      vertex -51.816322326660156 3.8423051834106445 0
      vertex -52.100868225097656 4.244272232055664 120
      vertex -52.100868225097656 4.244272232055664 0
    endloop
  endfacet
  facet normal -0.8161975670660333 -0.577772906525988 0
    outer loop
      vertex -52.100868225097656 4.244272232055664 120
      vertex -51.816322326660156 3.8423051834106445 0
      vertex -51.816322326660156 3.8423051834106445 120
    endloop
  endfacet
  facet normal -0.09226953407945958 0.9957340674501197 0
    outer loop
      vertex -48.82318115234375 10.348103523254395 0
      vertex -49.313568115234375 10.302661895751953 120
      vertex -48.82318115234375 10.348103523254395 120
    endloop
  endfacet
  facet normal -0.09226953407945958 0.9957340674501197 0
    outer loop
      vertex -49.313568115234375 10.302661895751953 120
      vertex -48.82318115234375 10.348103523254395 0
      vertex -49.313568115234375 10.302661895751953 0
    endloop
  endfacet
  facet normal -0.8161969206378179 0.5777738197091865 0
    outer loop
      vertex -52.100868225097656 8.455729484558105 0
      vertex -51.816322326660156 8.857695579528809 120
      vertex -51.816322326660156 8.857695579528809 0
    endloop
  endfacet
  facet normal -0.8161969206378179 0.5777738197091865 0
    outer loop
      vertex -51.816322326660156 8.857695579528809 120
      vertex -52.100868225097656 8.455729484558105 0
      vertex -52.100868225097656 8.455729484558105 120
    endloop
  endfacet
  facet normal -0.9924206885904562 -0.12288684574699187 0
    outer loop
      vertex -52.631893157958984 5.615002632141113 0
      vertex -52.692413330078125 6.103756904602051 120
      vertex -52.692413330078125 6.103756904602051 0
    endloop
  endfacet
  facet normal -0.9924206885904562 -0.12288684574699187 0
    outer loop
      vertex -52.692413330078125 6.103756904602051 120
      vertex -52.631893157958984 5.615002632141113 0
      vertex -52.631893157958984 5.615002632141113 120
    endloop
  endfacet
endsolid OpenSCAD_Model
