solid OpenSCAD_Model
  facet normal -0.11196374867319114 -0.9937122918546628 0
    outer loop
      vertex 17.816665649414062 -15.633333206176758 0
      vertex 18.029056549072266 -15.65726375579834 4
      vertex 17.816665649414062 -15.633333206176758 4
    endloop
  endfacet
  facet normal -0.11196374867319114 -0.9937122918546628 0
    outer loop
      vertex 18.029056549072266 -15.65726375579834 4
      vertex 17.816665649414062 -15.633333206176758 0
      vertex 18.029056549072266 -15.65726375579834 0
    endloop
  endfacet
  facet normal 0.8467242473709469 -0.5320319998967201 0
    outer loop
      vertex 15.8495512008667 -16.869354248046875 4
      vertex 16.109668731689453 -16.455379486083984 0
      vertex 16.109668731689453 -16.455379486083984 4
    endloop
  endfacet
  facet normal 0.8467242473709469 -0.5320319998967201 0
    outer loop
      vertex 16.109668731689453 -16.455379486083984 0
      vertex 15.8495512008667 -16.869354248046875 4
      vertex 15.8495512008667 -16.869354248046875 0
    endloop
  endfacet
  facet normal -0.9438861448101628 0.33027101846121515 0
    outer loop
      vertex 19.783782958984375 -18.763978958129883 0
      vertex 19.823007583618164 -18.651878356933594 4
      vertex 19.823007583618164 -18.651878356933594 0
    endloop
  endfacet
  facet normal -0.9438861448101628 0.33027101846121515 0
    outer loop
      vertex 19.823007583618164 -18.651878356933594 4
      vertex 19.783782958984375 -18.763978958129883 0
      vertex 19.783782958984375 -18.763978958129883 4
    endloop
  endfacet
  facet normal 0.7071067811865476 -0.7071067811865476 0
    outer loop
      vertex 16.109668731689453 -16.455379486083984 4
      vertex 16.455379486083984 -16.109668731689453 0
      vertex 16.455379486083984 -16.109668731689453 4
    endloop
  endfacet
  facet normal 0.7071067811865476 -0.7071067811865476 0
    outer loop
      vertex 16.455379486083984 -16.109668731689453 0
      vertex 16.109668731689453 -16.455379486083984 4
      vertex 16.109668731689453 -16.455379486083984 0
    endloop
  endfacet
  facet normal 0.9438828036973466 -0.33028056691915164 0
    outer loop
      vertex 15.68807315826416 -17.330829620361328 4
      vertex 15.8495512008667 -16.869354248046875 0
      vertex 15.8495512008667 -16.869354248046875 4
    endloop
  endfacet
  facet normal 0.9438828036973466 -0.33028056691915164 0
    outer loop
      vertex 15.8495512008667 -16.869354248046875 0
      vertex 15.68807315826416 -17.330829620361328 4
      vertex 15.68807315826416 -17.330829620361328 0
    endloop
  endfacet
  facet normal 0.11196322061118183 -0.9937123513524282 0
    outer loop
      vertex 17.330829620361328 -15.68807315826416 0
      vertex 17.816665649414062 -15.633333206176758 4
      vertex 17.330829620361328 -15.68807315826416 4
    endloop
  endfacet
  facet normal 0.11196322061118183 -0.9937123513524282 0
    outer loop
      vertex 17.816665649414062 -15.633333206176758 4
      vertex 17.330829620361328 -15.68807315826416 0
      vertex 17.816665649414062 -15.633333206176758 0
    endloop
  endfacet
  facet normal -0.5320348135485107 0.8467224794301857 0
    outer loop
      vertex 19.17795181274414 -19.523664474487305 0
      vertex 18.899999618530273 -19.698314666748047 4
      vertex 19.17795181274414 -19.523664474487305 4
    endloop
  endfacet
  facet normal -0.5320348135485107 0.8467224794301857 0
    outer loop
      vertex 18.899999618530273 -19.698314666748047 4
      vertex 19.17795181274414 -19.523664474487305 0
      vertex 18.899999618530273 -19.698314666748047 0
    endloop
  endfacet
  facet normal -0.7071067811865476 0.7071067811865476 0
    outer loop
      vertex 19.17795181274414 -19.523664474487305 0
      vertex 19.523664474487305 -19.17795181274414 4
      vertex 19.523664474487305 -19.17795181274414 0
    endloop
  endfacet
  facet normal -0.7071067811865476 0.7071067811865476 0
    outer loop
      vertex 19.523664474487305 -19.17795181274414 4
      vertex 19.17795181274414 -19.523664474487305 0
      vertex 19.17795181274414 -19.523664474487305 4
    endloop
  endfacet
  facet normal 0.5320319998967201 -0.8467242473709469 0
    outer loop
      vertex 16.455379486083984 -16.109668731689453 0
      vertex 16.869354248046875 -15.8495512008667 4
      vertex 16.455379486083984 -16.109668731689453 4
    endloop
  endfacet
  facet normal 0.5320319998967201 -0.8467242473709469 0
    outer loop
      vertex 16.869354248046875 -15.8495512008667 4
      vertex 16.455379486083984 -16.109668731689453 0
      vertex 16.869354248046875 -15.8495512008667 0
    endloop
  endfacet
  facet normal -0.8467222643796595 0.5320351557968532 0
    outer loop
      vertex 19.523664474487305 -19.17795181274414 0
      vertex 19.783782958984375 -18.763978958129883 4
      vertex 19.783782958984375 -18.763978958129883 0
    endloop
  endfacet
  facet normal -0.8467222643796595 0.5320351557968532 0
    outer loop
      vertex 19.783782958984375 -18.763978958129883 4
      vertex 19.523664474487305 -19.17795181274414 0
      vertex 19.523664474487305 -19.17795181274414 4
    endloop
  endfacet
  facet normal 0.9937123513524282 -0.11196322061118183 0
    outer loop
      vertex 15.633333206176758 -17.816665649414062 4
      vertex 15.68807315826416 -17.330829620361328 0
      vertex 15.68807315826416 -17.330829620361328 4
    endloop
  endfacet
  facet normal 0.9937123513524282 -0.11196322061118183 0
    outer loop
      vertex 15.68807315826416 -17.330829620361328 0
      vertex 15.633333206176758 -17.816665649414062 4
      vertex 15.633333206176758 -17.816665649414062 0
    endloop
  endfacet
  facet normal 0.33028056691915164 -0.9438828036973466 0
    outer loop
      vertex 16.869354248046875 -15.8495512008667 0
      vertex 17.330829620361328 -15.68807315826416 4
      vertex 16.869354248046875 -15.8495512008667 4
    endloop
  endfacet
  facet normal 0.33028056691915164 -0.9438828036973466 0
    outer loop
      vertex 17.330829620361328 -15.68807315826416 4
      vertex 16.869354248046875 -15.8495512008667 0
      vertex 17.330829620361328 -15.68807315826416 0
    endloop
  endfacet
  facet normal -1 0 0
    outer loop
      vertex 18.899999618530273 -20.757713317871094 0
      vertex 18.899999618530273 -19.698314666748047 4
      vertex 18.899999618530273 -19.698314666748047 0
    endloop
  endfacet
  facet normal -1 0 0
    outer loop
      vertex 18.899999618530273 -19.698314666748047 4
      vertex 18.899999618530273 -20.757713317871094 0
      vertex 18.899999618530273 -20.757713317871094 4
    endloop
  endfacet
  facet normal 1 0 0
    outer loop
      vertex 15.633333206176758 -20.757713317871094 4
      vertex 15.633333206176758 -17.816665649414062 0
      vertex 15.633333206176758 -17.816665649414062 4
    endloop
  endfacet
  facet normal 1 0 0
    outer loop
      vertex 15.633333206176758 -17.816665649414062 0
      vertex 15.633333206176758 -20.757713317871094 4
      vertex 15.633333206176758 -20.757713317871094 0
    endloop
  endfacet
  facet normal -0.7071163829406887 -0.7070971793020231 0
    outer loop
      vertex 18.970230102539062 -20.827945709228516 0
      vertex 18.899999618530273 -20.757713317871094 4
      vertex 18.899999618530273 -20.757713317871094 0
    endloop
  endfacet
  facet normal -0.7071163829406887 -0.7070971793020231 0
    outer loop
      vertex 18.899999618530273 -20.757713317871094 4
      vertex 18.970230102539062 -20.827945709228516 0
      vertex 18.970230102539062 -20.827945709228516 4
    endloop
  endfacet
  facet normal 0.7071096873655862 -0.7071038749955645 0
    outer loop
      vertex 15.401294708251953 -20.98975372314453 4
      vertex 15.633333206176758 -20.757713317871094 0
      vertex 15.633333206176758 -20.757713317871094 4
    endloop
  endfacet
  facet normal 0.7071096873655862 -0.7071038749955645 0
    outer loop
      vertex 15.633333206176758 -20.757713317871094 0
      vertex 15.401294708251953 -20.98975372314453 4
      vertex 15.401294708251953 -20.98975372314453 0
    endloop
  endfacet
  facet normal -0.7485119970490608 -0.6631212485463175 0
    outer loop
      vertex 19.885456085205078 -13.601943016052246 0
      vertex 19.568065643310547 -13.243681907653809 4
      vertex 19.568065643310547 -13.243681907653809 0
    endloop
  endfacet
  facet normal -0.7485119970490608 -0.6631212485463175 0
    outer loop
      vertex 19.568065643310547 -13.243681907653809 4
      vertex 19.885456085205078 -13.601943016052246 0
      vertex 19.885456085205078 -13.601943016052246 4
    endloop
  endfacet
  facet normal 1 0 0
    outer loop
      vertex 18.029056549072266 -15.65726375579834 4
      vertex 18.029056549072266 -13.827350616455078 0
      vertex 18.029056549072266 -13.827350616455078 4
    endloop
  endfacet
  facet normal 1 0 0
    outer loop
      vertex 18.029056549072266 -13.827350616455078 0
      vertex 18.029056549072266 -15.65726375579834 4
      vertex 18.029056549072266 -15.65726375579834 0
    endloop
  endfacet
  facet normal -0.9709418959937222 -0.23931534552576447 0
    outer loop
      vertex 20 -14.066666603088379 0
      vertex 19.885456085205078 -13.601943016052246 4
      vertex 19.885456085205078 -13.601943016052246 0
    endloop
  endfacet
  facet normal -0.9709418959937222 -0.23931534552576447 0
    outer loop
      vertex 19.885456085205078 -13.601943016052246 4
      vertex 20 -14.066666603088379 0
      vertex 20 -14.066666603088379 4
    endloop
  endfacet
  facet normal 0.5680648453819412 -0.822983797799927 0
    outer loop
      vertex 18.251487731933594 -13.403543472290039 0
      vertex 18.64539337158203 -13.1316499710083 4
      vertex 18.251487731933594 -13.403543472290039 4
    endloop
  endfacet
  facet normal 0.5680648453819412 -0.822983797799927 0
    outer loop
      vertex 18.64539337158203 -13.1316499710083 4
      vertex 18.251487731933594 -13.403543472290039 0
      vertex 18.64539337158203 -13.1316499710083 0
    endloop
  endfacet
  facet normal 0.12053600053664341 -0.992708956630608 0
    outer loop
      vertex 18.64539337158203 -13.1316499710083 0
      vertex 19.12053680419922 -13.073957443237305 4
      vertex 18.64539337158203 -13.1316499710083 4
    endloop
  endfacet
  facet normal 0.12053600053664341 -0.992708956630608 0
    outer loop
      vertex 19.12053680419922 -13.073957443237305 4
      vertex 18.64539337158203 -13.1316499710083 0
      vertex 19.12053680419922 -13.073957443237305 0
    endloop
  endfacet
  facet normal -0.9709421242208067 0.23931441956887473 0
    outer loop
      vertex 19.885456085205078 -18.581390380859375 0
      vertex 20 -18.11666488647461 4
      vertex 20 -18.11666488647461 0
    endloop
  endfacet
  facet normal -0.9709421242208067 0.23931441956887473 0
    outer loop
      vertex 20 -18.11666488647461 4
      vertex 19.885456085205078 -18.581390380859375 0
      vertex 19.885456085205078 -18.581390380859375 4
    endloop
  endfacet
  facet normal -1 0 0
    outer loop
      vertex 20 -18.11666488647461 0
      vertex 20 -14.066666603088379 4
      vertex 20 -14.066666603088379 0
    endloop
  endfacet
  facet normal -1 0 0
    outer loop
      vertex 20 -14.066666603088379 4
      vertex 20 -18.11666488647461 0
      vertex 20 -18.11666488647461 4
    endloop
  endfacet
  facet normal -0.3546033585488625 -0.9350168223651737 0
    outer loop
      vertex 19.12053680419922 -13.073957443237305 0
      vertex 19.568065643310547 -13.243681907653809 4
      vertex 19.12053680419922 -13.073957443237305 4
    endloop
  endfacet
  facet normal -0.3546033585488625 -0.9350168223651737 0
    outer loop
      vertex 19.568065643310547 -13.243681907653809 4
      vertex 19.12053680419922 -13.073957443237305 0
      vertex 19.568065643310547 -13.243681907653809 0
    endloop
  endfacet
  facet normal -0.7485022941179352 0.6631322007716018 0
    outer loop
      vertex 19.823007583618164 -18.651878356933594 0
      vertex 19.885456085205078 -18.581390380859375 4
      vertex 19.885456085205078 -18.581390380859375 0
    endloop
  endfacet
  facet normal -0.7485022941179352 0.6631322007716018 0
    outer loop
      vertex 19.885456085205078 -18.581390380859375 4
      vertex 19.823007583618164 -18.651878356933594 0
      vertex 19.823007583618164 -18.651878356933594 4
    endloop
  endfacet
  facet normal 0.8854559957612744 -0.46472322899808866 0
    outer loop
      vertex 18.029056549072266 -13.827350616455078 4
      vertex 18.251487731933594 -13.403543472290039 0
      vertex 18.251487731933594 -13.403543472290039 4
    endloop
  endfacet
  facet normal 0.8854559957612744 -0.46472322899808866 0
    outer loop
      vertex 18.251487731933594 -13.403543472290039 0
      vertex 18.029056549072266 -13.827350616455078 4
      vertex 18.029056549072266 -13.827350616455078 0
    endloop
  endfacet
  facet normal -0.22251758541071925 -0.9749286764594544 0
    outer loop
      vertex -16.577939987182617 -16.18790054321289 0
      vertex -16.103275299072266 -16.29623794555664 4
      vertex -16.577939987182617 -16.18790054321289 4
    endloop
  endfacet
  facet normal -0.22251758541071925 -0.9749286764594544 0
    outer loop
      vertex -16.103275299072266 -16.29623794555664 4
      vertex -16.577939987182617 -16.18790054321289 0
      vertex -16.103275299072266 -16.29623794555664 0
    endloop
  endfacet
  facet normal -0.7071068569548223 -0.7071067054182645 0
    outer loop
      vertex -11.231554985046387 -20.98975372314453 0
      vertex -15.681632995605469 -16.539674758911133 4
      vertex -15.681632995605469 -16.539674758911133 0
    endloop
  endfacet
  facet normal -0.7071068569548223 -0.7071067054182645 0
    outer loop
      vertex -15.681632995605469 -16.539674758911133 4
      vertex -11.231554985046387 -20.98975372314453 0
      vertex -11.231554985046387 -20.98975372314453 4
    endloop
  endfacet
  facet normal 1 0 0
    outer loop
      vertex -18.31509017944336 -18.060100555419922 4
      vertex -18.31509017944336 -17.573230743408203 0
      vertex -18.31509017944336 -17.573230743408203 4
    endloop
  endfacet
  facet normal 1 0 0
    outer loop
      vertex -18.31509017944336 -17.573230743408203 0
      vertex -18.31509017944336 -18.060100555419922 4
      vertex -18.31509017944336 -18.060100555419922 0
    endloop
  endfacet
  facet normal 0.9555720947458464 -0.294757479537051 0
    outer loop
      vertex -18.31509017944336 -17.573230743408203 4
      vertex -18.171581268310547 -17.107990264892578 0
      vertex -18.171581268310547 -17.107990264892578 4
    endloop
  endfacet
  facet normal 0.9555720947458464 -0.294757479537051 0
    outer loop
      vertex -18.171581268310547 -17.107990264892578 0
      vertex -18.31509017944336 -17.573230743408203 4
      vertex -18.31509017944336 -17.573230743408203 0
    endloop
  endfacet
  facet normal 0.7071067811865476 0.7071067811865476 0
    outer loop
      vertex -15.835180282592773 -20.98975372314453 4
      vertex -17.89731788635254 -18.927616119384766 0
      vertex -17.89731788635254 -18.927616119384766 4
    endloop
  endfacet
  facet normal 0.7071067811865476 0.7071067811865476 0
    outer loop
      vertex -17.89731788635254 -18.927616119384766 0
      vertex -15.835180282592773 -20.98975372314453 4
      vertex -15.835180282592773 -20.98975372314453 0
    endloop
  endfacet
  facet normal 0.8262405208284967 0.5633174963917368 0
    outer loop
      vertex -17.89731788635254 -18.927616119384766 4
      vertex -18.171581268310547 -18.52534294128418 0
      vertex -18.171581268310547 -18.52534294128418 4
    endloop
  endfacet
  facet normal 0.8262405208284967 0.5633174963917368 0
    outer loop
      vertex -18.171581268310547 -18.52534294128418 0
      vertex -17.89731788635254 -18.927616119384766 4
      vertex -17.89731788635254 -18.927616119384766 0
    endloop
  endfacet
  facet normal 0.8262405208284967 -0.5633174963917368 0
    outer loop
      vertex -18.171581268310547 -17.107990264892578 4
      vertex -17.89731788635254 -16.705717086791992 0
      vertex -17.89731788635254 -16.705717086791992 4
    endloop
  endfacet
  facet normal 0.8262405208284967 -0.5633174963917368 0
    outer loop
      vertex -17.89731788635254 -16.705717086791992 0
      vertex -18.171581268310547 -17.107990264892578 4
      vertex -18.171581268310547 -17.107990264892578 0
    endloop
  endfacet
  facet normal 0.3653362451330549 -0.9308756243409108 0
    outer loop
      vertex -17.516666412353516 -16.402156829833984 0
      vertex -17.06344985961914 -16.224285125732422 4
      vertex -17.516666412353516 -16.402156829833984 4
    endloop
  endfacet
  facet normal 0.3653362451330549 -0.9308756243409108 0
    outer loop
      vertex -17.06344985961914 -16.224285125732422 4
      vertex -17.516666412353516 -16.402156829833984 0
      vertex -17.06344985961914 -16.224285125732422 0
    endloop
  endfacet
  facet normal 0.9555724351095787 0.29475637611212113 0
    outer loop
      vertex -18.171581268310547 -18.52534294128418 4
      vertex -18.31509017944336 -18.060100555419922 0
      vertex -18.31509017944336 -18.060100555419922 4
    endloop
  endfacet
  facet normal 0.9555724351095787 0.29475637611212113 0
    outer loop
      vertex -18.31509017944336 -18.060100555419922 0
      vertex -18.171581268310547 -18.52534294128418 4
      vertex -18.171581268310547 -18.52534294128418 0
    endloop
  endfacet
  facet normal -0.5000023352344738 -0.8660240555319886 0
    outer loop
      vertex -16.103275299072266 -16.29623794555664 0
      vertex -15.681632995605469 -16.539674758911133 4
      vertex -16.103275299072266 -16.29623794555664 4
    endloop
  endfacet
  facet normal -0.5000023352344738 -0.8660240555319886 0
    outer loop
      vertex -15.681632995605469 -16.539674758911133 4
      vertex -16.103275299072266 -16.29623794555664 0
      vertex -15.681632995605469 -16.539674758911133 0
    endloop
  endfacet
  facet normal 0.6234908514497034 -0.7818306454460096 0
    outer loop
      vertex -17.89731788635254 -16.705717086791992 0
      vertex -17.516666412353516 -16.402156829833984 4
      vertex -17.89731788635254 -16.705717086791992 4
    endloop
  endfacet
  facet normal 0.6234908514497034 -0.7818306454460096 0
    outer loop
      vertex -17.516666412353516 -16.402156829833984 4
      vertex -17.89731788635254 -16.705717086791992 0
      vertex -17.516666412353516 -16.402156829833984 0
    endloop
  endfacet
  facet normal 0.07473141598439284 -0.9972036980802708 0
    outer loop
      vertex -17.06344985961914 -16.224285125732422 0
      vertex -16.577939987182617 -16.18790054321289 4
      vertex -17.06344985961914 -16.224285125732422 4
    endloop
  endfacet
  facet normal 0.07473141598439284 -0.9972036980802708 0
    outer loop
      vertex -16.577939987182617 -16.18790054321289 4
      vertex -17.06344985961914 -16.224285125732422 0
      vertex -16.577939987182617 -16.18790054321289 0
    endloop
  endfacet
  facet normal -0.47594443717696866 0.8794753508315617 0
    outer loop
      vertex -19.20508575439453 20.747318267822266 0
      vertex -19.640844345092773 20.511499404907227 4
      vertex -19.20508575439453 20.747318267822266 4
    endloop
  endfacet
  facet normal -0.47594443717696866 0.8794753508315617 0
    outer loop
      vertex -19.640844345092773 20.511499404907227 4
      vertex -19.20508575439453 20.747318267822266 0
      vertex -19.640844345092773 20.511499404907227 0
    endloop
  endfacet
  facet normal 0.3247044922964876 -0.9458155172561297 0
    outer loop
      vertex 18.970230102539062 -20.827945709228516 0
      vertex 19.20508575439453 -20.747318267822266 4
      vertex 18.970230102539062 -20.827945709228516 4
    endloop
  endfacet
  facet normal 0.3247044922964876 -0.9458155172561297 0
    outer loop
      vertex 19.20508575439453 -20.747318267822266 4
      vertex 18.970230102539062 -20.827945709228516 0
      vertex 19.20508575439453 -20.747318267822266 0
    endloop
  endfacet
  facet normal -0.9965844105859497 -0.08258034013646959 0
    outer loop
      vertex -20.959083557128906 -18.49378204345703 0
      vertex -21 -18 4
      vertex -21 -18 0
    endloop
  endfacet
  facet normal -0.9965844105859497 -0.08258034013646959 0
    outer loop
      vertex -21 -18 4
      vertex -20.959083557128906 -18.49378204345703 0
      vertex -20.959083557128906 -18.49378204345703 4
    endloop
  endfacet
  facet normal -1 0 0
    outer loop
      vertex -21 -18 0
      vertex -21 18 4
      vertex -21 18 0
    endloop
  endfacet
  facet normal -1 0 0
    outer loop
      vertex -21 18 4
      vertex -21 -18 0
      vertex -21 -18 4
    endloop
  endfacet
  facet normal 1 0 0
    outer loop
      vertex 21 -18 4
      vertex 21 18 0
      vertex 21 18 4
    endloop
  endfacet
  facet normal 1 0 0
    outer loop
      vertex 21 18 0
      vertex 21 -18 4
      vertex 21 -18 0
    endloop
  endfacet
  facet normal -0.8371668345675297 -0.5469476127566353 0
    outer loop
      vertex -20.367420196533203 -19.84263801574707 0
      vertex -20.63842010498047 -19.427841186523438 4
      vertex -20.63842010498047 -19.427841186523438 0
    endloop
  endfacet
  facet normal -0.8371668345675297 -0.5469476127566353 0
    outer loop
      vertex -20.63842010498047 -19.427841186523438 4
      vertex -20.367420196533203 -19.84263801574707 0
      vertex -20.367420196533203 -19.84263801574707 4
    endloop
  endfacet
  facet normal -0.47594443717696866 -0.8794753508315617 0
    outer loop
      vertex -19.640844345092773 -20.511499404907227 0
      vertex -19.20508575439453 -20.747318267822266 4
      vertex -19.640844345092773 -20.511499404907227 4
    endloop
  endfacet
  facet normal -0.47594443717696866 -0.8794753508315617 0
    outer loop
      vertex -19.20508575439453 -20.747318267822266 4
      vertex -19.640844345092773 -20.511499404907227 0
      vertex -19.20508575439453 -20.747318267822266 0
    endloop
  endfacet
  facet normal 0.9965844105859497 0.08258034013646959 0
    outer loop
      vertex 21 18 4
      vertex 20.959083557128906 18.49378204345703 0
      vertex 20.959083557128906 18.49378204345703 4
    endloop
  endfacet
  facet normal 0.9965844105859497 0.08258034013646959 0
    outer loop
      vertex 20.959083557128906 18.49378204345703 0
      vertex 21 18 4
      vertex 21 18 0
    endloop
  endfacet
  facet normal 0.3246998595790803 0.945817107684845 0
    outer loop
      vertex 19.20508575439453 20.747318267822266 0
      vertex 18.7364559173584 20.908199310302734 4
      vertex 19.20508575439453 20.747318267822266 4
    endloop
  endfacet
  facet normal 0.3246998595790803 0.945817107684845 0
    outer loop
      vertex 18.7364559173584 20.908199310302734 4
      vertex 19.20508575439453 20.747318267822266 0
      vertex 18.7364559173584 20.908199310302734 0
    endloop
  endfacet
  facet normal 0.91577206070236 -0.40169831072205564 0
    outer loop
      vertex 20.63842010498047 -19.427841186523438 4
      vertex 20.837451934814453 -18.974098205566406 0
      vertex 20.837451934814453 -18.974098205566406 4
    endloop
  endfacet
  facet normal 0.91577206070236 -0.40169831072205564 0
    outer loop
      vertex 20.837451934814453 -18.974098205566406 0
      vertex 20.63842010498047 -19.427841186523438 4
      vertex 20.63842010498047 -19.427841186523438 0
    endloop
  endfacet
  facet normal 0 -1 0
    outer loop
      vertex -18.247737884521484 -20.98975372314453 0
      vertex -15.835180282592773 -20.98975372314453 4
      vertex -18.247737884521484 -20.98975372314453 4
    endloop
  endfacet
  facet normal 0 -1 0
    outer loop
      vertex -15.835180282592773 -20.98975372314453 4
      vertex -18.247737884521484 -20.98975372314453 0
      vertex -15.835180282592773 -20.98975372314453 0
    endloop
  endfacet
  facet normal 0 -1 0
    outer loop
      vertex -11.231554985046387 -20.98975372314453 0
      vertex 15.401294708251953 -20.98975372314453 4
      vertex -11.231554985046387 -20.98975372314453 4
    endloop
  endfacet
  facet normal 0 -1 0
    outer loop
      vertex 15.401294708251953 -20.98975372314453 4
      vertex -11.231554985046387 -20.98975372314453 0
      vertex 15.401294708251953 -20.98975372314453 0
    endloop
  endfacet
  facet normal -0.3246998595790803 -0.945817107684845 0
    outer loop
      vertex -19.20508575439453 -20.747318267822266 0
      vertex -18.7364559173584 -20.908199310302734 4
      vertex -19.20508575439453 -20.747318267822266 4
    endloop
  endfacet
  facet normal -0.3246998595790803 -0.945817107684845 0
    outer loop
      vertex -18.7364559173584 -20.908199310302734 4
      vertex -19.20508575439453 -20.747318267822266 0
      vertex -18.7364559173584 -20.908199310302734 0
    endloop
  endfacet
  facet normal -0.91577206070236 -0.40169831072205564 0
    outer loop
      vertex -20.63842010498047 -19.427841186523438 0
      vertex -20.837451934814453 -18.974098205566406 4
      vertex -20.837451934814453 -18.974098205566406 0
    endloop
  endfacet
  facet normal -0.91577206070236 -0.40169831072205564 0
    outer loop
      vertex -20.837451934814453 -18.974098205566406 4
      vertex -20.63842010498047 -19.427841186523438 0
      vertex -20.63842010498047 -19.427841186523438 4
    endloop
  endfacet
  facet normal -0.7357263558588992 0.67727891543631 0
    outer loop
      vertex -20.367420196533203 19.84263801574707 0
      vertex -20.031845092773438 20.207172393798828 4
      vertex -20.031845092773438 20.207172393798828 0
    endloop
  endfacet
  facet normal -0.7357263558588992 0.67727891543631 0
    outer loop
      vertex -20.031845092773438 20.207172393798828 4
      vertex -20.367420196533203 19.84263801574707 0
      vertex -20.367420196533203 19.84263801574707 4
    endloop
  endfacet
  facet normal 0.8371668345675297 -0.5469476127566353 0
    outer loop
      vertex 20.367420196533203 -19.84263801574707 4
      vertex 20.63842010498047 -19.427841186523438 0
      vertex 20.63842010498047 -19.427841186523438 4
    endloop
  endfacet
  facet normal 0.8371668345675297 -0.5469476127566353 0
    outer loop
      vertex 20.63842010498047 -19.427841186523438 0
      vertex 20.367420196533203 -19.84263801574707 4
      vertex 20.367420196533203 -19.84263801574707 0
    endloop
  endfacet
  facet normal 0.7357263558588992 -0.67727891543631 0
    outer loop
      vertex 20.031845092773438 -20.207172393798828 4
      vertex 20.367420196533203 -19.84263801574707 0
      vertex 20.367420196533203 -19.84263801574707 4
    endloop
  endfacet
  facet normal 0.7357263558588992 -0.67727891543631 0
    outer loop
      vertex 20.367420196533203 -19.84263801574707 0
      vertex 20.031845092773438 -20.207172393798828 4
      vertex 20.031845092773438 -20.207172393798828 0
    endloop
  endfacet
  facet normal 0.7357263558588992 0.67727891543631 0
    outer loop
      vertex 20.367420196533203 19.84263801574707 4
      vertex 20.031845092773438 20.207172393798828 0
      vertex 20.031845092773438 20.207172393798828 4
    endloop
  endfacet
  facet normal 0.7357263558588992 0.67727891543631 0
    outer loop
      vertex 20.031845092773438 20.207172393798828 0
      vertex 20.367420196533203 19.84263801574707 4
      vertex 20.367420196533203 19.84263801574707 0
    endloop
  endfacet
  facet normal -0.3246998595790803 0.945817107684845 0
    outer loop
      vertex -18.7364559173584 20.908199310302734 0
      vertex -19.20508575439453 20.747318267822266 4
      vertex -18.7364559173584 20.908199310302734 4
    endloop
  endfacet
  facet normal -0.3246998595790803 0.945817107684845 0
    outer loop
      vertex -19.20508575439453 20.747318267822266 4
      vertex -18.7364559173584 20.908199310302734 0
      vertex -19.20508575439453 20.747318267822266 0
    endloop
  endfacet
  facet normal 0 1 0
    outer loop
      vertex 18.247737884521484 20.98975372314453 0
      vertex -18.247737884521484 20.98975372314453 4
      vertex 18.247737884521484 20.98975372314453 4
    endloop
  endfacet
  facet normal 0 1 0
    outer loop
      vertex -18.247737884521484 20.98975372314453 4
      vertex 18.247737884521484 20.98975372314453 0
      vertex -18.247737884521484 20.98975372314453 0
    endloop
  endfacet
  facet normal 0.9694007217631851 0.24548368712608137 0
    outer loop
      vertex 20.959083557128906 18.49378204345703 4
      vertex 20.837451934814453 18.974098205566406 0
      vertex 20.837451934814453 18.974098205566406 4
    endloop
  endfacet
  facet normal 0.9694007217631851 0.24548368712608137 0
    outer loop
      vertex 20.837451934814453 18.974098205566406 0
      vertex 20.959083557128906 18.49378204345703 4
      vertex 20.959083557128906 18.49378204345703 0
    endloop
  endfacet
  facet normal -0.9694007217631851 -0.24548368712608137 0
    outer loop
      vertex -20.837451934814453 -18.974098205566406 0
      vertex -20.959083557128906 -18.49378204345703 4
      vertex -20.959083557128906 -18.49378204345703 0
    endloop
  endfacet
  facet normal -0.9694007217631851 -0.24548368712608137 0
    outer loop
      vertex -20.959083557128906 -18.49378204345703 4
      vertex -20.837451934814453 -18.974098205566406 0
      vertex -20.837451934814453 -18.974098205566406 4
    endloop
  endfacet
  facet normal -0.6142113472305486 0.7891415721739887 0
    outer loop
      vertex -19.640844345092773 20.511499404907227 0
      vertex -20.031845092773438 20.207172393798828 4
      vertex -19.640844345092773 20.511499404907227 4
    endloop
  endfacet
  facet normal -0.6142113472305486 0.7891415721739887 0
    outer loop
      vertex -20.031845092773438 20.207172393798828 4
      vertex -19.640844345092773 20.511499404907227 0
      vertex -20.031845092773438 20.207172393798828 0
    endloop
  endfacet
  facet normal 0.9965844105859497 -0.08258034013646959 0
    outer loop
      vertex 20.959083557128906 -18.49378204345703 4
      vertex 21 -18 0
      vertex 21 -18 4
    endloop
  endfacet
  facet normal 0.9965844105859497 -0.08258034013646959 0
    outer loop
      vertex 21 -18 0
      vertex 20.959083557128906 -18.49378204345703 4
      vertex 20.959083557128906 -18.49378204345703 0
    endloop
  endfacet
  facet normal 0.6142113472305486 -0.7891415721739887 0
    outer loop
      vertex 19.640844345092773 -20.511499404907227 0
      vertex 20.031845092773438 -20.207172393798828 4
      vertex 19.640844345092773 -20.511499404907227 4
    endloop
  endfacet
  facet normal 0.6142113472305486 -0.7891415721739887 0
    outer loop
      vertex 20.031845092773438 -20.207172393798828 4
      vertex 19.640844345092773 -20.511499404907227 0
      vertex 20.031845092773438 -20.207172393798828 0
    endloop
  endfacet
  facet normal 0.47594443717696866 -0.8794753508315617 0
    outer loop
      vertex 19.20508575439453 -20.747318267822266 0
      vertex 19.640844345092773 -20.511499404907227 4
      vertex 19.20508575439453 -20.747318267822266 4
    endloop
  endfacet
  facet normal 0.47594443717696866 -0.8794753508315617 0
    outer loop
      vertex 19.640844345092773 -20.511499404907227 4
      vertex 19.20508575439453 -20.747318267822266 0
      vertex 19.640844345092773 -20.511499404907227 0
    endloop
  endfacet
  facet normal -0.9965844105859497 0.08258034013646959 0
    outer loop
      vertex -21 18 0
      vertex -20.959083557128906 18.49378204345703 4
      vertex -20.959083557128906 18.49378204345703 0
    endloop
  endfacet
  facet normal -0.9965844105859497 0.08258034013646959 0
    outer loop
      vertex -20.959083557128906 18.49378204345703 4
      vertex -21 18 0
      vertex -21 18 4
    endloop
  endfacet
  facet normal -0.8371668345675297 0.5469476127566353 0
    outer loop
      vertex -20.63842010498047 19.427841186523438 0
      vertex -20.367420196533203 19.84263801574707 4
      vertex -20.367420196533203 19.84263801574707 0
    endloop
  endfacet
  facet normal -0.8371668345675297 0.5469476127566353 0
    outer loop
      vertex -20.367420196533203 19.84263801574707 4
      vertex -20.63842010498047 19.427841186523438 0
      vertex -20.63842010498047 19.427841186523438 4
    endloop
  endfacet
  facet normal 0.91577206070236 0.40169831072205564 0
    outer loop
      vertex 20.837451934814453 18.974098205566406 4
      vertex 20.63842010498047 19.427841186523438 0
      vertex 20.63842010498047 19.427841186523438 4
    endloop
  endfacet
  facet normal 0.91577206070236 0.40169831072205564 0
    outer loop
      vertex 20.63842010498047 19.427841186523438 0
      vertex 20.837451934814453 18.974098205566406 4
      vertex 20.837451934814453 18.974098205566406 0
    endloop
  endfacet
  facet normal -0.6142113472305486 -0.7891415721739887 0
    outer loop
      vertex -20.031845092773438 -20.207172393798828 0
      vertex -19.640844345092773 -20.511499404907227 4
      vertex -20.031845092773438 -20.207172393798828 4
    endloop
  endfacet
  facet normal -0.6142113472305486 -0.7891415721739887 0
    outer loop
      vertex -19.640844345092773 -20.511499404907227 4
      vertex -20.031845092773438 -20.207172393798828 0
      vertex -19.640844345092773 -20.511499404907227 0
    endloop
  endfacet
  facet normal -0.9694007217631851 0.24548368712608137 0
    outer loop
      vertex -20.959083557128906 18.49378204345703 0
      vertex -20.837451934814453 18.974098205566406 4
      vertex -20.837451934814453 18.974098205566406 0
    endloop
  endfacet
  facet normal -0.9694007217631851 0.24548368712608137 0
    outer loop
      vertex -20.837451934814453 18.974098205566406 4
      vertex -20.959083557128906 18.49378204345703 0
      vertex -20.959083557128906 18.49378204345703 4
    endloop
  endfacet
  facet normal 0.9694007217631851 -0.24548368712608137 0
    outer loop
      vertex 20.837451934814453 -18.974098205566406 4
      vertex 20.959083557128906 -18.49378204345703 0
      vertex 20.959083557128906 -18.49378204345703 4
    endloop
  endfacet
  facet normal 0.9694007217631851 -0.24548368712608137 0
    outer loop
      vertex 20.959083557128906 -18.49378204345703 0
      vertex 20.837451934814453 -18.974098205566406 4
      vertex 20.837451934814453 -18.974098205566406 0
    endloop
  endfacet
  facet normal -0.7357263558588992 -0.67727891543631 0
    outer loop
      vertex -20.031845092773438 -20.207172393798828 0
      vertex -20.367420196533203 -19.84263801574707 4
      vertex -20.367420196533203 -19.84263801574707 0
    endloop
  endfacet
  facet normal -0.7357263558588992 -0.67727891543631 0
    outer loop
      vertex -20.367420196533203 -19.84263801574707 4
      vertex -20.031845092773438 -20.207172393798828 0
      vertex -20.031845092773438 -20.207172393798828 4
    endloop
  endfacet
  facet normal -0.16459811899917595 0.9863607145572725 0
    outer loop
      vertex -18.247737884521484 20.98975372314453 0
      vertex -18.7364559173584 20.908199310302734 4
      vertex -18.247737884521484 20.98975372314453 4
    endloop
  endfacet
  facet normal -0.16459811899917595 0.9863607145572725 0
    outer loop
      vertex -18.7364559173584 20.908199310302734 4
      vertex -18.247737884521484 20.98975372314453 0
      vertex -18.7364559173584 20.908199310302734 0
    endloop
  endfacet
  facet normal -0.91577206070236 0.40169831072205564 0
    outer loop
      vertex -20.837451934814453 18.974098205566406 0
      vertex -20.63842010498047 19.427841186523438 4
      vertex -20.63842010498047 19.427841186523438 0
    endloop
  endfacet
  facet normal -0.91577206070236 0.40169831072205564 0
    outer loop
      vertex -20.63842010498047 19.427841186523438 4
      vertex -20.837451934814453 18.974098205566406 0
      vertex -20.837451934814453 18.974098205566406 4
    endloop
  endfacet
  facet normal 0.8371668345675297 0.5469476127566353 0
    outer loop
      vertex 20.63842010498047 19.427841186523438 4
      vertex 20.367420196533203 19.84263801574707 0
      vertex 20.367420196533203 19.84263801574707 4
    endloop
  endfacet
  facet normal 0.8371668345675297 0.5469476127566353 0
    outer loop
      vertex 20.367420196533203 19.84263801574707 0
      vertex 20.63842010498047 19.427841186523438 4
      vertex 20.63842010498047 19.427841186523438 0
    endloop
  endfacet
  facet normal 0.16459811899917595 0.9863607145572725 0
    outer loop
      vertex 18.7364559173584 20.908199310302734 0
      vertex 18.247737884521484 20.98975372314453 4
      vertex 18.7364559173584 20.908199310302734 4
    endloop
  endfacet
  facet normal 0.16459811899917595 0.9863607145572725 0
    outer loop
      vertex 18.247737884521484 20.98975372314453 4
      vertex 18.7364559173584 20.908199310302734 0
      vertex 18.247737884521484 20.98975372314453 0
    endloop
  endfacet
  facet normal 0.6142113472305486 0.7891415721739887 0
    outer loop
      vertex 20.031845092773438 20.207172393798828 0
      vertex 19.640844345092773 20.511499404907227 4
      vertex 20.031845092773438 20.207172393798828 4
    endloop
  endfacet
  facet normal 0.6142113472305486 0.7891415721739887 0
    outer loop
      vertex 19.640844345092773 20.511499404907227 4
      vertex 20.031845092773438 20.207172393798828 0
      vertex 19.640844345092773 20.511499404907227 0
    endloop
  endfacet
  facet normal -0.16459811899917595 -0.9863607145572725 0
    outer loop
      vertex -18.7364559173584 -20.908199310302734 0
      vertex -18.247737884521484 -20.98975372314453 4
      vertex -18.7364559173584 -20.908199310302734 4
    endloop
  endfacet
  facet normal -0.16459811899917595 -0.9863607145572725 0
    outer loop
      vertex -18.247737884521484 -20.98975372314453 4
      vertex -18.7364559173584 -20.908199310302734 0
      vertex -18.247737884521484 -20.98975372314453 0
    endloop
  endfacet
  facet normal 0.47594443717696866 0.8794753508315617 0
    outer loop
      vertex 19.640844345092773 20.511499404907227 0
      vertex 19.20508575439453 20.747318267822266 4
      vertex 19.640844345092773 20.511499404907227 4
    endloop
  endfacet
  facet normal 0.47594443717696866 0.8794753508315617 0
    outer loop
      vertex 19.20508575439453 20.747318267822266 4
      vertex 19.640844345092773 20.511499404907227 0
      vertex 19.20508575439453 20.747318267822266 0
    endloop
  endfacet
  facet normal 0 0 1
    outer loop
      vertex 18.247737884521484 20.98975372314453 4
      vertex 21 18 4
      vertex 20.959083557128906 18.49378204345703 4
    endloop
  endfacet
  facet normal 0 0 1
    outer loop
      vertex 21 18 4
      vertex 20 -14.066666603088379 4
      vertex 21 -18 4
    endloop
  endfacet
  facet normal 0 0 1
    outer loop
      vertex 18.247737884521484 20.98975372314453 4
      vertex 20.959083557128906 18.49378204345703 4
      vertex 20.837451934814453 18.974098205566406 4
    endloop
  endfacet
  facet normal 0 0 1
    outer loop
      vertex 20 -18.11666488647461 4
      vertex 21 -18 4
      vertex 20 -14.066666603088379 4
    endloop
  endfacet
  facet normal 0 0 1
    outer loop
      vertex 18.247737884521484 20.98975372314453 4
      vertex 20.837451934814453 18.974098205566406 4
      vertex 20.63842010498047 19.427841186523438 4
    endloop
  endfacet
  facet normal 0 0 1
    outer loop
      vertex 21 -18 4
      vertex 20 -18.11666488647461 4
      vertex 20.959083557128906 -18.49378204345703 4
    endloop
  endfacet
  facet normal 0 0 1
    outer loop
      vertex 18.247737884521484 20.98975372314453 4
      vertex 20.63842010498047 19.427841186523438 4
      vertex 20.367420196533203 19.84263801574707 4
    endloop
  endfacet
  facet normal 0 0 1
    outer loop
      vertex 19.885456085205078 -18.581390380859375 4
      vertex 20.959083557128906 -18.49378204345703 4
      vertex 20 -18.11666488647461 4
    endloop
  endfacet
  facet normal 0 0 1
    outer loop
      vertex 18.247737884521484 20.98975372314453 4
      vertex 20.367420196533203 19.84263801574707 4
      vertex 20.031845092773438 20.207172393798828 4
    endloop
  endfacet
  facet normal 0 0 1
    outer loop
      vertex 20.959083557128906 -18.49378204345703 4
      vertex 19.885456085205078 -18.581390380859375 4
      vertex 20.837451934814453 -18.974098205566406 4
    endloop
  endfacet
  facet normal 0 0 1
    outer loop
      vertex 19.783782958984375 -18.763978958129883 4
      vertex 20.837451934814453 -18.974098205566406 4
      vertex 19.885456085205078 -18.581390380859375 4
    endloop
  endfacet
  facet normal 0 0 1
    outer loop
      vertex 21 18 4
      vertex 19.885456085205078 -13.601943016052246 4
      vertex 20 -14.066666603088379 4
    endloop
  endfacet
  facet normal 0 0 1
    outer loop
      vertex 18.247737884521484 20.98975372314453 4
      vertex 20.031845092773438 20.207172393798828 4
      vertex 19.640844345092773 20.511499404907227 4
    endloop
  endfacet
  facet normal 0 0 1
    outer loop
      vertex 21 18 4
      vertex 19.568065643310547 -13.243681907653809 4
      vertex 19.885456085205078 -13.601943016052246 4
    endloop
  endfacet
  facet normal 0 0 1
    outer loop
      vertex 18.247737884521484 20.98975372314453 4
      vertex 19.640844345092773 20.511499404907227 4
      vertex 19.20508575439453 20.747318267822266 4
    endloop
  endfacet
  facet normal 0 0 1
    outer loop
      vertex 21 18 4
      vertex 19.12053680419922 -13.073957443237305 4
      vertex 19.568065643310547 -13.243681907653809 4
    endloop
  endfacet
  facet normal 0 0 1
    outer loop
      vertex 18.247737884521484 20.98975372314453 4
      vertex 19.20508575439453 20.747318267822266 4
      vertex 18.7364559173584 20.908199310302734 4
    endloop
  endfacet
  facet normal 0 0 1
    outer loop
      vertex 21 18 4
      vertex 18.64539337158203 -13.1316499710083 4
      vertex 19.12053680419922 -13.073957443237305 4
    endloop
  endfacet
  facet normal 0 0 1
    outer loop
      vertex 21 18 4
      vertex 18.247737884521484 20.98975372314453 4
      vertex 18.251487731933594 -13.403543472290039 4
    endloop
  endfacet
  facet normal 0 0 1
    outer loop
      vertex 21 18 4
      vertex 18.251487731933594 -13.403543472290039 4
      vertex 18.64539337158203 -13.1316499710083 4
    endloop
  endfacet
  facet normal 0 0 1
    outer loop
      vertex -18.247737884521484 20.98975372314453 4
      vertex 18.251487731933594 -13.403543472290039 4
      vertex 18.247737884521484 20.98975372314453 4
    endloop
  endfacet
  facet normal 0 0 1
    outer loop
      vertex 18.029056549072266 -13.827350616455078 4
      vertex 17.816665649414062 -15.633333206176758 4
      vertex 18.029056549072266 -15.65726375579834 4
    endloop
  endfacet
  facet normal 0 0 1
    outer loop
      vertex -15.681632995605469 -16.539674758911133 4
      vertex 18.251487731933594 -13.403543472290039 4
      vertex -18.247737884521484 20.98975372314453 4
    endloop
  endfacet
  facet normal 0 0 1
    outer loop
      vertex 18.029056549072266 -13.827350616455078 4
      vertex 17.330829620361328 -15.68807315826416 4
      vertex 17.816665649414062 -15.633333206176758 4
    endloop
  endfacet
  facet normal 0 0 1
    outer loop
      vertex 18.029056549072266 -13.827350616455078 4
      vertex 16.869354248046875 -15.8495512008667 4
      vertex 17.330829620361328 -15.68807315826416 4
    endloop
  endfacet
  facet normal 0 0 1
    outer loop
      vertex 18.029056549072266 -13.827350616455078 4
      vertex 16.455379486083984 -16.109668731689453 4
      vertex 16.869354248046875 -15.8495512008667 4
    endloop
  endfacet
  facet normal 0 0 1
    outer loop
      vertex 18.251487731933594 -13.403543472290039 4
      vertex 16.109668731689453 -16.455379486083984 4
      vertex 18.029056549072266 -13.827350616455078 4
    endloop
  endfacet
  facet normal 0 0 1
    outer loop
      vertex 18.029056549072266 -13.827350616455078 4
      vertex 16.109668731689453 -16.455379486083984 4
      vertex 16.455379486083984 -16.109668731689453 4
    endloop
  endfacet
  facet normal 0 0 1
    outer loop
      vertex -11.231554985046387 -20.98975372314453 4
      vertex 16.109668731689453 -16.455379486083984 4
      vertex -15.681632995605469 -16.539674758911133 4
    endloop
  endfacet
  facet normal 0 0 1
    outer loop
      vertex 16.109668731689453 -16.455379486083984 4
      vertex -11.231554985046387 -20.98975372314453 4
      vertex 15.8495512008667 -16.869354248046875 4
    endloop
  endfacet
  facet normal 0 0 1
    outer loop
      vertex 15.633333206176758 -17.816665649414062 4
      vertex 15.401294708251953 -20.98975372314453 4
      vertex 15.633333206176758 -20.757713317871094 4
    endloop
  endfacet
  facet normal 0 0 1
    outer loop
      vertex 15.8495512008667 -16.869354248046875 4
      vertex -11.231554985046387 -20.98975372314453 4
      vertex 15.68807315826416 -17.330829620361328 4
    endloop
  endfacet
  facet normal 0 0 1
    outer loop
      vertex 15.68807315826416 -17.330829620361328 4
      vertex -11.231554985046387 -20.98975372314453 4
      vertex 15.633333206176758 -17.816665649414062 4
    endloop
  endfacet
  facet normal 0 0 1
    outer loop
      vertex 15.633333206176758 -17.816665649414062 4
      vertex -11.231554985046387 -20.98975372314453 4
      vertex 15.401294708251953 -20.98975372314453 4
    endloop
  endfacet
  facet normal 0 0 1
    outer loop
      vertex 16.109668731689453 -16.455379486083984 4
      vertex 18.251487731933594 -13.403543472290039 4
      vertex -15.681632995605469 -16.539674758911133 4
    endloop
  endfacet
  facet normal 0 0 1
    outer loop
      vertex -21 18 4
      vertex -15.681632995605469 -16.539674758911133 4
      vertex -18.247737884521484 20.98975372314453 4
    endloop
  endfacet
  facet normal 0 0 1
    outer loop
      vertex -15.681632995605469 -16.539674758911133 4
      vertex -21 18 4
      vertex -16.103275299072266 -16.29623794555664 4
    endloop
  endfacet
  facet normal 0 0 1
    outer loop
      vertex -16.103275299072266 -16.29623794555664 4
      vertex -21 18 4
      vertex -16.577939987182617 -16.18790054321289 4
    endloop
  endfacet
  facet normal 0 0 1
    outer loop
      vertex -16.577939987182617 -16.18790054321289 4
      vertex -21 18 4
      vertex -17.06344985961914 -16.224285125732422 4
    endloop
  endfacet
  facet normal 0 0 1
    outer loop
      vertex -17.06344985961914 -16.224285125732422 4
      vertex -21 18 4
      vertex -17.516666412353516 -16.402156829833984 4
    endloop
  endfacet
  facet normal 0 0 1
    outer loop
      vertex -21 -18 4
      vertex -17.516666412353516 -16.402156829833984 4
      vertex -21 18 4
    endloop
  endfacet
  facet normal 0 0 1
    outer loop
      vertex -17.516666412353516 -16.402156829833984 4
      vertex -21 -18 4
      vertex -17.89731788635254 -16.705717086791992 4
    endloop
  endfacet
  facet normal 0 0 1
    outer loop
      vertex -17.89731788635254 -16.705717086791992 4
      vertex -21 -18 4
      vertex -18.171581268310547 -17.107990264892578 4
    endloop
  endfacet
  facet normal 0 0 1
    outer loop
      vertex -21 18 4
      vertex -18.247737884521484 20.98975372314453 4
      vertex -18.7364559173584 20.908199310302734 4
    endloop
  endfacet
  facet normal 0 0 1
    outer loop
      vertex 20.837451934814453 -18.974098205566406 4
      vertex 19.783782958984375 -18.763978958129883 4
      vertex 20.63842010498047 -19.427841186523438 4
    endloop
  endfacet
  facet normal 0 0 1
    outer loop
      vertex 19.523664474487305 -19.17795181274414 4
      vertex 20.63842010498047 -19.427841186523438 4
      vertex 19.783782958984375 -18.763978958129883 4
    endloop
  endfacet
  facet normal 0 0 1
    outer loop
      vertex 19.783782958984375 -18.763978958129883 4
      vertex 19.885456085205078 -18.581390380859375 4
      vertex 19.823007583618164 -18.651878356933594 4
    endloop
  endfacet
  facet normal 0 0 1
    outer loop
      vertex 20.63842010498047 -19.427841186523438 4
      vertex 19.523664474487305 -19.17795181274414 4
      vertex 20.367420196533203 -19.84263801574707 4
    endloop
  endfacet
  facet normal 0 0 1
    outer loop
      vertex 20.367420196533203 -19.84263801574707 4
      vertex 19.523664474487305 -19.17795181274414 4
      vertex 20.031845092773438 -20.207172393798828 4
    endloop
  endfacet
  facet normal 0 0 1
    outer loop
      vertex 19.17795181274414 -19.523664474487305 4
      vertex 20.031845092773438 -20.207172393798828 4
      vertex 19.523664474487305 -19.17795181274414 4
    endloop
  endfacet
  facet normal 0 0 1
    outer loop
      vertex 20.031845092773438 -20.207172393798828 4
      vertex 19.17795181274414 -19.523664474487305 4
      vertex 19.640844345092773 -20.511499404907227 4
    endloop
  endfacet
  facet normal 0 0 1
    outer loop
      vertex 18.899999618530273 -19.698314666748047 4
      vertex 19.640844345092773 -20.511499404907227 4
      vertex 19.17795181274414 -19.523664474487305 4
    endloop
  endfacet
  facet normal 0 0 1
    outer loop
      vertex 19.640844345092773 -20.511499404907227 4
      vertex 18.899999618530273 -19.698314666748047 4
      vertex 19.20508575439453 -20.747318267822266 4
    endloop
  endfacet
  facet normal 0 0 1
    outer loop
      vertex 19.20508575439453 -20.747318267822266 4
      vertex 18.899999618530273 -19.698314666748047 4
      vertex 18.899999618530273 -20.757713317871094 4
    endloop
  endfacet
  facet normal 0 0 1
    outer loop
      vertex 19.20508575439453 -20.747318267822266 4
      vertex 18.899999618530273 -20.757713317871094 4
      vertex 18.970230102539062 -20.827945709228516 4
    endloop
  endfacet
  facet normal 0 0 1
    outer loop
      vertex -17.89731788635254 -18.927616119384766 4
      vertex -18.247737884521484 -20.98975372314453 4
      vertex -15.835180282592773 -20.98975372314453 4
    endloop
  endfacet
  facet normal 0 0 1
    outer loop
      vertex -19.640844345092773 -20.511499404907227 4
      vertex -17.89731788635254 -18.927616119384766 4
      vertex -18.171581268310547 -18.52534294128418 4
    endloop
  endfacet
  facet normal 0 0 1
    outer loop
      vertex -20.63842010498047 -19.427841186523438 4
      vertex -18.171581268310547 -18.52534294128418 4
      vertex -18.31509017944336 -18.060100555419922 4
    endloop
  endfacet
  facet normal 0 0 1
    outer loop
      vertex -17.89731788635254 -18.927616119384766 4
      vertex -18.7364559173584 -20.908199310302734 4
      vertex -18.247737884521484 -20.98975372314453 4
    endloop
  endfacet
  facet normal 0 0 1
    outer loop
      vertex -18.171581268310547 -17.107990264892578 4
      vertex -21 -18 4
      vertex -18.31509017944336 -17.573230743408203 4
    endloop
  endfacet
  facet normal 0 0 1
    outer loop
      vertex -21 18 4
      vertex -18.7364559173584 20.908199310302734 4
      vertex -19.20508575439453 20.747318267822266 4
    endloop
  endfacet
  facet normal 0 0 1
    outer loop
      vertex -18.31509017944336 -17.573230743408203 4
      vertex -21 -18 4
      vertex -18.31509017944336 -18.060100555419922 4
    endloop
  endfacet
  facet normal 0 0 1
    outer loop
      vertex -21 18 4
      vertex -19.20508575439453 20.747318267822266 4
      vertex -19.640844345092773 20.511499404907227 4
    endloop
  endfacet
  facet normal 0 0 1
    outer loop
      vertex -20.959083557128906 -18.49378204345703 4
      vertex -18.31509017944336 -18.060100555419922 4
      vertex -21 -18 4
    endloop
  endfacet
  facet normal 0 0 1
    outer loop
      vertex -21 18 4
      vertex -19.640844345092773 20.511499404907227 4
      vertex -20.031845092773438 20.207172393798828 4
    endloop
  endfacet
  facet normal 0 0 1
    outer loop
      vertex -17.89731788635254 -18.927616119384766 4
      vertex -19.20508575439453 -20.747318267822266 4
      vertex -18.7364559173584 -20.908199310302734 4
    endloop
  endfacet
  facet normal 0 0 1
    outer loop
      vertex -21 18 4
      vertex -20.031845092773438 20.207172393798828 4
      vertex -20.367420196533203 19.84263801574707 4
    endloop
  endfacet
  facet normal 0 0 1
    outer loop
      vertex -17.89731788635254 -18.927616119384766 4
      vertex -19.640844345092773 -20.511499404907227 4
      vertex -19.20508575439453 -20.747318267822266 4
    endloop
  endfacet
  facet normal 0 0 1
    outer loop
      vertex -21 18 4
      vertex -20.367420196533203 19.84263801574707 4
      vertex -20.63842010498047 19.427841186523438 4
    endloop
  endfacet
  facet normal 0 0 1
    outer loop
      vertex -18.171581268310547 -18.52534294128418 4
      vertex -20.031845092773438 -20.207172393798828 4
      vertex -19.640844345092773 -20.511499404907227 4
    endloop
  endfacet
  facet normal 0 0 1
    outer loop
      vertex -21 18 4
      vertex -20.63842010498047 19.427841186523438 4
      vertex -20.837451934814453 18.974098205566406 4
    endloop
  endfacet
  facet normal 0 0 1
    outer loop
      vertex -18.171581268310547 -18.52534294128418 4
      vertex -20.367420196533203 -19.84263801574707 4
      vertex -20.031845092773438 -20.207172393798828 4
    endloop
  endfacet
  facet normal 0 0 1
    outer loop
      vertex -21 18 4
      vertex -20.837451934814453 18.974098205566406 4
      vertex -20.959083557128906 18.49378204345703 4
    endloop
  endfacet
  facet normal 0 0 1
    outer loop
      vertex -18.171581268310547 -18.52534294128418 4
      vertex -20.63842010498047 -19.427841186523438 4
      vertex -20.367420196533203 -19.84263801574707 4
    endloop
  endfacet
  facet normal 0 0 1
    outer loop
      vertex -18.31509017944336 -18.060100555419922 4
      vertex -20.837451934814453 -18.974098205566406 4
      vertex -20.63842010498047 -19.427841186523438 4
    endloop
  endfacet
  facet normal 0 0 1
    outer loop
      vertex -18.31509017944336 -18.060100555419922 4
      vertex -20.959083557128906 -18.49378204345703 4
      vertex -20.837451934814453 -18.974098205566406 4
    endloop
  endfacet
  facet normal 0 0 -1
    outer loop
      vertex -18.247737884521484 -20.98975372314453 0
      vertex -17.89731788635254 -18.927616119384766 0
      vertex -15.835180282592773 -20.98975372314453 0
    endloop
  endfacet
  facet normal 0 0 -1
    outer loop
      vertex -18.7364559173584 -20.908199310302734 0
      vertex -17.89731788635254 -18.927616119384766 0
      vertex -18.247737884521484 -20.98975372314453 0
    endloop
  endfacet
  facet normal 0 0 -1
    outer loop
      vertex -19.20508575439453 -20.747318267822266 0
      vertex -17.89731788635254 -18.927616119384766 0
      vertex -18.7364559173584 -20.908199310302734 0
    endloop
  endfacet
  facet normal 0 0 -1
    outer loop
      vertex -17.89731788635254 -18.927616119384766 0
      vertex -19.640844345092773 -20.511499404907227 0
      vertex -18.171581268310547 -18.52534294128418 0
    endloop
  endfacet
  facet normal 0 0 -1
    outer loop
      vertex -19.640844345092773 -20.511499404907227 0
      vertex -17.89731788635254 -18.927616119384766 0
      vertex -19.20508575439453 -20.747318267822266 0
    endloop
  endfacet
  facet normal 0 0 -1
    outer loop
      vertex 15.633333206176758 -20.757713317871094 0
      vertex 15.401294708251953 -20.98975372314453 0
      vertex 15.633333206176758 -17.816665649414062 0
    endloop
  endfacet
  facet normal 0 0 -1
    outer loop
      vertex 18.029056549072266 -15.65726375579834 0
      vertex 17.816665649414062 -15.633333206176758 0
      vertex 18.029056549072266 -13.827350616455078 0
    endloop
  endfacet
  facet normal 0 0 -1
    outer loop
      vertex 20 -18.11666488647461 0
      vertex 21 -18 0
      vertex 20.959083557128906 -18.49378204345703 0
    endloop
  endfacet
  facet normal 0 0 -1
    outer loop
      vertex 21 -18 0
      vertex 20 -14.066666603088379 0
      vertex 21 18 0
    endloop
  endfacet
  facet normal 0 0 -1
    outer loop
      vertex 19.885456085205078 -18.581390380859375 0
      vertex 20.959083557128906 -18.49378204345703 0
      vertex 20.837451934814453 -18.974098205566406 0
    endloop
  endfacet
  facet normal 0 0 -1
    outer loop
      vertex 19.885456085205078 -13.601943016052246 0
      vertex 21 18 0
      vertex 20 -14.066666603088379 0
    endloop
  endfacet
  facet normal 0 0 -1
    outer loop
      vertex 19.783782958984375 -18.763978958129883 0
      vertex 20.837451934814453 -18.974098205566406 0
      vertex 20.63842010498047 -19.427841186523438 0
    endloop
  endfacet
  facet normal 0 0 -1
    outer loop
      vertex 19.568065643310547 -13.243681907653809 0
      vertex 21 18 0
      vertex 19.885456085205078 -13.601943016052246 0
    endloop
  endfacet
  facet normal 0 0 -1
    outer loop
      vertex 19.523664474487305 -19.17795181274414 0
      vertex 20.63842010498047 -19.427841186523438 0
      vertex 20.367420196533203 -19.84263801574707 0
    endloop
  endfacet
  facet normal 0 0 -1
    outer loop
      vertex 19.12053680419922 -13.073957443237305 0
      vertex 21 18 0
      vertex 19.568065643310547 -13.243681907653809 0
    endloop
  endfacet
  facet normal 0 0 -1
    outer loop
      vertex 19.523664474487305 -19.17795181274414 0
      vertex 20.367420196533203 -19.84263801574707 0
      vertex 20.031845092773438 -20.207172393798828 0
    endloop
  endfacet
  facet normal 0 0 -1
    outer loop
      vertex 18.64539337158203 -13.1316499710083 0
      vertex 21 18 0
      vertex 19.12053680419922 -13.073957443237305 0
    endloop
  endfacet
  facet normal 0 0 -1
    outer loop
      vertex 21 -18 0
      vertex 20 -18.11666488647461 0
      vertex 20 -14.066666603088379 0
    endloop
  endfacet
  facet normal 0 0 -1
    outer loop
      vertex 20.959083557128906 -18.49378204345703 0
      vertex 19.885456085205078 -18.581390380859375 0
      vertex 20 -18.11666488647461 0
    endloop
  endfacet
  facet normal 0 0 -1
    outer loop
      vertex 20.837451934814453 -18.974098205566406 0
      vertex 19.783782958984375 -18.763978958129883 0
      vertex 19.885456085205078 -18.581390380859375 0
    endloop
  endfacet
  facet normal 0 0 -1
    outer loop
      vertex 19.885456085205078 -18.581390380859375 0
      vertex 19.783782958984375 -18.763978958129883 0
      vertex 19.823007583618164 -18.651878356933594 0
    endloop
  endfacet
  facet normal 0 0 -1
    outer loop
      vertex 19.17795181274414 -19.523664474487305 0
      vertex 20.031845092773438 -20.207172393798828 0
      vertex 19.640844345092773 -20.511499404907227 0
    endloop
  endfacet
  facet normal 0 0 -1
    outer loop
      vertex 20.63842010498047 -19.427841186523438 0
      vertex 19.523664474487305 -19.17795181274414 0
      vertex 19.783782958984375 -18.763978958129883 0
    endloop
  endfacet
  facet normal 0 0 -1
    outer loop
      vertex 18.899999618530273 -19.698314666748047 0
      vertex 19.640844345092773 -20.511499404907227 0
      vertex 19.20508575439453 -20.747318267822266 0
    endloop
  endfacet
  facet normal 0 0 -1
    outer loop
      vertex 20.031845092773438 -20.207172393798828 0
      vertex 19.17795181274414 -19.523664474487305 0
      vertex 19.523664474487305 -19.17795181274414 0
    endloop
  endfacet
  facet normal 0 0 -1
    outer loop
      vertex 18.899999618530273 -20.757713317871094 0
      vertex 19.20508575439453 -20.747318267822266 0
      vertex 18.970230102539062 -20.827945709228516 0
    endloop
  endfacet
  facet normal 0 0 -1
    outer loop
      vertex 18.899999618530273 -19.698314666748047 0
      vertex 19.20508575439453 -20.747318267822266 0
      vertex 18.899999618530273 -20.757713317871094 0
    endloop
  endfacet
  facet normal 0 0 -1
    outer loop
      vertex 19.640844345092773 -20.511499404907227 0
      vertex 18.899999618530273 -19.698314666748047 0
      vertex 19.17795181274414 -19.523664474487305 0
    endloop
  endfacet
  facet normal 0 0 -1
    outer loop
      vertex 18.251487731933594 -13.403543472290039 0
      vertex 21 18 0
      vertex 18.64539337158203 -13.1316499710083 0
    endloop
  endfacet
  facet normal 0 0 -1
    outer loop
      vertex 18.247737884521484 20.98975372314453 0
      vertex 21 18 0
      vertex 18.251487731933594 -13.403543472290039 0
    endloop
  endfacet
  facet normal 0 0 -1
    outer loop
      vertex 20.959083557128906 18.49378204345703 0
      vertex 18.247737884521484 20.98975372314453 0
      vertex 20.837451934814453 18.974098205566406 0
    endloop
  endfacet
  facet normal 0 0 -1
    outer loop
      vertex 20.837451934814453 18.974098205566406 0
      vertex 18.247737884521484 20.98975372314453 0
      vertex 20.63842010498047 19.427841186523438 0
    endloop
  endfacet
  facet normal 0 0 -1
    outer loop
      vertex 20.63842010498047 19.427841186523438 0
      vertex 18.247737884521484 20.98975372314453 0
      vertex 20.367420196533203 19.84263801574707 0
    endloop
  endfacet
  facet normal 0 0 -1
    outer loop
      vertex 20.367420196533203 19.84263801574707 0
      vertex 18.247737884521484 20.98975372314453 0
      vertex 20.031845092773438 20.207172393798828 0
    endloop
  endfacet
  facet normal 0 0 -1
    outer loop
      vertex 20.031845092773438 20.207172393798828 0
      vertex 18.247737884521484 20.98975372314453 0
      vertex 19.640844345092773 20.511499404907227 0
    endloop
  endfacet
  facet normal 0 0 -1
    outer loop
      vertex 19.640844345092773 20.511499404907227 0
      vertex 18.247737884521484 20.98975372314453 0
      vertex 19.20508575439453 20.747318267822266 0
    endloop
  endfacet
  facet normal 0 0 -1
    outer loop
      vertex 21 18 0
      vertex 18.247737884521484 20.98975372314453 0
      vertex 20.959083557128906 18.49378204345703 0
    endloop
  endfacet
  facet normal 0 0 -1
    outer loop
      vertex 19.20508575439453 20.747318267822266 0
      vertex 18.247737884521484 20.98975372314453 0
      vertex 18.7364559173584 20.908199310302734 0
    endloop
  endfacet
  facet normal 0 0 -1
    outer loop
      vertex 16.109668731689453 -16.455379486083984 0
      vertex 18.251487731933594 -13.403543472290039 0
      vertex 18.029056549072266 -13.827350616455078 0
    endloop
  endfacet
  facet normal 0 0 -1
    outer loop
      vertex 17.330829620361328 -15.68807315826416 0
      vertex 18.029056549072266 -13.827350616455078 0
      vertex 17.816665649414062 -15.633333206176758 0
    endloop
  endfacet
  facet normal 0 0 -1
    outer loop
      vertex 16.869354248046875 -15.8495512008667 0
      vertex 18.029056549072266 -13.827350616455078 0
      vertex 17.330829620361328 -15.68807315826416 0
    endloop
  endfacet
  facet normal 0 0 -1
    outer loop
      vertex 16.455379486083984 -16.109668731689453 0
      vertex 18.029056549072266 -13.827350616455078 0
      vertex 16.869354248046875 -15.8495512008667 0
    endloop
  endfacet
  facet normal 0 0 -1
    outer loop
      vertex 16.109668731689453 -16.455379486083984 0
      vertex 18.029056549072266 -13.827350616455078 0
      vertex 16.455379486083984 -16.109668731689453 0
    endloop
  endfacet
  facet normal 0 0 -1
    outer loop
      vertex 18.251487731933594 -13.403543472290039 0
      vertex 16.109668731689453 -16.455379486083984 0
      vertex -15.681632995605469 -16.539674758911133 0
    endloop
  endfacet
  facet normal 0 0 -1
    outer loop
      vertex -11.231554985046387 -20.98975372314453 0
      vertex 16.109668731689453 -16.455379486083984 0
      vertex 15.8495512008667 -16.869354248046875 0
    endloop
  endfacet
  facet normal 0 0 -1
    outer loop
      vertex -11.231554985046387 -20.98975372314453 0
      vertex 15.8495512008667 -16.869354248046875 0
      vertex 15.68807315826416 -17.330829620361328 0
    endloop
  endfacet
  facet normal 0 0 -1
    outer loop
      vertex -11.231554985046387 -20.98975372314453 0
      vertex 15.68807315826416 -17.330829620361328 0
      vertex 15.633333206176758 -17.816665649414062 0
    endloop
  endfacet
  facet normal 0 0 -1
    outer loop
      vertex -11.231554985046387 -20.98975372314453 0
      vertex 15.633333206176758 -17.816665649414062 0
      vertex 15.401294708251953 -20.98975372314453 0
    endloop
  endfacet
  facet normal 0 0 -1
    outer loop
      vertex 16.109668731689453 -16.455379486083984 0
      vertex -11.231554985046387 -20.98975372314453 0
      vertex -15.681632995605469 -16.539674758911133 0
    endloop
  endfacet
  facet normal 0 0 -1
    outer loop
      vertex 18.251487731933594 -13.403543472290039 0
      vertex -15.681632995605469 -16.539674758911133 0
      vertex -18.247737884521484 20.98975372314453 0
    endloop
  endfacet
  facet normal 0 0 -1
    outer loop
      vertex -21 18 0
      vertex -15.681632995605469 -16.539674758911133 0
      vertex -16.103275299072266 -16.29623794555664 0
    endloop
  endfacet
  facet normal 0 0 -1
    outer loop
      vertex -21 18 0
      vertex -16.103275299072266 -16.29623794555664 0
      vertex -16.577939987182617 -16.18790054321289 0
    endloop
  endfacet
  facet normal 0 0 -1
    outer loop
      vertex -21 18 0
      vertex -16.577939987182617 -16.18790054321289 0
      vertex -17.06344985961914 -16.224285125732422 0
    endloop
  endfacet
  facet normal 0 0 -1
    outer loop
      vertex -21 18 0
      vertex -17.06344985961914 -16.224285125732422 0
      vertex -17.516666412353516 -16.402156829833984 0
    endloop
  endfacet
  facet normal 0 0 -1
    outer loop
      vertex -21 -18 0
      vertex -17.516666412353516 -16.402156829833984 0
      vertex -17.89731788635254 -16.705717086791992 0
    endloop
  endfacet
  facet normal 0 0 -1
    outer loop
      vertex 18.251487731933594 -13.403543472290039 0
      vertex -18.247737884521484 20.98975372314453 0
      vertex 18.247737884521484 20.98975372314453 0
    endloop
  endfacet
  facet normal 0 0 -1
    outer loop
      vertex -21 -18 0
      vertex -17.89731788635254 -16.705717086791992 0
      vertex -18.171581268310547 -17.107990264892578 0
    endloop
  endfacet
  facet normal 0 0 -1
    outer loop
      vertex -21 -18 0
      vertex -18.171581268310547 -17.107990264892578 0
      vertex -18.31509017944336 -17.573230743408203 0
    endloop
  endfacet
  facet normal 0 0 -1
    outer loop
      vertex -20.031845092773438 -20.207172393798828 0
      vertex -18.171581268310547 -18.52534294128418 0
      vertex -19.640844345092773 -20.511499404907227 0
    endloop
  endfacet
  facet normal 0 0 -1
    outer loop
      vertex -17.516666412353516 -16.402156829833984 0
      vertex -21 -18 0
      vertex -21 18 0
    endloop
  endfacet
  facet normal 0 0 -1
    outer loop
      vertex -20.367420196533203 -19.84263801574707 0
      vertex -18.171581268310547 -18.52534294128418 0
      vertex -20.031845092773438 -20.207172393798828 0
    endloop
  endfacet
  facet normal 0 0 -1
    outer loop
      vertex -15.681632995605469 -16.539674758911133 0
      vertex -21 18 0
      vertex -18.247737884521484 20.98975372314453 0
    endloop
  endfacet
  facet normal 0 0 -1
    outer loop
      vertex -20.63842010498047 -19.427841186523438 0
      vertex -18.171581268310547 -18.52534294128418 0
      vertex -20.367420196533203 -19.84263801574707 0
    endloop
  endfacet
  facet normal 0 0 -1
    outer loop
      vertex -18.247737884521484 20.98975372314453 0
      vertex -21 18 0
      vertex -18.7364559173584 20.908199310302734 0
    endloop
  endfacet
  facet normal 0 0 -1
    outer loop
      vertex -18.171581268310547 -18.52534294128418 0
      vertex -20.63842010498047 -19.427841186523438 0
      vertex -18.31509017944336 -18.060100555419922 0
    endloop
  endfacet
  facet normal 0 0 -1
    outer loop
      vertex -18.7364559173584 20.908199310302734 0
      vertex -21 18 0
      vertex -19.20508575439453 20.747318267822266 0
    endloop
  endfacet
  facet normal 0 0 -1
    outer loop
      vertex -20.837451934814453 -18.974098205566406 0
      vertex -18.31509017944336 -18.060100555419922 0
      vertex -20.63842010498047 -19.427841186523438 0
    endloop
  endfacet
  facet normal 0 0 -1
    outer loop
      vertex -19.20508575439453 20.747318267822266 0
      vertex -21 18 0
      vertex -19.640844345092773 20.511499404907227 0
    endloop
  endfacet
  facet normal 0 0 -1
    outer loop
      vertex -20.959083557128906 -18.49378204345703 0
      vertex -18.31509017944336 -18.060100555419922 0
      vertex -20.837451934814453 -18.974098205566406 0
    endloop
  endfacet
  facet normal 0 0 -1
    outer loop
      vertex -19.640844345092773 20.511499404907227 0
      vertex -21 18 0
      vertex -20.031845092773438 20.207172393798828 0
    endloop
  endfacet
  facet normal 0 0 -1
    outer loop
      vertex -21 -18 0
      vertex -18.31509017944336 -18.060100555419922 0
      vertex -20.959083557128906 -18.49378204345703 0
    endloop
  endfacet
  facet normal 0 0 -1
    outer loop
      vertex -20.031845092773438 20.207172393798828 0
      vertex -21 18 0
      vertex -20.367420196533203 19.84263801574707 0
    endloop
  endfacet
  facet normal 0 0 -1
    outer loop
      vertex -18.31509017944336 -18.060100555419922 0
      vertex -21 -18 0
      vertex -18.31509017944336 -17.573230743408203 0
    endloop
  endfacet
  facet normal 0 0 -1
    outer loop
      vertex -20.367420196533203 19.84263801574707 0
      vertex -21 18 0
      vertex -20.63842010498047 19.427841186523438 0
    endloop
  endfacet
  facet normal 0 0 -1
    outer loop
      vertex -20.63842010498047 19.427841186523438 0
      vertex -21 18 0
      vertex -20.837451934814453 18.974098205566406 0
    endloop
  endfacet
  facet normal 0 0 -1
    outer loop
      vertex -20.837451934814453 18.974098205566406 0
      vertex -21 18 0
      vertex -20.959083557128906 18.49378204345703 0
    endloop
  endfacet
endsolid OpenSCAD_Model
