solid OpenSCAD_Model
  facet normal 0.9961944618985134 0.08715844240652348 0
    outer loop
      vertex 28.700000762939453 4.100000381469727 120
      vertex 28.657461166381836 4.586215019226074 0
      vertex 28.657461166381836 4.586215019226074 120
    endloop
  endfacet
  facet normal 0.9961944618985134 0.08715844240652348 0
    outer loop
      vertex 28.657461166381836 4.586215019226074 0
      vertex 28.700000762939453 4.100000381469727 120
      vertex 28.700000762939453 4.100000381469727 0
    endloop
  endfacet
  facet normal 0.7071077581698124 -0.7071058042019328 0
    outer loop
      vertex 27.699806213378906 1.9550762176513672 120
      vertex 28.044923782348633 2.30019474029541 0
      vertex 28.044923782348633 2.30019474029541 120
    endloop
  endfacet
  facet normal 0.7071077581698124 -0.7071058042019328 0
    outer loop
      vertex 28.044923782348633 2.30019474029541 0
      vertex 27.699806213378906 1.9550762176513672 120
      vertex 27.699806213378906 1.9550762176513672 0
    endloop
  endfacet
  facet normal -0.9961944618985134 0.08715844240652348 0
    outer loop
      vertex 23.099998474121094 4.100000381469727 0
      vertex 23.14253807067871 4.586215019226074 120
      vertex 23.14253807067871 4.586215019226074 0
    endloop
  endfacet
  facet normal -0.9961944618985134 0.08715844240652348 0
    outer loop
      vertex 23.14253807067871 4.586215019226074 120
      vertex 23.099998474121094 4.100000381469727 0
      vertex 23.099998474121094 4.100000381469727 120
    endloop
  endfacet
  facet normal 0.8191519576434395 0.573576560093699 0
    outer loop
      vertex 28.324871063232422 5.5 120
      vertex 28.044923782348633 5.899806022644043 0
      vertex 28.044923782348633 5.899806022644043 120
    endloop
  endfacet
  facet normal 0.8191519576434395 0.573576560093699 0
    outer loop
      vertex 28.044923782348633 5.899806022644043 0
      vertex 28.324871063232422 5.5 120
      vertex 28.324871063232422 5.5 0
    endloop
  endfacet
  facet normal 0.9063077476625366 -0.42261834617874766 0
    outer loop
      vertex 28.324871063232422 2.700000762939453 120
      vertex 28.531139373779297 3.1423444747924805 0
      vertex 28.531139373779297 3.1423444747924805 120
    endloop
  endfacet
  facet normal 0.9063077476625366 -0.42261834617874766 0
    outer loop
      vertex 28.531139373779297 3.1423444747924805 0
      vertex 28.324871063232422 2.700000762939453 120
      vertex 28.324871063232422 2.700000762939453 0
    endloop
  endfacet
  facet normal -0.9659262208089754 0.2588175727296943 0
    outer loop
      vertex 23.14253807067871 4.586215019226074 0
      vertex 23.26885986328125 5.057657241821289 120
      vertex 23.26885986328125 5.057657241821289 0
    endloop
  endfacet
  facet normal -0.9659262208089754 0.2588175727296943 0
    outer loop
      vertex 23.26885986328125 5.057657241821289 120
      vertex 23.14253807067871 4.586215019226074 0
      vertex 23.14253807067871 4.586215019226074 120
    endloop
  endfacet
  facet normal -0.9063073986719061 0.4226190945905811 0
    outer loop
      vertex 23.26885986328125 5.057657241821289 0
      vertex 23.475128173828125 5.5 120
      vertex 23.475128173828125 5.5 0
    endloop
  endfacet
  facet normal -0.9063073986719061 0.4226190945905811 0
    outer loop
      vertex 23.475128173828125 5.5 120
      vertex 23.26885986328125 5.057657241821289 0
      vertex 23.26885986328125 5.057657241821289 120
    endloop
  endfacet
  facet normal 0 0 1
    outer loop
      vertex 28.657461166381836 4.586215019226074 120
      vertex 28.657461166381836 3.613785743713379 120
      vertex 28.700000762939453 4.100000381469727 120
    endloop
  endfacet
  facet normal 0 0 1
    outer loop
      vertex 28.531139373779297 5.057657241821289 120
      vertex 28.657461166381836 3.613785743713379 120
      vertex 28.657461166381836 4.586215019226074 120
    endloop
  endfacet
  facet normal 0 0 1
    outer loop
      vertex 28.531139373779297 5.057657241821289 120
      vertex 28.531139373779297 3.1423444747924805 120
      vertex 28.657461166381836 3.613785743713379 120
    endloop
  endfacet
  facet normal 0 0 1
    outer loop
      vertex 28.324871063232422 5.5 120
      vertex 28.531139373779297 3.1423444747924805 120
      vertex 28.531139373779297 5.057657241821289 120
    endloop
  endfacet
  facet normal 0 0 1
    outer loop
      vertex 28.324871063232422 5.5 120
      vertex 28.324871063232422 2.700000762939453 120
      vertex 28.531139373779297 3.1423444747924805 120
    endloop
  endfacet
  facet normal 0 0 1
    outer loop
      vertex 28.044923782348633 5.899806022644043 120
      vertex 28.324871063232422 2.700000762939453 120
      vertex 28.324871063232422 5.5 120
    endloop
  endfacet
  facet normal 0 0 1
    outer loop
      vertex 28.044923782348633 5.899806022644043 120
      vertex 28.044923782348633 2.30019474029541 120
      vertex 28.324871063232422 2.700000762939453 120
    endloop
  endfacet
  facet normal 0 0 1
    outer loop
      vertex 27.699806213378906 6.244924545288086 120
      vertex 28.044923782348633 2.30019474029541 120
      vertex 28.044923782348633 5.899806022644043 120
    endloop
  endfacet
  facet normal 0 0 1
    outer loop
      vertex 27.099998474121094 1.5818679332733154 120
      vertex 28.044923782348633 2.30019474029541 120
      vertex 27.699806213378906 6.244924545288086 120
    endloop
  endfacet
  facet normal 0 0 1
    outer loop
      vertex 27.099998474121094 1.5818679332733154 120
      vertex 27.699806213378906 6.244924545288086 120
      vertex 27.299999237060547 6.524871826171875 120
    endloop
  endfacet
  facet normal 0 0 1
    outer loop
      vertex 28.044923782348633 2.30019474029541 120
      vertex 27.099998474121094 1.5818679332733154 120
      vertex 27.699806213378906 1.9550762176513672 120
    endloop
  endfacet
  facet normal 0 0 1
    outer loop
      vertex 27.699806213378906 1.9550762176513672 120
      vertex 27.099998474121094 1.5818679332733154 120
      vertex 27.299999237060547 1.6751289367675781 120
    endloop
  endfacet
  facet normal 0 0 1
    outer loop
      vertex 23.099998474121094 4.100000381469727 120
      vertex 27.099998474121094 1.5818679332733154 120
      vertex 26.857654571533203 6.73114013671875 120
    endloop
  endfacet
  facet normal 0 0 1
    outer loop
      vertex 26.857654571533203 6.73114013671875 120
      vertex 27.099998474121094 1.5818679332733154 120
      vertex 27.299999237060547 6.524871826171875 120
    endloop
  endfacet
  facet normal 0 0 1
    outer loop
      vertex 30.885456085205078 -2.8352766036987305 120
      vertex 30.885456085205078 -3.7647228240966797 120
      vertex 31 -3.299999237060547 120
    endloop
  endfacet
  facet normal 0 0 1
    outer loop
      vertex 30.568065643310547 -2.477015495300293 120
      vertex 30.885456085205078 -3.7647228240966797 120
      vertex 30.885456085205078 -2.8352766036987305 120
    endloop
  endfacet
  facet normal 0 0 1
    outer loop
      vertex 30.568065643310547 -2.477015495300293 120
      vertex 30.568065643310547 -4.122982978820801 120
      vertex 30.885456085205078 -3.7647228240966797 120
    endloop
  endfacet
  facet normal 0 0 1
    outer loop
      vertex 30.568065643310547 -2.477015495300293 120
      vertex 30.12053680419922 -4.292708396911621 120
      vertex 30.568065643310547 -4.122982978820801 120
    endloop
  endfacet
  facet normal 0 0 1
    outer loop
      vertex 27.099998474121094 -0.985207736492157 120
      vertex 30.12053680419922 -4.292708396911621 120
      vertex 30.568065643310547 -2.477015495300293 120
    endloop
  endfacet
  facet normal 0 0 1
    outer loop
      vertex 23.099998474121094 4.100000381469727 120
      vertex 26.857654571533203 6.73114013671875 120
      vertex 26.386215209960938 6.857461929321289 120
    endloop
  endfacet
  facet normal 0 0 1
    outer loop
      vertex 23.099998474121094 4.100000381469727 120
      vertex 26.386215209960938 6.857461929321289 120
      vertex 25.899999618530273 6.90000057220459 120
    endloop
  endfacet
  facet normal 0 0 1
    outer loop
      vertex 23.099998474121094 4.100000381469727 120
      vertex 25.899999618530273 6.90000057220459 120
      vertex 25.41378402709961 6.857461929321289 120
    endloop
  endfacet
  facet normal 0 0 1
    outer loop
      vertex 23.099998474121094 4.100000381469727 120
      vertex 25.41378402709961 6.857461929321289 120
      vertex 24.94234275817871 6.73114013671875 120
    endloop
  endfacet
  facet normal 0 0 1
    outer loop
      vertex 23.099998474121094 4.100000381469727 120
      vertex 24.94234275817871 6.73114013671875 120
      vertex 24.5 6.524871826171875 120
    endloop
  endfacet
  facet normal 0 0 1
    outer loop
      vertex 23.099998474121094 4.100000381469727 120
      vertex 24.5 6.524871826171875 120
      vertex 24.10019302368164 6.244924545288086 120
    endloop
  endfacet
  facet normal 0 0 1
    outer loop
      vertex 23.099998474121094 4.100000381469727 120
      vertex 24.10019302368164 6.244924545288086 120
      vertex 23.755075454711914 5.899806022644043 120
    endloop
  endfacet
  facet normal 0 0 1
    outer loop
      vertex 23.099998474121094 4.100000381469727 120
      vertex 23.755075454711914 5.899806022644043 120
      vertex 23.475128173828125 5.5 120
    endloop
  endfacet
  facet normal 0 0 1
    outer loop
      vertex 23.099998474121094 4.100000381469727 120
      vertex 23.475128173828125 5.5 120
      vertex 23.26885986328125 5.057657241821289 120
    endloop
  endfacet
  facet normal 0 0 1
    outer loop
      vertex 23.099998474121094 4.100000381469727 120
      vertex 23.26885986328125 5.057657241821289 120
      vertex 23.14253807067871 4.586215019226074 120
    endloop
  endfacet
  facet normal 0 0 1
    outer loop
      vertex 23.099998474121094 -0.31458187103271484 120
      vertex 27.099998474121094 1.5818679332733154 120
      vertex 23.099998474121094 4.100000381469727 120
    endloop
  endfacet
  facet normal 0 0 1
    outer loop
      vertex 27.099998474121094 1.5818679332733154 120
      vertex 23.099998474121094 -0.31458187103271484 120
      vertex 27.099998474121094 -0.985207736492157 120
    endloop
  endfacet
  facet normal 0 0 1
    outer loop
      vertex 23.099998474121094 -0.31458187103271484 120
      vertex 30.12053680419922 -4.292708396911621 120
      vertex 27.099998474121094 -0.985207736492157 120
    endloop
  endfacet
  facet normal 0 0 1
    outer loop
      vertex -17.46215057373047 -0.31458187103271484 120
      vertex 30.12053680419922 -4.292708396911621 120
      vertex 23.099998474121094 -0.31458187103271484 120
    endloop
  endfacet
  facet normal 0 0 1
    outer loop
      vertex -30.12053680419922 -4.292708396911621 120
      vertex -17.46215057373047 -0.31458187103271484 120
      vertex -22.438053131103516 -0.9852129817008972 120
    endloop
  endfacet
  facet normal 0 0 1
    outer loop
      vertex -30.12053680419922 -4.292708396911621 120
      vertex -22.438053131103516 -0.9852129817008972 120
      vertex -30.12053680419922 -2.307291030883789 120
    endloop
  endfacet
  facet normal 0 0 1
    outer loop
      vertex -17.46215057373047 -0.31458187103271484 120
      vertex -30.12053680419922 -4.292708396911621 120
      vertex 30.12053680419922 -4.292708396911621 120
    endloop
  endfacet
  facet normal 0 0 1
    outer loop
      vertex -30.568065643310547 -2.477015495300293 120
      vertex -30.12053680419922 -4.292708396911621 120
      vertex -30.12053680419922 -2.307291030883789 120
    endloop
  endfacet
  facet normal 0 0 1
    outer loop
      vertex -30.568065643310547 -2.477015495300293 120
      vertex -30.568065643310547 -4.122982978820801 120
      vertex -30.12053680419922 -4.292708396911621 120
    endloop
  endfacet
  facet normal 0 0 1
    outer loop
      vertex -30.885456085205078 -2.8352766036987305 120
      vertex -30.568065643310547 -4.122982978820801 120
      vertex -30.568065643310547 -2.477015495300293 120
    endloop
  endfacet
  facet normal 0 0 1
    outer loop
      vertex -30.885456085205078 -2.8352766036987305 120
      vertex -30.885456085205078 -3.7647228240966797 120
      vertex -30.568065643310547 -4.122982978820801 120
    endloop
  endfacet
  facet normal 0 0 1
    outer loop
      vertex -30.885456085205078 -3.7647228240966797 120
      vertex -30.885456085205078 -2.8352766036987305 120
      vertex -31 -3.299999237060547 120
    endloop
  endfacet
  facet normal 0 0 1
    outer loop
      vertex -23.202978134155273 5.42624568939209 120
      vertex -22.438053131103516 -0.9852129817008972 120
      vertex -17.46215057373047 -0.31458187103271484 120
    endloop
  endfacet
  facet normal 0 0 1
    outer loop
      vertex -26.197021484375 2.7737550735473633 120
      vertex -23.202978134155273 5.42624568939209 120
      vertex -23.56386947631836 5.745967864990234 120
    endloop
  endfacet
  facet normal 0 0 1
    outer loop
      vertex -26.197021484375 2.7737550735473633 120
      vertex -23.56386947631836 5.745967864990234 120
      vertex -23.99078941345215 5.970032691955566 120
    endloop
  endfacet
  facet normal 0 0 1
    outer loop
      vertex -26.197021484375 2.7737550735473633 120
      vertex -23.99078941345215 5.970032691955566 120
      vertex -24.458927154541016 6.085418701171875 120
    endloop
  endfacet
  facet normal 0 0 1
    outer loop
      vertex -26.197021484375 2.7737550735473633 120
      vertex -24.458927154541016 6.085418701171875 120
      vertex -24.941072463989258 6.085418701171875 120
    endloop
  endfacet
  facet normal 0 0 1
    outer loop
      vertex -26.197021484375 2.7737550735473633 120
      vertex -24.941072463989258 6.085418701171875 120
      vertex -25.409210205078125 5.970032691955566 120
    endloop
  endfacet
  facet normal 0 0 1
    outer loop
      vertex -26.197021484375 2.7737550735473633 120
      vertex -25.409210205078125 5.970032691955566 120
      vertex -25.83612823486328 5.745967864990234 120
    endloop
  endfacet
  facet normal 0 0 1
    outer loop
      vertex -26.197021484375 2.7737550735473633 120
      vertex -25.83612823486328 5.745967864990234 120
      vertex -26.197021484375 5.42624568939209 120
    endloop
  endfacet
  facet normal 0 0 1
    outer loop
      vertex -23.202978134155273 5.42624568939209 120
      vertex -26.197021484375 2.7737550735473633 120
      vertex -22.438053131103516 -0.9852129817008972 120
    endloop
  endfacet
  facet normal 0 0 1
    outer loop
      vertex -26.47091293334961 5.029446601867676 120
      vertex -26.197021484375 2.7737550735473633 120
      vertex -26.197021484375 5.42624568939209 120
    endloop
  endfacet
  facet normal 0 0 1
    outer loop
      vertex -26.47091293334961 5.029446601867676 120
      vertex -26.47091293334961 3.1705541610717773 120
      vertex -26.197021484375 2.7737550735473633 120
    endloop
  endfacet
  facet normal 0 0 1
    outer loop
      vertex -26.641883850097656 4.578631401062012 120
      vertex -26.47091293334961 3.1705541610717773 120
      vertex -26.47091293334961 5.029446601867676 120
    endloop
  endfacet
  facet normal 0 0 1
    outer loop
      vertex -26.641883850097656 4.578631401062012 120
      vertex -26.641883850097656 3.6213693618774414 120
      vertex -26.47091293334961 3.1705541610717773 120
    endloop
  endfacet
  facet normal 0 0 1
    outer loop
      vertex -26.641883850097656 3.6213693618774414 120
      vertex -26.641883850097656 4.578631401062012 120
      vertex -26.700000762939453 4.100000381469727 120
    endloop
  endfacet
  facet normal 0.7071077581698124 0.7071058042019328 0
    outer loop
      vertex 28.044923782348633 5.899806022644043 120
      vertex 27.699806213378906 6.244924545288086 0
      vertex 27.699806213378906 6.244924545288086 120
    endloop
  endfacet
  facet normal 0.7071077581698124 0.7071058042019328 0
    outer loop
      vertex 27.699806213378906 6.244924545288086 0
      vertex 28.044923782348633 5.899806022644043 120
      vertex 28.044923782348633 5.899806022644043 0
    endloop
  endfacet
  facet normal 0.9659262208089754 0.2588175727296943 0
    outer loop
      vertex 28.657461166381836 4.586215019226074 120
      vertex 28.531139373779297 5.057657241821289 0
      vertex 28.531139373779297 5.057657241821289 120
    endloop
  endfacet
  facet normal 0.9659262208089754 0.2588175727296943 0
    outer loop
      vertex 28.531139373779297 5.057657241821289 0
      vertex 28.657461166381836 4.586215019226074 120
      vertex 28.657461166381836 4.586215019226074 0
    endloop
  endfacet
  facet normal 0.5735756420347421 0.8191526004746815 0
    outer loop
      vertex 27.699806213378906 6.244924545288086 0
      vertex 27.299999237060547 6.524871826171875 120
      vertex 27.699806213378906 6.244924545288086 120
    endloop
  endfacet
  facet normal 0.5735756420347421 0.8191526004746815 0
    outer loop
      vertex 27.299999237060547 6.524871826171875 120
      vertex 27.699806213378906 6.244924545288086 0
      vertex 27.299999237060547 6.524871826171875 0
    endloop
  endfacet
  facet normal 0.4226149717071145 -0.9063093211972362 0
    outer loop
      vertex 27.099998474121094 1.5818679332733154 0
      vertex 27.299999237060547 1.6751289367675781 120
      vertex 27.099998474121094 1.5818679332733154 120
    endloop
  endfacet
  facet normal 0.4226149717071145 -0.9063093211972362 0
    outer loop
      vertex 27.299999237060547 1.6751289367675781 120
      vertex 27.099998474121094 1.5818679332733154 0
      vertex 27.299999237060547 1.6751289367675781 0
    endloop
  endfacet
  facet normal 0.5735756420347421 -0.8191526004746815 0
    outer loop
      vertex 27.299999237060547 1.6751289367675781 0
      vertex 27.699806213378906 1.9550762176513672 120
      vertex 27.299999237060547 1.6751289367675781 120
    endloop
  endfacet
  facet normal 0.5735756420347421 -0.8191526004746815 0
    outer loop
      vertex 27.699806213378906 1.9550762176513672 120
      vertex 27.299999237060547 1.6751289367675781 0
      vertex 27.699806213378906 1.9550762176513672 0
    endloop
  endfacet
  facet normal -0.5735756420347421 0.8191526004746815 0
    outer loop
      vertex 24.5 6.524871826171875 0
      vertex 24.10019302368164 6.244924545288086 120
      vertex 24.5 6.524871826171875 120
    endloop
  endfacet
  facet normal -0.5735756420347421 0.8191526004746815 0
    outer loop
      vertex 24.10019302368164 6.244924545288086 120
      vertex 24.5 6.524871826171875 0
      vertex 24.10019302368164 6.244924545288086 0
    endloop
  endfacet
  facet normal 0.2588190381996108 0.9659258281386974 0
    outer loop
      vertex 26.857654571533203 6.73114013671875 0
      vertex 26.386215209960938 6.857461929321289 120
      vertex 26.857654571533203 6.73114013671875 120
    endloop
  endfacet
  facet normal 0.2588190381996108 0.9659258281386974 0
    outer loop
      vertex 26.386215209960938 6.857461929321289 120
      vertex 26.857654571533203 6.73114013671875 0
      vertex 26.386215209960938 6.857461929321289 0
    endloop
  endfacet
  facet normal 0.4226175977692768 0.9063080966513131 0
    outer loop
      vertex 27.299999237060547 6.524871826171875 0
      vertex 26.857654571533203 6.73114013671875 120
      vertex 27.299999237060547 6.524871826171875 120
    endloop
  endfacet
  facet normal 0.4226175977692768 0.9063080966513131 0
    outer loop
      vertex 26.857654571533203 6.73114013671875 120
      vertex 27.299999237060547 6.524871826171875 0
      vertex 26.857654571533203 6.73114013671875 0
    endloop
  endfacet
  facet normal 0.8191519576434395 -0.573576560093699 0
    outer loop
      vertex 28.044923782348633 2.30019474029541 120
      vertex 28.324871063232422 2.700000762939453 0
      vertex 28.324871063232422 2.700000762939453 120
    endloop
  endfacet
  facet normal 0.8191519576434395 -0.573576560093699 0
    outer loop
      vertex 28.324871063232422 2.700000762939453 0
      vertex 28.044923782348633 2.30019474029541 120
      vertex 28.044923782348633 2.30019474029541 0
    endloop
  endfacet
  facet normal 0.9063073986719061 0.4226190945905811 0
    outer loop
      vertex 28.531139373779297 5.057657241821289 120
      vertex 28.324871063232422 5.5 0
      vertex 28.324871063232422 5.5 120
    endloop
  endfacet
  facet normal 0.9063073986719061 0.4226190945905811 0
    outer loop
      vertex 28.324871063232422 5.5 0
      vertex 28.531139373779297 5.057657241821289 120
      vertex 28.531139373779297 5.057657241821289 0
    endloop
  endfacet
  facet normal 0.9961944618985134 -0.08715844240652348 0
    outer loop
      vertex 28.657461166381836 3.613785743713379 120
      vertex 28.700000762939453 4.100000381469727 0
      vertex 28.700000762939453 4.100000381469727 120
    endloop
  endfacet
  facet normal 0.9961944618985134 -0.08715844240652348 0
    outer loop
      vertex 28.700000762939453 4.100000381469727 0
      vertex 28.657461166381836 3.613785743713379 120
      vertex 28.657461166381836 3.613785743713379 0
    endloop
  endfacet
  facet normal -0.08715633363502 0.9961946463956234 0
    outer loop
      vertex 25.899999618530273 6.90000057220459 0
      vertex 25.41378402709961 6.857461929321289 120
      vertex 25.899999618530273 6.90000057220459 120
    endloop
  endfacet
  facet normal -0.08715633363502 0.9961946463956234 0
    outer loop
      vertex 25.41378402709961 6.857461929321289 120
      vertex 25.899999618530273 6.90000057220459 0
      vertex 25.41378402709961 6.857461929321289 0
    endloop
  endfacet
  facet normal 0.08715633363502 0.9961946463956234 0
    outer loop
      vertex 26.386215209960938 6.857461929321289 0
      vertex 25.899999618530273 6.90000057220459 120
      vertex 26.386215209960938 6.857461929321289 120
    endloop
  endfacet
  facet normal 0.08715633363502 0.9961946463956234 0
    outer loop
      vertex 25.899999618530273 6.90000057220459 120
      vertex 26.386215209960938 6.857461929321289 0
      vertex 25.899999618530273 6.90000057220459 0
    endloop
  endfacet
  facet normal -0.4226190945905811 0.9063073986719061 0
    outer loop
      vertex 24.94234275817871 6.73114013671875 0
      vertex 24.5 6.524871826171875 120
      vertex 24.94234275817871 6.73114013671875 120
    endloop
  endfacet
  facet normal -0.4226190945905811 0.9063073986719061 0
    outer loop
      vertex 24.5 6.524871826171875 120
      vertex 24.94234275817871 6.73114013671875 0
      vertex 24.5 6.524871826171875 0
    endloop
  endfacet
  facet normal -0.8191519576434395 0.573576560093699 0
    outer loop
      vertex 23.475128173828125 5.5 0
      vertex 23.755075454711914 5.899806022644043 120
      vertex 23.755075454711914 5.899806022644043 0
    endloop
  endfacet
  facet normal -0.8191519576434395 0.573576560093699 0
    outer loop
      vertex 23.755075454711914 5.899806022644043 120
      vertex 23.475128173828125 5.5 0
      vertex 23.475128173828125 5.5 120
    endloop
  endfacet
  facet normal -0.2588180612178887 0.9659260899196238 0
    outer loop
      vertex 25.41378402709961 6.857461929321289 0
      vertex 24.94234275817871 6.73114013671875 120
      vertex 25.41378402709961 6.857461929321289 120
    endloop
  endfacet
  facet normal -0.2588180612178887 0.9659260899196238 0
    outer loop
      vertex 24.94234275817871 6.73114013671875 120
      vertex 25.41378402709961 6.857461929321289 0
      vertex 24.94234275817871 6.73114013671875 0
    endloop
  endfacet
  facet normal -0.7071077581698124 0.7071058042019328 0
    outer loop
      vertex 23.755075454711914 5.899806022644043 0
      vertex 24.10019302368164 6.244924545288086 120
      vertex 24.10019302368164 6.244924545288086 0
    endloop
  endfacet
  facet normal -0.7071077581698124 0.7071058042019328 0
    outer loop
      vertex 24.10019302368164 6.244924545288086 120
      vertex 23.755075454711914 5.899806022644043 0
      vertex 23.755075454711914 5.899806022644043 120
    endloop
  endfacet
  facet normal 0 0 -1
    outer loop
      vertex 30.885456085205078 -3.7647228240966797 0
      vertex 30.885456085205078 -2.8352766036987305 0
      vertex 31 -3.299999237060547 0
    endloop
  endfacet
  facet normal 0 0 -1
    outer loop
      vertex 30.568065643310547 -4.122982978820801 0
      vertex 30.885456085205078 -2.8352766036987305 0
      vertex 30.885456085205078 -3.7647228240966797 0
    endloop
  endfacet
  facet normal 0 0 -1
    outer loop
      vertex 30.568065643310547 -4.122982978820801 0
      vertex 30.568065643310547 -2.477015495300293 0
      vertex 30.885456085205078 -2.8352766036987305 0
    endloop
  endfacet
  facet normal 0 0 -1
    outer loop
      vertex 30.12053680419922 -4.292708396911621 0
      vertex 30.568065643310547 -2.477015495300293 0
      vertex 30.568065643310547 -4.122982978820801 0
    endloop
  endfacet
  facet normal 0 0 -1
    outer loop
      vertex 30.12053680419922 -4.292708396911621 0
      vertex 27.099998474121094 -0.985207736492157 0
      vertex 30.568065643310547 -2.477015495300293 0
    endloop
  endfacet
  facet normal 0 0 -1
    outer loop
      vertex 23.099998474121094 -0.31458187103271484 0
      vertex 27.099998474121094 1.5818679332733154 0
      vertex 27.099998474121094 -0.985207736492157 0
    endloop
  endfacet
  facet normal 0 0 -1
    outer loop
      vertex 27.099998474121094 1.5818679332733154 0
      vertex 23.099998474121094 4.100000381469727 0
      vertex 26.857654571533203 6.73114013671875 0
    endloop
  endfacet
  facet normal 0 0 -1
    outer loop
      vertex 26.857654571533203 6.73114013671875 0
      vertex 23.099998474121094 4.100000381469727 0
      vertex 26.386215209960938 6.857461929321289 0
    endloop
  endfacet
  facet normal 0 0 -1
    outer loop
      vertex 26.386215209960938 6.857461929321289 0
      vertex 23.099998474121094 4.100000381469727 0
      vertex 25.899999618530273 6.90000057220459 0
    endloop
  endfacet
  facet normal 0 0 -1
    outer loop
      vertex 25.899999618530273 6.90000057220459 0
      vertex 23.099998474121094 4.100000381469727 0
      vertex 25.41378402709961 6.857461929321289 0
    endloop
  endfacet
  facet normal 0 0 -1
    outer loop
      vertex 25.41378402709961 6.857461929321289 0
      vertex 23.099998474121094 4.100000381469727 0
      vertex 24.94234275817871 6.73114013671875 0
    endloop
  endfacet
  facet normal 0 0 -1
    outer loop
      vertex 24.94234275817871 6.73114013671875 0
      vertex 23.099998474121094 4.100000381469727 0
      vertex 24.5 6.524871826171875 0
    endloop
  endfacet
  facet normal 0 0 -1
    outer loop
      vertex 24.5 6.524871826171875 0
      vertex 23.099998474121094 4.100000381469727 0
      vertex 24.10019302368164 6.244924545288086 0
    endloop
  endfacet
  facet normal 0 0 -1
    outer loop
      vertex 24.10019302368164 6.244924545288086 0
      vertex 23.099998474121094 4.100000381469727 0
      vertex 23.755075454711914 5.899806022644043 0
    endloop
  endfacet
  facet normal 0 0 -1
    outer loop
      vertex 23.755075454711914 5.899806022644043 0
      vertex 23.099998474121094 4.100000381469727 0
      vertex 23.475128173828125 5.5 0
    endloop
  endfacet
  facet normal 0 0 -1
    outer loop
      vertex 23.475128173828125 5.5 0
      vertex 23.099998474121094 4.100000381469727 0
      vertex 23.26885986328125 5.057657241821289 0
    endloop
  endfacet
  facet normal 0 0 -1
    outer loop
      vertex 27.099998474121094 1.5818679332733154 0
      vertex 23.099998474121094 -0.31458187103271484 0
      vertex 23.099998474121094 4.100000381469727 0
    endloop
  endfacet
  facet normal 0 0 -1
    outer loop
      vertex 30.12053680419922 -4.292708396911621 0
      vertex 23.099998474121094 -0.31458187103271484 0
      vertex 27.099998474121094 -0.985207736492157 0
    endloop
  endfacet
  facet normal 0 0 -1
    outer loop
      vertex 30.12053680419922 -4.292708396911621 0
      vertex -17.46215057373047 -0.31458187103271484 0
      vertex 23.099998474121094 -0.31458187103271484 0
    endloop
  endfacet
  facet normal 0 0 -1
    outer loop
      vertex -30.12053680419922 -4.292708396911621 0
      vertex -17.46215057373047 -0.31458187103271484 0
      vertex 30.12053680419922 -4.292708396911621 0
    endloop
  endfacet
  facet normal 0 0 -1
    outer loop
      vertex -17.46215057373047 -0.31458187103271484 0
      vertex -30.12053680419922 -4.292708396911621 0
      vertex -22.438053131103516 -0.9852129817008972 0
    endloop
  endfacet
  facet normal 0 0 -1
    outer loop
      vertex -30.12053680419922 -4.292708396911621 0
      vertex -30.12053680419922 -2.307291030883789 0
      vertex -22.438053131103516 -0.9852129817008972 0
    endloop
  endfacet
  facet normal 0 0 -1
    outer loop
      vertex -30.568065643310547 -4.122982978820801 0
      vertex -30.12053680419922 -2.307291030883789 0
      vertex -30.12053680419922 -4.292708396911621 0
    endloop
  endfacet
  facet normal 0 0 -1
    outer loop
      vertex -30.568065643310547 -4.122982978820801 0
      vertex -30.568065643310547 -2.477015495300293 0
      vertex -30.12053680419922 -2.307291030883789 0
    endloop
  endfacet
  facet normal 0 0 -1
    outer loop
      vertex -30.885456085205078 -3.7647228240966797 0
      vertex -30.568065643310547 -2.477015495300293 0
      vertex -30.568065643310547 -4.122982978820801 0
    endloop
  endfacet
  facet normal 0 0 -1
    outer loop
      vertex -30.885456085205078 -3.7647228240966797 0
      vertex -30.885456085205078 -2.8352766036987305 0
      vertex -30.568065643310547 -2.477015495300293 0
    endloop
  endfacet
  facet normal 0 0 -1
    outer loop
      vertex -30.885456085205078 -2.8352766036987305 0
      vertex -30.885456085205078 -3.7647228240966797 0
      vertex -31 -3.299999237060547 0
    endloop
  endfacet
  facet normal 0 0 -1
    outer loop
      vertex 28.657461166381836 3.613785743713379 0
      vertex 28.657461166381836 4.586215019226074 0
      vertex 28.700000762939453 4.100000381469727 0
    endloop
  endfacet
  facet normal 0 0 -1
    outer loop
      vertex 28.531139373779297 3.1423444747924805 0
      vertex 28.657461166381836 4.586215019226074 0
      vertex 28.657461166381836 3.613785743713379 0
    endloop
  endfacet
  facet normal 0 0 -1
    outer loop
      vertex 28.531139373779297 3.1423444747924805 0
      vertex 28.531139373779297 5.057657241821289 0
      vertex 28.657461166381836 4.586215019226074 0
    endloop
  endfacet
  facet normal 0 0 -1
    outer loop
      vertex 28.324871063232422 2.700000762939453 0
      vertex 28.531139373779297 5.057657241821289 0
      vertex 28.531139373779297 3.1423444747924805 0
    endloop
  endfacet
  facet normal 0 0 -1
    outer loop
      vertex 28.324871063232422 2.700000762939453 0
      vertex 28.324871063232422 5.5 0
      vertex 28.531139373779297 5.057657241821289 0
    endloop
  endfacet
  facet normal 0 0 -1
    outer loop
      vertex 28.044923782348633 2.30019474029541 0
      vertex 28.324871063232422 5.5 0
      vertex 28.324871063232422 2.700000762939453 0
    endloop
  endfacet
  facet normal 0 0 -1
    outer loop
      vertex 28.044923782348633 2.30019474029541 0
      vertex 28.044923782348633 5.899806022644043 0
      vertex 28.324871063232422 5.5 0
    endloop
  endfacet
  facet normal 0 0 -1
    outer loop
      vertex 27.099998474121094 1.5818679332733154 0
      vertex 28.044923782348633 2.30019474029541 0
      vertex 27.699806213378906 1.9550762176513672 0
    endloop
  endfacet
  facet normal 0 0 -1
    outer loop
      vertex 28.044923782348633 2.30019474029541 0
      vertex 27.099998474121094 1.5818679332733154 0
      vertex 28.044923782348633 5.899806022644043 0
    endloop
  endfacet
  facet normal 0 0 -1
    outer loop
      vertex 27.099998474121094 1.5818679332733154 0
      vertex 27.699806213378906 1.9550762176513672 0
      vertex 27.299999237060547 1.6751289367675781 0
    endloop
  endfacet
  facet normal 0 0 -1
    outer loop
      vertex 28.044923782348633 5.899806022644043 0
      vertex 27.099998474121094 1.5818679332733154 0
      vertex 27.699806213378906 6.244924545288086 0
    endloop
  endfacet
  facet normal 0 0 -1
    outer loop
      vertex 27.699806213378906 6.244924545288086 0
      vertex 27.099998474121094 1.5818679332733154 0
      vertex 27.299999237060547 6.524871826171875 0
    endloop
  endfacet
  facet normal 0 0 -1
    outer loop
      vertex 27.299999237060547 6.524871826171875 0
      vertex 27.099998474121094 1.5818679332733154 0
      vertex 26.857654571533203 6.73114013671875 0
    endloop
  endfacet
  facet normal 0 0 -1
    outer loop
      vertex 23.26885986328125 5.057657241821289 0
      vertex 23.099998474121094 4.100000381469727 0
      vertex 23.14253807067871 4.586215019226074 0
    endloop
  endfacet
  facet normal 0 0 -1
    outer loop
      vertex -22.438053131103516 -0.9852129817008972 0
      vertex -23.202978134155273 5.42624568939209 0
      vertex -17.46215057373047 -0.31458187103271484 0
    endloop
  endfacet
  facet normal 0 0 -1
    outer loop
      vertex -26.197021484375 2.7737550735473633 0
      vertex -23.202978134155273 5.42624568939209 0
      vertex -22.438053131103516 -0.9852129817008972 0
    endloop
  endfacet
  facet normal 0 0 -1
    outer loop
      vertex -23.202978134155273 5.42624568939209 0
      vertex -26.197021484375 2.7737550735473633 0
      vertex -23.56386947631836 5.745967864990234 0
    endloop
  endfacet
  facet normal 0 0 -1
    outer loop
      vertex -23.56386947631836 5.745967864990234 0
      vertex -26.197021484375 2.7737550735473633 0
      vertex -23.99078941345215 5.970032691955566 0
    endloop
  endfacet
  facet normal 0 0 -1
    outer loop
      vertex -23.99078941345215 5.970032691955566 0
      vertex -26.197021484375 2.7737550735473633 0
      vertex -24.458927154541016 6.085418701171875 0
    endloop
  endfacet
  facet normal 0 0 -1
    outer loop
      vertex -24.458927154541016 6.085418701171875 0
      vertex -26.197021484375 2.7737550735473633 0
      vertex -24.941072463989258 6.085418701171875 0
    endloop
  endfacet
  facet normal 0 0 -1
    outer loop
      vertex -24.941072463989258 6.085418701171875 0
      vertex -26.197021484375 2.7737550735473633 0
      vertex -25.409210205078125 5.970032691955566 0
    endloop
  endfacet
  facet normal 0 0 -1
    outer loop
      vertex -25.409210205078125 5.970032691955566 0
      vertex -26.197021484375 2.7737550735473633 0
      vertex -25.83612823486328 5.745967864990234 0
    endloop
  endfacet
  facet normal 0 0 -1
    outer loop
      vertex -26.197021484375 2.7737550735473633 0
      vertex -26.197021484375 5.42624568939209 0
      vertex -25.83612823486328 5.745967864990234 0
    endloop
  endfacet
  facet normal 0 0 -1
    outer loop
      vertex -26.47091293334961 3.1705541610717773 0
      vertex -26.197021484375 5.42624568939209 0
      vertex -26.197021484375 2.7737550735473633 0
    endloop
  endfacet
  facet normal 0 0 -1
    outer loop
      vertex -26.47091293334961 3.1705541610717773 0
      vertex -26.47091293334961 5.029446601867676 0
      vertex -26.197021484375 5.42624568939209 0
    endloop
  endfacet
  facet normal 0 0 -1
    outer loop
      vertex -26.641883850097656 3.6213693618774414 0
      vertex -26.47091293334961 5.029446601867676 0
      vertex -26.47091293334961 3.1705541610717773 0
    endloop
  endfacet
  facet normal 0 0 -1
    outer loop
      vertex -26.641883850097656 3.6213693618774414 0
      vertex -26.641883850097656 4.578631401062012 0
      vertex -26.47091293334961 5.029446601867676 0
    endloop
  endfacet
  facet normal 0 0 -1
    outer loop
      vertex -26.641883850097656 4.578631401062012 0
      vertex -26.641883850097656 3.6213693618774414 0
      vertex -26.700000762939453 4.100000381469727 0
    endloop
  endfacet
  facet normal 0.9659260899196238 -0.2588180612178887 0
    outer loop
      vertex 28.531139373779297 3.1423444747924805 120
      vertex 28.657461166381836 3.613785743713379 0
      vertex 28.657461166381836 3.613785743713379 120
    endloop
  endfacet
  facet normal 0.9659260899196238 -0.2588180612178887 0
    outer loop
      vertex 28.657461166381836 3.613785743713379 0
      vertex 28.531139373779297 3.1423444747924805 120
      vertex 28.531139373779297 3.1423444747924805 0
    endloop
  endfacet
  facet normal 1 0 0
    outer loop
      vertex 27.099998474121094 -0.985207736492157 120
      vertex 27.099998474121094 1.5818679332733154 0
      vertex 27.099998474121094 1.5818679332733154 120
    endloop
  endfacet
  facet normal 1 0 0
    outer loop
      vertex 27.099998474121094 1.5818679332733154 0
      vertex 27.099998474121094 -0.985207736492157 120
      vertex 27.099998474121094 -0.985207736492157 0
    endloop
  endfacet
  facet normal -1 0 0
    outer loop
      vertex 23.099998474121094 -0.31458187103271484 0
      vertex 23.099998474121094 4.100000381469727 120
      vertex 23.099998474121094 4.100000381469727 0
    endloop
  endfacet
  facet normal -1 0 0
    outer loop
      vertex 23.099998474121094 4.100000381469727 120
      vertex 23.099998474121094 -0.31458187103271484 0
      vertex 23.099998474121094 -0.31458187103271484 120
    endloop
  endfacet
  facet normal 0 1 0
    outer loop
      vertex 23.099998474121094 -0.31458187103271484 0
      vertex -17.46215057373047 -0.31458187103271484 120
      vertex 23.099998474121094 -0.31458187103271484 120
    endloop
  endfacet
  facet normal 0 1 0
    outer loop
      vertex -17.46215057373047 -0.31458187103271484 120
      vertex 23.099998474121094 -0.31458187103271484 0
      vertex -17.46215057373047 -0.31458187103271484 0
    endloop
  endfacet
  facet normal 0 -1 0
    outer loop
      vertex -30.12053680419922 -4.292708396911621 0
      vertex 30.12053680419922 -4.292708396911621 120
      vertex -30.12053680419922 -4.292708396911621 120
    endloop
  endfacet
  facet normal 0 -1 0
    outer loop
      vertex 30.12053680419922 -4.292708396911621 120
      vertex -30.12053680419922 -4.292708396911621 0
      vertex 30.12053680419922 -4.292708396911621 0
    endloop
  endfacet
  facet normal -0.9709417818791863 0.23931580850681478 0
    outer loop
      vertex -31 -3.299999237060547 0
      vertex -30.885456085205078 -2.8352766036987305 120
      vertex -30.885456085205078 -2.8352766036987305 0
    endloop
  endfacet
  facet normal -0.9709417818791863 0.23931580850681478 0
    outer loop
      vertex -30.885456085205078 -2.8352766036987305 120
      vertex -31 -3.299999237060547 0
      vertex -31 -3.299999237060547 120
    endloop
  endfacet
  facet normal -0.16959694706516193 0.9855135085559085 0
    outer loop
      vertex -22.438053131103516 -0.9852129817008972 0
      vertex -30.12053680419922 -2.307291030883789 120
      vertex -22.438053131103516 -0.9852129817008972 120
    endloop
  endfacet
  facet normal -0.16959694706516193 0.9855135085559085 0
    outer loop
      vertex -30.12053680419922 -2.307291030883789 120
      vertex -22.438053131103516 -0.9852129817008972 0
      vertex -30.12053680419922 -2.307291030883789 0
    endloop
  endfacet
  facet normal 0.3546051005036283 -0.9350161617302728 0
    outer loop
      vertex 30.12053680419922 -4.292708396911621 0
      vertex 30.568065643310547 -4.122982978820801 120
      vertex 30.12053680419922 -4.292708396911621 120
    endloop
  endfacet
  facet normal 0.3546051005036283 -0.9350161617302728 0
    outer loop
      vertex 30.568065643310547 -4.122982978820801 120
      vertex 30.12053680419922 -4.292708396911621 0
      vertex 30.568065643310547 -4.122982978820801 0
    endloop
  endfacet
  facet normal 0.9709417818791863 0.23931580850681478 0
    outer loop
      vertex 31 -3.299999237060547 120
      vertex 30.885456085205078 -2.8352766036987305 0
      vertex 30.885456085205078 -2.8352766036987305 120
    endloop
  endfacet
  facet normal 0.9709417818791863 0.23931580850681478 0
    outer loop
      vertex 30.885456085205078 -2.8352766036987305 0
      vertex 31 -3.299999237060547 120
      vertex 31 -3.299999237060547 0
    endloop
  endfacet
  facet normal 0.7485119970490607 0.6631212485463174 0
    outer loop
      vertex 30.885456085205078 -2.8352766036987305 120
      vertex 30.568065643310547 -2.477015495300293 0
      vertex 30.568065643310547 -2.477015495300293 120
    endloop
  endfacet
  facet normal 0.7485119970490607 0.6631212485463174 0
    outer loop
      vertex 30.568065643310547 -2.477015495300293 0
      vertex 30.885456085205078 -2.8352766036987305 120
      vertex 30.885456085205078 -2.8352766036987305 0
    endloop
  endfacet
  facet normal -0.3546051005036283 -0.9350161617302728 0
    outer loop
      vertex -30.568065643310547 -4.122982978820801 0
      vertex -30.12053680419922 -4.292708396911621 120
      vertex -30.568065643310547 -4.122982978820801 120
    endloop
  endfacet
  facet normal -0.3546051005036283 -0.9350161617302728 0
    outer loop
      vertex -30.12053680419922 -4.292708396911621 120
      vertex -30.568065643310547 -4.122982978820801 0
      vertex -30.12053680419922 -4.292708396911621 0
    endloop
  endfacet
  facet normal -0.3546033585488625 0.9350168223651738 0
    outer loop
      vertex -30.12053680419922 -2.307291030883789 0
      vertex -30.568065643310547 -2.477015495300293 120
      vertex -30.12053680419922 -2.307291030883789 120
    endloop
  endfacet
  facet normal -0.3546033585488625 0.9350168223651738 0
    outer loop
      vertex -30.568065643310547 -2.477015495300293 120
      vertex -30.12053680419922 -2.307291030883789 0
      vertex -30.568065643310547 -2.477015495300293 0
    endloop
  endfacet
  facet normal -0.9709418959937222 -0.23931534552576447 0
    outer loop
      vertex -30.885456085205078 -3.7647228240966797 0
      vertex -31 -3.299999237060547 120
      vertex -31 -3.299999237060547 0
    endloop
  endfacet
  facet normal -0.9709418959937222 -0.23931534552576447 0
    outer loop
      vertex -31 -3.299999237060547 120
      vertex -30.885456085205078 -3.7647228240966797 0
      vertex -30.885456085205078 -3.7647228240966797 120
    endloop
  endfacet
  facet normal 0.3951482104494496 0.9186173805119286 0
    outer loop
      vertex 30.568065643310547 -2.477015495300293 0
      vertex 27.099998474121094 -0.985207736492157 120
      vertex 30.568065643310547 -2.477015495300293 120
    endloop
  endfacet
  facet normal 0.3951482104494496 0.9186173805119286 0
    outer loop
      vertex 27.099998474121094 -0.985207736492157 120
      vertex 30.568065643310547 -2.477015495300293 0
      vertex 27.099998474121094 -0.985207736492157 0
    endloop
  endfacet
  facet normal 0.9709418959937222 -0.23931534552576447 0
    outer loop
      vertex 30.885456085205078 -3.7647228240966797 120
      vertex 31 -3.299999237060547 0
      vertex 31 -3.299999237060547 120
    endloop
  endfacet
  facet normal 0.9709418959937222 -0.23931534552576447 0
    outer loop
      vertex 31 -3.299999237060547 0
      vertex 30.885456085205078 -3.7647228240966797 120
      vertex 30.885456085205078 -3.7647228240966797 0
    endloop
  endfacet
  facet normal 0.7485111208837645 -0.6631222375349286 0
    outer loop
      vertex 30.568065643310547 -4.122982978820801 120
      vertex 30.885456085205078 -3.7647228240966797 0
      vertex 30.885456085205078 -3.7647228240966797 120
    endloop
  endfacet
  facet normal 0.7485111208837645 -0.6631222375349286 0
    outer loop
      vertex 30.885456085205078 -3.7647228240966797 0
      vertex 30.568065643310547 -4.122982978820801 120
      vertex 30.568065643310547 -4.122982978820801 0
    endloop
  endfacet
  facet normal -0.7485111208837645 -0.6631222375349286 0
    outer loop
      vertex -30.568065643310547 -4.122982978820801 0
      vertex -30.885456085205078 -3.7647228240966797 120
      vertex -30.885456085205078 -3.7647228240966797 0
    endloop
  endfacet
  facet normal -0.7485111208837645 -0.6631222375349286 0
    outer loop
      vertex -30.885456085205078 -3.7647228240966797 120
      vertex -30.568065643310547 -4.122982978820801 0
      vertex -30.568065643310547 -4.122982978820801 120
    endloop
  endfacet
  facet normal -0.7485119970490607 0.6631212485463174 0
    outer loop
      vertex -30.885456085205078 -2.8352766036987305 0
      vertex -30.568065643310547 -2.477015495300293 120
      vertex -30.568065643310547 -2.477015495300293 0
    endloop
  endfacet
  facet normal -0.7485119970490607 0.6631212485463174 0
    outer loop
      vertex -30.568065643310547 -2.477015495300293 120
      vertex -30.885456085205078 -2.8352766036987305 0
      vertex -30.885456085205078 -2.8352766036987305 120
    endloop
  endfacet
  facet normal -0.46472473337174763 0.8854552062033166 0
    outer loop
      vertex -25.409210205078125 5.970032691955566 0
      vertex -25.83612823486328 5.745967864990234 120
      vertex -25.409210205078125 5.970032691955566 120
    endloop
  endfacet
  facet normal -0.46472473337174763 0.8854552062033166 0
    outer loop
      vertex -25.83612823486328 5.745967864990234 120
      vertex -25.409210205078125 5.970032691955566 0
      vertex -25.83612823486328 5.745967864990234 0
    endloop
  endfacet
  facet normal -0.6631210963276677 0.7485121319024776 0
    outer loop
      vertex -25.83612823486328 5.745967864990234 0
      vertex -26.197021484375 5.42624568939209 120
      vertex -25.83612823486328 5.745967864990234 120
    endloop
  endfacet
  facet normal -0.6631210963276677 0.7485121319024776 0
    outer loop
      vertex -26.197021484375 5.42624568939209 120
      vertex -25.83612823486328 5.745967864990234 0
      vertex -26.197021484375 5.42624568939209 0
    endloop
  endfacet
  facet normal 0 1 0
    outer loop
      vertex -24.458927154541016 6.085418701171875 0
      vertex -24.941072463989258 6.085418701171875 120
      vertex -24.458927154541016 6.085418701171875 120
    endloop
  endfacet
  facet normal 0 1 0
    outer loop
      vertex -24.941072463989258 6.085418701171875 120
      vertex -24.458927154541016 6.085418701171875 0
      vertex -24.941072463989258 6.085418701171875 0
    endloop
  endfacet
  facet normal 0.6631230598807086 0.7485103923489947 0
    outer loop
      vertex -23.202978134155273 5.42624568939209 0
      vertex -23.56386947631836 5.745967864990234 120
      vertex -23.202978134155273 5.42624568939209 120
    endloop
  endfacet
  facet normal 0.6631230598807086 0.7485103923489947 0
    outer loop
      vertex -23.56386947631836 5.745967864990234 120
      vertex -23.202978134155273 5.42624568939209 0
      vertex -23.56386947631836 5.745967864990234 0
    endloop
  endfacet
  facet normal 0.7071067811865475 0.7071067811865475 0
    outer loop
      vertex -17.46215057373047 -0.31458187103271484 120
      vertex -23.202978134155273 5.42624568939209 0
      vertex -23.202978134155273 5.42624568939209 120
    endloop
  endfacet
  facet normal 0.7071067811865475 0.7071067811865475 0
    outer loop
      vertex -23.202978134155273 5.42624568939209 0
      vertex -17.46215057373047 -0.31458187103271484 120
      vertex -17.46215057373047 -0.31458187103271484 0
    endloop
  endfacet
  facet normal -0.9927087288611708 -0.12053787638264797 0
    outer loop
      vertex -26.641883850097656 3.6213693618774414 0
      vertex -26.700000762939453 4.100000381469727 120
      vertex -26.700000762939453 4.100000381469727 0
    endloop
  endfacet
  facet normal -0.9927087288611708 -0.12053787638264797 0
    outer loop
      vertex -26.700000762939453 4.100000381469727 120
      vertex -26.641883850097656 3.6213693618774414 0
      vertex -26.641883850097656 3.6213693618774414 120
    endloop
  endfacet
  facet normal -0.8229830760827469 -0.5680658909680985 0
    outer loop
      vertex -26.197021484375 2.7737550735473633 0
      vertex -26.47091293334961 3.1705541610717773 120
      vertex -26.47091293334961 3.1705541610717773 0
    endloop
  endfacet
  facet normal -0.8229830760827469 -0.5680658909680985 0
    outer loop
      vertex -26.47091293334961 3.1705541610717773 120
      vertex -26.197021484375 2.7737550735473633 0
      vertex -26.197021484375 2.7737550735473633 120
    endloop
  endfacet
  facet normal 0.4647231055259876 0.8854560605644313 0
    outer loop
      vertex -23.56386947631836 5.745967864990234 0
      vertex -23.99078941345215 5.970032691955566 120
      vertex -23.56386947631836 5.745967864990234 120
    endloop
  endfacet
  facet normal 0.4647231055259876 0.8854560605644313 0
    outer loop
      vertex -23.99078941345215 5.970032691955566 120
      vertex -23.56386947631836 5.745967864990234 0
      vertex -23.99078941345215 5.970032691955566 0
    endloop
  endfacet
  facet normal -0.9350167495508589 0.35460355054531867 0
    outer loop
      vertex -26.641883850097656 4.578631401062012 0
      vertex -26.47091293334961 5.029446601867676 120
      vertex -26.47091293334961 5.029446601867676 0
    endloop
  endfacet
  facet normal -0.9350167495508589 0.35460355054531867 0
    outer loop
      vertex -26.47091293334961 5.029446601867676 120
      vertex -26.641883850097656 4.578631401062012 0
      vertex -26.641883850097656 4.578631401062012 120
    endloop
  endfacet
  facet normal -0.7071067531556844 -0.7071068092174095 0
    outer loop
      vertex -26.197021484375 2.7737550735473633 0
      vertex -22.438053131103516 -0.9852129817008972 120
      vertex -26.197021484375 2.7737550735473633 120
    endloop
  endfacet
  facet normal -0.7071067531556844 -0.7071068092174095 0
    outer loop
      vertex -22.438053131103516 -0.9852129817008972 120
      vertex -26.197021484375 2.7737550735473633 0
      vertex -22.438053131103516 -0.9852129817008972 0
    endloop
  endfacet
  facet normal 0.23931648391177243 0.9709416154064602 0
    outer loop
      vertex -23.99078941345215 5.970032691955566 0
      vertex -24.458927154541016 6.085418701171875 120
      vertex -23.99078941345215 5.970032691955566 120
    endloop
  endfacet
  facet normal 0.23931648391177243 0.9709416154064602 0
    outer loop
      vertex -24.458927154541016 6.085418701171875 120
      vertex -23.99078941345215 5.970032691955566 0
      vertex -24.458927154541016 6.085418701171875 0
    endloop
  endfacet
  facet normal -0.23931648391177243 0.9709416154064602 0
    outer loop
      vertex -24.941072463989258 6.085418701171875 0
      vertex -25.409210205078125 5.970032691955566 120
      vertex -24.941072463989258 6.085418701171875 120
    endloop
  endfacet
  facet normal -0.23931648391177243 0.9709416154064602 0
    outer loop
      vertex -25.409210205078125 5.970032691955566 120
      vertex -24.941072463989258 6.085418701171875 0
      vertex -25.409210205078125 5.970032691955566 0
    endloop
  endfacet
  facet normal -0.8229830760827469 0.5680658909680985 0
    outer loop
      vertex -26.47091293334961 5.029446601867676 0
      vertex -26.197021484375 5.42624568939209 120
      vertex -26.197021484375 5.42624568939209 0
    endloop
  endfacet
  facet normal -0.8229830760827469 0.5680658909680985 0
    outer loop
      vertex -26.197021484375 5.42624568939209 120
      vertex -26.47091293334961 5.029446601867676 0
      vertex -26.47091293334961 5.029446601867676 120
    endloop
  endfacet
  facet normal -0.9927087288611708 0.12053787638264797 0
    outer loop
      vertex -26.700000762939453 4.100000381469727 0
      vertex -26.641883850097656 4.578631401062012 120
      vertex -26.641883850097656 4.578631401062012 0
    endloop
  endfacet
  facet normal -0.9927087288611708 0.12053787638264797 0
    outer loop
      vertex -26.641883850097656 4.578631401062012 120
      vertex -26.700000762939453 4.100000381469727 0
      vertex -26.700000762939453 4.100000381469727 120
    endloop
  endfacet
  facet normal -0.9350167495508589 -0.35460355054531867 0
    outer loop
      vertex -26.47091293334961 3.1705541610717773 0
      vertex -26.641883850097656 3.6213693618774414 120
      vertex -26.641883850097656 3.6213693618774414 0
    endloop
  endfacet
  facet normal -0.9350167495508589 -0.35460355054531867 0
    outer loop
      vertex -26.641883850097656 3.6213693618774414 120
      vertex -26.47091293334961 3.1705541610717773 0
      vertex -26.47091293334961 3.1705541610717773 120
    endloop
  endfacet
endsolid OpenSCAD_Model
