solid OpenSCAD_Model
  facet normal -0.3546034128144123 -0.935016801785065 0
    outer loop
      vertex 26.762474060058594 -23.922393798828125 0
      vertex 27.029056549072266 -24.023494720458984 4
      vertex 26.762474060058594 -23.922393798828125 4
    endloop
  endfacet
  facet normal -0.3546034128144123 -0.935016801785065 0
    outer loop
      vertex 27.029056549072266 -24.023494720458984 4
      vertex 26.762474060058594 -23.922393798828125 0
      vertex 27.029056549072266 -24.023494720458984 0
    endloop
  endfacet
  facet normal 0.9870500712493187 -0.16041245851465244 0
    outer loop
      vertex 22.81005096435547 -26.65055274963379 4
      vertex 22.890079498291016 -26.15812110900879 0
      vertex 22.890079498291016 -26.15812110900879 4
    endloop
  endfacet
  facet normal 0.9870500712493187 -0.16041245851465244 0
    outer loop
      vertex 22.890079498291016 -26.15812110900879 0
      vertex 22.81005096435547 -26.65055274963379 4
      vertex 22.81005096435547 -26.65055274963379 0
    endloop
  endfacet
  facet normal -0.7485099942931698 0.6631235091920954 0
    outer loop
      vertex 28.04744529724121 -29.135726928710938 0
      vertex 28.378273010253906 -28.762300491333008 4
      vertex 28.378273010253906 -28.762300491333008 0
    endloop
  endfacet
  facet normal -0.7485099942931698 0.6631235091920954 0
    outer loop
      vertex 28.378273010253906 -28.762300491333008 4
      vertex 28.04744529724121 -29.135726928710938 0
      vertex 28.04744529724121 -29.135726928710938 4
    endloop
  endfacet
  facet normal 0.8854546200763875 -0.4647258501368092 0
    outer loop
      vertex 23.048063278198242 -25.68490219116211 4
      vertex 23.279911041259766 -25.24315643310547 0
      vertex 23.279911041259766 -25.24315643310547 4
    endloop
  endfacet
  facet normal 0.8854546200763875 -0.4647258501368092 0
    outer loop
      vertex 23.279911041259766 -25.24315643310547 0
      vertex 23.048063278198242 -25.68490219116211 4
      vertex 23.048063278198242 -25.68490219116211 0
    endloop
  endfacet
  facet normal -0.040265614697687455 -0.9991890112851609 0
    outer loop
      vertex 25.775175094604492 -23.802513122558594 0
      vertex 26.273662567138672 -23.822601318359375 4
      vertex 25.775175094604492 -23.802513122558594 4
    endloop
  endfacet
  facet normal -0.040265614697687455 -0.9991890112851609 0
    outer loop
      vertex 26.273662567138672 -23.822601318359375 4
      vertex 25.775175094604492 -23.802513122558594 0
      vertex 26.273662567138672 -23.822601318359375 0
    endloop
  endfacet
  facet normal -0.6324427875931269 0.7746070748588829 0
    outer loop
      vertex 28.04744529724121 -29.135726928710938 0
      vertex 27.660999298095703 -29.451248168945312 4
      vertex 28.04744529724121 -29.135726928710938 4
    endloop
  endfacet
  facet normal -0.6324427875931269 0.7746070748588829 0
    outer loop
      vertex 27.660999298095703 -29.451248168945312 4
      vertex 28.04744529724121 -29.135726928710938 0
      vertex 27.660999298095703 -29.451248168945312 0
    endloop
  endfacet
  facet normal -0.9967549677569968 0.08049555423592167 0
    outer loop
      vertex 28.959854125976562 -27.397274017333984 0
      vertex 28.963985443115234 -27.34611701965332 4
      vertex 28.963985443115234 -27.34611701965332 0
    endloop
  endfacet
  facet normal -0.9967549677569968 0.08049555423592167 0
    outer loop
      vertex 28.963985443115234 -27.34611701965332 4
      vertex 28.959854125976562 -27.397274017333984 0
      vertex 28.959854125976562 -27.397274017333984 4
    endloop
  endfacet
  facet normal 0.5680657038771671 -0.8229832052226452 0
    outer loop
      vertex 23.93941879272461 -24.49872398376465 0
      vertex 24.349998474121094 -24.215320587158203 4
      vertex 23.93941879272461 -24.49872398376465 4
    endloop
  endfacet
  facet normal 0.5680657038771671 -0.8229832052226452 0
    outer loop
      vertex 24.349998474121094 -24.215320587158203 4
      vertex 23.93941879272461 -24.49872398376465 0
      vertex 24.349998474121094 -24.215320587158203 0
    endloop
  endfacet
  facet normal -0.9199796365955839 0.3919661570205485 0
    outer loop
      vertex 28.644912719726562 -28.340641021728516 0
      vertex 28.84046173095703 -27.881669998168945 4
      vertex 28.84046173095703 -27.881669998168945 0
    endloop
  endfacet
  facet normal -0.9199796365955839 0.3919661570205485 0
    outer loop
      vertex 28.84046173095703 -27.881669998168945 4
      vertex 28.644912719726562 -28.340641021728516 0
      vertex 28.644912719726562 -28.340641021728516 4
    endloop
  endfacet
  facet normal -0.8451915188487793 0.534463559530576 0
    outer loop
      vertex 28.378273010253906 -28.762300491333008 0
      vertex 28.644912719726562 -28.340641021728516 4
      vertex 28.644912719726562 -28.340641021728516 0
    endloop
  endfacet
  facet normal -0.8451915188487793 0.534463559530576 0
    outer loop
      vertex 28.644912719726562 -28.340641021728516 4
      vertex 28.378273010253906 -28.762300491333008 0
      vertex 28.378273010253906 -28.762300491333008 4
    endloop
  endfacet
  facet normal -0.9709420462032897 0.23931473609990872 0
    outer loop
      vertex 28.84046173095703 -27.881669998168945 0
      vertex 28.959854125976562 -27.397274017333984 4
      vertex 28.959854125976562 -27.397274017333984 0
    endloop
  endfacet
  facet normal -0.9709420462032897 0.23931473609990872 0
    outer loop
      vertex 28.959854125976562 -27.397274017333984 4
      vertex 28.84046173095703 -27.881669998168945 0
      vertex 28.84046173095703 -27.881669998168945 4
    endloop
  endfacet
  facet normal 1 0 0
    outer loop
      vertex 22.81005096435547 -26.899999618530273 4
      vertex 22.81005096435547 -26.65055274963379 0
      vertex 22.81005096435547 -26.65055274963379 4
    endloop
  endfacet
  facet normal 1 0 0
    outer loop
      vertex 22.81005096435547 -26.65055274963379 0
      vertex 22.81005096435547 -26.899999618530273 4
      vertex 22.81005096435547 -26.899999618530273 0
    endloop
  endfacet
  facet normal -0.2000274249964827 -0.9797902986094915 0
    outer loop
      vertex 26.273662567138672 -23.822601318359375 0
      vertex 26.762474060058594 -23.922393798828125 4
      vertex 26.273662567138672 -23.822601318359375 4
    endloop
  endfacet
  facet normal -0.2000274249964827 -0.9797902986094915 0
    outer loop
      vertex 26.762474060058594 -23.922393798828125 4
      vertex 26.273662567138672 -23.822601318359375 0
      vertex 26.762474060058594 -23.922393798828125 0
    endloop
  endfacet
  facet normal 0.7994445355724712 -0.6007399059021431 0
    outer loop
      vertex 23.279911041259766 -25.24315643310547 4
      vertex 23.57961654663086 -24.844318389892578 0
      vertex 23.57961654663086 -24.844318389892578 4
    endloop
  endfacet
  facet normal 0.7994445355724712 -0.6007399059021431 0
    outer loop
      vertex 23.57961654663086 -24.844318389892578 0
      vertex 23.279911041259766 -25.24315643310547 4
      vertex 23.279911041259766 -25.24315643310547 0
    endloop
  endfacet
  facet normal 0.9485363866389406 -0.3166681594697235 0
    outer loop
      vertex 22.890079498291016 -26.15812110900879 4
      vertex 23.048063278198242 -25.68490219116211 0
      vertex 23.048063278198242 -25.68490219116211 4
    endloop
  endfacet
  facet normal 0.9485363866389406 -0.3166681594697235 0
    outer loop
      vertex 23.048063278198242 -25.68490219116211 0
      vertex 22.890079498291016 -26.15812110900879 4
      vertex 22.890079498291016 -26.15812110900879 0
    endloop
  endfacet
  facet normal -0.5000045876293469 0.8660227550991987 0
    outer loop
      vertex 27.660999298095703 -29.451248168945312 0
      vertex 27.399999618530273 -29.601938247680664 4
      vertex 27.660999298095703 -29.451248168945312 4
    endloop
  endfacet
  facet normal -0.5000045876293469 0.8660227550991987 0
    outer loop
      vertex 27.399999618530273 -29.601938247680664 4
      vertex 27.660999298095703 -29.451248168945312 0
      vertex 27.399999618530273 -29.601938247680664 0
    endloop
  endfacet
  facet normal 0.4286910348831322 -0.9034511589515114 0
    outer loop
      vertex 24.349998474121094 -24.215320587158203 0
      vertex 24.800724029541016 -24.001449584960938 4
      vertex 24.349998474121094 -24.215320587158203 4
    endloop
  endfacet
  facet normal 0.4286910348831322 -0.9034511589515114 0
    outer loop
      vertex 24.800724029541016 -24.001449584960938 4
      vertex 24.349998474121094 -24.215320587158203 0
      vertex 24.800724029541016 -24.001449584960938 0
    endloop
  endfacet
  facet normal 0.6927239966916818 -0.7212027900719067 0
    outer loop
      vertex 23.57961654663086 -24.844318389892578 0
      vertex 23.93941879272461 -24.49872398376465 4
      vertex 23.57961654663086 -24.844318389892578 4
    endloop
  endfacet
  facet normal 0.6927239966916818 -0.7212027900719067 0
    outer loop
      vertex 23.93941879272461 -24.49872398376465 4
      vertex 23.57961654663086 -24.844318389892578 0
      vertex 23.93941879272461 -24.49872398376465 0
    endloop
  endfacet
  facet normal 0.12053642444400614 -0.992708905159138 0
    outer loop
      vertex 25.279918670654297 -23.862648010253906 0
      vertex 25.775175094604492 -23.802513122558594 4
      vertex 25.279918670654297 -23.862648010253906 4
    endloop
  endfacet
  facet normal 0.12053642444400614 -0.992708905159138 0
    outer loop
      vertex 25.775175094604492 -23.802513122558594 4
      vertex 25.279918670654297 -23.862648010253906 0
      vertex 25.775175094604492 -23.802513122558594 0
    endloop
  endfacet
  facet normal 0.2782195984138118 -0.9605174933641017 0
    outer loop
      vertex 24.800724029541016 -24.001449584960938 0
      vertex 25.279918670654297 -23.862648010253906 4
      vertex 24.800724029541016 -24.001449584960938 4
    endloop
  endfacet
  facet normal 0.2782195984138118 -0.9605174933641017 0
    outer loop
      vertex 25.279918670654297 -23.862648010253906 4
      vertex 24.800724029541016 -24.001449584960938 0
      vertex 25.279918670654297 -23.862648010253906 0
    endloop
  endfacet
  facet normal -1 0 0
    outer loop
      vertex 27.399999618530273 -30.481571197509766 0
      vertex 27.399999618530273 -29.601938247680664 4
      vertex 27.399999618530273 -29.601938247680664 0
    endloop
  endfacet
  facet normal -1 0 0
    outer loop
      vertex 27.399999618530273 -29.601938247680664 4
      vertex 27.399999618530273 -30.481571197509766 0
      vertex 27.399999618530273 -30.481571197509766 4
    endloop
  endfacet
  facet normal 1 0 0
    outer loop
      vertex 22.799999237060547 -30.481571197509766 4
      vertex 22.799999237060547 -26.899999618530273 0
      vertex 22.799999237060547 -26.899999618530273 4
    endloop
  endfacet
  facet normal 1 0 0
    outer loop
      vertex 22.799999237060547 -26.899999618530273 0
      vertex 22.799999237060547 -30.481571197509766 4
      vertex 22.799999237060547 -30.481571197509766 0
    endloop
  endfacet
  facet normal 0 -1 0
    outer loop
      vertex 22.799999237060547 -26.899999618530273 0
      vertex 22.81005096435547 -26.899999618530273 4
      vertex 22.799999237060547 -26.899999618530273 4
    endloop
  endfacet
  facet normal 0 -1 0
    outer loop
      vertex 22.81005096435547 -26.899999618530273 4
      vertex 22.799999237060547 -26.899999618530273 0
      vertex 22.81005096435547 -26.899999618530273 0
    endloop
  endfacet
  facet normal -0.7071081081708 -0.7071054541998048 0
    outer loop
      vertex 27.908180236816406 -30.98975372314453 0
      vertex 27.399999618530273 -30.481571197509766 4
      vertex 27.399999618530273 -30.481571197509766 0
    endloop
  endfacet
  facet normal -0.7071081081708 -0.7071054541998048 0
    outer loop
      vertex 27.399999618530273 -30.481571197509766 4
      vertex 27.908180236816406 -30.98975372314453 0
      vertex 27.908180236816406 -30.98975372314453 4
    endloop
  endfacet
  facet normal 0.7071081081708 -0.7071054541998048 0
    outer loop
      vertex 22.291818618774414 -30.98975372314453 4
      vertex 22.799999237060547 -30.481571197509766 0
      vertex 22.799999237060547 -30.481571197509766 4
    endloop
  endfacet
  facet normal 0.7071081081708 -0.7071054541998048 0
    outer loop
      vertex 22.799999237060547 -30.481571197509766 0
      vertex 22.291818618774414 -30.98975372314453 4
      vertex 22.291818618774414 -30.98975372314453 0
    endloop
  endfacet
  facet normal -1 0 0
    outer loop
      vertex 29 -27.200000762939453 0
      vertex 29 -22.399999618530273 4
      vertex 29 -22.399999618530273 0
    endloop
  endfacet
  facet normal -1 0 0
    outer loop
      vertex 29 -22.399999618530273 4
      vertex 29 -27.200000762939453 0
      vertex 29 -27.200000762939453 4
    endloop
  endfacet
  facet normal -0.9709416102528685 0.23931650482063863 0
    outer loop
      vertex 28.963985443115234 -27.34611701965332 0
      vertex 29 -27.200000762939453 4
      vertex 29 -27.200000762939453 0
    endloop
  endfacet
  facet normal -0.9709416102528685 0.23931650482063863 0
    outer loop
      vertex 29 -27.200000762939453 4
      vertex 28.963985443115234 -27.34611701965332 0
      vertex 28.963985443115234 -27.34611701965332 4
    endloop
  endfacet
  facet normal 1 0 0
    outer loop
      vertex 27.029056549072266 -24.023494720458984 4
      vertex 27.029056549072266 -22.160682678222656 0
      vertex 27.029056549072266 -22.160682678222656 4
    endloop
  endfacet
  facet normal 1 0 0
    outer loop
      vertex 27.029056549072266 -22.160682678222656 0
      vertex 27.029056549072266 -24.023494720458984 4
      vertex 27.029056549072266 -24.023494720458984 0
    endloop
  endfacet
  facet normal -0.7485119970490608 -0.6631212485463175 0
    outer loop
      vertex 28.885456085205078 -21.93527603149414 0
      vertex 28.568065643310547 -21.577014923095703 4
      vertex 28.568065643310547 -21.577014923095703 0
    endloop
  endfacet
  facet normal -0.7485119970490608 -0.6631212485463175 0
    outer loop
      vertex 28.568065643310547 -21.577014923095703 4
      vertex 28.885456085205078 -21.93527603149414 0
      vertex 28.885456085205078 -21.93527603149414 4
    endloop
  endfacet
  facet normal -0.9709418959937222 -0.23931534552576447 0
    outer loop
      vertex 29 -22.399999618530273 0
      vertex 28.885456085205078 -21.93527603149414 4
      vertex 28.885456085205078 -21.93527603149414 0
    endloop
  endfacet
  facet normal -0.9709418959937222 -0.23931534552576447 0
    outer loop
      vertex 28.885456085205078 -21.93527603149414 4
      vertex 29 -22.399999618530273 0
      vertex 29 -22.399999618530273 4
    endloop
  endfacet
  facet normal 0.5680661949071655 -0.82298286628805 0
    outer loop
      vertex 27.251487731933594 -21.73687744140625 0
      vertex 27.64539337158203 -21.464982986450195 4
      vertex 27.251487731933594 -21.73687744140625 4
    endloop
  endfacet
  facet normal 0.5680661949071655 -0.82298286628805 0
    outer loop
      vertex 27.64539337158203 -21.464982986450195 4
      vertex 27.251487731933594 -21.73687744140625 0
      vertex 27.64539337158203 -21.464982986450195 0
    endloop
  endfacet
  facet normal 0.1205340369894986 -0.9927091950450616 0
    outer loop
      vertex 27.64539337158203 -21.464982986450195 0
      vertex 28.12053680419922 -21.407291412353516 4
      vertex 27.64539337158203 -21.464982986450195 4
    endloop
  endfacet
  facet normal 0.1205340369894986 -0.9927091950450616 0
    outer loop
      vertex 28.12053680419922 -21.407291412353516 4
      vertex 27.64539337158203 -21.464982986450195 0
      vertex 28.12053680419922 -21.407291412353516 0
    endloop
  endfacet
  facet normal 0.8854551351245921 -0.464724868800337 0
    outer loop
      vertex 27.029056549072266 -22.160682678222656 4
      vertex 27.251487731933594 -21.73687744140625 0
      vertex 27.251487731933594 -21.73687744140625 4
    endloop
  endfacet
  facet normal 0.8854551351245921 -0.464724868800337 0
    outer loop
      vertex 27.251487731933594 -21.73687744140625 0
      vertex 27.029056549072266 -22.160682678222656 4
      vertex 27.029056549072266 -22.160682678222656 0
    endloop
  endfacet
  facet normal -0.35460161659040434 -0.9350174829977629 0
    outer loop
      vertex 28.12053680419922 -21.407291412353516 0
      vertex 28.568065643310547 -21.577014923095703 4
      vertex 28.12053680419922 -21.407291412353516 4
    endloop
  endfacet
  facet normal -0.35460161659040434 -0.9350174829977629 0
    outer loop
      vertex 28.568065643310547 -21.577014923095703 4
      vertex 28.12053680419922 -21.407291412353516 0
      vertex 28.568065643310547 -21.577014923095703 0
    endloop
  endfacet
  facet normal -0.1617808433455269 -0.9868267115995646 0
    outer loop
      vertex -24.575481414794922 -24.60337257385254 0
      vertex -24.084684371948242 -24.683834075927734 4
      vertex -24.575481414794922 -24.60337257385254 4
    endloop
  endfacet
  facet normal -0.1617808433455269 -0.9868267115995646 0
    outer loop
      vertex -24.084684371948242 -24.683834075927734 4
      vertex -24.575481414794922 -24.60337257385254 0
      vertex -24.084684371948242 -24.683834075927734 0
    endloop
  endfacet
  facet normal -0.7071070120204064 -0.7071065503526133 0
    outer loop
      vertex -17.3682861328125 -30.98975372314453 0
      vertex -23.211009979248047 -25.14702606201172 4
      vertex -23.211009979248047 -25.14702606201172 0
    endloop
  endfacet
  facet normal -0.7071070120204064 -0.7071065503526133 0
    outer loop
      vertex -23.211009979248047 -25.14702606201172 4
      vertex -17.3682861328125 -30.98975372314453 0
      vertex -17.3682861328125 -30.98975372314453 4
    endloop
  endfacet
  facet normal -0.3701386619235261 -0.9289765179752725 0
    outer loop
      vertex -24.084684371948242 -24.683834075927734 0
      vertex -23.62265968322754 -24.867921829223633 4
      vertex -24.084684371948242 -24.683834075927734 4
    endloop
  endfacet
  facet normal -0.3701386619235261 -0.9289765179752725 0
    outer loop
      vertex -23.62265968322754 -24.867921829223633 4
      vertex -24.084684371948242 -24.683834075927734 0
      vertex -23.62265968322754 -24.867921829223633 0
    endloop
  endfacet
  facet normal 0.6473865522576261 -0.7621618279315647 0
    outer loop
      vertex -26.369789123535156 -25.31829071044922 0
      vertex -25.99073028564453 -24.996315002441406 4
      vertex -26.369789123535156 -25.31829071044922 4
    endloop
  endfacet
  facet normal 0.6473865522576261 -0.7621618279315647 0
    outer loop
      vertex -25.99073028564453 -24.996315002441406 4
      vertex -26.369789123535156 -25.31829071044922 0
      vertex -25.99073028564453 -24.996315002441406 0
    endloop
  endfacet
  facet normal 0.9075759117412213 -0.41988803796618296 0
    outer loop
      vertex -26.879600524902344 -26.165605545043945 4
      vertex -26.6707706451416 -25.71422576904297 0
      vertex -26.6707706451416 -25.71422576904297 4
    endloop
  endfacet
  facet normal 0.9075759117412213 -0.41988803796618296 0
    outer loop
      vertex -26.6707706451416 -25.71422576904297 0
      vertex -26.879600524902344 -26.165605545043945 4
      vertex -26.879600524902344 -26.165605545043945 0
    endloop
  endfacet
  facet normal 0.7071067811865475 0.7071067811865475 0
    outer loop
      vertex -23.861743927001953 -30.98975372314453 4
      vertex -26.369789123535156 -28.481708526611328 0
      vertex -26.369789123535156 -28.481708526611328 4
    endloop
  endfacet
  facet normal 0.7071067811865475 0.7071067811865475 0
    outer loop
      vertex -26.369789123535156 -28.481708526611328 0
      vertex -23.861743927001953 -30.98975372314453 4
      vertex -23.861743927001953 -30.98975372314453 0
    endloop
  endfacet
  facet normal 0.7960935355081711 0.6051735971786115 0
    outer loop
      vertex -26.369789123535156 -28.481708526611328 4
      vertex -26.6707706451416 -28.085773468017578 0
      vertex -26.6707706451416 -28.085773468017578 4
    endloop
  endfacet
  facet normal 0.7960935355081711 0.6051735971786115 0
    outer loop
      vertex -26.6707706451416 -28.085773468017578 0
      vertex -26.369789123535156 -28.481708526611328 4
      vertex -26.369789123535156 -28.481708526611328 0
    endloop
  endfacet
  facet normal -0.5611854235955014 -0.8276901113000793 0
    outer loop
      vertex -23.62265968322754 -24.867921829223633 0
      vertex -23.211009979248047 -25.14702606201172 4
      vertex -23.62265968322754 -24.867921829223633 4
    endloop
  endfacet
  facet normal -0.5611854235955014 -0.8276901113000793 0
    outer loop
      vertex -23.211009979248047 -25.14702606201172 4
      vertex -23.62265968322754 -24.867921829223633 0
      vertex -23.211009979248047 -25.14702606201172 0
    endloop
  endfacet
  facet normal 0.4684077950131968 -0.8835123867670872 0
    outer loop
      vertex -25.99073028564453 -24.996315002441406 0
      vertex -25.55131721496582 -24.76335334777832 4
      vertex -25.99073028564453 -24.996315002441406 4
    endloop
  endfacet
  facet normal 0.4684077950131968 -0.8835123867670872 0
    outer loop
      vertex -25.55131721496582 -24.76335334777832 4
      vertex -25.99073028564453 -24.996315002441406 0
      vertex -25.55131721496582 -24.76335334777832 0
    endloop
  endfacet
  facet normal 0.9766199474014098 -0.21497320376658025 0
    outer loop
      vertex -26.98651695251465 -26.651325225830078 4
      vertex -26.879600524902344 -26.165605545043945 0
      vertex -26.879600524902344 -26.165605545043945 4
    endloop
  endfacet
  facet normal 0.9766199474014098 -0.21497320376658025 0
    outer loop
      vertex -26.879600524902344 -26.165605545043945 0
      vertex -26.98651695251465 -26.651325225830078 4
      vertex -26.98651695251465 -26.651325225830078 0
    endloop
  endfacet
  facet normal 0.7960935355081711 -0.6051735971786115 0
    outer loop
      vertex -26.6707706451416 -25.71422576904297 4
      vertex -26.369789123535156 -25.31829071044922 0
      vertex -26.369789123535156 -25.31829071044922 4
    endloop
  endfacet
  facet normal 0.7960935355081711 -0.6051735971786115 0
    outer loop
      vertex -26.369789123535156 -25.31829071044922 0
      vertex -26.6707706451416 -25.71422576904297 4
      vertex -26.6707706451416 -25.71422576904297 0
    endloop
  endfacet
  facet normal 0.054139477542931545 -0.9985333830029812 0
    outer loop
      vertex -25.072097778320312 -24.630298614501953 0
      vertex -24.575481414794922 -24.60337257385254 4
      vertex -25.072097778320312 -24.630298614501953 4
    endloop
  endfacet
  facet normal 0.054139477542931545 -0.9985333830029812 0
    outer loop
      vertex -24.575481414794922 -24.60337257385254 4
      vertex -25.072097778320312 -24.630298614501953 0
      vertex -24.575481414794922 -24.60337257385254 0
    endloop
  endfacet
  facet normal 0.26752854694523404 -0.9635499346527774 0
    outer loop
      vertex -25.55131721496582 -24.76335334777832 0
      vertex -25.072097778320312 -24.630298614501953 4
      vertex -25.55131721496582 -24.76335334777832 4
    endloop
  endfacet
  facet normal 0.26752854694523404 -0.9635499346527774 0
    outer loop
      vertex -25.072097778320312 -24.630298614501953 4
      vertex -25.55131721496582 -24.76335334777832 0
      vertex -25.072097778320312 -24.630298614501953 0
    endloop
  endfacet
  facet normal 0.9766197701698459 0.21497400892525884 0
    outer loop
      vertex -26.879600524902344 -27.63439178466797 4
      vertex -26.98651695251465 -27.14867401123047 0
      vertex -26.98651695251465 -27.14867401123047 4
    endloop
  endfacet
  facet normal 0.9766197701698459 0.21497400892525884 0
    outer loop
      vertex -26.98651695251465 -27.14867401123047 0
      vertex -26.879600524902344 -27.63439178466797 4
      vertex -26.879600524902344 -27.63439178466797 0
    endloop
  endfacet
  facet normal 1 0 0
    outer loop
      vertex -26.98651695251465 -27.14867401123047 4
      vertex -26.98651695251465 -26.651325225830078 0
      vertex -26.98651695251465 -26.651325225830078 4
    endloop
  endfacet
  facet normal 1 0 0
    outer loop
      vertex -26.98651695251465 -26.651325225830078 0
      vertex -26.98651695251465 -27.14867401123047 4
      vertex -26.98651695251465 -27.14867401123047 0
    endloop
  endfacet
  facet normal 0.9075765878797492 0.4198865765091234 0
    outer loop
      vertex -26.6707706451416 -28.085773468017578 4
      vertex -26.879600524902344 -27.63439178466797 0
      vertex -26.879600524902344 -27.63439178466797 4
    endloop
  endfacet
  facet normal 0.9075765878797492 0.4198865765091234 0
    outer loop
      vertex -26.879600524902344 -27.63439178466797 0
      vertex -26.6707706451416 -28.085773468017578 4
      vertex -26.6707706451416 -28.085773468017578 0
    endloop
  endfacet
  facet normal -0.6142113472305486 -0.7891415721739887 0
    outer loop
      vertex -30.031845092773438 -30.207172393798828 0
      vertex -29.640844345092773 -30.511499404907227 4
      vertex -30.031845092773438 -30.207172393798828 4
    endloop
  endfacet
  facet normal -0.6142113472305486 -0.7891415721739887 0
    outer loop
      vertex -29.640844345092773 -30.511499404907227 4
      vertex -30.031845092773438 -30.207172393798828 0
      vertex -29.640844345092773 -30.511499404907227 0
    endloop
  endfacet
  facet normal 0.91577206070236 0.40169831072205564 0
    outer loop
      vertex 30.837451934814453 28.974098205566406 4
      vertex 30.63842010498047 29.427841186523438 0
      vertex 30.63842010498047 29.427841186523438 4
    endloop
  endfacet
  facet normal 0.91577206070236 0.40169831072205564 0
    outer loop
      vertex 30.63842010498047 29.427841186523438 0
      vertex 30.837451934814453 28.974098205566406 4
      vertex 30.837451934814453 28.974098205566406 0
    endloop
  endfacet
  facet normal -0.47594443717696866 -0.8794753508315617 0
    outer loop
      vertex -29.640844345092773 -30.511499404907227 0
      vertex -29.20508575439453 -30.747318267822266 4
      vertex -29.640844345092773 -30.511499404907227 4
    endloop
  endfacet
  facet normal -0.47594443717696866 -0.8794753508315617 0
    outer loop
      vertex -29.20508575439453 -30.747318267822266 4
      vertex -29.640844345092773 -30.511499404907227 0
      vertex -29.20508575439453 -30.747318267822266 0
    endloop
  endfacet
  facet normal 1 0 0
    outer loop
      vertex 31 -28 4
      vertex 31 28 0
      vertex 31 28 4
    endloop
  endfacet
  facet normal 1 0 0
    outer loop
      vertex 31 28 0
      vertex 31 -28 4
      vertex 31 -28 0
    endloop
  endfacet
  facet normal 0.6142113472305486 -0.7891415721739887 0
    outer loop
      vertex 29.640844345092773 -30.511499404907227 0
      vertex 30.031845092773438 -30.207172393798828 4
      vertex 29.640844345092773 -30.511499404907227 4
    endloop
  endfacet
  facet normal 0.6142113472305486 -0.7891415721739887 0
    outer loop
      vertex 30.031845092773438 -30.207172393798828 4
      vertex 29.640844345092773 -30.511499404907227 0
      vertex 30.031845092773438 -30.207172393798828 0
    endloop
  endfacet
  facet normal -0.16459811899917595 -0.9863607145572725 0
    outer loop
      vertex -28.7364559173584 -30.908199310302734 0
      vertex -28.247737884521484 -30.98975372314453 4
      vertex -28.7364559173584 -30.908199310302734 4
    endloop
  endfacet
  facet normal -0.16459811899917595 -0.9863607145572725 0
    outer loop
      vertex -28.247737884521484 -30.98975372314453 4
      vertex -28.7364559173584 -30.908199310302734 0
      vertex -28.247737884521484 -30.98975372314453 0
    endloop
  endfacet
  facet normal 0.47594443717696866 0.8794753508315617 0
    outer loop
      vertex 29.640844345092773 30.511499404907227 0
      vertex 29.20508575439453 30.747318267822266 4
      vertex 29.640844345092773 30.511499404907227 4
    endloop
  endfacet
  facet normal 0.47594443717696866 0.8794753508315617 0
    outer loop
      vertex 29.20508575439453 30.747318267822266 4
      vertex 29.640844345092773 30.511499404907227 0
      vertex 29.20508575439453 30.747318267822266 0
    endloop
  endfacet
  facet normal 0.47594443717696866 -0.8794753508315617 0
    outer loop
      vertex 29.20508575439453 -30.747318267822266 0
      vertex 29.640844345092773 -30.511499404907227 4
      vertex 29.20508575439453 -30.747318267822266 4
    endloop
  endfacet
  facet normal 0.47594443717696866 -0.8794753508315617 0
    outer loop
      vertex 29.640844345092773 -30.511499404907227 4
      vertex 29.20508575439453 -30.747318267822266 0
      vertex 29.640844345092773 -30.511499404907227 0
    endloop
  endfacet
  facet normal 0.8371668345675297 0.5469476127566353 0
    outer loop
      vertex 30.63842010498047 29.427841186523438 4
      vertex 30.367420196533203 29.84263801574707 0
      vertex 30.367420196533203 29.84263801574707 4
    endloop
  endfacet
  facet normal 0.8371668345675297 0.5469476127566353 0
    outer loop
      vertex 30.367420196533203 29.84263801574707 0
      vertex 30.63842010498047 29.427841186523438 4
      vertex 30.63842010498047 29.427841186523438 0
    endloop
  endfacet
  facet normal -0.8371668345675297 -0.5469476127566353 0
    outer loop
      vertex -30.367420196533203 -29.84263801574707 0
      vertex -30.63842010498047 -29.427841186523438 4
      vertex -30.63842010498047 -29.427841186523438 0
    endloop
  endfacet
  facet normal -0.8371668345675297 -0.5469476127566353 0
    outer loop
      vertex -30.63842010498047 -29.427841186523438 4
      vertex -30.367420196533203 -29.84263801574707 0
      vertex -30.367420196533203 -29.84263801574707 4
    endloop
  endfacet
  facet normal 0 1 0
    outer loop
      vertex 28.247737884521484 30.98975372314453 0
      vertex -28.247737884521484 30.98975372314453 4
      vertex 28.247737884521484 30.98975372314453 4
    endloop
  endfacet
  facet normal 0 1 0
    outer loop
      vertex -28.247737884521484 30.98975372314453 4
      vertex 28.247737884521484 30.98975372314453 0
      vertex -28.247737884521484 30.98975372314453 0
    endloop
  endfacet
  facet normal 0 -1 0
    outer loop
      vertex -28.247737884521484 -30.98975372314453 0
      vertex -23.861743927001953 -30.98975372314453 4
      vertex -28.247737884521484 -30.98975372314453 4
    endloop
  endfacet
  facet normal 0 -1 0
    outer loop
      vertex -23.861743927001953 -30.98975372314453 4
      vertex -28.247737884521484 -30.98975372314453 0
      vertex -23.861743927001953 -30.98975372314453 0
    endloop
  endfacet
  facet normal 0 -1 0
    outer loop
      vertex 27.908180236816406 -30.98975372314453 0
      vertex 28.247737884521484 -30.98975372314453 4
      vertex 27.908180236816406 -30.98975372314453 4
    endloop
  endfacet
  facet normal 0 -1 0
    outer loop
      vertex 28.247737884521484 -30.98975372314453 4
      vertex 27.908180236816406 -30.98975372314453 0
      vertex 28.247737884521484 -30.98975372314453 0
    endloop
  endfacet
  facet normal 0 -1 0
    outer loop
      vertex -17.3682861328125 -30.98975372314453 0
      vertex 22.291818618774414 -30.98975372314453 4
      vertex -17.3682861328125 -30.98975372314453 4
    endloop
  endfacet
  facet normal 0 -1 0
    outer loop
      vertex 22.291818618774414 -30.98975372314453 4
      vertex -17.3682861328125 -30.98975372314453 0
      vertex 22.291818618774414 -30.98975372314453 0
    endloop
  endfacet
  facet normal 0.16459811899917595 -0.9863607145572725 0
    outer loop
      vertex 28.247737884521484 -30.98975372314453 0
      vertex 28.7364559173584 -30.908199310302734 4
      vertex 28.247737884521484 -30.98975372314453 4
    endloop
  endfacet
  facet normal 0.16459811899917595 -0.9863607145572725 0
    outer loop
      vertex 28.7364559173584 -30.908199310302734 4
      vertex 28.247737884521484 -30.98975372314453 0
      vertex 28.7364559173584 -30.908199310302734 0
    endloop
  endfacet
  facet normal -0.9965844105859497 -0.08258034013646959 0
    outer loop
      vertex -30.959083557128906 -28.49378204345703 0
      vertex -31 -28 4
      vertex -31 -28 0
    endloop
  endfacet
  facet normal -0.9965844105859497 -0.08258034013646959 0
    outer loop
      vertex -31 -28 4
      vertex -30.959083557128906 -28.49378204345703 0
      vertex -30.959083557128906 -28.49378204345703 4
    endloop
  endfacet
  facet normal 0.3246998595790803 -0.945817107684845 0
    outer loop
      vertex 28.7364559173584 -30.908199310302734 0
      vertex 29.20508575439453 -30.747318267822266 4
      vertex 28.7364559173584 -30.908199310302734 4
    endloop
  endfacet
  facet normal 0.3246998595790803 -0.945817107684845 0
    outer loop
      vertex 29.20508575439453 -30.747318267822266 4
      vertex 28.7364559173584 -30.908199310302734 0
      vertex 29.20508575439453 -30.747318267822266 0
    endloop
  endfacet
  facet normal 0.7357263558588992 -0.67727891543631 0
    outer loop
      vertex 30.031845092773438 -30.207172393798828 4
      vertex 30.367420196533203 -29.84263801574707 0
      vertex 30.367420196533203 -29.84263801574707 4
    endloop
  endfacet
  facet normal 0.7357263558588992 -0.67727891543631 0
    outer loop
      vertex 30.367420196533203 -29.84263801574707 0
      vertex 30.031845092773438 -30.207172393798828 4
      vertex 30.031845092773438 -30.207172393798828 0
    endloop
  endfacet
  facet normal -0.3246998595790803 0.945817107684845 0
    outer loop
      vertex -28.7364559173584 30.908199310302734 0
      vertex -29.20508575439453 30.747318267822266 4
      vertex -28.7364559173584 30.908199310302734 4
    endloop
  endfacet
  facet normal -0.3246998595790803 0.945817107684845 0
    outer loop
      vertex -29.20508575439453 30.747318267822266 4
      vertex -28.7364559173584 30.908199310302734 0
      vertex -29.20508575439453 30.747318267822266 0
    endloop
  endfacet
  facet normal -0.7357263558588992 -0.67727891543631 0
    outer loop
      vertex -30.031845092773438 -30.207172393798828 0
      vertex -30.367420196533203 -29.84263801574707 4
      vertex -30.367420196533203 -29.84263801574707 0
    endloop
  endfacet
  facet normal -0.7357263558588992 -0.67727891543631 0
    outer loop
      vertex -30.367420196533203 -29.84263801574707 4
      vertex -30.031845092773438 -30.207172393798828 0
      vertex -30.031845092773438 -30.207172393798828 4
    endloop
  endfacet
  facet normal 0.9965844105859497 0.08258034013646959 0
    outer loop
      vertex 31 28 4
      vertex 30.959083557128906 28.49378204345703 0
      vertex 30.959083557128906 28.49378204345703 4
    endloop
  endfacet
  facet normal 0.9965844105859497 0.08258034013646959 0
    outer loop
      vertex 30.959083557128906 28.49378204345703 0
      vertex 31 28 4
      vertex 31 28 0
    endloop
  endfacet
  facet normal -0.16459811899917595 0.9863607145572725 0
    outer loop
      vertex -28.247737884521484 30.98975372314453 0
      vertex -28.7364559173584 30.908199310302734 4
      vertex -28.247737884521484 30.98975372314453 4
    endloop
  endfacet
  facet normal -0.16459811899917595 0.9863607145572725 0
    outer loop
      vertex -28.7364559173584 30.908199310302734 4
      vertex -28.247737884521484 30.98975372314453 0
      vertex -28.7364559173584 30.908199310302734 0
    endloop
  endfacet
  facet normal -1 0 0
    outer loop
      vertex -31 -28 0
      vertex -31 28 4
      vertex -31 28 0
    endloop
  endfacet
  facet normal -1 0 0
    outer loop
      vertex -31 28 4
      vertex -31 -28 0
      vertex -31 -28 4
    endloop
  endfacet
  facet normal 0.7357263558588992 0.67727891543631 0
    outer loop
      vertex 30.367420196533203 29.84263801574707 4
      vertex 30.031845092773438 30.207172393798828 0
      vertex 30.031845092773438 30.207172393798828 4
    endloop
  endfacet
  facet normal 0.7357263558588992 0.67727891543631 0
    outer loop
      vertex 30.031845092773438 30.207172393798828 0
      vertex 30.367420196533203 29.84263801574707 4
      vertex 30.367420196533203 29.84263801574707 0
    endloop
  endfacet
  facet normal 0.3246998595790803 0.945817107684845 0
    outer loop
      vertex 29.20508575439453 30.747318267822266 0
      vertex 28.7364559173584 30.908199310302734 4
      vertex 29.20508575439453 30.747318267822266 4
    endloop
  endfacet
  facet normal 0.3246998595790803 0.945817107684845 0
    outer loop
      vertex 28.7364559173584 30.908199310302734 4
      vertex 29.20508575439453 30.747318267822266 0
      vertex 28.7364559173584 30.908199310302734 0
    endloop
  endfacet
  facet normal -0.47594443717696866 0.8794753508315617 0
    outer loop
      vertex -29.20508575439453 30.747318267822266 0
      vertex -29.640844345092773 30.511499404907227 4
      vertex -29.20508575439453 30.747318267822266 4
    endloop
  endfacet
  facet normal -0.47594443717696866 0.8794753508315617 0
    outer loop
      vertex -29.640844345092773 30.511499404907227 4
      vertex -29.20508575439453 30.747318267822266 0
      vertex -29.640844345092773 30.511499404907227 0
    endloop
  endfacet
  facet normal 0.91577206070236 -0.40169831072205564 0
    outer loop
      vertex 30.63842010498047 -29.427841186523438 4
      vertex 30.837451934814453 -28.974098205566406 0
      vertex 30.837451934814453 -28.974098205566406 4
    endloop
  endfacet
  facet normal 0.91577206070236 -0.40169831072205564 0
    outer loop
      vertex 30.837451934814453 -28.974098205566406 0
      vertex 30.63842010498047 -29.427841186523438 4
      vertex 30.63842010498047 -29.427841186523438 0
    endloop
  endfacet
  facet normal 0.8371668345675297 -0.5469476127566353 0
    outer loop
      vertex 30.367420196533203 -29.84263801574707 4
      vertex 30.63842010498047 -29.427841186523438 0
      vertex 30.63842010498047 -29.427841186523438 4
    endloop
  endfacet
  facet normal 0.8371668345675297 -0.5469476127566353 0
    outer loop
      vertex 30.63842010498047 -29.427841186523438 0
      vertex 30.367420196533203 -29.84263801574707 4
      vertex 30.367420196533203 -29.84263801574707 0
    endloop
  endfacet
  facet normal 0.9965844105859497 -0.08258034013646959 0
    outer loop
      vertex 30.959083557128906 -28.49378204345703 4
      vertex 31 -28 0
      vertex 31 -28 4
    endloop
  endfacet
  facet normal 0.9965844105859497 -0.08258034013646959 0
    outer loop
      vertex 31 -28 0
      vertex 30.959083557128906 -28.49378204345703 4
      vertex 30.959083557128906 -28.49378204345703 0
    endloop
  endfacet
  facet normal 0.6142113472305486 0.7891415721739887 0
    outer loop
      vertex 30.031845092773438 30.207172393798828 0
      vertex 29.640844345092773 30.511499404907227 4
      vertex 30.031845092773438 30.207172393798828 4
    endloop
  endfacet
  facet normal 0.6142113472305486 0.7891415721739887 0
    outer loop
      vertex 29.640844345092773 30.511499404907227 4
      vertex 30.031845092773438 30.207172393798828 0
      vertex 29.640844345092773 30.511499404907227 0
    endloop
  endfacet
  facet normal -0.9694007217631851 0.24548368712608137 0
    outer loop
      vertex -30.959083557128906 28.49378204345703 0
      vertex -30.837451934814453 28.974098205566406 4
      vertex -30.837451934814453 28.974098205566406 0
    endloop
  endfacet
  facet normal -0.9694007217631851 0.24548368712608137 0
    outer loop
      vertex -30.837451934814453 28.974098205566406 4
      vertex -30.959083557128906 28.49378204345703 0
      vertex -30.959083557128906 28.49378204345703 4
    endloop
  endfacet
  facet normal 0.9694007217631851 0.24548368712608137 0
    outer loop
      vertex 30.959083557128906 28.49378204345703 4
      vertex 30.837451934814453 28.974098205566406 0
      vertex 30.837451934814453 28.974098205566406 4
    endloop
  endfacet
  facet normal 0.9694007217631851 0.24548368712608137 0
    outer loop
      vertex 30.837451934814453 28.974098205566406 0
      vertex 30.959083557128906 28.49378204345703 4
      vertex 30.959083557128906 28.49378204345703 0
    endloop
  endfacet
  facet normal 0.16459811899917595 0.9863607145572725 0
    outer loop
      vertex 28.7364559173584 30.908199310302734 0
      vertex 28.247737884521484 30.98975372314453 4
      vertex 28.7364559173584 30.908199310302734 4
    endloop
  endfacet
  facet normal 0.16459811899917595 0.9863607145572725 0
    outer loop
      vertex 28.247737884521484 30.98975372314453 4
      vertex 28.7364559173584 30.908199310302734 0
      vertex 28.247737884521484 30.98975372314453 0
    endloop
  endfacet
  facet normal -0.3246998595790803 -0.945817107684845 0
    outer loop
      vertex -29.20508575439453 -30.747318267822266 0
      vertex -28.7364559173584 -30.908199310302734 4
      vertex -29.20508575439453 -30.747318267822266 4
    endloop
  endfacet
  facet normal -0.3246998595790803 -0.945817107684845 0
    outer loop
      vertex -28.7364559173584 -30.908199310302734 4
      vertex -29.20508575439453 -30.747318267822266 0
      vertex -28.7364559173584 -30.908199310302734 0
    endloop
  endfacet
  facet normal 0.9694007217631851 -0.24548368712608137 0
    outer loop
      vertex 30.837451934814453 -28.974098205566406 4
      vertex 30.959083557128906 -28.49378204345703 0
      vertex 30.959083557128906 -28.49378204345703 4
    endloop
  endfacet
  facet normal 0.9694007217631851 -0.24548368712608137 0
    outer loop
      vertex 30.959083557128906 -28.49378204345703 0
      vertex 30.837451934814453 -28.974098205566406 4
      vertex 30.837451934814453 -28.974098205566406 0
    endloop
  endfacet
  facet normal 0 0 1
    outer loop
      vertex 28.247737884521484 30.98975372314453 4
      vertex 31 28 4
      vertex 30.959083557128906 28.49378204345703 4
    endloop
  endfacet
  facet normal 0 0 1
    outer loop
      vertex 31 28 4
      vertex 28.885456085205078 -21.93527603149414 4
      vertex 31 -28 4
    endloop
  endfacet
  facet normal 0 0 1
    outer loop
      vertex 28.247737884521484 30.98975372314453 4
      vertex 30.959083557128906 28.49378204345703 4
      vertex 30.837451934814453 28.974098205566406 4
    endloop
  endfacet
  facet normal 0 0 1
    outer loop
      vertex 29 -22.399999618530273 4
      vertex 31 -28 4
      vertex 28.885456085205078 -21.93527603149414 4
    endloop
  endfacet
  facet normal 0 0 1
    outer loop
      vertex 28.247737884521484 30.98975372314453 4
      vertex 30.837451934814453 28.974098205566406 4
      vertex 30.63842010498047 29.427841186523438 4
    endloop
  endfacet
  facet normal 0 0 1
    outer loop
      vertex 28.959854125976562 -27.397274017333984 4
      vertex 31 -28 4
      vertex 29 -27.200000762939453 4
    endloop
  endfacet
  facet normal 0 0 1
    outer loop
      vertex 28.247737884521484 30.98975372314453 4
      vertex 30.63842010498047 29.427841186523438 4
      vertex 30.367420196533203 29.84263801574707 4
    endloop
  endfacet
  facet normal 0 0 1
    outer loop
      vertex 28.84046173095703 -27.881669998168945 4
      vertex 31 -28 4
      vertex 28.959854125976562 -27.397274017333984 4
    endloop
  endfacet
  facet normal 0 0 1
    outer loop
      vertex 28.247737884521484 30.98975372314453 4
      vertex 30.367420196533203 29.84263801574707 4
      vertex 30.031845092773438 30.207172393798828 4
    endloop
  endfacet
  facet normal 0 0 1
    outer loop
      vertex 31 -28 4
      vertex 28.84046173095703 -27.881669998168945 4
      vertex 30.959083557128906 -28.49378204345703 4
    endloop
  endfacet
  facet normal 0 0 1
    outer loop
      vertex 28.247737884521484 30.98975372314453 4
      vertex 30.031845092773438 30.207172393798828 4
      vertex 29.640844345092773 30.511499404907227 4
    endloop
  endfacet
  facet normal 0 0 1
    outer loop
      vertex 30.959083557128906 -28.49378204345703 4
      vertex 28.84046173095703 -27.881669998168945 4
      vertex 30.837451934814453 -28.974098205566406 4
    endloop
  endfacet
  facet normal 0 0 1
    outer loop
      vertex 28.247737884521484 30.98975372314453 4
      vertex 29.640844345092773 30.511499404907227 4
      vertex 29.20508575439453 30.747318267822266 4
    endloop
  endfacet
  facet normal 0 0 1
    outer loop
      vertex 28.644912719726562 -28.340641021728516 4
      vertex 30.837451934814453 -28.974098205566406 4
      vertex 28.84046173095703 -27.881669998168945 4
    endloop
  endfacet
  facet normal 0 0 1
    outer loop
      vertex 30.837451934814453 -28.974098205566406 4
      vertex 28.644912719726562 -28.340641021728516 4
      vertex 30.63842010498047 -29.427841186523438 4
    endloop
  endfacet
  facet normal 0 0 1
    outer loop
      vertex 29 -27.200000762939453 4
      vertex 31 -28 4
      vertex 29 -22.399999618530273 4
    endloop
  endfacet
  facet normal 0 0 1
    outer loop
      vertex 28.247737884521484 30.98975372314453 4
      vertex 29.20508575439453 30.747318267822266 4
      vertex 28.7364559173584 30.908199310302734 4
    endloop
  endfacet
  facet normal 0 0 1
    outer loop
      vertex 31 28 4
      vertex 28.568065643310547 -21.577014923095703 4
      vertex 28.885456085205078 -21.93527603149414 4
    endloop
  endfacet
  facet normal 0 0 1
    outer loop
      vertex 31 28 4
      vertex 28.247737884521484 30.98975372314453 4
      vertex 27.251487731933594 -21.73687744140625 4
    endloop
  endfacet
  facet normal 0 0 1
    outer loop
      vertex 31 28 4
      vertex 28.12053680419922 -21.407291412353516 4
      vertex 28.568065643310547 -21.577014923095703 4
    endloop
  endfacet
  facet normal 0 0 1
    outer loop
      vertex 31 28 4
      vertex 27.64539337158203 -21.464982986450195 4
      vertex 28.12053680419922 -21.407291412353516 4
    endloop
  endfacet
  facet normal 0 0 1
    outer loop
      vertex 31 28 4
      vertex 27.251487731933594 -21.73687744140625 4
      vertex 27.64539337158203 -21.464982986450195 4
    endloop
  endfacet
  facet normal 0 0 1
    outer loop
      vertex 23.93941879272461 -24.49872398376465 4
      vertex 27.251487731933594 -21.73687744140625 4
      vertex 28.247737884521484 30.98975372314453 4
    endloop
  endfacet
  facet normal 0 0 1
    outer loop
      vertex 27.029056549072266 -22.160682678222656 4
      vertex 26.762474060058594 -23.922393798828125 4
      vertex 27.029056549072266 -24.023494720458984 4
    endloop
  endfacet
  facet normal 0 0 1
    outer loop
      vertex 24.800724029541016 -24.001449584960938 4
      vertex 27.251487731933594 -21.73687744140625 4
      vertex 24.349998474121094 -24.215320587158203 4
    endloop
  endfacet
  facet normal 0 0 1
    outer loop
      vertex 27.029056549072266 -22.160682678222656 4
      vertex 26.273662567138672 -23.822601318359375 4
      vertex 26.762474060058594 -23.922393798828125 4
    endloop
  endfacet
  facet normal 0 0 1
    outer loop
      vertex 27.029056549072266 -22.160682678222656 4
      vertex 25.775175094604492 -23.802513122558594 4
      vertex 26.273662567138672 -23.822601318359375 4
    endloop
  endfacet
  facet normal 0 0 1
    outer loop
      vertex 27.029056549072266 -22.160682678222656 4
      vertex 25.279918670654297 -23.862648010253906 4
      vertex 25.775175094604492 -23.802513122558594 4
    endloop
  endfacet
  facet normal 0 0 1
    outer loop
      vertex 27.029056549072266 -22.160682678222656 4
      vertex 24.800724029541016 -24.001449584960938 4
      vertex 25.279918670654297 -23.862648010253906 4
    endloop
  endfacet
  facet normal 0 0 1
    outer loop
      vertex 27.251487731933594 -21.73687744140625 4
      vertex 24.800724029541016 -24.001449584960938 4
      vertex 27.029056549072266 -22.160682678222656 4
    endloop
  endfacet
  facet normal 0 0 1
    outer loop
      vertex 27.251487731933594 -21.73687744140625 4
      vertex 23.93941879272461 -24.49872398376465 4
      vertex 24.349998474121094 -24.215320587158203 4
    endloop
  endfacet
  facet normal 0 0 1
    outer loop
      vertex -23.211009979248047 -25.14702606201172 4
      vertex 23.93941879272461 -24.49872398376465 4
      vertex 28.247737884521484 30.98975372314453 4
    endloop
  endfacet
  facet normal 0 0 1
    outer loop
      vertex 23.93941879272461 -24.49872398376465 4
      vertex -23.211009979248047 -25.14702606201172 4
      vertex 23.57961654663086 -24.844318389892578 4
    endloop
  endfacet
  facet normal 0 0 1
    outer loop
      vertex 23.57961654663086 -24.844318389892578 4
      vertex -23.211009979248047 -25.14702606201172 4
      vertex 23.279911041259766 -25.24315643310547 4
    endloop
  endfacet
  facet normal 0 0 1
    outer loop
      vertex -17.3682861328125 -30.98975372314453 4
      vertex 23.279911041259766 -25.24315643310547 4
      vertex -23.211009979248047 -25.14702606201172 4
    endloop
  endfacet
  facet normal 0 0 1
    outer loop
      vertex 23.279911041259766 -25.24315643310547 4
      vertex -17.3682861328125 -30.98975372314453 4
      vertex 23.048063278198242 -25.68490219116211 4
    endloop
  endfacet
  facet normal 0 0 1
    outer loop
      vertex 22.81005096435547 -26.65055274963379 4
      vertex 22.799999237060547 -26.899999618530273 4
      vertex 22.81005096435547 -26.899999618530273 4
    endloop
  endfacet
  facet normal 0 0 1
    outer loop
      vertex 22.799999237060547 -26.899999618530273 4
      vertex 22.291818618774414 -30.98975372314453 4
      vertex 22.799999237060547 -30.481571197509766 4
    endloop
  endfacet
  facet normal 0 0 1
    outer loop
      vertex -17.3682861328125 -30.98975372314453 4
      vertex 22.799999237060547 -26.899999618530273 4
      vertex 22.81005096435547 -26.65055274963379 4
    endloop
  endfacet
  facet normal 0 0 1
    outer loop
      vertex 23.048063278198242 -25.68490219116211 4
      vertex -17.3682861328125 -30.98975372314453 4
      vertex 22.890079498291016 -26.15812110900879 4
    endloop
  endfacet
  facet normal 0 0 1
    outer loop
      vertex 22.890079498291016 -26.15812110900879 4
      vertex -17.3682861328125 -30.98975372314453 4
      vertex 22.81005096435547 -26.65055274963379 4
    endloop
  endfacet
  facet normal 0 0 1
    outer loop
      vertex 22.799999237060547 -26.899999618530273 4
      vertex -17.3682861328125 -30.98975372314453 4
      vertex 22.291818618774414 -30.98975372314453 4
    endloop
  endfacet
  facet normal 0 0 1
    outer loop
      vertex -28.247737884521484 30.98975372314453 4
      vertex -23.211009979248047 -25.14702606201172 4
      vertex 28.247737884521484 30.98975372314453 4
    endloop
  endfacet
  facet normal 0 0 1
    outer loop
      vertex -23.211009979248047 -25.14702606201172 4
      vertex -28.247737884521484 30.98975372314453 4
      vertex -23.62265968322754 -24.867921829223633 4
    endloop
  endfacet
  facet normal 0 0 1
    outer loop
      vertex -31 28 4
      vertex -23.62265968322754 -24.867921829223633 4
      vertex -28.247737884521484 30.98975372314453 4
    endloop
  endfacet
  facet normal 0 0 1
    outer loop
      vertex -23.62265968322754 -24.867921829223633 4
      vertex -31 28 4
      vertex -24.084684371948242 -24.683834075927734 4
    endloop
  endfacet
  facet normal 0 0 1
    outer loop
      vertex -24.084684371948242 -24.683834075927734 4
      vertex -31 28 4
      vertex -24.575481414794922 -24.60337257385254 4
    endloop
  endfacet
  facet normal 0 0 1
    outer loop
      vertex -24.575481414794922 -24.60337257385254 4
      vertex -31 28 4
      vertex -25.072097778320312 -24.630298614501953 4
    endloop
  endfacet
  facet normal 0 0 1
    outer loop
      vertex -25.072097778320312 -24.630298614501953 4
      vertex -31 28 4
      vertex -25.55131721496582 -24.76335334777832 4
    endloop
  endfacet
  facet normal 0 0 1
    outer loop
      vertex -26.6707706451416 -25.71422576904297 4
      vertex -31 -28 4
      vertex -26.879600524902344 -26.165605545043945 4
    endloop
  endfacet
  facet normal 0 0 1
    outer loop
      vertex -26.369789123535156 -25.31829071044922 4
      vertex -31 -28 4
      vertex -26.6707706451416 -25.71422576904297 4
    endloop
  endfacet
  facet normal 0 0 1
    outer loop
      vertex -25.99073028564453 -24.996315002441406 4
      vertex -31 -28 4
      vertex -26.369789123535156 -25.31829071044922 4
    endloop
  endfacet
  facet normal 0 0 1
    outer loop
      vertex -31 -28 4
      vertex -25.99073028564453 -24.996315002441406 4
      vertex -31 28 4
    endloop
  endfacet
  facet normal 0 0 1
    outer loop
      vertex -25.55131721496582 -24.76335334777832 4
      vertex -31 28 4
      vertex -25.99073028564453 -24.996315002441406 4
    endloop
  endfacet
  facet normal 0 0 1
    outer loop
      vertex 30.63842010498047 -29.427841186523438 4
      vertex 28.644912719726562 -28.340641021728516 4
      vertex 30.367420196533203 -29.84263801574707 4
    endloop
  endfacet
  facet normal 0 0 1
    outer loop
      vertex 28.959854125976562 -27.397274017333984 4
      vertex 29 -27.200000762939453 4
      vertex 28.963985443115234 -27.34611701965332 4
    endloop
  endfacet
  facet normal 0 0 1
    outer loop
      vertex 28.378273010253906 -28.762300491333008 4
      vertex 30.367420196533203 -29.84263801574707 4
      vertex 28.644912719726562 -28.340641021728516 4
    endloop
  endfacet
  facet normal 0 0 1
    outer loop
      vertex 30.367420196533203 -29.84263801574707 4
      vertex 28.378273010253906 -28.762300491333008 4
      vertex 30.031845092773438 -30.207172393798828 4
    endloop
  endfacet
  facet normal 0 0 1
    outer loop
      vertex 30.031845092773438 -30.207172393798828 4
      vertex 28.378273010253906 -28.762300491333008 4
      vertex 29.640844345092773 -30.511499404907227 4
    endloop
  endfacet
  facet normal 0 0 1
    outer loop
      vertex 28.04744529724121 -29.135726928710938 4
      vertex 29.640844345092773 -30.511499404907227 4
      vertex 28.378273010253906 -28.762300491333008 4
    endloop
  endfacet
  facet normal 0 0 1
    outer loop
      vertex 29.640844345092773 -30.511499404907227 4
      vertex 28.04744529724121 -29.135726928710938 4
      vertex 29.20508575439453 -30.747318267822266 4
    endloop
  endfacet
  facet normal 0 0 1
    outer loop
      vertex 29.20508575439453 -30.747318267822266 4
      vertex 28.04744529724121 -29.135726928710938 4
      vertex 28.7364559173584 -30.908199310302734 4
    endloop
  endfacet
  facet normal 0 0 1
    outer loop
      vertex 27.660999298095703 -29.451248168945312 4
      vertex 28.7364559173584 -30.908199310302734 4
      vertex 28.04744529724121 -29.135726928710938 4
    endloop
  endfacet
  facet normal 0 0 1
    outer loop
      vertex 28.7364559173584 -30.908199310302734 4
      vertex 27.660999298095703 -29.451248168945312 4
      vertex 28.247737884521484 -30.98975372314453 4
    endloop
  endfacet
  facet normal 0 0 1
    outer loop
      vertex 27.399999618530273 -30.481571197509766 4
      vertex 28.247737884521484 -30.98975372314453 4
      vertex 27.660999298095703 -29.451248168945312 4
    endloop
  endfacet
  facet normal 0 0 1
    outer loop
      vertex 27.399999618530273 -30.481571197509766 4
      vertex 27.660999298095703 -29.451248168945312 4
      vertex 27.399999618530273 -29.601938247680664 4
    endloop
  endfacet
  facet normal 0 0 1
    outer loop
      vertex 28.247737884521484 -30.98975372314453 4
      vertex 27.399999618530273 -30.481571197509766 4
      vertex 27.908180236816406 -30.98975372314453 4
    endloop
  endfacet
  facet normal 0 0 1
    outer loop
      vertex -26.369789123535156 -28.481708526611328 4
      vertex -28.247737884521484 -30.98975372314453 4
      vertex -23.861743927001953 -30.98975372314453 4
    endloop
  endfacet
  facet normal 0 0 1
    outer loop
      vertex -26.6707706451416 -28.085773468017578 4
      vertex -28.247737884521484 -30.98975372314453 4
      vertex -26.369789123535156 -28.481708526611328 4
    endloop
  endfacet
  facet normal 0 0 1
    outer loop
      vertex -30.031845092773438 -30.207172393798828 4
      vertex -26.6707706451416 -28.085773468017578 4
      vertex -26.879600524902344 -27.63439178466797 4
    endloop
  endfacet
  facet normal 0 0 1
    outer loop
      vertex -31 -28 4
      vertex -26.879600524902344 -27.63439178466797 4
      vertex -26.98651695251465 -27.14867401123047 4
    endloop
  endfacet
  facet normal 0 0 1
    outer loop
      vertex -26.879600524902344 -26.165605545043945 4
      vertex -31 -28 4
      vertex -26.98651695251465 -26.651325225830078 4
    endloop
  endfacet
  facet normal 0 0 1
    outer loop
      vertex -31 28 4
      vertex -28.247737884521484 30.98975372314453 4
      vertex -28.7364559173584 30.908199310302734 4
    endloop
  endfacet
  facet normal 0 0 1
    outer loop
      vertex -26.98651695251465 -26.651325225830078 4
      vertex -31 -28 4
      vertex -26.98651695251465 -27.14867401123047 4
    endloop
  endfacet
  facet normal 0 0 1
    outer loop
      vertex -31 28 4
      vertex -28.7364559173584 30.908199310302734 4
      vertex -29.20508575439453 30.747318267822266 4
    endloop
  endfacet
  facet normal 0 0 1
    outer loop
      vertex -26.879600524902344 -27.63439178466797 4
      vertex -31 -28 4
      vertex -30.959083557128906 -28.49378204345703 4
    endloop
  endfacet
  facet normal 0 0 1
    outer loop
      vertex -31 28 4
      vertex -29.20508575439453 30.747318267822266 4
      vertex -29.640844345092773 30.511499404907227 4
    endloop
  endfacet
  facet normal 0 0 1
    outer loop
      vertex -26.6707706451416 -28.085773468017578 4
      vertex -28.7364559173584 -30.908199310302734 4
      vertex -28.247737884521484 -30.98975372314453 4
    endloop
  endfacet
  facet normal 0 0 1
    outer loop
      vertex -31 28 4
      vertex -29.640844345092773 30.511499404907227 4
      vertex -30.031845092773438 30.207172393798828 4
    endloop
  endfacet
  facet normal 0 0 1
    outer loop
      vertex -26.6707706451416 -28.085773468017578 4
      vertex -29.20508575439453 -30.747318267822266 4
      vertex -28.7364559173584 -30.908199310302734 4
    endloop
  endfacet
  facet normal 0 0 1
    outer loop
      vertex -31 28 4
      vertex -30.031845092773438 30.207172393798828 4
      vertex -30.367420196533203 29.84263801574707 4
    endloop
  endfacet
  facet normal 0 0 1
    outer loop
      vertex -26.6707706451416 -28.085773468017578 4
      vertex -29.640844345092773 -30.511499404907227 4
      vertex -29.20508575439453 -30.747318267822266 4
    endloop
  endfacet
  facet normal 0 0 1
    outer loop
      vertex -31 28 4
      vertex -30.367420196533203 29.84263801574707 4
      vertex -30.63842010498047 29.427841186523438 4
    endloop
  endfacet
  facet normal 0 0 1
    outer loop
      vertex -26.6707706451416 -28.085773468017578 4
      vertex -30.031845092773438 -30.207172393798828 4
      vertex -29.640844345092773 -30.511499404907227 4
    endloop
  endfacet
  facet normal 0 0 1
    outer loop
      vertex -31 28 4
      vertex -30.63842010498047 29.427841186523438 4
      vertex -30.837451934814453 28.974098205566406 4
    endloop
  endfacet
  facet normal 0 0 1
    outer loop
      vertex -26.879600524902344 -27.63439178466797 4
      vertex -30.367420196533203 -29.84263801574707 4
      vertex -30.031845092773438 -30.207172393798828 4
    endloop
  endfacet
  facet normal 0 0 1
    outer loop
      vertex -31 28 4
      vertex -30.837451934814453 28.974098205566406 4
      vertex -30.959083557128906 28.49378204345703 4
    endloop
  endfacet
  facet normal 0 0 1
    outer loop
      vertex -26.879600524902344 -27.63439178466797 4
      vertex -30.63842010498047 -29.427841186523438 4
      vertex -30.367420196533203 -29.84263801574707 4
    endloop
  endfacet
  facet normal 0 0 1
    outer loop
      vertex -26.879600524902344 -27.63439178466797 4
      vertex -30.837451934814453 -28.974098205566406 4
      vertex -30.63842010498047 -29.427841186523438 4
    endloop
  endfacet
  facet normal 0 0 1
    outer loop
      vertex -26.879600524902344 -27.63439178466797 4
      vertex -30.959083557128906 -28.49378204345703 4
      vertex -30.837451934814453 -28.974098205566406 4
    endloop
  endfacet
  facet normal -0.7357263558588992 0.67727891543631 0
    outer loop
      vertex -30.367420196533203 29.84263801574707 0
      vertex -30.031845092773438 30.207172393798828 4
      vertex -30.031845092773438 30.207172393798828 0
    endloop
  endfacet
  facet normal -0.7357263558588992 0.67727891543631 0
    outer loop
      vertex -30.031845092773438 30.207172393798828 4
      vertex -30.367420196533203 29.84263801574707 0
      vertex -30.367420196533203 29.84263801574707 4
    endloop
  endfacet
  facet normal -0.6142113472305486 0.7891415721739887 0
    outer loop
      vertex -29.640844345092773 30.511499404907227 0
      vertex -30.031845092773438 30.207172393798828 4
      vertex -29.640844345092773 30.511499404907227 4
    endloop
  endfacet
  facet normal -0.6142113472305486 0.7891415721739887 0
    outer loop
      vertex -30.031845092773438 30.207172393798828 4
      vertex -29.640844345092773 30.511499404907227 0
      vertex -30.031845092773438 30.207172393798828 0
    endloop
  endfacet
  facet normal -0.9965844105859497 0.08258034013646959 0
    outer loop
      vertex -31 28 0
      vertex -30.959083557128906 28.49378204345703 4
      vertex -30.959083557128906 28.49378204345703 0
    endloop
  endfacet
  facet normal -0.9965844105859497 0.08258034013646959 0
    outer loop
      vertex -30.959083557128906 28.49378204345703 4
      vertex -31 28 0
      vertex -31 28 4
    endloop
  endfacet
  facet normal -0.91577206070236 -0.40169831072205564 0
    outer loop
      vertex -30.63842010498047 -29.427841186523438 0
      vertex -30.837451934814453 -28.974098205566406 4
      vertex -30.837451934814453 -28.974098205566406 0
    endloop
  endfacet
  facet normal -0.91577206070236 -0.40169831072205564 0
    outer loop
      vertex -30.837451934814453 -28.974098205566406 4
      vertex -30.63842010498047 -29.427841186523438 0
      vertex -30.63842010498047 -29.427841186523438 4
    endloop
  endfacet
  facet normal -0.8371668345675297 0.5469476127566353 0
    outer loop
      vertex -30.63842010498047 29.427841186523438 0
      vertex -30.367420196533203 29.84263801574707 4
      vertex -30.367420196533203 29.84263801574707 0
    endloop
  endfacet
  facet normal -0.8371668345675297 0.5469476127566353 0
    outer loop
      vertex -30.367420196533203 29.84263801574707 4
      vertex -30.63842010498047 29.427841186523438 0
      vertex -30.63842010498047 29.427841186523438 4
    endloop
  endfacet
  facet normal -0.9694007217631851 -0.24548368712608137 0
    outer loop
      vertex -30.837451934814453 -28.974098205566406 0
      vertex -30.959083557128906 -28.49378204345703 4
      vertex -30.959083557128906 -28.49378204345703 0
    endloop
  endfacet
  facet normal -0.9694007217631851 -0.24548368712608137 0
    outer loop
      vertex -30.959083557128906 -28.49378204345703 4
      vertex -30.837451934814453 -28.974098205566406 0
      vertex -30.837451934814453 -28.974098205566406 4
    endloop
  endfacet
  facet normal -0.91577206070236 0.40169831072205564 0
    outer loop
      vertex -30.837451934814453 28.974098205566406 0
      vertex -30.63842010498047 29.427841186523438 4
      vertex -30.63842010498047 29.427841186523438 0
    endloop
  endfacet
  facet normal -0.91577206070236 0.40169831072205564 0
    outer loop
      vertex -30.63842010498047 29.427841186523438 4
      vertex -30.837451934814453 28.974098205566406 0
      vertex -30.837451934814453 28.974098205566406 4
    endloop
  endfacet
  facet normal 0 0 -1
    outer loop
      vertex -29.640844345092773 -30.511499404907227 0
      vertex -26.6707706451416 -28.085773468017578 0
      vertex -29.20508575439453 -30.747318267822266 0
    endloop
  endfacet
  facet normal 0 0 -1
    outer loop
      vertex -29.20508575439453 -30.747318267822266 0
      vertex -26.6707706451416 -28.085773468017578 0
      vertex -28.7364559173584 -30.908199310302734 0
    endloop
  endfacet
  facet normal 0 0 -1
    outer loop
      vertex -28.7364559173584 -30.908199310302734 0
      vertex -26.6707706451416 -28.085773468017578 0
      vertex -28.247737884521484 -30.98975372314453 0
    endloop
  endfacet
  facet normal 0 0 -1
    outer loop
      vertex -26.369789123535156 -28.481708526611328 0
      vertex -28.247737884521484 -30.98975372314453 0
      vertex -26.6707706451416 -28.085773468017578 0
    endloop
  endfacet
  facet normal 0 0 -1
    outer loop
      vertex -28.247737884521484 -30.98975372314453 0
      vertex -26.369789123535156 -28.481708526611328 0
      vertex -23.861743927001953 -30.98975372314453 0
    endloop
  endfacet
  facet normal 0 0 -1
    outer loop
      vertex 22.799999237060547 -30.481571197509766 0
      vertex 22.291818618774414 -30.98975372314453 0
      vertex 22.799999237060547 -26.899999618530273 0
    endloop
  endfacet
  facet normal 0 0 -1
    outer loop
      vertex 22.81005096435547 -26.899999618530273 0
      vertex 22.799999237060547 -26.899999618530273 0
      vertex 22.81005096435547 -26.65055274963379 0
    endloop
  endfacet
  facet normal 0 0 -1
    outer loop
      vertex 27.029056549072266 -24.023494720458984 0
      vertex 26.762474060058594 -23.922393798828125 0
      vertex 27.029056549072266 -22.160682678222656 0
    endloop
  endfacet
  facet normal 0 0 -1
    outer loop
      vertex 28.84046173095703 -27.881669998168945 0
      vertex 31 -28 0
      vertex 30.959083557128906 -28.49378204345703 0
    endloop
  endfacet
  facet normal 0 0 -1
    outer loop
      vertex 31 -28 0
      vertex 28.885456085205078 -21.93527603149414 0
      vertex 31 28 0
    endloop
  endfacet
  facet normal 0 0 -1
    outer loop
      vertex 28.84046173095703 -27.881669998168945 0
      vertex 30.959083557128906 -28.49378204345703 0
      vertex 30.837451934814453 -28.974098205566406 0
    endloop
  endfacet
  facet normal 0 0 -1
    outer loop
      vertex 31 -28 0
      vertex 29 -22.399999618530273 0
      vertex 28.885456085205078 -21.93527603149414 0
    endloop
  endfacet
  facet normal 0 0 -1
    outer loop
      vertex 28.644912719726562 -28.340641021728516 0
      vertex 30.837451934814453 -28.974098205566406 0
      vertex 30.63842010498047 -29.427841186523438 0
    endloop
  endfacet
  facet normal 0 0 -1
    outer loop
      vertex 28.568065643310547 -21.577014923095703 0
      vertex 31 28 0
      vertex 28.885456085205078 -21.93527603149414 0
    endloop
  endfacet
  facet normal 0 0 -1
    outer loop
      vertex 28.644912719726562 -28.340641021728516 0
      vertex 30.63842010498047 -29.427841186523438 0
      vertex 30.367420196533203 -29.84263801574707 0
    endloop
  endfacet
  facet normal 0 0 -1
    outer loop
      vertex 28.12053680419922 -21.407291412353516 0
      vertex 31 28 0
      vertex 28.568065643310547 -21.577014923095703 0
    endloop
  endfacet
  facet normal 0 0 -1
    outer loop
      vertex 28.378273010253906 -28.762300491333008 0
      vertex 30.367420196533203 -29.84263801574707 0
      vertex 30.031845092773438 -30.207172393798828 0
    endloop
  endfacet
  facet normal 0 0 -1
    outer loop
      vertex 27.64539337158203 -21.464982986450195 0
      vertex 31 28 0
      vertex 28.12053680419922 -21.407291412353516 0
    endloop
  endfacet
  facet normal 0 0 -1
    outer loop
      vertex 28.378273010253906 -28.762300491333008 0
      vertex 30.031845092773438 -30.207172393798828 0
      vertex 29.640844345092773 -30.511499404907227 0
    endloop
  endfacet
  facet normal 0 0 -1
    outer loop
      vertex 27.251487731933594 -21.73687744140625 0
      vertex 31 28 0
      vertex 27.64539337158203 -21.464982986450195 0
    endloop
  endfacet
  facet normal 0 0 -1
    outer loop
      vertex 28.04744529724121 -29.135726928710938 0
      vertex 29.640844345092773 -30.511499404907227 0
      vertex 29.20508575439453 -30.747318267822266 0
    endloop
  endfacet
  facet normal 0 0 -1
    outer loop
      vertex 28.247737884521484 30.98975372314453 0
      vertex 31 28 0
      vertex 27.251487731933594 -21.73687744140625 0
    endloop
  endfacet
  facet normal 0 0 -1
    outer loop
      vertex 31 -28 0
      vertex 29 -27.200000762939453 0
      vertex 29 -22.399999618530273 0
    endloop
  endfacet
  facet normal 0 0 -1
    outer loop
      vertex 31 -28 0
      vertex 28.959854125976562 -27.397274017333984 0
      vertex 29 -27.200000762939453 0
    endloop
  endfacet
  facet normal 0 0 -1
    outer loop
      vertex 29 -27.200000762939453 0
      vertex 28.959854125976562 -27.397274017333984 0
      vertex 28.963985443115234 -27.34611701965332 0
    endloop
  endfacet
  facet normal 0 0 -1
    outer loop
      vertex 31 -28 0
      vertex 28.84046173095703 -27.881669998168945 0
      vertex 28.959854125976562 -27.397274017333984 0
    endloop
  endfacet
  facet normal 0 0 -1
    outer loop
      vertex 28.04744529724121 -29.135726928710938 0
      vertex 29.20508575439453 -30.747318267822266 0
      vertex 28.7364559173584 -30.908199310302734 0
    endloop
  endfacet
  facet normal 0 0 -1
    outer loop
      vertex 30.837451934814453 -28.974098205566406 0
      vertex 28.644912719726562 -28.340641021728516 0
      vertex 28.84046173095703 -27.881669998168945 0
    endloop
  endfacet
  facet normal 0 0 -1
    outer loop
      vertex 30.367420196533203 -29.84263801574707 0
      vertex 28.378273010253906 -28.762300491333008 0
      vertex 28.644912719726562 -28.340641021728516 0
    endloop
  endfacet
  facet normal 0 0 -1
    outer loop
      vertex 27.660999298095703 -29.451248168945312 0
      vertex 28.7364559173584 -30.908199310302734 0
      vertex 28.247737884521484 -30.98975372314453 0
    endloop
  endfacet
  facet normal 0 0 -1
    outer loop
      vertex 29.640844345092773 -30.511499404907227 0
      vertex 28.04744529724121 -29.135726928710938 0
      vertex 28.378273010253906 -28.762300491333008 0
    endloop
  endfacet
  facet normal 0 0 -1
    outer loop
      vertex 27.399999618530273 -30.481571197509766 0
      vertex 28.247737884521484 -30.98975372314453 0
      vertex 27.908180236816406 -30.98975372314453 0
    endloop
  endfacet
  facet normal 0 0 -1
    outer loop
      vertex 28.7364559173584 -30.908199310302734 0
      vertex 27.660999298095703 -29.451248168945312 0
      vertex 28.04744529724121 -29.135726928710938 0
    endloop
  endfacet
  facet normal 0 0 -1
    outer loop
      vertex 28.247737884521484 -30.98975372314453 0
      vertex 27.399999618530273 -30.481571197509766 0
      vertex 27.660999298095703 -29.451248168945312 0
    endloop
  endfacet
  facet normal 0 0 -1
    outer loop
      vertex 27.660999298095703 -29.451248168945312 0
      vertex 27.399999618530273 -30.481571197509766 0
      vertex 27.399999618530273 -29.601938247680664 0
    endloop
  endfacet
  facet normal 0 0 -1
    outer loop
      vertex 30.959083557128906 28.49378204345703 0
      vertex 28.247737884521484 30.98975372314453 0
      vertex 30.837451934814453 28.974098205566406 0
    endloop
  endfacet
  facet normal 0 0 -1
    outer loop
      vertex 30.837451934814453 28.974098205566406 0
      vertex 28.247737884521484 30.98975372314453 0
      vertex 30.63842010498047 29.427841186523438 0
    endloop
  endfacet
  facet normal 0 0 -1
    outer loop
      vertex 30.63842010498047 29.427841186523438 0
      vertex 28.247737884521484 30.98975372314453 0
      vertex 30.367420196533203 29.84263801574707 0
    endloop
  endfacet
  facet normal 0 0 -1
    outer loop
      vertex 30.367420196533203 29.84263801574707 0
      vertex 28.247737884521484 30.98975372314453 0
      vertex 30.031845092773438 30.207172393798828 0
    endloop
  endfacet
  facet normal 0 0 -1
    outer loop
      vertex 30.031845092773438 30.207172393798828 0
      vertex 28.247737884521484 30.98975372314453 0
      vertex 29.640844345092773 30.511499404907227 0
    endloop
  endfacet
  facet normal 0 0 -1
    outer loop
      vertex 29.640844345092773 30.511499404907227 0
      vertex 28.247737884521484 30.98975372314453 0
      vertex 29.20508575439453 30.747318267822266 0
    endloop
  endfacet
  facet normal 0 0 -1
    outer loop
      vertex 29.20508575439453 30.747318267822266 0
      vertex 28.247737884521484 30.98975372314453 0
      vertex 28.7364559173584 30.908199310302734 0
    endloop
  endfacet
  facet normal 0 0 -1
    outer loop
      vertex 31 28 0
      vertex 28.247737884521484 30.98975372314453 0
      vertex 30.959083557128906 28.49378204345703 0
    endloop
  endfacet
  facet normal 0 0 -1
    outer loop
      vertex 24.800724029541016 -24.001449584960938 0
      vertex 27.251487731933594 -21.73687744140625 0
      vertex 27.029056549072266 -22.160682678222656 0
    endloop
  endfacet
  facet normal 0 0 -1
    outer loop
      vertex 26.273662567138672 -23.822601318359375 0
      vertex 27.029056549072266 -22.160682678222656 0
      vertex 26.762474060058594 -23.922393798828125 0
    endloop
  endfacet
  facet normal 0 0 -1
    outer loop
      vertex 25.775175094604492 -23.802513122558594 0
      vertex 27.029056549072266 -22.160682678222656 0
      vertex 26.273662567138672 -23.822601318359375 0
    endloop
  endfacet
  facet normal 0 0 -1
    outer loop
      vertex 25.279918670654297 -23.862648010253906 0
      vertex 27.029056549072266 -22.160682678222656 0
      vertex 25.775175094604492 -23.802513122558594 0
    endloop
  endfacet
  facet normal 0 0 -1
    outer loop
      vertex 24.800724029541016 -24.001449584960938 0
      vertex 27.029056549072266 -22.160682678222656 0
      vertex 25.279918670654297 -23.862648010253906 0
    endloop
  endfacet
  facet normal 0 0 -1
    outer loop
      vertex 27.251487731933594 -21.73687744140625 0
      vertex 24.800724029541016 -24.001449584960938 0
      vertex 24.349998474121094 -24.215320587158203 0
    endloop
  endfacet
  facet normal 0 0 -1
    outer loop
      vertex 23.93941879272461 -24.49872398376465 0
      vertex 27.251487731933594 -21.73687744140625 0
      vertex 24.349998474121094 -24.215320587158203 0
    endloop
  endfacet
  facet normal 0 0 -1
    outer loop
      vertex 27.251487731933594 -21.73687744140625 0
      vertex 23.93941879272461 -24.49872398376465 0
      vertex 28.247737884521484 30.98975372314453 0
    endloop
  endfacet
  facet normal 0 0 -1
    outer loop
      vertex -23.211009979248047 -25.14702606201172 0
      vertex 23.93941879272461 -24.49872398376465 0
      vertex 23.57961654663086 -24.844318389892578 0
    endloop
  endfacet
  facet normal 0 0 -1
    outer loop
      vertex -23.211009979248047 -25.14702606201172 0
      vertex 23.57961654663086 -24.844318389892578 0
      vertex 23.279911041259766 -25.24315643310547 0
    endloop
  endfacet
  facet normal 0 0 -1
    outer loop
      vertex -17.3682861328125 -30.98975372314453 0
      vertex 23.279911041259766 -25.24315643310547 0
      vertex 23.048063278198242 -25.68490219116211 0
    endloop
  endfacet
  facet normal 0 0 -1
    outer loop
      vertex -17.3682861328125 -30.98975372314453 0
      vertex 23.048063278198242 -25.68490219116211 0
      vertex 22.890079498291016 -26.15812110900879 0
    endloop
  endfacet
  facet normal 0 0 -1
    outer loop
      vertex -17.3682861328125 -30.98975372314453 0
      vertex 22.890079498291016 -26.15812110900879 0
      vertex 22.81005096435547 -26.65055274963379 0
    endloop
  endfacet
  facet normal 0 0 -1
    outer loop
      vertex -17.3682861328125 -30.98975372314453 0
      vertex 22.799999237060547 -26.899999618530273 0
      vertex 22.291818618774414 -30.98975372314453 0
    endloop
  endfacet
  facet normal 0 0 -1
    outer loop
      vertex 22.799999237060547 -26.899999618530273 0
      vertex -17.3682861328125 -30.98975372314453 0
      vertex 22.81005096435547 -26.65055274963379 0
    endloop
  endfacet
  facet normal 0 0 -1
    outer loop
      vertex 23.279911041259766 -25.24315643310547 0
      vertex -17.3682861328125 -30.98975372314453 0
      vertex -23.211009979248047 -25.14702606201172 0
    endloop
  endfacet
  facet normal 0 0 -1
    outer loop
      vertex 23.93941879272461 -24.49872398376465 0
      vertex -23.211009979248047 -25.14702606201172 0
      vertex 28.247737884521484 30.98975372314453 0
    endloop
  endfacet
  facet normal 0 0 -1
    outer loop
      vertex -28.247737884521484 30.98975372314453 0
      vertex -23.211009979248047 -25.14702606201172 0
      vertex -23.62265968322754 -24.867921829223633 0
    endloop
  endfacet
  facet normal 0 0 -1
    outer loop
      vertex -31 28 0
      vertex -23.62265968322754 -24.867921829223633 0
      vertex -24.084684371948242 -24.683834075927734 0
    endloop
  endfacet
  facet normal 0 0 -1
    outer loop
      vertex -31 28 0
      vertex -24.084684371948242 -24.683834075927734 0
      vertex -24.575481414794922 -24.60337257385254 0
    endloop
  endfacet
  facet normal 0 0 -1
    outer loop
      vertex -31 28 0
      vertex -24.575481414794922 -24.60337257385254 0
      vertex -25.072097778320312 -24.630298614501953 0
    endloop
  endfacet
  facet normal 0 0 -1
    outer loop
      vertex -31 28 0
      vertex -25.072097778320312 -24.630298614501953 0
      vertex -25.55131721496582 -24.76335334777832 0
    endloop
  endfacet
  facet normal 0 0 -1
    outer loop
      vertex -31 28 0
      vertex -25.55131721496582 -24.76335334777832 0
      vertex -25.99073028564453 -24.996315002441406 0
    endloop
  endfacet
  facet normal 0 0 -1
    outer loop
      vertex -31 -28 0
      vertex -25.99073028564453 -24.996315002441406 0
      vertex -26.369789123535156 -25.31829071044922 0
    endloop
  endfacet
  facet normal 0 0 -1
    outer loop
      vertex -30.031845092773438 -30.207172393798828 0
      vertex -26.6707706451416 -28.085773468017578 0
      vertex -29.640844345092773 -30.511499404907227 0
    endloop
  endfacet
  facet normal 0 0 -1
    outer loop
      vertex -23.211009979248047 -25.14702606201172 0
      vertex -28.247737884521484 30.98975372314453 0
      vertex 28.247737884521484 30.98975372314453 0
    endloop
  endfacet
  facet normal 0 0 -1
    outer loop
      vertex -31 -28 0
      vertex -26.369789123535156 -25.31829071044922 0
      vertex -26.6707706451416 -25.71422576904297 0
    endloop
  endfacet
  facet normal 0 0 -1
    outer loop
      vertex -31 -28 0
      vertex -26.6707706451416 -25.71422576904297 0
      vertex -26.879600524902344 -26.165605545043945 0
    endloop
  endfacet
  facet normal 0 0 -1
    outer loop
      vertex -26.6707706451416 -28.085773468017578 0
      vertex -30.031845092773438 -30.207172393798828 0
      vertex -26.879600524902344 -27.63439178466797 0
    endloop
  endfacet
  facet normal 0 0 -1
    outer loop
      vertex -30.367420196533203 -29.84263801574707 0
      vertex -26.879600524902344 -27.63439178466797 0
      vertex -30.031845092773438 -30.207172393798828 0
    endloop
  endfacet
  facet normal 0 0 -1
    outer loop
      vertex -25.99073028564453 -24.996315002441406 0
      vertex -31 -28 0
      vertex -31 28 0
    endloop
  endfacet
  facet normal 0 0 -1
    outer loop
      vertex -30.63842010498047 -29.427841186523438 0
      vertex -26.879600524902344 -27.63439178466797 0
      vertex -30.367420196533203 -29.84263801574707 0
    endloop
  endfacet
  facet normal 0 0 -1
    outer loop
      vertex -23.62265968322754 -24.867921829223633 0
      vertex -31 28 0
      vertex -28.247737884521484 30.98975372314453 0
    endloop
  endfacet
  facet normal 0 0 -1
    outer loop
      vertex -30.837451934814453 -28.974098205566406 0
      vertex -26.879600524902344 -27.63439178466797 0
      vertex -30.63842010498047 -29.427841186523438 0
    endloop
  endfacet
  facet normal 0 0 -1
    outer loop
      vertex -28.247737884521484 30.98975372314453 0
      vertex -31 28 0
      vertex -28.7364559173584 30.908199310302734 0
    endloop
  endfacet
  facet normal 0 0 -1
    outer loop
      vertex -30.959083557128906 -28.49378204345703 0
      vertex -26.879600524902344 -27.63439178466797 0
      vertex -30.837451934814453 -28.974098205566406 0
    endloop
  endfacet
  facet normal 0 0 -1
    outer loop
      vertex -28.7364559173584 30.908199310302734 0
      vertex -31 28 0
      vertex -29.20508575439453 30.747318267822266 0
    endloop
  endfacet
  facet normal 0 0 -1
    outer loop
      vertex -31 -28 0
      vertex -26.879600524902344 -27.63439178466797 0
      vertex -30.959083557128906 -28.49378204345703 0
    endloop
  endfacet
  facet normal 0 0 -1
    outer loop
      vertex -29.20508575439453 30.747318267822266 0
      vertex -31 28 0
      vertex -29.640844345092773 30.511499404907227 0
    endloop
  endfacet
  facet normal 0 0 -1
    outer loop
      vertex -26.879600524902344 -27.63439178466797 0
      vertex -31 -28 0
      vertex -26.98651695251465 -27.14867401123047 0
    endloop
  endfacet
  facet normal 0 0 -1
    outer loop
      vertex -29.640844345092773 30.511499404907227 0
      vertex -31 28 0
      vertex -30.031845092773438 30.207172393798828 0
    endloop
  endfacet
  facet normal 0 0 -1
    outer loop
      vertex -26.98651695251465 -27.14867401123047 0
      vertex -31 -28 0
      vertex -26.98651695251465 -26.651325225830078 0
    endloop
  endfacet
  facet normal 0 0 -1
    outer loop
      vertex -30.031845092773438 30.207172393798828 0
      vertex -31 28 0
      vertex -30.367420196533203 29.84263801574707 0
    endloop
  endfacet
  facet normal 0 0 -1
    outer loop
      vertex -26.98651695251465 -26.651325225830078 0
      vertex -31 -28 0
      vertex -26.879600524902344 -26.165605545043945 0
    endloop
  endfacet
  facet normal 0 0 -1
    outer loop
      vertex -30.367420196533203 29.84263801574707 0
      vertex -31 28 0
      vertex -30.63842010498047 29.427841186523438 0
    endloop
  endfacet
  facet normal 0 0 -1
    outer loop
      vertex -30.63842010498047 29.427841186523438 0
      vertex -31 28 0
      vertex -30.837451934814453 28.974098205566406 0
    endloop
  endfacet
  facet normal 0 0 -1
    outer loop
      vertex -30.837451934814453 28.974098205566406 0
      vertex -31 28 0
      vertex -30.959083557128906 28.49378204345703 0
    endloop
  endfacet
endsolid OpenSCAD_Model
