solid OpenSCAD_Model
  facet normal 0.9961944618985134 0.08715844240652348 0
    outer loop
      vertex 28.700000762939453 4.100000381469727 120
      vertex 28.657461166381836 4.586215019226074 0
      vertex 28.657461166381836 4.586215019226074 120
    endloop
  endfacet
  facet normal 0.9961944618985134 0.08715844240652348 0
    outer loop
      vertex 28.657461166381836 4.586215019226074 0
      vertex 28.700000762939453 4.100000381469727 120
      vertex 28.700000762939453 4.100000381469727 0
    endloop
  endfacet
  facet normal 0.7071077581698124 -0.7071058042019328 0
    outer loop
      vertex 27.699806213378906 1.9550762176513672 120
      vertex 28.044923782348633 2.30019474029541 0
      vertex 28.044923782348633 2.30019474029541 120
    endloop
  endfacet
  facet normal 0.7071077581698124 -0.7071058042019328 0
    outer loop
      vertex 28.044923782348633 2.30019474029541 0
      vertex 27.699806213378906 1.9550762176513672 120
      vertex 27.699806213378906 1.9550762176513672 0
    endloop
  endfacet
  facet normal -0.9961944618985134 0.08715844240652348 0
    outer loop
      vertex 23.099998474121094 4.100000381469727 0
      vertex 23.14253807067871 4.586215019226074 120
      vertex 23.14253807067871 4.586215019226074 0
    endloop
  endfacet
  facet normal -0.9961944618985134 0.08715844240652348 0
    outer loop
      vertex 23.14253807067871 4.586215019226074 120
      vertex 23.099998474121094 4.100000381469727 0
      vertex 23.099998474121094 4.100000381469727 120
    endloop
  endfacet
  facet normal 0.8191519576434395 0.573576560093699 0
    outer loop
      vertex 28.324871063232422 5.5 120
      vertex 28.044923782348633 5.899806022644043 0
      vertex 28.044923782348633 5.899806022644043 120
    endloop
  endfacet
  facet normal 0.8191519576434395 0.573576560093699 0
    outer loop
      vertex 28.044923782348633 5.899806022644043 0
      vertex 28.324871063232422 5.5 120
      vertex 28.324871063232422 5.5 0
    endloop
  endfacet
  facet normal 0.9063077476625366 -0.42261834617874766 0
    outer loop
      vertex 28.324871063232422 2.700000762939453 120
      vertex 28.531139373779297 3.1423444747924805 0
      vertex 28.531139373779297 3.1423444747924805 120
    endloop
  endfacet
  facet normal 0.9063077476625366 -0.42261834617874766 0
    outer loop
      vertex 28.531139373779297 3.1423444747924805 0
      vertex 28.324871063232422 2.700000762939453 120
      vertex 28.324871063232422 2.700000762939453 0
    endloop
  endfacet
  facet normal -0.9659262208089754 0.2588175727296943 0
    outer loop
      vertex 23.14253807067871 4.586215019226074 0
      vertex 23.26885986328125 5.057657241821289 120
      vertex 23.26885986328125 5.057657241821289 0
    endloop
  endfacet
  facet normal -0.9659262208089754 0.2588175727296943 0
    outer loop
      vertex 23.26885986328125 5.057657241821289 120
      vertex 23.14253807067871 4.586215019226074 0
      vertex 23.14253807067871 4.586215019226074 120
    endloop
  endfacet
  facet normal -0.9063073986719061 0.4226190945905811 0
    outer loop
      vertex 23.26885986328125 5.057657241821289 0
      vertex 23.475128173828125 5.5 120
      vertex 23.475128173828125 5.5 0
    endloop
  endfacet
  facet normal -0.9063073986719061 0.4226190945905811 0
    outer loop
      vertex 23.475128173828125 5.5 120
      vertex 23.26885986328125 5.057657241821289 0
      vertex 23.26885986328125 5.057657241821289 120
    endloop
  endfacet
  facet normal 0 0 1
    outer loop
      vertex 28.657461166381836 4.586215019226074 120
      vertex 28.657461166381836 3.613785743713379 120
      vertex 28.700000762939453 4.100000381469727 120
    endloop
  endfacet
  facet normal 0 0 1
    outer loop
      vertex 28.531139373779297 5.057657241821289 120
      vertex 28.657461166381836 3.613785743713379 120
      vertex 28.657461166381836 4.586215019226074 120
    endloop
  endfacet
  facet normal 0 0 1
    outer loop
      vertex 28.531139373779297 5.057657241821289 120
      vertex 28.531139373779297 3.1423444747924805 120
      vertex 28.657461166381836 3.613785743713379 120
    endloop
  endfacet
  facet normal 0 0 1
    outer loop
      vertex 28.324871063232422 5.5 120
      vertex 28.531139373779297 3.1423444747924805 120
      vertex 28.531139373779297 5.057657241821289 120
    endloop
  endfacet
  facet normal 0 0 1
    outer loop
      vertex 28.324871063232422 5.5 120
      vertex 28.324871063232422 2.700000762939453 120
      vertex 28.531139373779297 3.1423444747924805 120
    endloop
  endfacet
  facet normal 0 0 1
    outer loop
      vertex 28.044923782348633 5.899806022644043 120
      vertex 28.324871063232422 2.700000762939453 120
      vertex 28.324871063232422 5.5 120
    endloop
  endfacet
  facet normal 0 0 1
    outer loop
      vertex 28.044923782348633 5.899806022644043 120
      vertex 28.044923782348633 2.30019474029541 120
      vertex 28.324871063232422 2.700000762939453 120
    endloop
  endfacet
  facet normal 0 0 1
    outer loop
      vertex 27.699806213378906 6.244924545288086 120
      vertex 28.044923782348633 2.30019474029541 120
      vertex 28.044923782348633 5.899806022644043 120
    endloop
  endfacet
  facet normal 0 0 1
    outer loop
      vertex 27.099998474121094 1.5818679332733154 120
      vertex 28.044923782348633 2.30019474029541 120
      vertex 27.699806213378906 6.244924545288086 120
    endloop
  endfacet
  facet normal 0 0 1
    outer loop
      vertex 27.099998474121094 1.5818679332733154 120
      vertex 27.699806213378906 6.244924545288086 120
      vertex 27.299999237060547 6.524871826171875 120
    endloop
  endfacet
  facet normal 0 0 1
    outer loop
      vertex 28.044923782348633 2.30019474029541 120
      vertex 27.099998474121094 1.5818679332733154 120
      vertex 27.699806213378906 1.9550762176513672 120
    endloop
  endfacet
  facet normal 0 0 1
    outer loop
      vertex 27.699806213378906 1.9550762176513672 120
      vertex 27.099998474121094 1.5818679332733154 120
      vertex 27.299999237060547 1.6751289367675781 120
    endloop
  endfacet
  facet normal 0 0 1
    outer loop
      vertex 23.099998474121094 4.100000381469727 120
      vertex 27.099998474121094 1.5818679332733154 120
      vertex 26.857654571533203 6.73114013671875 120
    endloop
  endfacet
  facet normal 0 0 1
    outer loop
      vertex 26.857654571533203 6.73114013671875 120
      vertex 27.099998474121094 1.5818679332733154 120
      vertex 27.299999237060547 6.524871826171875 120
    endloop
  endfacet
  facet normal 0 0 1
    outer loop
      vertex 32.52833557128906 -2.3088741302490234 120
      vertex 32.32412338256836 -3.215608596801758 120
      vertex 32.5379753112793 -2.7874088287353516 120
    endloop
  endfacet
  facet normal 0 0 1
    outer loop
      vertex 32.29741668701172 -1.8896331787109375 120
      vertex 32.32412338256836 -3.215608596801758 120
      vertex 32.52833557128906 -2.3088741302490234 120
    endloop
  endfacet
  facet normal 0 0 1
    outer loop
      vertex 32.29741668701172 -1.8896331787109375 120
      vertex 31.935771942138672 -3.4953794479370117 120
      vertex 32.32412338256836 -3.215608596801758 120
    endloop
  endfacet
  facet normal 0 0 1
    outer loop
      vertex 31.898115158081055 -1.6257257461547852 120
      vertex 31.935771942138672 -3.4953794479370117 120
      vertex 32.29741668701172 -1.8896331787109375 120
    endloop
  endfacet
  facet normal 0 0 1
    outer loop
      vertex 27.099998474121094 -0.6662961840629578 120
      vertex 31.935771942138672 -3.4953794479370117 120
      vertex 31.898115158081055 -1.6257257461547852 120
    endloop
  endfacet
  facet normal 0 0 1
    outer loop
      vertex 23.099998474121094 4.100000381469727 120
      vertex 26.857654571533203 6.73114013671875 120
      vertex 26.386215209960938 6.857461929321289 120
    endloop
  endfacet
  facet normal 0 0 1
    outer loop
      vertex 23.099998474121094 4.100000381469727 120
      vertex 26.386215209960938 6.857461929321289 120
      vertex 25.899999618530273 6.90000057220459 120
    endloop
  endfacet
  facet normal 0 0 1
    outer loop
      vertex 23.099998474121094 4.100000381469727 120
      vertex 25.899999618530273 6.90000057220459 120
      vertex 25.41378402709961 6.857461929321289 120
    endloop
  endfacet
  facet normal 0 0 1
    outer loop
      vertex 23.099998474121094 4.100000381469727 120
      vertex 25.41378402709961 6.857461929321289 120
      vertex 24.94234275817871 6.73114013671875 120
    endloop
  endfacet
  facet normal 0 0 1
    outer loop
      vertex 23.099998474121094 4.100000381469727 120
      vertex 24.94234275817871 6.73114013671875 120
      vertex 24.5 6.524871826171875 120
    endloop
  endfacet
  facet normal 0 0 1
    outer loop
      vertex 23.099998474121094 4.100000381469727 120
      vertex 24.5 6.524871826171875 120
      vertex 24.10019302368164 6.244924545288086 120
    endloop
  endfacet
  facet normal 0 0 1
    outer loop
      vertex 23.099998474121094 4.100000381469727 120
      vertex 24.10019302368164 6.244924545288086 120
      vertex 23.755075454711914 5.899806022644043 120
    endloop
  endfacet
  facet normal 0 0 1
    outer loop
      vertex 23.099998474121094 4.100000381469727 120
      vertex 23.755075454711914 5.899806022644043 120
      vertex 23.475128173828125 5.5 120
    endloop
  endfacet
  facet normal 0 0 1
    outer loop
      vertex 23.099998474121094 4.100000381469727 120
      vertex 23.475128173828125 5.5 120
      vertex 23.26885986328125 5.057657241821289 120
    endloop
  endfacet
  facet normal 0 0 1
    outer loop
      vertex 23.099998474121094 4.100000381469727 120
      vertex 23.26885986328125 5.057657241821289 120
      vertex 23.14253807067871 4.586215019226074 120
    endloop
  endfacet
  facet normal 0 0 1
    outer loop
      vertex 23.099998474121094 -0.31458187103271484 120
      vertex 27.099998474121094 1.5818679332733154 120
      vertex 23.099998474121094 4.100000381469727 120
    endloop
  endfacet
  facet normal 0 0 1
    outer loop
      vertex 27.099998474121094 1.5818679332733154 120
      vertex 23.099998474121094 -0.31458187103271484 120
      vertex 27.099998474121094 -0.6662961840629578 120
    endloop
  endfacet
  facet normal 0 0 1
    outer loop
      vertex 23.099998474121094 -0.31458187103271484 120
      vertex 31.935771942138672 -3.4953794479370117 120
      vertex 27.099998474121094 -0.6662961840629578 120
    endloop
  endfacet
  facet normal 0 0 1
    outer loop
      vertex -26.252634048461914 -19.086917877197266 120
      vertex 23.099998474121094 -0.31458187103271484 120
      vertex -17.46215057373047 -0.31458187103271484 120
    endloop
  endfacet
  facet normal 0 0 1
    outer loop
      vertex -26.252634048461914 -19.086917877197266 120
      vertex -17.46215057373047 -0.31458187103271484 120
      vertex -20.67848014831543 -2.744786024093628 120
    endloop
  endfacet
  facet normal 0 0 1
    outer loop
      vertex 23.099998474121094 -0.31458187103271484 120
      vertex -26.252634048461914 -19.086917877197266 120
      vertex 31.935771942138672 -3.4953794479370117 120
    endloop
  endfacet
  facet normal 0 0 1
    outer loop
      vertex -27.368701934814453 -17.877120971679688 120
      vertex -26.252634048461914 -19.086917877197266 120
      vertex -20.67848014831543 -2.744786024093628 120
    endloop
  endfacet
  facet normal 0 0 1
    outer loop
      vertex -26.252634048461914 -19.086917877197266 120
      vertex -27.368701934814453 -17.877120971679688 120
      vertex -26.72884178161621 -19.038803100585938 120
    endloop
  endfacet
  facet normal 0 0 1
    outer loop
      vertex -26.72884178161621 -19.038803100585938 120
      vertex -27.368701934814453 -17.877120971679688 120
      vertex -27.128143310546875 -18.774898529052734 120
    endloop
  endfacet
  facet normal 0 0 1
    outer loop
      vertex -27.128143310546875 -18.774898529052734 120
      vertex -27.368701934814453 -17.877120971679688 120
      vertex -27.35906219482422 -18.355655670166016 120
    endloop
  endfacet
  facet normal 0 0 1
    outer loop
      vertex -23.202978134155273 5.42624568939209 120
      vertex -20.67848014831543 -2.744786024093628 120
      vertex -17.46215057373047 -0.31458187103271484 120
    endloop
  endfacet
  facet normal 0 0 1
    outer loop
      vertex -26.197021484375 2.7737550735473633 120
      vertex -23.202978134155273 5.42624568939209 120
      vertex -23.56386947631836 5.745967864990234 120
    endloop
  endfacet
  facet normal 0 0 1
    outer loop
      vertex -26.197021484375 2.7737550735473633 120
      vertex -23.56386947631836 5.745967864990234 120
      vertex -23.99078941345215 5.970032691955566 120
    endloop
  endfacet
  facet normal 0 0 1
    outer loop
      vertex -26.197021484375 2.7737550735473633 120
      vertex -23.99078941345215 5.970032691955566 120
      vertex -24.458927154541016 6.085418701171875 120
    endloop
  endfacet
  facet normal 0 0 1
    outer loop
      vertex -26.197021484375 2.7737550735473633 120
      vertex -24.458927154541016 6.085418701171875 120
      vertex -24.941072463989258 6.085418701171875 120
    endloop
  endfacet
  facet normal 0 0 1
    outer loop
      vertex -26.197021484375 2.7737550735473633 120
      vertex -24.941072463989258 6.085418701171875 120
      vertex -25.409210205078125 5.970032691955566 120
    endloop
  endfacet
  facet normal 0 0 1
    outer loop
      vertex -26.197021484375 2.7737550735473633 120
      vertex -25.409210205078125 5.970032691955566 120
      vertex -25.83612823486328 5.745967864990234 120
    endloop
  endfacet
  facet normal 0 0 1
    outer loop
      vertex -26.197021484375 2.7737550735473633 120
      vertex -25.83612823486328 5.745967864990234 120
      vertex -26.197021484375 5.42624568939209 120
    endloop
  endfacet
  facet normal 0 0 1
    outer loop
      vertex -23.202978134155273 5.42624568939209 120
      vertex -26.197021484375 2.7737550735473633 120
      vertex -20.67848014831543 -2.744786024093628 120
    endloop
  endfacet
  facet normal 0 0 1
    outer loop
      vertex -26.47091293334961 5.029446601867676 120
      vertex -26.197021484375 2.7737550735473633 120
      vertex -26.197021484375 5.42624568939209 120
    endloop
  endfacet
  facet normal 0 0 1
    outer loop
      vertex -26.47091293334961 5.029446601867676 120
      vertex -26.47091293334961 3.1705541610717773 120
      vertex -26.197021484375 2.7737550735473633 120
    endloop
  endfacet
  facet normal 0 0 1
    outer loop
      vertex -26.641883850097656 4.578631401062012 120
      vertex -26.47091293334961 3.1705541610717773 120
      vertex -26.47091293334961 5.029446601867676 120
    endloop
  endfacet
  facet normal 0 0 1
    outer loop
      vertex -26.641883850097656 4.578631401062012 120
      vertex -26.641883850097656 3.6213693618774414 120
      vertex -26.47091293334961 3.1705541610717773 120
    endloop
  endfacet
  facet normal 0 0 1
    outer loop
      vertex -26.641883850097656 3.6213693618774414 120
      vertex -26.641883850097656 4.578631401062012 120
      vertex -26.700000762939453 4.100000381469727 120
    endloop
  endfacet
  facet normal 0.7071077581698124 0.7071058042019328 0
    outer loop
      vertex 28.044923782348633 5.899806022644043 120
      vertex 27.699806213378906 6.244924545288086 0
      vertex 27.699806213378906 6.244924545288086 120
    endloop
  endfacet
  facet normal 0.7071077581698124 0.7071058042019328 0
    outer loop
      vertex 27.699806213378906 6.244924545288086 0
      vertex 28.044923782348633 5.899806022644043 120
      vertex 28.044923782348633 5.899806022644043 0
    endloop
  endfacet
  facet normal 0.9659262208089754 0.2588175727296943 0
    outer loop
      vertex 28.657461166381836 4.586215019226074 120
      vertex 28.531139373779297 5.057657241821289 0
      vertex 28.531139373779297 5.057657241821289 120
    endloop
  endfacet
  facet normal 0.9659262208089754 0.2588175727296943 0
    outer loop
      vertex 28.531139373779297 5.057657241821289 0
      vertex 28.657461166381836 4.586215019226074 120
      vertex 28.657461166381836 4.586215019226074 0
    endloop
  endfacet
  facet normal 0.5735756420347421 0.8191526004746815 0
    outer loop
      vertex 27.699806213378906 6.244924545288086 0
      vertex 27.299999237060547 6.524871826171875 120
      vertex 27.699806213378906 6.244924545288086 120
    endloop
  endfacet
  facet normal 0.5735756420347421 0.8191526004746815 0
    outer loop
      vertex 27.299999237060547 6.524871826171875 120
      vertex 27.699806213378906 6.244924545288086 0
      vertex 27.299999237060547 6.524871826171875 0
    endloop
  endfacet
  facet normal 0.4226149717071145 -0.9063093211972362 0
    outer loop
      vertex 27.099998474121094 1.5818679332733154 0
      vertex 27.299999237060547 1.6751289367675781 120
      vertex 27.099998474121094 1.5818679332733154 120
    endloop
  endfacet
  facet normal 0.4226149717071145 -0.9063093211972362 0
    outer loop
      vertex 27.299999237060547 1.6751289367675781 120
      vertex 27.099998474121094 1.5818679332733154 0
      vertex 27.299999237060547 1.6751289367675781 0
    endloop
  endfacet
  facet normal 0.5735756420347421 -0.8191526004746815 0
    outer loop
      vertex 27.299999237060547 1.6751289367675781 0
      vertex 27.699806213378906 1.9550762176513672 120
      vertex 27.299999237060547 1.6751289367675781 120
    endloop
  endfacet
  facet normal 0.5735756420347421 -0.8191526004746815 0
    outer loop
      vertex 27.699806213378906 1.9550762176513672 120
      vertex 27.299999237060547 1.6751289367675781 0
      vertex 27.699806213378906 1.9550762176513672 0
    endloop
  endfacet
  facet normal -0.5735756420347421 0.8191526004746815 0
    outer loop
      vertex 24.5 6.524871826171875 0
      vertex 24.10019302368164 6.244924545288086 120
      vertex 24.5 6.524871826171875 120
    endloop
  endfacet
  facet normal -0.5735756420347421 0.8191526004746815 0
    outer loop
      vertex 24.10019302368164 6.244924545288086 120
      vertex 24.5 6.524871826171875 0
      vertex 24.10019302368164 6.244924545288086 0
    endloop
  endfacet
  facet normal 0.2588190381996108 0.9659258281386974 0
    outer loop
      vertex 26.857654571533203 6.73114013671875 0
      vertex 26.386215209960938 6.857461929321289 120
      vertex 26.857654571533203 6.73114013671875 120
    endloop
  endfacet
  facet normal 0.2588190381996108 0.9659258281386974 0
    outer loop
      vertex 26.386215209960938 6.857461929321289 120
      vertex 26.857654571533203 6.73114013671875 0
      vertex 26.386215209960938 6.857461929321289 0
    endloop
  endfacet
  facet normal 0.4226175977692768 0.9063080966513131 0
    outer loop
      vertex 27.299999237060547 6.524871826171875 0
      vertex 26.857654571533203 6.73114013671875 120
      vertex 27.299999237060547 6.524871826171875 120
    endloop
  endfacet
  facet normal 0.4226175977692768 0.9063080966513131 0
    outer loop
      vertex 26.857654571533203 6.73114013671875 120
      vertex 27.299999237060547 6.524871826171875 0
      vertex 26.857654571533203 6.73114013671875 0
    endloop
  endfacet
  facet normal 0.8191519576434395 -0.573576560093699 0
    outer loop
      vertex 28.044923782348633 2.30019474029541 120
      vertex 28.324871063232422 2.700000762939453 0
      vertex 28.324871063232422 2.700000762939453 120
    endloop
  endfacet
  facet normal 0.8191519576434395 -0.573576560093699 0
    outer loop
      vertex 28.324871063232422 2.700000762939453 0
      vertex 28.044923782348633 2.30019474029541 120
      vertex 28.044923782348633 2.30019474029541 0
    endloop
  endfacet
  facet normal 0.9063073986719061 0.4226190945905811 0
    outer loop
      vertex 28.531139373779297 5.057657241821289 120
      vertex 28.324871063232422 5.5 0
      vertex 28.324871063232422 5.5 120
    endloop
  endfacet
  facet normal 0.9063073986719061 0.4226190945905811 0
    outer loop
      vertex 28.324871063232422 5.5 0
      vertex 28.531139373779297 5.057657241821289 120
      vertex 28.531139373779297 5.057657241821289 0
    endloop
  endfacet
  facet normal 0.9961944618985134 -0.08715844240652348 0
    outer loop
      vertex 28.657461166381836 3.613785743713379 120
      vertex 28.700000762939453 4.100000381469727 0
      vertex 28.700000762939453 4.100000381469727 120
    endloop
  endfacet
  facet normal 0.9961944618985134 -0.08715844240652348 0
    outer loop
      vertex 28.700000762939453 4.100000381469727 0
      vertex 28.657461166381836 3.613785743713379 120
      vertex 28.657461166381836 3.613785743713379 0
    endloop
  endfacet
  facet normal -0.08715633363502 0.9961946463956234 0
    outer loop
      vertex 25.899999618530273 6.90000057220459 0
      vertex 25.41378402709961 6.857461929321289 120
      vertex 25.899999618530273 6.90000057220459 120
    endloop
  endfacet
  facet normal -0.08715633363502 0.9961946463956234 0
    outer loop
      vertex 25.41378402709961 6.857461929321289 120
      vertex 25.899999618530273 6.90000057220459 0
      vertex 25.41378402709961 6.857461929321289 0
    endloop
  endfacet
  facet normal 0.08715633363502 0.9961946463956234 0
    outer loop
      vertex 26.386215209960938 6.857461929321289 0
      vertex 25.899999618530273 6.90000057220459 120
      vertex 26.386215209960938 6.857461929321289 120
    endloop
  endfacet
  facet normal 0.08715633363502 0.9961946463956234 0
    outer loop
      vertex 25.899999618530273 6.90000057220459 120
      vertex 26.386215209960938 6.857461929321289 0
      vertex 25.899999618530273 6.90000057220459 0
    endloop
  endfacet
  facet normal -0.4226190945905811 0.9063073986719061 0
    outer loop
      vertex 24.94234275817871 6.73114013671875 0
      vertex 24.5 6.524871826171875 120
      vertex 24.94234275817871 6.73114013671875 120
    endloop
  endfacet
  facet normal -0.4226190945905811 0.9063073986719061 0
    outer loop
      vertex 24.5 6.524871826171875 120
      vertex 24.94234275817871 6.73114013671875 0
      vertex 24.5 6.524871826171875 0
    endloop
  endfacet
  facet normal -0.8191519576434395 0.573576560093699 0
    outer loop
      vertex 23.475128173828125 5.5 0
      vertex 23.755075454711914 5.899806022644043 120
      vertex 23.755075454711914 5.899806022644043 0
    endloop
  endfacet
  facet normal -0.8191519576434395 0.573576560093699 0
    outer loop
      vertex 23.755075454711914 5.899806022644043 120
      vertex 23.475128173828125 5.5 0
      vertex 23.475128173828125 5.5 120
    endloop
  endfacet
  facet normal -0.2588180612178887 0.9659260899196238 0
    outer loop
      vertex 25.41378402709961 6.857461929321289 0
      vertex 24.94234275817871 6.73114013671875 120
      vertex 25.41378402709961 6.857461929321289 120
    endloop
  endfacet
  facet normal -0.2588180612178887 0.9659260899196238 0
    outer loop
      vertex 24.94234275817871 6.73114013671875 120
      vertex 25.41378402709961 6.857461929321289 0
      vertex 24.94234275817871 6.73114013671875 0
    endloop
  endfacet
  facet normal -0.7071077581698124 0.7071058042019328 0
    outer loop
      vertex 23.755075454711914 5.899806022644043 0
      vertex 24.10019302368164 6.244924545288086 120
      vertex 24.10019302368164 6.244924545288086 0
    endloop
  endfacet
  facet normal -0.7071077581698124 0.7071058042019328 0
    outer loop
      vertex 24.10019302368164 6.244924545288086 120
      vertex 23.755075454711914 5.899806022644043 0
      vertex 23.755075454711914 5.899806022644043 120
    endloop
  endfacet
  facet normal 0 0 -1
    outer loop
      vertex 32.32412338256836 -3.215608596801758 0
      vertex 32.52833557128906 -2.3088741302490234 0
      vertex 32.5379753112793 -2.7874088287353516 0
    endloop
  endfacet
  facet normal 0 0 -1
    outer loop
      vertex 32.32412338256836 -3.215608596801758 0
      vertex 32.29741668701172 -1.8896331787109375 0
      vertex 32.52833557128906 -2.3088741302490234 0
    endloop
  endfacet
  facet normal 0 0 -1
    outer loop
      vertex 31.935771942138672 -3.4953794479370117 0
      vertex 32.29741668701172 -1.8896331787109375 0
      vertex 32.32412338256836 -3.215608596801758 0
    endloop
  endfacet
  facet normal 0 0 -1
    outer loop
      vertex 31.935771942138672 -3.4953794479370117 0
      vertex 31.898115158081055 -1.6257257461547852 0
      vertex 32.29741668701172 -1.8896331787109375 0
    endloop
  endfacet
  facet normal 0 0 -1
    outer loop
      vertex 31.935771942138672 -3.4953794479370117 0
      vertex 27.099998474121094 -0.6662961840629578 0
      vertex 31.898115158081055 -1.6257257461547852 0
    endloop
  endfacet
  facet normal 0 0 -1
    outer loop
      vertex 23.099998474121094 -0.31458187103271484 0
      vertex 27.099998474121094 1.5818679332733154 0
      vertex 27.099998474121094 -0.6662961840629578 0
    endloop
  endfacet
  facet normal 0 0 -1
    outer loop
      vertex 27.099998474121094 1.5818679332733154 0
      vertex 23.099998474121094 4.100000381469727 0
      vertex 26.857654571533203 6.73114013671875 0
    endloop
  endfacet
  facet normal 0 0 -1
    outer loop
      vertex 26.857654571533203 6.73114013671875 0
      vertex 23.099998474121094 4.100000381469727 0
      vertex 26.386215209960938 6.857461929321289 0
    endloop
  endfacet
  facet normal 0 0 -1
    outer loop
      vertex 26.386215209960938 6.857461929321289 0
      vertex 23.099998474121094 4.100000381469727 0
      vertex 25.899999618530273 6.90000057220459 0
    endloop
  endfacet
  facet normal 0 0 -1
    outer loop
      vertex 25.899999618530273 6.90000057220459 0
      vertex 23.099998474121094 4.100000381469727 0
      vertex 25.41378402709961 6.857461929321289 0
    endloop
  endfacet
  facet normal 0 0 -1
    outer loop
      vertex 25.41378402709961 6.857461929321289 0
      vertex 23.099998474121094 4.100000381469727 0
      vertex 24.94234275817871 6.73114013671875 0
    endloop
  endfacet
  facet normal 0 0 -1
    outer loop
      vertex 24.94234275817871 6.73114013671875 0
      vertex 23.099998474121094 4.100000381469727 0
      vertex 24.5 6.524871826171875 0
    endloop
  endfacet
  facet normal 0 0 -1
    outer loop
      vertex 24.5 6.524871826171875 0
      vertex 23.099998474121094 4.100000381469727 0
      vertex 24.10019302368164 6.244924545288086 0
    endloop
  endfacet
  facet normal 0 0 -1
    outer loop
      vertex 24.10019302368164 6.244924545288086 0
      vertex 23.099998474121094 4.100000381469727 0
      vertex 23.755075454711914 5.899806022644043 0
    endloop
  endfacet
  facet normal 0 0 -1
    outer loop
      vertex 23.755075454711914 5.899806022644043 0
      vertex 23.099998474121094 4.100000381469727 0
      vertex 23.475128173828125 5.5 0
    endloop
  endfacet
  facet normal 0 0 -1
    outer loop
      vertex 23.475128173828125 5.5 0
      vertex 23.099998474121094 4.100000381469727 0
      vertex 23.26885986328125 5.057657241821289 0
    endloop
  endfacet
  facet normal 0 0 -1
    outer loop
      vertex 27.099998474121094 1.5818679332733154 0
      vertex 23.099998474121094 -0.31458187103271484 0
      vertex 23.099998474121094 4.100000381469727 0
    endloop
  endfacet
  facet normal 0 0 -1
    outer loop
      vertex 31.935771942138672 -3.4953794479370117 0
      vertex 23.099998474121094 -0.31458187103271484 0
      vertex 27.099998474121094 -0.6662961840629578 0
    endloop
  endfacet
  facet normal 0 0 -1
    outer loop
      vertex -26.252634048461914 -19.086917877197266 0
      vertex 23.099998474121094 -0.31458187103271484 0
      vertex 31.935771942138672 -3.4953794479370117 0
    endloop
  endfacet
  facet normal 0 0 -1
    outer loop
      vertex 23.099998474121094 -0.31458187103271484 0
      vertex -26.252634048461914 -19.086917877197266 0
      vertex -17.46215057373047 -0.31458187103271484 0
    endloop
  endfacet
  facet normal 0 0 -1
    outer loop
      vertex -17.46215057373047 -0.31458187103271484 0
      vertex -26.252634048461914 -19.086917877197266 0
      vertex -20.67848014831543 -2.744786024093628 0
    endloop
  endfacet
  facet normal 0 0 -1
    outer loop
      vertex -27.368701934814453 -17.877120971679688 0
      vertex -26.252634048461914 -19.086917877197266 0
      vertex -26.72884178161621 -19.038803100585938 0
    endloop
  endfacet
  facet normal 0 0 -1
    outer loop
      vertex -27.368701934814453 -17.877120971679688 0
      vertex -26.72884178161621 -19.038803100585938 0
      vertex -27.128143310546875 -18.774898529052734 0
    endloop
  endfacet
  facet normal 0 0 -1
    outer loop
      vertex -27.368701934814453 -17.877120971679688 0
      vertex -27.128143310546875 -18.774898529052734 0
      vertex -27.35906219482422 -18.355655670166016 0
    endloop
  endfacet
  facet normal 0 0 -1
    outer loop
      vertex -26.252634048461914 -19.086917877197266 0
      vertex -27.368701934814453 -17.877120971679688 0
      vertex -20.67848014831543 -2.744786024093628 0
    endloop
  endfacet
  facet normal 0 0 -1
    outer loop
      vertex 28.657461166381836 3.613785743713379 0
      vertex 28.657461166381836 4.586215019226074 0
      vertex 28.700000762939453 4.100000381469727 0
    endloop
  endfacet
  facet normal 0 0 -1
    outer loop
      vertex 28.531139373779297 3.1423444747924805 0
      vertex 28.657461166381836 4.586215019226074 0
      vertex 28.657461166381836 3.613785743713379 0
    endloop
  endfacet
  facet normal 0 0 -1
    outer loop
      vertex 28.531139373779297 3.1423444747924805 0
      vertex 28.531139373779297 5.057657241821289 0
      vertex 28.657461166381836 4.586215019226074 0
    endloop
  endfacet
  facet normal 0 0 -1
    outer loop
      vertex 28.324871063232422 2.700000762939453 0
      vertex 28.531139373779297 5.057657241821289 0
      vertex 28.531139373779297 3.1423444747924805 0
    endloop
  endfacet
  facet normal 0 0 -1
    outer loop
      vertex 28.324871063232422 2.700000762939453 0
      vertex 28.324871063232422 5.5 0
      vertex 28.531139373779297 5.057657241821289 0
    endloop
  endfacet
  facet normal 0 0 -1
    outer loop
      vertex 28.044923782348633 2.30019474029541 0
      vertex 28.324871063232422 5.5 0
      vertex 28.324871063232422 2.700000762939453 0
    endloop
  endfacet
  facet normal 0 0 -1
    outer loop
      vertex 28.044923782348633 2.30019474029541 0
      vertex 28.044923782348633 5.899806022644043 0
      vertex 28.324871063232422 5.5 0
    endloop
  endfacet
  facet normal 0 0 -1
    outer loop
      vertex 27.099998474121094 1.5818679332733154 0
      vertex 28.044923782348633 2.30019474029541 0
      vertex 27.699806213378906 1.9550762176513672 0
    endloop
  endfacet
  facet normal 0 0 -1
    outer loop
      vertex 28.044923782348633 2.30019474029541 0
      vertex 27.099998474121094 1.5818679332733154 0
      vertex 28.044923782348633 5.899806022644043 0
    endloop
  endfacet
  facet normal 0 0 -1
    outer loop
      vertex 27.099998474121094 1.5818679332733154 0
      vertex 27.699806213378906 1.9550762176513672 0
      vertex 27.299999237060547 1.6751289367675781 0
    endloop
  endfacet
  facet normal 0 0 -1
    outer loop
      vertex 28.044923782348633 5.899806022644043 0
      vertex 27.099998474121094 1.5818679332733154 0
      vertex 27.699806213378906 6.244924545288086 0
    endloop
  endfacet
  facet normal 0 0 -1
    outer loop
      vertex 27.699806213378906 6.244924545288086 0
      vertex 27.099998474121094 1.5818679332733154 0
      vertex 27.299999237060547 6.524871826171875 0
    endloop
  endfacet
  facet normal 0 0 -1
    outer loop
      vertex 27.299999237060547 6.524871826171875 0
      vertex 27.099998474121094 1.5818679332733154 0
      vertex 26.857654571533203 6.73114013671875 0
    endloop
  endfacet
  facet normal 0 0 -1
    outer loop
      vertex 23.26885986328125 5.057657241821289 0
      vertex 23.099998474121094 4.100000381469727 0
      vertex 23.14253807067871 4.586215019226074 0
    endloop
  endfacet
  facet normal 0 0 -1
    outer loop
      vertex -20.67848014831543 -2.744786024093628 0
      vertex -23.202978134155273 5.42624568939209 0
      vertex -17.46215057373047 -0.31458187103271484 0
    endloop
  endfacet
  facet normal 0 0 -1
    outer loop
      vertex -26.197021484375 2.7737550735473633 0
      vertex -23.202978134155273 5.42624568939209 0
      vertex -20.67848014831543 -2.744786024093628 0
    endloop
  endfacet
  facet normal 0 0 -1
    outer loop
      vertex -23.202978134155273 5.42624568939209 0
      vertex -26.197021484375 2.7737550735473633 0
      vertex -23.56386947631836 5.745967864990234 0
    endloop
  endfacet
  facet normal 0 0 -1
    outer loop
      vertex -23.56386947631836 5.745967864990234 0
      vertex -26.197021484375 2.7737550735473633 0
      vertex -23.99078941345215 5.970032691955566 0
    endloop
  endfacet
  facet normal 0 0 -1
    outer loop
      vertex -23.99078941345215 5.970032691955566 0
      vertex -26.197021484375 2.7737550735473633 0
      vertex -24.458927154541016 6.085418701171875 0
    endloop
  endfacet
  facet normal 0 0 -1
    outer loop
      vertex -24.458927154541016 6.085418701171875 0
      vertex -26.197021484375 2.7737550735473633 0
      vertex -24.941072463989258 6.085418701171875 0
    endloop
  endfacet
  facet normal 0 0 -1
    outer loop
      vertex -24.941072463989258 6.085418701171875 0
      vertex -26.197021484375 2.7737550735473633 0
      vertex -25.409210205078125 5.970032691955566 0
    endloop
  endfacet
  facet normal 0 0 -1
    outer loop
      vertex -25.409210205078125 5.970032691955566 0
      vertex -26.197021484375 2.7737550735473633 0
      vertex -25.83612823486328 5.745967864990234 0
    endloop
  endfacet
  facet normal 0 0 -1
    outer loop
      vertex -26.197021484375 2.7737550735473633 0
      vertex -26.197021484375 5.42624568939209 0
      vertex -25.83612823486328 5.745967864990234 0
    endloop
  endfacet
  facet normal 0 0 -1
    outer loop
      vertex -26.47091293334961 3.1705541610717773 0
      vertex -26.197021484375 5.42624568939209 0
      vertex -26.197021484375 2.7737550735473633 0
    endloop
  endfacet
  facet normal 0 0 -1
    outer loop
      vertex -26.47091293334961 3.1705541610717773 0
      vertex -26.47091293334961 5.029446601867676 0
      vertex -26.197021484375 5.42624568939209 0
    endloop
  endfacet
  facet normal 0 0 -1
    outer loop
      vertex -26.641883850097656 3.6213693618774414 0
      vertex -26.47091293334961 5.029446601867676 0
      vertex -26.47091293334961 3.1705541610717773 0
    endloop
  endfacet
  facet normal 0 0 -1
    outer loop
      vertex -26.641883850097656 3.6213693618774414 0
      vertex -26.641883850097656 4.578631401062012 0
      vertex -26.47091293334961 5.029446601867676 0
    endloop
  endfacet
  facet normal 0 0 -1
    outer loop
      vertex -26.641883850097656 4.578631401062012 0
      vertex -26.641883850097656 3.6213693618774414 0
      vertex -26.700000762939453 4.100000381469727 0
    endloop
  endfacet
  facet normal 0.9659260899196238 -0.2588180612178887 0
    outer loop
      vertex 28.531139373779297 3.1423444747924805 120
      vertex 28.657461166381836 3.613785743713379 0
      vertex 28.657461166381836 3.613785743713379 120
    endloop
  endfacet
  facet normal 0.9659260899196238 -0.2588180612178887 0
    outer loop
      vertex 28.657461166381836 3.613785743713379 0
      vertex 28.531139373779297 3.1423444747924805 120
      vertex 28.531139373779297 3.1423444747924805 0
    endloop
  endfacet
  facet normal 1 0 0
    outer loop
      vertex 27.099998474121094 -0.6662961840629578 120
      vertex 27.099998474121094 1.5818679332733154 0
      vertex 27.099998474121094 1.5818679332733154 120
    endloop
  endfacet
  facet normal 1 0 0
    outer loop
      vertex 27.099998474121094 1.5818679332733154 0
      vertex 27.099998474121094 -0.6662961840629578 120
      vertex 27.099998474121094 -0.6662961840629578 0
    endloop
  endfacet
  facet normal -1 0 0
    outer loop
      vertex 23.099998474121094 -0.31458187103271484 0
      vertex 23.099998474121094 4.100000381469727 120
      vertex 23.099998474121094 4.100000381469727 0
    endloop
  endfacet
  facet normal -1 0 0
    outer loop
      vertex 23.099998474121094 4.100000381469727 120
      vertex 23.099998474121094 -0.31458187103271484 0
      vertex 23.099998474121094 -0.31458187103271484 120
    endloop
  endfacet
  facet normal 0.19607805650786855 0.9805882906480666 0
    outer loop
      vertex 31.898115158081055 -1.6257257461547852 0
      vertex 27.099998474121094 -0.6662961840629578 120
      vertex 31.898115158081055 -1.6257257461547852 120
    endloop
  endfacet
  facet normal 0.19607805650786855 0.9805882906480666 0
    outer loop
      vertex 27.099998474121094 -0.6662961840629578 120
      vertex 31.898115158081055 -1.6257257461547852 0
      vertex 27.099998474121094 -0.6662961840629578 0
    endloop
  endfacet
  facet normal -0.10052556209971303 -0.9949344759151413 0
    outer loop
      vertex -26.72884178161621 -19.038803100585938 0
      vertex -26.252634048461914 -19.086917877197266 120
      vertex -26.72884178161621 -19.038803100585938 120
    endloop
  endfacet
  facet normal -0.10052556209971303 -0.9949344759151413 0
    outer loop
      vertex -26.252634048461914 -19.086917877197266 120
      vertex -26.72884178161621 -19.038803100585938 0
      vertex -26.252634048461914 -19.086917877197266 0
    endloop
  endfacet
  facet normal -0.9146007561589342 0.4043580799656486 0
    outer loop
      vertex -27.368701934814453 -17.877120971679688 0
      vertex -20.67848014831543 -2.744786024093628 120
      vertex -20.67848014831543 -2.744786024093628 0
    endloop
  endfacet
  facet normal -0.9146007561589342 0.4043580799656486 0
    outer loop
      vertex -20.67848014831543 -2.744786024093628 120
      vertex -27.368701934814453 -17.877120971679688 0
      vertex -27.368701934814453 -17.877120971679688 120
    endloop
  endfacet
  facet normal 0 1 0
    outer loop
      vertex 23.099998474121094 -0.31458187103271484 0
      vertex -17.46215057373047 -0.31458187103271484 120
      vertex 23.099998474121094 -0.31458187103271484 120
    endloop
  endfacet
  facet normal 0 1 0
    outer loop
      vertex -17.46215057373047 -0.31458187103271484 120
      vertex 23.099998474121094 -0.31458187103271484 0
      vertex -17.46215057373047 -0.31458187103271484 0
    endloop
  endfacet
  facet normal 0.2588190766240439 -0.965925817842901 0
    outer loop
      vertex -26.252634048461914 -19.086917877197266 0
      vertex 31.935771942138672 -3.4953794479370117 120
      vertex -26.252634048461914 -19.086917877197266 120
    endloop
  endfacet
  facet normal 0.2588190766240439 -0.965925817842901 0
    outer loop
      vertex 31.935771942138672 -3.4953794479370117 120
      vertex -26.252634048461914 -19.086917877197266 0
      vertex 31.935771942138672 -3.4953794479370117 0
    endloop
  endfacet
  facet normal -0.9997971655933025 -0.02014020038625912 0
    outer loop
      vertex -27.35906219482422 -18.355655670166016 0
      vertex -27.368701934814453 -17.877120971679688 120
      vertex -27.368701934814453 -17.877120971679688 0
    endloop
  endfacet
  facet normal -0.9997971655933025 -0.02014020038625912 0
    outer loop
      vertex -27.368701934814453 -17.877120971679688 120
      vertex -27.35906219482422 -18.355655670166016 0
      vertex -27.35906219482422 -18.355655670166016 120
    endloop
  endfacet
  facet normal 0.8946343154029692 -0.446799106650249 0
    outer loop
      vertex 32.32412338256836 -3.215608596801758 120
      vertex 32.5379753112793 -2.7874088287353516 0
      vertex 32.5379753112793 -2.7874088287353516 120
    endloop
  endfacet
  facet normal 0.8946343154029692 -0.446799106650249 0
    outer loop
      vertex 32.5379753112793 -2.7874088287353516 0
      vertex 32.32412338256836 -3.215608596801758 120
      vertex 32.32412338256836 -3.215608596801758 0
    endloop
  endfacet
  facet normal -0.8759199201161865 -0.48245651984780286 0
    outer loop
      vertex -27.128143310546875 -18.774898529052734 0
      vertex -27.35906219482422 -18.355655670166016 120
      vertex -27.35906219482422 -18.355655670166016 0
    endloop
  endfacet
  facet normal -0.8759199201161865 -0.48245651984780286 0
    outer loop
      vertex -27.35906219482422 -18.355655670166016 120
      vertex -27.128143310546875 -18.774898529052734 0
      vertex -27.128143310546875 -18.774898529052734 120
    endloop
  endfacet
  facet normal -0.5513741159492859 -0.834258104102767 0
    outer loop
      vertex -27.128143310546875 -18.774898529052734 0
      vertex -26.72884178161621 -19.038803100585938 120
      vertex -27.128143310546875 -18.774898529052734 120
    endloop
  endfacet
  facet normal -0.5513741159492859 -0.834258104102767 0
    outer loop
      vertex -26.72884178161621 -19.038803100585938 120
      vertex -27.128143310546875 -18.774898529052734 0
      vertex -26.72884178161621 -19.038803100585938 0
    endloop
  endfacet
  facet normal 0.9997971655933025 0.02014020038625912 0
    outer loop
      vertex 32.5379753112793 -2.7874088287353516 120
      vertex 32.52833557128906 -2.3088741302490234 0
      vertex 32.52833557128906 -2.3088741302490234 120
    endloop
  endfacet
  facet normal 0.9997971655933025 0.02014020038625912 0
    outer loop
      vertex 32.52833557128906 -2.3088741302490234 0
      vertex 32.5379753112793 -2.7874088287353516 120
      vertex 32.5379753112793 -2.7874088287353516 0
    endloop
  endfacet
  facet normal 0.8759189925445823 0.48245820388888 0
    outer loop
      vertex 32.52833557128906 -2.3088741302490234 120
      vertex 32.29741668701172 -1.8896331787109375 0
      vertex 32.29741668701172 -1.8896331787109375 120
    endloop
  endfacet
  facet normal 0.8759189925445823 0.48245820388888 0
    outer loop
      vertex 32.29741668701172 -1.8896331787109375 0
      vertex 32.52833557128906 -2.3088741302490234 120
      vertex 32.52833557128906 -2.3088741302490234 0
    endloop
  endfacet
  facet normal 0.5845218538570555 -0.8113779651700626 0
    outer loop
      vertex 31.935771942138672 -3.4953794479370117 0
      vertex 32.32412338256836 -3.215608596801758 120
      vertex 31.935771942138672 -3.4953794479370117 120
    endloop
  endfacet
  facet normal 0.5845218538570555 -0.8113779651700626 0
    outer loop
      vertex 32.32412338256836 -3.215608596801758 120
      vertex 31.935771942138672 -3.4953794479370117 0
      vertex 32.32412338256836 -3.215608596801758 0
    endloop
  endfacet
  facet normal 0.5513782762001905 0.8342553545135364 0
    outer loop
      vertex 32.29741668701172 -1.8896331787109375 0
      vertex 31.898115158081055 -1.6257257461547852 120
      vertex 32.29741668701172 -1.8896331787109375 120
    endloop
  endfacet
  facet normal 0.5513782762001905 0.8342553545135364 0
    outer loop
      vertex 31.898115158081055 -1.6257257461547852 120
      vertex 32.29741668701172 -1.8896331787109375 0
      vertex 31.898115158081055 -1.6257257461547852 0
    endloop
  endfacet
  facet normal -0.46472473337174763 0.8854552062033166 0
    outer loop
      vertex -25.409210205078125 5.970032691955566 0
      vertex -25.83612823486328 5.745967864990234 120
      vertex -25.409210205078125 5.970032691955566 120
    endloop
  endfacet
  facet normal -0.46472473337174763 0.8854552062033166 0
    outer loop
      vertex -25.83612823486328 5.745967864990234 120
      vertex -25.409210205078125 5.970032691955566 0
      vertex -25.83612823486328 5.745967864990234 0
    endloop
  endfacet
  facet normal -0.6631210963276677 0.7485121319024776 0
    outer loop
      vertex -25.83612823486328 5.745967864990234 0
      vertex -26.197021484375 5.42624568939209 120
      vertex -25.83612823486328 5.745967864990234 120
    endloop
  endfacet
  facet normal -0.6631210963276677 0.7485121319024776 0
    outer loop
      vertex -26.197021484375 5.42624568939209 120
      vertex -25.83612823486328 5.745967864990234 0
      vertex -26.197021484375 5.42624568939209 0
    endloop
  endfacet
  facet normal 0.6631230598807086 0.7485103923489947 0
    outer loop
      vertex -23.202978134155273 5.42624568939209 0
      vertex -23.56386947631836 5.745967864990234 120
      vertex -23.202978134155273 5.42624568939209 120
    endloop
  endfacet
  facet normal 0.6631230598807086 0.7485103923489947 0
    outer loop
      vertex -23.56386947631836 5.745967864990234 120
      vertex -23.202978134155273 5.42624568939209 0
      vertex -23.56386947631836 5.745967864990234 0
    endloop
  endfacet
  facet normal 0.7071067811865475 0.7071067811865475 0
    outer loop
      vertex -17.46215057373047 -0.31458187103271484 120
      vertex -23.202978134155273 5.42624568939209 0
      vertex -23.202978134155273 5.42624568939209 120
    endloop
  endfacet
  facet normal 0.7071067811865475 0.7071067811865475 0
    outer loop
      vertex -23.202978134155273 5.42624568939209 0
      vertex -17.46215057373047 -0.31458187103271484 120
      vertex -17.46215057373047 -0.31458187103271484 0
    endloop
  endfacet
  facet normal -0.9927087288611708 -0.12053787638264797 0
    outer loop
      vertex -26.641883850097656 3.6213693618774414 0
      vertex -26.700000762939453 4.100000381469727 120
      vertex -26.700000762939453 4.100000381469727 0
    endloop
  endfacet
  facet normal -0.9927087288611708 -0.12053787638264797 0
    outer loop
      vertex -26.700000762939453 4.100000381469727 120
      vertex -26.641883850097656 3.6213693618774414 0
      vertex -26.641883850097656 3.6213693618774414 120
    endloop
  endfacet
  facet normal -0.8229830760827469 -0.5680658909680985 0
    outer loop
      vertex -26.197021484375 2.7737550735473633 0
      vertex -26.47091293334961 3.1705541610717773 120
      vertex -26.47091293334961 3.1705541610717773 0
    endloop
  endfacet
  facet normal -0.8229830760827469 -0.5680658909680985 0
    outer loop
      vertex -26.47091293334961 3.1705541610717773 120
      vertex -26.197021484375 2.7737550735473633 0
      vertex -26.197021484375 2.7737550735473633 120
    endloop
  endfacet
  facet normal 0.4647231055259876 0.8854560605644313 0
    outer loop
      vertex -23.56386947631836 5.745967864990234 0
      vertex -23.99078941345215 5.970032691955566 120
      vertex -23.56386947631836 5.745967864990234 120
    endloop
  endfacet
  facet normal 0.4647231055259876 0.8854560605644313 0
    outer loop
      vertex -23.99078941345215 5.970032691955566 120
      vertex -23.56386947631836 5.745967864990234 0
      vertex -23.99078941345215 5.970032691955566 0
    endloop
  endfacet
  facet normal -0.9350167495508589 0.35460355054531867 0
    outer loop
      vertex -26.641883850097656 4.578631401062012 0
      vertex -26.47091293334961 5.029446601867676 120
      vertex -26.47091293334961 5.029446601867676 0
    endloop
  endfacet
  facet normal -0.9350167495508589 0.35460355054531867 0
    outer loop
      vertex -26.47091293334961 5.029446601867676 120
      vertex -26.641883850097656 4.578631401062012 0
      vertex -26.641883850097656 4.578631401062012 120
    endloop
  endfacet
  facet normal -0.7071067659119135 -0.7071067964611814 0
    outer loop
      vertex -20.67848014831543 -2.744786024093628 0
      vertex -26.197021484375 2.7737550735473633 120
      vertex -26.197021484375 2.7737550735473633 0
    endloop
  endfacet
  facet normal -0.7071067659119135 -0.7071067964611814 0
    outer loop
      vertex -26.197021484375 2.7737550735473633 120
      vertex -20.67848014831543 -2.744786024093628 0
      vertex -20.67848014831543 -2.744786024093628 120
    endloop
  endfacet
  facet normal 0.23931648391177243 0.9709416154064602 0
    outer loop
      vertex -23.99078941345215 5.970032691955566 0
      vertex -24.458927154541016 6.085418701171875 120
      vertex -23.99078941345215 5.970032691955566 120
    endloop
  endfacet
  facet normal 0.23931648391177243 0.9709416154064602 0
    outer loop
      vertex -24.458927154541016 6.085418701171875 120
      vertex -23.99078941345215 5.970032691955566 0
      vertex -24.458927154541016 6.085418701171875 0
    endloop
  endfacet
  facet normal -0.23931648391177243 0.9709416154064602 0
    outer loop
      vertex -24.941072463989258 6.085418701171875 0
      vertex -25.409210205078125 5.970032691955566 120
      vertex -24.941072463989258 6.085418701171875 120
    endloop
  endfacet
  facet normal -0.23931648391177243 0.9709416154064602 0
    outer loop
      vertex -25.409210205078125 5.970032691955566 120
      vertex -24.941072463989258 6.085418701171875 0
      vertex -25.409210205078125 5.970032691955566 0
    endloop
  endfacet
  facet normal 0 1 0
    outer loop
      vertex -24.458927154541016 6.085418701171875 0
      vertex -24.941072463989258 6.085418701171875 120
      vertex -24.458927154541016 6.085418701171875 120
    endloop
  endfacet
  facet normal 0 1 0
    outer loop
      vertex -24.941072463989258 6.085418701171875 120
      vertex -24.458927154541016 6.085418701171875 0
      vertex -24.941072463989258 6.085418701171875 0
    endloop
  endfacet
  facet normal -0.8229830760827469 0.5680658909680985 0
    outer loop
      vertex -26.47091293334961 5.029446601867676 0
      vertex -26.197021484375 5.42624568939209 120
      vertex -26.197021484375 5.42624568939209 0
    endloop
  endfacet
  facet normal -0.8229830760827469 0.5680658909680985 0
    outer loop
      vertex -26.197021484375 5.42624568939209 120
      vertex -26.47091293334961 5.029446601867676 0
      vertex -26.47091293334961 5.029446601867676 120
    endloop
  endfacet
  facet normal -0.9927087288611708 0.12053787638264797 0
    outer loop
      vertex -26.700000762939453 4.100000381469727 0
      vertex -26.641883850097656 4.578631401062012 120
      vertex -26.641883850097656 4.578631401062012 0
    endloop
  endfacet
  facet normal -0.9927087288611708 0.12053787638264797 0
    outer loop
      vertex -26.641883850097656 4.578631401062012 120
      vertex -26.700000762939453 4.100000381469727 0
      vertex -26.700000762939453 4.100000381469727 120
    endloop
  endfacet
  facet normal -0.9350167495508589 -0.35460355054531867 0
    outer loop
      vertex -26.47091293334961 3.1705541610717773 0
      vertex -26.641883850097656 3.6213693618774414 120
      vertex -26.641883850097656 3.6213693618774414 0
    endloop
  endfacet
  facet normal -0.9350167495508589 -0.35460355054531867 0
    outer loop
      vertex -26.641883850097656 3.6213693618774414 120
      vertex -26.47091293334961 3.1705541610717773 0
      vertex -26.47091293334961 3.1705541610717773 120
    endloop
  endfacet
endsolid OpenSCAD_Model
