solid OpenSCAD_Model
  facet normal 0.9986293270200869 0.052339919902577074 0
    outer loop
      vertex 57.79999923706055 5.950000762939453 120
      vertex 57.77288055419922 6.467416763305664 0
      vertex 57.77288055419922 6.467416763305664 120
    endloop
  endfacet
  facet normal 0.9986293270200869 0.052339919902577074 0
    outer loop
      vertex 57.77288055419922 6.467416763305664 0
      vertex 57.79999923706055 5.950000762939453 120
      vertex 57.79999923706055 5.950000762939453 0
    endloop
  endfacet
  facet normal 0.5446394578504059 0.8386702933527668 0
    outer loop
      vertex 55.75953674316406 9.954634666442871 0
      vertex 55.32500076293945 10.236825942993164 120
      vertex 55.75953674316406 9.954634666442871 120
    endloop
  endfacet
  facet normal 0.5446394578504059 0.8386702933527668 0
    outer loop
      vertex 55.32500076293945 10.236825942993164 120
      vertex 55.75953674316406 9.954634666442871 0
      vertex 55.32500076293945 10.236825942993164 0
    endloop
  endfacet
  facet normal 0.9986293270200869 -0.052339919902577074 0
    outer loop
      vertex 57.77288055419922 5.432584762573242 120
      vertex 57.79999923706055 5.950000762939453 0
      vertex 57.79999923706055 5.950000762939453 120
    endloop
  endfacet
  facet normal 0.9986293270200869 -0.052339919902577074 0
    outer loop
      vertex 57.79999923706055 5.950000762939453 0
      vertex 57.77288055419922 5.432584762573242 120
      vertex 57.77288055419922 5.432584762573242 0
    endloop
  endfacet
  facet normal -0.8386699985940487 0.544639911738259 0
    outer loop
      vertex 48.563175201416016 8.425000190734863 0
      vertex 48.845367431640625 8.859537124633789 120
      vertex 48.845367431640625 8.859537124633789 0
    endloop
  endfacet
  facet normal -0.8386699985940487 0.544639911738259 0
    outer loop
      vertex 48.845367431640625 8.859537124633789 120
      vertex 48.563175201416016 8.425000190734863 0
      vertex 48.563175201416016 8.425000190734863 120
    endloop
  endfacet
  facet normal 0.7071095421270824 -0.7071040202352323 0
    outer loop
      vertex 56.16219711303711 2.2714338302612305 120
      vertex 56.528564453125 2.6378040313720703 0
      vertex 56.528564453125 2.6378040313720703 120
    endloop
  endfacet
  facet normal 0.7071095421270824 -0.7071040202352323 0
    outer loop
      vertex 56.528564453125 2.6378040313720703 0
      vertex 56.16219711303711 2.2714338302612305 120
      vertex 56.16219711303711 2.2714338302612305 0
    endloop
  endfacet
  facet normal -0.5446360948738379 0.8386724772881102 0
    outer loop
      vertex 50.375 10.236825942993164 0
      vertex 49.940460205078125 9.954634666442871 120
      vertex 50.375 10.236825942993164 120
    endloop
  endfacet
  facet normal -0.5446360948738379 0.8386724772881102 0
    outer loop
      vertex 49.940460205078125 9.954634666442871 120
      vertex 50.375 10.236825942993164 0
      vertex 49.940460205078125 9.954634666442871 0
    endloop
  endfacet
  facet normal -0.9659271667587981 0.2588140423495625 0
    outer loop
      vertex 48.00817108154297 6.97916316986084 0
      vertex 48.142269134521484 7.4796342849731445 120
      vertex 48.142269134521484 7.4796342849731445 0
    endloop
  endfacet
  facet normal -0.9659271667587981 0.2588140423495625 0
    outer loop
      vertex 48.142269134521484 7.4796342849731445 120
      vertex 48.00817108154297 6.97916316986084 0
      vertex 48.00817108154297 6.97916316986084 120
    endloop
  endfacet
  facet normal 0.8910084377201126 -0.4539867442024759 0
    outer loop
      vertex 57.13682556152344 3.4750003814697266 120
      vertex 57.372047424316406 3.9366540908813477 0
      vertex 57.372047424316406 3.9366540908813477 120
    endloop
  endfacet
  facet normal 0.8910084377201126 -0.4539867442024759 0
    outer loop
      vertex 57.372047424316406 3.9366540908813477 0
      vertex 57.13682556152344 3.4750003814697266 120
      vertex 57.13682556152344 3.4750003814697266 0
    endloop
  endfacet
  facet normal 0 0 -1
    outer loop
      vertex 47.900001525878906 -0.19999980926513672 0
      vertex 61 -14.199999809265137 0
      vertex 61 -15.1899995803833 0
    endloop
  endfacet
  facet normal 0 0 -1
    outer loop
      vertex 47.900001525878906 -0.19999980926513672 0
      vertex 55.900001525878906 2.0591108798980713 0
      vertex 55.900001525878906 -0.19999980926513672 0
    endloop
  endfacet
  facet normal 0 0 -1
    outer loop
      vertex 55.900001525878906 2.0591108798980713 0
      vertex 47.900001525878906 5.950000762939453 0
      vertex 55.75953674316406 9.954634666442871 0
    endloop
  endfacet
  facet normal 0 0 -1
    outer loop
      vertex 55.75953674316406 9.954634666442871 0
      vertex 47.900001525878906 5.950000762939453 0
      vertex 55.32500076293945 10.236825942993164 0
    endloop
  endfacet
  facet normal 0 0 -1
    outer loop
      vertex 55.32500076293945 10.236825942993164 0
      vertex 47.900001525878906 5.950000762939453 0
      vertex 54.863346099853516 10.472050666809082 0
    endloop
  endfacet
  facet normal 0 0 -1
    outer loop
      vertex 54.863346099853516 10.472050666809082 0
      vertex 47.900001525878906 5.950000762939453 0
      vertex 54.379634857177734 10.657730102539062 0
    endloop
  endfacet
  facet normal 0 0 -1
    outer loop
      vertex 54.379634857177734 10.657730102539062 0
      vertex 47.900001525878906 5.950000762939453 0
      vertex 53.8791618347168 10.791831016540527 0
    endloop
  endfacet
  facet normal 0 0 -1
    outer loop
      vertex 53.8791618347168 10.791831016540527 0
      vertex 47.900001525878906 5.950000762939453 0
      vertex 53.36741638183594 10.872883796691895 0
    endloop
  endfacet
  facet normal 0 0 -1
    outer loop
      vertex 53.36741638183594 10.872883796691895 0
      vertex 47.900001525878906 5.950000762939453 0
      vertex 52.849998474121094 10.90000057220459 0
    endloop
  endfacet
  facet normal 0 0 -1
    outer loop
      vertex 52.849998474121094 10.90000057220459 0
      vertex 47.900001525878906 5.950000762939453 0
      vertex 52.332584381103516 10.872883796691895 0
    endloop
  endfacet
  facet normal 0 0 -1
    outer loop
      vertex 61 -14.199999809265137 0
      vertex 47.900001525878906 -0.19999980926513672 0
      vertex 55.900001525878906 -0.19999980926513672 0
    endloop
  endfacet
  facet normal 0 0 -1
    outer loop
      vertex 55.900001525878906 2.0591108798980713 0
      vertex 47.900001525878906 -0.19999980926513672 0
      vertex 47.900001525878906 5.950000762939453 0
    endloop
  endfacet
  facet normal 0 0 -1
    outer loop
      vertex 52.332584381103516 10.872883796691895 0
      vertex 47.900001525878906 5.950000762939453 0
      vertex 51.820838928222656 10.791831016540527 0
    endloop
  endfacet
  facet normal 0 0 -1
    outer loop
      vertex 51.820838928222656 10.791831016540527 0
      vertex 47.900001525878906 5.950000762939453 0
      vertex 51.32036590576172 10.657730102539062 0
    endloop
  endfacet
  facet normal 0 0 -1
    outer loop
      vertex 51.32036590576172 10.657730102539062 0
      vertex 47.900001525878906 5.950000762939453 0
      vertex 50.83665466308594 10.472050666809082 0
    endloop
  endfacet
  facet normal 0 0 -1
    outer loop
      vertex 50.83665466308594 10.472050666809082 0
      vertex 47.900001525878906 5.950000762939453 0
      vertex 50.375 10.236825942993164 0
    endloop
  endfacet
  facet normal 0 0 -1
    outer loop
      vertex 50.375 10.236825942993164 0
      vertex 47.900001525878906 5.950000762939453 0
      vertex 49.940460205078125 9.954634666442871 0
    endloop
  endfacet
  facet normal 0 0 -1
    outer loop
      vertex 49.940460205078125 9.954634666442871 0
      vertex 47.900001525878906 5.950000762939453 0
      vertex 49.537803649902344 9.628567695617676 0
    endloop
  endfacet
  facet normal 0 0 -1
    outer loop
      vertex 49.537803649902344 9.628567695617676 0
      vertex 47.900001525878906 5.950000762939453 0
      vertex 49.17143249511719 9.26219654083252 0
    endloop
  endfacet
  facet normal 0 0 -1
    outer loop
      vertex 49.17143249511719 9.26219654083252 0
      vertex 47.900001525878906 5.950000762939453 0
      vertex 48.845367431640625 8.859537124633789 0
    endloop
  endfacet
  facet normal 0 0 -1
    outer loop
      vertex 48.563175201416016 8.425000190734863 0
      vertex 47.900001525878906 5.950000762939453 0
      vertex 48.32794952392578 7.963346481323242 0
    endloop
  endfacet
  facet normal 0 0 -1
    outer loop
      vertex 48.32794952392578 7.963346481323242 0
      vertex 47.900001525878906 5.950000762939453 0
      vertex 48.142269134521484 7.4796342849731445 0
    endloop
  endfacet
  facet normal 0 0 -1
    outer loop
      vertex 48.142269134521484 7.4796342849731445 0
      vertex 47.900001525878906 5.950000762939453 0
      vertex 48.00817108154297 6.97916316986084 0
    endloop
  endfacet
  facet normal 0 0 -1
    outer loop
      vertex 48.845367431640625 8.859537124633789 0
      vertex 47.900001525878906 5.950000762939453 0
      vertex 48.563175201416016 8.425000190734863 0
    endloop
  endfacet
  facet normal 0 0 -1
    outer loop
      vertex 61 -15.1899995803833 0
      vertex -35.1491813659668 -0.19999980926513672 0
      vertex 47.900001525878906 -0.19999980926513672 0
    endloop
  endfacet
  facet normal 0 0 -1
    outer loop
      vertex -61 -15.1899995803833 0
      vertex -35.1491813659668 -0.19999980926513672 0
      vertex 61 -15.1899995803833 0
    endloop
  endfacet
  facet normal 0 0 -1
    outer loop
      vertex -35.1491813659668 -0.19999980926513672 0
      vertex -61 -15.1899995803833 0
      vertex -45.264305114746094 -1.391877293586731 0
    endloop
  endfacet
  facet normal 0 0 -1
    outer loop
      vertex -45.264305114746094 -1.391877293586731 0
      vertex -61 -15.1899995803833 0
      vertex -61 -14.199999809265137 0
    endloop
  endfacet
  facet normal 0 0 -1
    outer loop
      vertex 57.77288055419922 5.432584762573242 0
      vertex 57.77288055419922 6.467416763305664 0
      vertex 57.79999923706055 5.950000762939453 0
    endloop
  endfacet
  facet normal 0 0 -1
    outer loop
      vertex 57.691829681396484 4.92083740234375 0
      vertex 57.77288055419922 6.467416763305664 0
      vertex 57.77288055419922 5.432584762573242 0
    endloop
  endfacet
  facet normal 0 0 -1
    outer loop
      vertex 57.691829681396484 4.92083740234375 0
      vertex 57.691829681396484 6.97916316986084 0
      vertex 57.77288055419922 6.467416763305664 0
    endloop
  endfacet
  facet normal 0 0 -1
    outer loop
      vertex 57.55773162841797 4.420366287231445 0
      vertex 57.691829681396484 6.97916316986084 0
      vertex 57.691829681396484 4.92083740234375 0
    endloop
  endfacet
  facet normal 0 0 -1
    outer loop
      vertex 57.55773162841797 4.420366287231445 0
      vertex 57.55773162841797 7.4796342849731445 0
      vertex 57.691829681396484 6.97916316986084 0
    endloop
  endfacet
  facet normal 0 0 -1
    outer loop
      vertex 57.372047424316406 3.9366540908813477 0
      vertex 57.55773162841797 7.4796342849731445 0
      vertex 57.55773162841797 4.420366287231445 0
    endloop
  endfacet
  facet normal 0 0 -1
    outer loop
      vertex 57.372047424316406 3.9366540908813477 0
      vertex 57.372047424316406 7.963346481323242 0
      vertex 57.55773162841797 7.4796342849731445 0
    endloop
  endfacet
  facet normal 0 0 -1
    outer loop
      vertex 57.13682556152344 3.4750003814697266 0
      vertex 57.372047424316406 7.963346481323242 0
      vertex 57.372047424316406 3.9366540908813477 0
    endloop
  endfacet
  facet normal 0 0 -1
    outer loop
      vertex 57.13682556152344 3.4750003814697266 0
      vertex 57.13682556152344 8.425000190734863 0
      vertex 57.372047424316406 7.963346481323242 0
    endloop
  endfacet
  facet normal 0 0 -1
    outer loop
      vertex 56.85463333129883 3.040463447570801 0
      vertex 57.13682556152344 8.425000190734863 0
      vertex 57.13682556152344 3.4750003814697266 0
    endloop
  endfacet
  facet normal 0 0 -1
    outer loop
      vertex 56.85463333129883 3.040463447570801 0
      vertex 56.85463333129883 8.859537124633789 0
      vertex 57.13682556152344 8.425000190734863 0
    endloop
  endfacet
  facet normal 0 0 -1
    outer loop
      vertex 56.528564453125 2.6378040313720703 0
      vertex 56.85463333129883 8.859537124633789 0
      vertex 56.85463333129883 3.040463447570801 0
    endloop
  endfacet
  facet normal 0 0 -1
    outer loop
      vertex 56.528564453125 2.6378040313720703 0
      vertex 56.528564453125 9.26219654083252 0
      vertex 56.85463333129883 8.859537124633789 0
    endloop
  endfacet
  facet normal 0 0 -1
    outer loop
      vertex 55.900001525878906 2.0591108798980713 0
      vertex 56.528564453125 2.6378040313720703 0
      vertex 56.16219711303711 2.2714338302612305 0
    endloop
  endfacet
  facet normal 0 0 -1
    outer loop
      vertex 56.528564453125 2.6378040313720703 0
      vertex 55.900001525878906 2.0591108798980713 0
      vertex 56.528564453125 9.26219654083252 0
    endloop
  endfacet
  facet normal 0 0 -1
    outer loop
      vertex 56.528564453125 9.26219654083252 0
      vertex 55.900001525878906 2.0591108798980713 0
      vertex 56.16219711303711 9.628567695617676 0
    endloop
  endfacet
  facet normal 0 0 -1
    outer loop
      vertex 56.16219711303711 9.628567695617676 0
      vertex 55.900001525878906 2.0591108798980713 0
      vertex 55.75953674316406 9.954634666442871 0
    endloop
  endfacet
  facet normal 0 0 -1
    outer loop
      vertex 48.00817108154297 6.97916316986084 0
      vertex 47.900001525878906 5.950000762939453 0
      vertex 47.92711639404297 6.467416763305664 0
    endloop
  endfacet
  facet normal 0 0 -1
    outer loop
      vertex -45.264305114746094 -1.391877293586731 0
      vertex -46.30521774291992 10.956035614013672 0
      vertex -35.1491813659668 -0.19999980926513672 0
    endloop
  endfacet
  facet normal 0 0 -1
    outer loop
      vertex -51.871646881103516 5.215463638305664 0
      vertex -46.30521774291992 10.956035614013672 0
      vertex -45.264305114746094 -1.391877293586731 0
    endloop
  endfacet
  facet normal 0 0 -1
    outer loop
      vertex -46.30521774291992 10.956035614013672 0
      vertex -51.871646881103516 5.215463638305664 0
      vertex -46.68890380859375 11.264786720275879 0
    endloop
  endfacet
  facet normal 0 0 -1
    outer loop
      vertex -46.68890380859375 11.264786720275879 0
      vertex -51.871646881103516 5.215463638305664 0
      vertex -47.10762405395508 11.5240478515625 0
    endloop
  endfacet
  facet normal 0 0 -1
    outer loop
      vertex -47.10762405395508 11.5240478515625 0
      vertex -51.871646881103516 5.215463638305664 0
      vertex -47.555030822753906 11.729888916015625 0
    endloop
  endfacet
  facet normal 0 0 -1
    outer loop
      vertex -47.555030822753906 11.729888916015625 0
      vertex -51.871646881103516 5.215463638305664 0
      vertex -48.02434539794922 11.87918758392334 0
    endloop
  endfacet
  facet normal 0 0 -1
    outer loop
      vertex -48.02434539794922 11.87918758392334 0
      vertex -51.871646881103516 5.215463638305664 0
      vertex -48.508445739746094 11.969681739807129 0
    endloop
  endfacet
  facet normal 0 0 -1
    outer loop
      vertex -48.508445739746094 11.969681739807129 0
      vertex -51.871646881103516 5.215463638305664 0
      vertex -49 12 0
    endloop
  endfacet
  facet normal 0 0 -1
    outer loop
      vertex -49 12 0
      vertex -51.871646881103516 5.215463638305664 0
      vertex -49.491554260253906 11.969681739807129 0
    endloop
  endfacet
  facet normal 0 0 -1
    outer loop
      vertex -49.491554260253906 11.969681739807129 0
      vertex -51.871646881103516 5.215463638305664 0
      vertex -49.97565460205078 11.87918758392334 0
    endloop
  endfacet
  facet normal 0 0 -1
    outer loop
      vertex -49.97565460205078 11.87918758392334 0
      vertex -51.871646881103516 5.215463638305664 0
      vertex -50.44496536254883 11.729888916015625 0
    endloop
  endfacet
  facet normal 0 0 -1
    outer loop
      vertex -50.44496536254883 11.729888916015625 0
      vertex -51.871646881103516 5.215463638305664 0
      vertex -50.892372131347656 11.5240478515625 0
    endloop
  endfacet
  facet normal 0 0 -1
    outer loop
      vertex -50.892372131347656 11.5240478515625 0
      vertex -51.871646881103516 5.215463638305664 0
      vertex -51.31109619140625 11.264786720275879 0
    endloop
  endfacet
  facet normal 0 0 -1
    outer loop
      vertex -51.31109619140625 11.264786720275879 0
      vertex -51.871646881103516 5.215463638305664 0
      vertex -51.69478225708008 10.956035614013672 0
    endloop
  endfacet
  facet normal 0 0 -1
    outer loop
      vertex -51.871646881103516 5.215463638305664 0
      vertex -52.037620544433594 10.602472305297852 0
      vertex -51.69478225708008 10.956035614013672 0
    endloop
  endfacet
  facet normal 0 0 -1
    outer loop
      vertex -52.19207000732422 5.589461326599121 0
      vertex -52.037620544433594 10.602472305297852 0
      vertex -51.871646881103516 5.215463638305664 0
    endloop
  endfacet
  facet normal 0 0 -1
    outer loop
      vertex -52.19207000732422 5.589461326599121 0
      vertex -52.334407806396484 10.20945930480957 0
      vertex -52.037620544433594 10.602472305297852 0
    endloop
  endfacet
  facet normal 0 0 -1
    outer loop
      vertex -52.4640998840332 6 0
      vertex -52.334407806396484 10.20945930480957 0
      vertex -52.19207000732422 5.589461326599121 0
    endloop
  endfacet
  facet normal 0 0 -1
    outer loop
      vertex -52.4640998840332 6 0
      vertex -52.580650329589844 9.782953262329102 0
      vertex -52.334407806396484 10.20945930480957 0
    endloop
  endfacet
  facet normal 0 0 -1
    outer loop
      vertex -52.68362045288086 6.440855979919434 0
      vertex -52.580650329589844 9.782953262329102 0
      vertex -52.4640998840332 6 0
    endloop
  endfacet
  facet normal 0 0 -1
    outer loop
      vertex -52.68362045288086 6.440855979919434 0
      vertex -52.77261734008789 9.329419136047363 0
      vertex -52.580650329589844 9.782953262329102 0
    endloop
  endfacet
  facet normal 0 0 -1
    outer loop
      vertex -52.8473014831543 6.90534782409668 0
      vertex -52.77261734008789 9.329419136047363 0
      vertex -52.68362045288086 6.440855979919434 0
    endloop
  endfacet
  facet normal 0 0 -1
    outer loop
      vertex -52.8473014831543 6.90534782409668 0
      vertex -52.90739440917969 8.855731964111328 0
      vertex -52.77261734008789 9.329419136047363 0
    endloop
  endfacet
  facet normal 0 0 -1
    outer loop
      vertex -52.952659606933594 7.386432647705078 0
      vertex -52.90739440917969 8.855731964111328 0
      vertex -52.8473014831543 6.90534782409668 0
    endloop
  endfacet
  facet normal 0 0 -1
    outer loop
      vertex -52.952659606933594 7.386432647705078 0
      vertex -52.98293685913086 8.369072914123535 0
      vertex -52.90739440917969 8.855731964111328 0
    endloop
  endfacet
  facet normal 0 0 -1
    outer loop
      vertex -52.98293685913086 8.369072914123535 0
      vertex -52.952659606933594 7.386432647705078 0
      vertex -52.99810028076172 7.876819610595703 0
    endloop
  endfacet
  facet normal -0.4539903834365374 0.8910065834477015 0
    outer loop
      vertex 50.83665466308594 10.472050666809082 0
      vertex 50.375 10.236825942993164 120
      vertex 50.83665466308594 10.472050666809082 120
    endloop
  endfacet
  facet normal -0.4539903834365374 0.8910065834477015 0
    outer loop
      vertex 50.375 10.236825942993164 120
      vertex 50.83665466308594 10.472050666809082 0
      vertex 50.375 10.236825942993164 0
    endloop
  endfacet
  facet normal -0.8910054595335593 0.45399258923620206 0
    outer loop
      vertex 48.32794952392578 7.963346481323242 0
      vertex 48.563175201416016 8.425000190734863 120
      vertex 48.563175201416016 8.425000190734863 0
    endloop
  endfacet
  facet normal -0.8910054595335593 0.45399258923620206 0
    outer loop
      vertex 48.563175201416016 8.425000190734863 120
      vertex 48.32794952392578 7.963346481323242 0
      vertex 48.32794952392578 7.963346481323242 120
    endloop
  endfacet
  facet normal 0.4539903834365374 0.8910065834477015 0
    outer loop
      vertex 55.32500076293945 10.236825942993164 0
      vertex 54.863346099853516 10.472050666809082 120
      vertex 55.32500076293945 10.236825942993164 120
    endloop
  endfacet
  facet normal 0.4539903834365374 0.8910065834477015 0
    outer loop
      vertex 54.863346099853516 10.472050666809082 120
      vertex 55.32500076293945 10.236825942993164 0
      vertex 54.863346099853516 10.472050666809082 0
    endloop
  endfacet
  facet normal -0.7771479461404895 0.6293179401619016 0
    outer loop
      vertex 48.845367431640625 8.859537124633789 0
      vertex 49.17143249511719 9.26219654083252 120
      vertex 49.17143249511719 9.26219654083252 0
    endloop
  endfacet
  facet normal -0.7771479461404895 0.6293179401619016 0
    outer loop
      vertex 49.17143249511719 9.26219654083252 120
      vertex 48.845367431640625 8.859537124633789 0
      vertex 48.845367431640625 8.859537124633789 120
    endloop
  endfacet
  facet normal -0.9986297118170303 0.052332577580650276 0
    outer loop
      vertex 47.900001525878906 5.950000762939453 0
      vertex 47.92711639404297 6.467416763305664 120
      vertex 47.92711639404297 6.467416763305664 0
    endloop
  endfacet
  facet normal -0.9986297118170303 0.052332577580650276 0
    outer loop
      vertex 47.92711639404297 6.467416763305664 120
      vertex 47.900001525878906 5.950000762939453 0
      vertex 47.900001525878906 5.950000762939453 120
    endloop
  endfacet
  facet normal 0.35836809475741904 0.933580370755479 0
    outer loop
      vertex 54.863346099853516 10.472050666809082 0
      vertex 54.379634857177734 10.657730102539062 120
      vertex 54.863346099853516 10.472050666809082 120
    endloop
  endfacet
  facet normal 0.35836809475741904 0.933580370755479 0
    outer loop
      vertex 54.379634857177734 10.657730102539062 120
      vertex 54.863346099853516 10.472050666809082 0
      vertex 54.379634857177734 10.657730102539062 0
    endloop
  endfacet
  facet normal -0.6293228640905403 0.7771439588215812 0
    outer loop
      vertex 49.940460205078125 9.954634666442871 0
      vertex 49.537803649902344 9.628567695617676 120
      vertex 49.940460205078125 9.954634666442871 120
    endloop
  endfacet
  facet normal -0.6293228640905403 0.7771439588215812 0
    outer loop
      vertex 49.537803649902344 9.628567695617676 120
      vertex 49.940460205078125 9.954634666442871 0
      vertex 49.537803649902344 9.628567695617676 0
    endloop
  endfacet
  facet normal 0.629319263281458 0.7771468747044428 0
    outer loop
      vertex 56.16219711303711 9.628567695617676 0
      vertex 55.75953674316406 9.954634666442871 120
      vertex 56.16219711303711 9.628567695617676 120
    endloop
  endfacet
  facet normal 0.629319263281458 0.7771468747044428 0
    outer loop
      vertex 55.75953674316406 9.954634666442871 120
      vertex 56.16219711303711 9.628567695617676 0
      vertex 55.75953674316406 9.954634666442871 0
    endloop
  endfacet
  facet normal 0.9659271667587981 0.2588140423495625 0
    outer loop
      vertex 57.691829681396484 6.97916316986084 120
      vertex 57.55773162841797 7.4796342849731445 0
      vertex 57.55773162841797 7.4796342849731445 120
    endloop
  endfacet
  facet normal 0.9659271667587981 0.2588140423495625 0
    outer loop
      vertex 57.55773162841797 7.4796342849731445 0
      vertex 57.691829681396484 6.97916316986084 120
      vertex 57.691829681396484 6.97916316986084 0
    endloop
  endfacet
  facet normal 0.8386699985940487 0.544639911738259 0
    outer loop
      vertex 57.13682556152344 8.425000190734863 120
      vertex 56.85463333129883 8.859537124633789 0
      vertex 56.85463333129883 8.859537124633789 120
    endloop
  endfacet
  facet normal 0.8386699985940487 0.544639911738259 0
    outer loop
      vertex 56.85463333129883 8.859537124633789 0
      vertex 57.13682556152344 8.425000190734863 120
      vertex 57.13682556152344 8.425000190734863 0
    endloop
  endfacet
  facet normal 0.9335775280782522 0.3583755000935473 0
    outer loop
      vertex 57.55773162841797 7.4796342849731445 120
      vertex 57.372047424316406 7.963346481323242 0
      vertex 57.372047424316406 7.963346481323242 120
    endloop
  endfacet
  facet normal 0.9335775280782522 0.3583755000935473 0
    outer loop
      vertex 57.372047424316406 7.963346481323242 0
      vertex 57.55773162841797 7.4796342849731445 120
      vertex 57.55773162841797 7.4796342849731445 0
    endloop
  endfacet
  facet normal 0.8910084377201126 0.4539867442024759 0
    outer loop
      vertex 57.372047424316406 7.963346481323242 120
      vertex 57.13682556152344 8.425000190734863 0
      vertex 57.13682556152344 8.425000190734863 120
    endloop
  endfacet
  facet normal 0.8910084377201126 0.4539867442024759 0
    outer loop
      vertex 57.13682556152344 8.425000190734863 0
      vertex 57.372047424316406 7.963346481323242 120
      vertex 57.372047424316406 7.963346481323242 0
    endloop
  endfacet
  facet normal -0.258818274025114 0.9659260328983068 0
    outer loop
      vertex 51.820838928222656 10.791831016540527 0
      vertex 51.32036590576172 10.657730102539062 120
      vertex 51.820838928222656 10.791831016540527 120
    endloop
  endfacet
  facet normal -0.258818274025114 0.9659260328983068 0
    outer loop
      vertex 51.32036590576172 10.657730102539062 120
      vertex 51.820838928222656 10.791831016540527 0
      vertex 51.32036590576172 10.657730102539062 0
    endloop
  endfacet
  facet normal -0.15643496023384537 0.987688262164047 0
    outer loop
      vertex 52.332584381103516 10.872883796691895 0
      vertex 51.820838928222656 10.791831016540527 120
      vertex 52.332584381103516 10.872883796691895 120
    endloop
  endfacet
  facet normal -0.15643496023384537 0.987688262164047 0
    outer loop
      vertex 51.820838928222656 10.791831016540527 120
      vertex 52.332584381103516 10.872883796691895 0
      vertex 51.820838928222656 10.791831016540527 0
    endloop
  endfacet
  facet normal -0.7071067811865476 0.7071067811865476 0
    outer loop
      vertex 49.17143249511719 9.26219654083252 0
      vertex 49.537803649902344 9.628567695617676 120
      vertex 49.537803649902344 9.628567695617676 0
    endloop
  endfacet
  facet normal -0.7071067811865476 0.7071067811865476 0
    outer loop
      vertex 49.537803649902344 9.628567695617676 120
      vertex 49.17143249511719 9.26219654083252 0
      vertex 49.17143249511719 9.26219654083252 120
    endloop
  endfacet
  facet normal -0.9876877384163812 0.15643826699990696 0
    outer loop
      vertex 47.92711639404297 6.467416763305664 0
      vertex 48.00817108154297 6.97916316986084 120
      vertex 48.00817108154297 6.97916316986084 0
    endloop
  endfacet
  facet normal -0.9876877384163812 0.15643826699990696 0
    outer loop
      vertex 48.00817108154297 6.97916316986084 120
      vertex 47.92711639404297 6.467416763305664 0
      vertex 47.92711639404297 6.467416763305664 120
    endloop
  endfacet
  facet normal 0.6293224502342617 -0.7771442939577856 0
    outer loop
      vertex 55.900001525878906 2.0591108798980713 0
      vertex 56.16219711303711 2.2714338302612305 120
      vertex 55.900001525878906 2.0591108798980713 120
    endloop
  endfacet
  facet normal 0.6293224502342617 -0.7771442939577856 0
    outer loop
      vertex 56.16219711303711 2.2714338302612305 120
      vertex 55.900001525878906 2.0591108798980713 0
      vertex 56.16219711303711 2.2714338302612305 0
    endloop
  endfacet
  facet normal 0.05233605634490922 0.9986295295084471 0
    outer loop
      vertex 53.36741638183594 10.872883796691895 0
      vertex 52.849998474121094 10.90000057220459 120
      vertex 53.36741638183594 10.872883796691895 120
    endloop
  endfacet
  facet normal 0.05233605634490922 0.9986295295084471 0
    outer loop
      vertex 52.849998474121094 10.90000057220459 120
      vertex 53.36741638183594 10.872883796691895 0
      vertex 52.849998474121094 10.90000057220459 0
    endloop
  endfacet
  facet normal 0.7071104624334072 0.7071030999205229 0
    outer loop
      vertex 56.528564453125 9.26219654083252 120
      vertex 56.16219711303711 9.628567695617676 0
      vertex 56.16219711303711 9.628567695617676 120
    endloop
  endfacet
  facet normal 0.7071104624334072 0.7071030999205229 0
    outer loop
      vertex 56.16219711303711 9.628567695617676 0
      vertex 56.528564453125 9.26219654083252 120
      vertex 56.528564453125 9.26219654083252 0
    endloop
  endfacet
  facet normal -0.9335799913333409 0.3583690831838581 0
    outer loop
      vertex 48.142269134521484 7.4796342849731445 0
      vertex 48.32794952392578 7.963346481323242 120
      vertex 48.32794952392578 7.963346481323242 0
    endloop
  endfacet
  facet normal -0.9335799913333409 0.3583690831838581 0
    outer loop
      vertex 48.32794952392578 7.963346481323242 120
      vertex 48.142269134521484 7.4796342849731445 0
      vertex 48.142269134521484 7.4796342849731445 120
    endloop
  endfacet
  facet normal -0.35836809475741904 0.933580370755479 0
    outer loop
      vertex 51.32036590576172 10.657730102539062 0
      vertex 50.83665466308594 10.472050666809082 120
      vertex 51.32036590576172 10.657730102539062 120
    endloop
  endfacet
  facet normal -0.35836809475741904 0.933580370755479 0
    outer loop
      vertex 50.83665466308594 10.472050666809082 120
      vertex 51.32036590576172 10.657730102539062 0
      vertex 50.83665466308594 10.472050666809082 0
    endloop
  endfacet
  facet normal -0.052336441141852666 0.9986295093419808 0
    outer loop
      vertex 52.849998474121094 10.90000057220459 0
      vertex 52.332584381103516 10.872883796691895 120
      vertex 52.849998474121094 10.90000057220459 120
    endloop
  endfacet
  facet normal -0.052336441141852666 0.9986295093419808 0
    outer loop
      vertex 52.332584381103516 10.872883796691895 120
      vertex 52.849998474121094 10.90000057220459 0
      vertex 52.332584381103516 10.872883796691895 0
    endloop
  endfacet
  facet normal 0.15643496023384537 0.987688262164047 0
    outer loop
      vertex 53.8791618347168 10.791831016540527 0
      vertex 53.36741638183594 10.872883796691895 120
      vertex 53.8791618347168 10.791831016540527 120
    endloop
  endfacet
  facet normal 0.15643496023384537 0.987688262164047 0
    outer loop
      vertex 53.36741638183594 10.872883796691895 120
      vertex 53.8791618347168 10.791831016540527 0
      vertex 53.36741638183594 10.872883796691895 0
    endloop
  endfacet
  facet normal 0.9876888759863741 0.15643108467556202 0
    outer loop
      vertex 57.77288055419922 6.467416763305664 120
      vertex 57.691829681396484 6.97916316986084 0
      vertex 57.691829681396484 6.97916316986084 120
    endloop
  endfacet
  facet normal 0.9876888759863741 0.15643108467556202 0
    outer loop
      vertex 57.691829681396484 6.97916316986084 0
      vertex 57.77288055419922 6.467416763305664 120
      vertex 57.77288055419922 6.467416763305664 0
    endloop
  endfacet
  facet normal 0.8386699985940487 -0.544639911738259 0
    outer loop
      vertex 56.85463333129883 3.040463447570801 120
      vertex 57.13682556152344 3.4750003814697266 0
      vertex 57.13682556152344 3.4750003814697266 120
    endloop
  endfacet
  facet normal 0.8386699985940487 -0.544639911738259 0
    outer loop
      vertex 57.13682556152344 3.4750003814697266 0
      vertex 56.85463333129883 3.040463447570801 120
      vertex 56.85463333129883 3.040463447570801 0
    endloop
  endfacet
  facet normal 0.7771443453383313 0.6293223867849106 0
    outer loop
      vertex 56.85463333129883 8.859537124633789 120
      vertex 56.528564453125 9.26219654083252 0
      vertex 56.528564453125 9.26219654083252 120
    endloop
  endfacet
  facet normal 0.7771443453383313 0.6293223867849106 0
    outer loop
      vertex 56.528564453125 9.26219654083252 0
      vertex 56.85463333129883 8.859537124633789 120
      vertex 56.85463333129883 8.859537124633789 0
    endloop
  endfacet
  facet normal 0.258818274025114 0.9659260328983068 0
    outer loop
      vertex 54.379634857177734 10.657730102539062 0
      vertex 53.8791618347168 10.791831016540527 120
      vertex 54.379634857177734 10.657730102539062 120
    endloop
  endfacet
  facet normal 0.258818274025114 0.9659260328983068 0
    outer loop
      vertex 53.8791618347168 10.791831016540527 120
      vertex 54.379634857177734 10.657730102539062 0
      vertex 53.8791618347168 10.791831016540527 0
    endloop
  endfacet
  facet normal 0.9876889210276181 -0.15643080028977538 0
    outer loop
      vertex 57.691829681396484 4.92083740234375 120
      vertex 57.77288055419922 5.432584762573242 0
      vertex 57.77288055419922 5.432584762573242 120
    endloop
  endfacet
  facet normal 0.9876889210276181 -0.15643080028977538 0
    outer loop
      vertex 57.77288055419922 5.432584762573242 0
      vertex 57.691829681396484 4.92083740234375 120
      vertex 57.691829681396484 4.92083740234375 0
    endloop
  endfacet
  facet normal 0.9659271667587981 -0.2588140423495625 0
    outer loop
      vertex 57.55773162841797 4.420366287231445 120
      vertex 57.691829681396484 4.92083740234375 0
      vertex 57.691829681396484 4.92083740234375 120
    endloop
  endfacet
  facet normal 0.9659271667587981 -0.2588140423495625 0
    outer loop
      vertex 57.691829681396484 4.92083740234375 0
      vertex 57.55773162841797 4.420366287231445 120
      vertex 57.55773162841797 4.420366287231445 0
    endloop
  endfacet
  facet normal 0.7771443453383313 -0.6293223867849106 0
    outer loop
      vertex 56.528564453125 2.6378040313720703 120
      vertex 56.85463333129883 3.040463447570801 0
      vertex 56.85463333129883 3.040463447570801 120
    endloop
  endfacet
  facet normal 0.7771443453383313 -0.6293223867849106 0
    outer loop
      vertex 56.85463333129883 3.040463447570801 0
      vertex 56.528564453125 2.6378040313720703 120
      vertex 56.528564453125 2.6378040313720703 0
    endloop
  endfacet
  facet normal 0.9335775280782522 -0.3583755000935473 0
    outer loop
      vertex 57.372047424316406 3.9366540908813477 120
      vertex 57.55773162841797 4.420366287231445 0
      vertex 57.55773162841797 4.420366287231445 120
    endloop
  endfacet
  facet normal 0.9335775280782522 -0.3583755000935473 0
    outer loop
      vertex 57.55773162841797 4.420366287231445 0
      vertex 57.372047424316406 3.9366540908813477 120
      vertex 57.372047424316406 3.9366540908813477 0
    endloop
  endfacet
  facet normal 0 0 1
    outer loop
      vertex 57.77288055419922 6.467416763305664 120
      vertex 57.77288055419922 5.432584762573242 120
      vertex 57.79999923706055 5.950000762939453 120
    endloop
  endfacet
  facet normal 0 0 1
    outer loop
      vertex 57.691829681396484 6.97916316986084 120
      vertex 57.77288055419922 5.432584762573242 120
      vertex 57.77288055419922 6.467416763305664 120
    endloop
  endfacet
  facet normal 0 0 1
    outer loop
      vertex 57.691829681396484 6.97916316986084 120
      vertex 57.691829681396484 4.92083740234375 120
      vertex 57.77288055419922 5.432584762573242 120
    endloop
  endfacet
  facet normal 0 0 1
    outer loop
      vertex 57.55773162841797 7.4796342849731445 120
      vertex 57.691829681396484 4.92083740234375 120
      vertex 57.691829681396484 6.97916316986084 120
    endloop
  endfacet
  facet normal 0 0 1
    outer loop
      vertex 57.55773162841797 7.4796342849731445 120
      vertex 57.55773162841797 4.420366287231445 120
      vertex 57.691829681396484 4.92083740234375 120
    endloop
  endfacet
  facet normal 0 0 1
    outer loop
      vertex 57.372047424316406 7.963346481323242 120
      vertex 57.55773162841797 4.420366287231445 120
      vertex 57.55773162841797 7.4796342849731445 120
    endloop
  endfacet
  facet normal 0 0 1
    outer loop
      vertex 57.372047424316406 7.963346481323242 120
      vertex 57.372047424316406 3.9366540908813477 120
      vertex 57.55773162841797 4.420366287231445 120
    endloop
  endfacet
  facet normal 0 0 1
    outer loop
      vertex 57.13682556152344 8.425000190734863 120
      vertex 57.372047424316406 3.9366540908813477 120
      vertex 57.372047424316406 7.963346481323242 120
    endloop
  endfacet
  facet normal 0 0 1
    outer loop
      vertex 57.13682556152344 8.425000190734863 120
      vertex 57.13682556152344 3.4750003814697266 120
      vertex 57.372047424316406 3.9366540908813477 120
    endloop
  endfacet
  facet normal 0 0 1
    outer loop
      vertex 56.85463333129883 8.859537124633789 120
      vertex 57.13682556152344 3.4750003814697266 120
      vertex 57.13682556152344 8.425000190734863 120
    endloop
  endfacet
  facet normal 0 0 1
    outer loop
      vertex 56.85463333129883 8.859537124633789 120
      vertex 56.85463333129883 3.040463447570801 120
      vertex 57.13682556152344 3.4750003814697266 120
    endloop
  endfacet
  facet normal 0 0 1
    outer loop
      vertex 56.528564453125 9.26219654083252 120
      vertex 56.85463333129883 3.040463447570801 120
      vertex 56.85463333129883 8.859537124633789 120
    endloop
  endfacet
  facet normal 0 0 1
    outer loop
      vertex 56.528564453125 9.26219654083252 120
      vertex 56.528564453125 2.6378040313720703 120
      vertex 56.85463333129883 3.040463447570801 120
    endloop
  endfacet
  facet normal 0 0 1
    outer loop
      vertex 56.16219711303711 9.628567695617676 120
      vertex 56.528564453125 2.6378040313720703 120
      vertex 56.528564453125 9.26219654083252 120
    endloop
  endfacet
  facet normal 0 0 1
    outer loop
      vertex 55.900001525878906 2.0591108798980713 120
      vertex 56.528564453125 2.6378040313720703 120
      vertex 56.16219711303711 9.628567695617676 120
    endloop
  endfacet
  facet normal 0 0 1
    outer loop
      vertex 56.528564453125 2.6378040313720703 120
      vertex 55.900001525878906 2.0591108798980713 120
      vertex 56.16219711303711 2.2714338302612305 120
    endloop
  endfacet
  facet normal 0 0 1
    outer loop
      vertex 47.900001525878906 5.950000762939453 120
      vertex 55.900001525878906 2.0591108798980713 120
      vertex 55.75953674316406 9.954634666442871 120
    endloop
  endfacet
  facet normal 0 0 1
    outer loop
      vertex 55.75953674316406 9.954634666442871 120
      vertex 55.900001525878906 2.0591108798980713 120
      vertex 56.16219711303711 9.628567695617676 120
    endloop
  endfacet
  facet normal 0 0 1
    outer loop
      vertex 47.900001525878906 -0.19999980926513672 120
      vertex 61 -14.199999809265137 120
      vertex 55.900001525878906 -0.19999980926513672 120
    endloop
  endfacet
  facet normal 0 0 1
    outer loop
      vertex 47.900001525878906 5.950000762939453 120
      vertex 55.75953674316406 9.954634666442871 120
      vertex 55.32500076293945 10.236825942993164 120
    endloop
  endfacet
  facet normal 0 0 1
    outer loop
      vertex 47.900001525878906 5.950000762939453 120
      vertex 55.32500076293945 10.236825942993164 120
      vertex 54.863346099853516 10.472050666809082 120
    endloop
  endfacet
  facet normal 0 0 1
    outer loop
      vertex 47.900001525878906 5.950000762939453 120
      vertex 54.863346099853516 10.472050666809082 120
      vertex 54.379634857177734 10.657730102539062 120
    endloop
  endfacet
  facet normal 0 0 1
    outer loop
      vertex 47.900001525878906 5.950000762939453 120
      vertex 54.379634857177734 10.657730102539062 120
      vertex 53.8791618347168 10.791831016540527 120
    endloop
  endfacet
  facet normal 0 0 1
    outer loop
      vertex 47.900001525878906 5.950000762939453 120
      vertex 53.8791618347168 10.791831016540527 120
      vertex 53.36741638183594 10.872883796691895 120
    endloop
  endfacet
  facet normal 0 0 1
    outer loop
      vertex 47.900001525878906 5.950000762939453 120
      vertex 53.36741638183594 10.872883796691895 120
      vertex 52.849998474121094 10.90000057220459 120
    endloop
  endfacet
  facet normal 0 0 1
    outer loop
      vertex 47.900001525878906 5.950000762939453 120
      vertex 52.849998474121094 10.90000057220459 120
      vertex 52.332584381103516 10.872883796691895 120
    endloop
  endfacet
  facet normal 0 0 1
    outer loop
      vertex 47.900001525878906 5.950000762939453 120
      vertex 52.332584381103516 10.872883796691895 120
      vertex 51.820838928222656 10.791831016540527 120
    endloop
  endfacet
  facet normal 0 0 1
    outer loop
      vertex 47.900001525878906 -0.19999980926513672 120
      vertex 55.900001525878906 2.0591108798980713 120
      vertex 47.900001525878906 5.950000762939453 120
    endloop
  endfacet
  facet normal 0 0 1
    outer loop
      vertex 47.900001525878906 5.950000762939453 120
      vertex 51.820838928222656 10.791831016540527 120
      vertex 51.32036590576172 10.657730102539062 120
    endloop
  endfacet
  facet normal 0 0 1
    outer loop
      vertex 47.900001525878906 5.950000762939453 120
      vertex 51.32036590576172 10.657730102539062 120
      vertex 50.83665466308594 10.472050666809082 120
    endloop
  endfacet
  facet normal 0 0 1
    outer loop
      vertex 47.900001525878906 5.950000762939453 120
      vertex 50.83665466308594 10.472050666809082 120
      vertex 50.375 10.236825942993164 120
    endloop
  endfacet
  facet normal 0 0 1
    outer loop
      vertex 47.900001525878906 5.950000762939453 120
      vertex 50.375 10.236825942993164 120
      vertex 49.940460205078125 9.954634666442871 120
    endloop
  endfacet
  facet normal 0 0 1
    outer loop
      vertex 47.900001525878906 5.950000762939453 120
      vertex 49.940460205078125 9.954634666442871 120
      vertex 49.537803649902344 9.628567695617676 120
    endloop
  endfacet
  facet normal 0 0 1
    outer loop
      vertex 47.900001525878906 5.950000762939453 120
      vertex 49.537803649902344 9.628567695617676 120
      vertex 49.17143249511719 9.26219654083252 120
    endloop
  endfacet
  facet normal 0 0 1
    outer loop
      vertex 47.900001525878906 5.950000762939453 120
      vertex 49.17143249511719 9.26219654083252 120
      vertex 48.845367431640625 8.859537124633789 120
    endloop
  endfacet
  facet normal 0 0 1
    outer loop
      vertex 47.900001525878906 5.950000762939453 120
      vertex 48.845367431640625 8.859537124633789 120
      vertex 48.563175201416016 8.425000190734863 120
    endloop
  endfacet
  facet normal 0 0 1
    outer loop
      vertex 47.900001525878906 5.950000762939453 120
      vertex 48.563175201416016 8.425000190734863 120
      vertex 48.32794952392578 7.963346481323242 120
    endloop
  endfacet
  facet normal 0 0 1
    outer loop
      vertex 47.900001525878906 5.950000762939453 120
      vertex 48.32794952392578 7.963346481323242 120
      vertex 48.142269134521484 7.4796342849731445 120
    endloop
  endfacet
  facet normal 0 0 1
    outer loop
      vertex 47.900001525878906 5.950000762939453 120
      vertex 48.142269134521484 7.4796342849731445 120
      vertex 48.00817108154297 6.97916316986084 120
    endloop
  endfacet
  facet normal 0 0 1
    outer loop
      vertex 47.900001525878906 5.950000762939453 120
      vertex 48.00817108154297 6.97916316986084 120
      vertex 47.92711639404297 6.467416763305664 120
    endloop
  endfacet
  facet normal 0 0 1
    outer loop
      vertex 55.900001525878906 2.0591108798980713 120
      vertex 47.900001525878906 -0.19999980926513672 120
      vertex 55.900001525878906 -0.19999980926513672 120
    endloop
  endfacet
  facet normal 0 0 1
    outer loop
      vertex 61 -14.199999809265137 120
      vertex 47.900001525878906 -0.19999980926513672 120
      vertex 61 -15.1899995803833 120
    endloop
  endfacet
  facet normal 0 0 1
    outer loop
      vertex -35.1491813659668 -0.19999980926513672 120
      vertex 61 -15.1899995803833 120
      vertex 47.900001525878906 -0.19999980926513672 120
    endloop
  endfacet
  facet normal 0 0 1
    outer loop
      vertex -61 -15.1899995803833 120
      vertex -35.1491813659668 -0.19999980926513672 120
      vertex -45.264305114746094 -1.391877293586731 120
    endloop
  endfacet
  facet normal 0 0 1
    outer loop
      vertex -61 -15.1899995803833 120
      vertex -45.264305114746094 -1.391877293586731 120
      vertex -61 -14.199999809265137 120
    endloop
  endfacet
  facet normal 0 0 1
    outer loop
      vertex -35.1491813659668 -0.19999980926513672 120
      vertex -61 -15.1899995803833 120
      vertex 61 -15.1899995803833 120
    endloop
  endfacet
  facet normal 0 0 1
    outer loop
      vertex -46.30521774291992 10.956035614013672 120
      vertex -45.264305114746094 -1.391877293586731 120
      vertex -35.1491813659668 -0.19999980926513672 120
    endloop
  endfacet
  facet normal 0 0 1
    outer loop
      vertex -51.871646881103516 5.215463638305664 120
      vertex -46.30521774291992 10.956035614013672 120
      vertex -46.68890380859375 11.264786720275879 120
    endloop
  endfacet
  facet normal 0 0 1
    outer loop
      vertex -51.871646881103516 5.215463638305664 120
      vertex -46.68890380859375 11.264786720275879 120
      vertex -47.10762405395508 11.5240478515625 120
    endloop
  endfacet
  facet normal 0 0 1
    outer loop
      vertex -51.871646881103516 5.215463638305664 120
      vertex -47.10762405395508 11.5240478515625 120
      vertex -47.555030822753906 11.729888916015625 120
    endloop
  endfacet
  facet normal 0 0 1
    outer loop
      vertex -51.871646881103516 5.215463638305664 120
      vertex -47.555030822753906 11.729888916015625 120
      vertex -48.02434539794922 11.87918758392334 120
    endloop
  endfacet
  facet normal 0 0 1
    outer loop
      vertex -51.871646881103516 5.215463638305664 120
      vertex -48.02434539794922 11.87918758392334 120
      vertex -48.508445739746094 11.969681739807129 120
    endloop
  endfacet
  facet normal 0 0 1
    outer loop
      vertex -51.871646881103516 5.215463638305664 120
      vertex -48.508445739746094 11.969681739807129 120
      vertex -49 12 120
    endloop
  endfacet
  facet normal 0 0 1
    outer loop
      vertex -51.871646881103516 5.215463638305664 120
      vertex -49 12 120
      vertex -49.491554260253906 11.969681739807129 120
    endloop
  endfacet
  facet normal 0 0 1
    outer loop
      vertex -51.871646881103516 5.215463638305664 120
      vertex -49.491554260253906 11.969681739807129 120
      vertex -49.97565460205078 11.87918758392334 120
    endloop
  endfacet
  facet normal 0 0 1
    outer loop
      vertex -51.871646881103516 5.215463638305664 120
      vertex -49.97565460205078 11.87918758392334 120
      vertex -50.44496536254883 11.729888916015625 120
    endloop
  endfacet
  facet normal 0 0 1
    outer loop
      vertex -51.871646881103516 5.215463638305664 120
      vertex -50.44496536254883 11.729888916015625 120
      vertex -50.892372131347656 11.5240478515625 120
    endloop
  endfacet
  facet normal 0 0 1
    outer loop
      vertex -51.871646881103516 5.215463638305664 120
      vertex -50.892372131347656 11.5240478515625 120
      vertex -51.31109619140625 11.264786720275879 120
    endloop
  endfacet
  facet normal 0 0 1
    outer loop
      vertex -51.871646881103516 5.215463638305664 120
      vertex -51.31109619140625 11.264786720275879 120
      vertex -51.69478225708008 10.956035614013672 120
    endloop
  endfacet
  facet normal 0 0 1
    outer loop
      vertex -46.30521774291992 10.956035614013672 120
      vertex -51.871646881103516 5.215463638305664 120
      vertex -45.264305114746094 -1.391877293586731 120
    endloop
  endfacet
  facet normal 0 0 1
    outer loop
      vertex -52.037620544433594 10.602472305297852 120
      vertex -51.871646881103516 5.215463638305664 120
      vertex -51.69478225708008 10.956035614013672 120
    endloop
  endfacet
  facet normal 0 0 1
    outer loop
      vertex -52.037620544433594 10.602472305297852 120
      vertex -52.19207000732422 5.589461326599121 120
      vertex -51.871646881103516 5.215463638305664 120
    endloop
  endfacet
  facet normal 0 0 1
    outer loop
      vertex -52.334407806396484 10.20945930480957 120
      vertex -52.19207000732422 5.589461326599121 120
      vertex -52.037620544433594 10.602472305297852 120
    endloop
  endfacet
  facet normal 0 0 1
    outer loop
      vertex -52.334407806396484 10.20945930480957 120
      vertex -52.4640998840332 6 120
      vertex -52.19207000732422 5.589461326599121 120
    endloop
  endfacet
  facet normal 0 0 1
    outer loop
      vertex -52.580650329589844 9.782953262329102 120
      vertex -52.4640998840332 6 120
      vertex -52.334407806396484 10.20945930480957 120
    endloop
  endfacet
  facet normal 0 0 1
    outer loop
      vertex -52.580650329589844 9.782953262329102 120
      vertex -52.68362045288086 6.440855979919434 120
      vertex -52.4640998840332 6 120
    endloop
  endfacet
  facet normal 0 0 1
    outer loop
      vertex -52.77261734008789 9.329419136047363 120
      vertex -52.68362045288086 6.440855979919434 120
      vertex -52.580650329589844 9.782953262329102 120
    endloop
  endfacet
  facet normal 0 0 1
    outer loop
      vertex -52.77261734008789 9.329419136047363 120
      vertex -52.8473014831543 6.90534782409668 120
      vertex -52.68362045288086 6.440855979919434 120
    endloop
  endfacet
  facet normal 0 0 1
    outer loop
      vertex -52.90739440917969 8.855731964111328 120
      vertex -52.8473014831543 6.90534782409668 120
      vertex -52.77261734008789 9.329419136047363 120
    endloop
  endfacet
  facet normal 0 0 1
    outer loop
      vertex -52.90739440917969 8.855731964111328 120
      vertex -52.952659606933594 7.386432647705078 120
      vertex -52.8473014831543 6.90534782409668 120
    endloop
  endfacet
  facet normal 0 0 1
    outer loop
      vertex -52.98293685913086 8.369072914123535 120
      vertex -52.952659606933594 7.386432647705078 120
      vertex -52.90739440917969 8.855731964111328 120
    endloop
  endfacet
  facet normal 0 0 1
    outer loop
      vertex -52.952659606933594 7.386432647705078 120
      vertex -52.98293685913086 8.369072914123535 120
      vertex -52.99810028076172 7.876819610595703 120
    endloop
  endfacet
  facet normal 1 0 0
    outer loop
      vertex 55.900001525878906 -0.19999980926513672 120
      vertex 55.900001525878906 2.0591108798980713 0
      vertex 55.900001525878906 2.0591108798980713 120
    endloop
  endfacet
  facet normal 1 0 0
    outer loop
      vertex 55.900001525878906 2.0591108798980713 0
      vertex 55.900001525878906 -0.19999980926513672 120
      vertex 55.900001525878906 -0.19999980926513672 0
    endloop
  endfacet
  facet normal -1 0 0
    outer loop
      vertex 47.900001525878906 -0.19999980926513672 0
      vertex 47.900001525878906 5.950000762939453 120
      vertex 47.900001525878906 5.950000762939453 0
    endloop
  endfacet
  facet normal -1 0 0
    outer loop
      vertex 47.900001525878906 5.950000762939453 120
      vertex 47.900001525878906 -0.19999980926513672 0
      vertex 47.900001525878906 -0.19999980926513672 120
    endloop
  endfacet
  facet normal 0 1 0
    outer loop
      vertex 47.900001525878906 -0.19999980926513672 0
      vertex -35.1491813659668 -0.19999980926513672 120
      vertex 47.900001525878906 -0.19999980926513672 120
    endloop
  endfacet
  facet normal 0 1 0
    outer loop
      vertex -35.1491813659668 -0.19999980926513672 120
      vertex 47.900001525878906 -0.19999980926513672 0
      vertex -35.1491813659668 -0.19999980926513672 0
    endloop
  endfacet
  facet normal 0.9395973483713755 0.3422817887844458 0
    outer loop
      vertex 61 -14.199999809265137 120
      vertex 55.900001525878906 -0.19999980926513672 0
      vertex 55.900001525878906 -0.19999980926513672 120
    endloop
  endfacet
  facet normal 0.9395973483713755 0.3422817887844458 0
    outer loop
      vertex 55.900001525878906 -0.19999980926513672 0
      vertex 61 -14.199999809265137 120
      vertex 61 -14.199999809265137 0
    endloop
  endfacet
  facet normal 1 0 0
    outer loop
      vertex 61 -15.1899995803833 120
      vertex 61 -14.199999809265137 0
      vertex 61 -14.199999809265137 120
    endloop
  endfacet
  facet normal 1 0 0
    outer loop
      vertex 61 -14.199999809265137 0
      vertex 61 -15.1899995803833 120
      vertex 61 -15.1899995803833 0
    endloop
  endfacet
  facet normal -1 0 0
    outer loop
      vertex -61 -15.1899995803833 0
      vertex -61 -14.199999809265137 120
      vertex -61 -14.199999809265137 0
    endloop
  endfacet
  facet normal -1 0 0
    outer loop
      vertex -61 -14.199999809265137 120
      vertex -61 -15.1899995803833 0
      vertex -61 -15.1899995803833 120
    endloop
  endfacet
  facet normal -0.6312713619605513 0.7755620333464439 0
    outer loop
      vertex -45.264305114746094 -1.391877293586731 0
      vertex -61 -14.199999809265137 120
      vertex -45.264305114746094 -1.391877293586731 120
    endloop
  endfacet
  facet normal -0.6312713619605513 0.7755620333464439 0
    outer loop
      vertex -61 -14.199999809265137 120
      vertex -45.264305114746094 -1.391877293586731 0
      vertex -61 -14.199999809265137 0
    endloop
  endfacet
  facet normal -0.8951629878769688 -0.4457389652421895 0
    outer loop
      vertex -52.4640998840332 6 0
      vertex -52.68362045288086 6.440855979919434 120
      vertex -52.68362045288086 6.440855979919434 0
    endloop
  endfacet
  facet normal -0.8951629878769688 -0.4457389652421895 0
    outer loop
      vertex -52.68362045288086 6.440855979919434 120
      vertex -52.4640998840332 6 0
      vertex -52.4640998840332 6 120
    endloop
  endfacet
  facet normal 0.7071067509630167 0.707106811410077 0
    outer loop
      vertex -35.1491813659668 -0.19999980926513672 0
      vertex -46.30521774291992 10.956035614013672 120
      vertex -35.1491813659668 -0.19999980926513672 120
    endloop
  endfacet
  facet normal 0.7071067509630167 0.707106811410077 0
    outer loop
      vertex -46.30521774291992 10.956035614013672 120
      vertex -35.1491813659668 -0.19999980926513672 0
      vertex -46.30521774291992 10.956035614013672 0
    endloop
  endfacet
  facet normal -0.9957342453607055 -0.09226761412297534 0
    outer loop
      vertex -52.952659606933594 7.386432647705078 0
      vertex -52.99810028076172 7.876819610595703 120
      vertex -52.99810028076172 7.876819610595703 0
    endloop
  endfacet
  facet normal -0.9957342453607055 -0.09226761412297534 0
    outer loop
      vertex -52.99810028076172 7.876819610595703 120
      vertex -52.952659606933594 7.386432647705078 0
      vertex -52.952659606933594 7.386432647705078 120
    endloop
  endfacet
  facet normal -0.9431541673591923 -0.3323555574877435 0
    outer loop
      vertex -52.68362045288086 6.440855979919434 0
      vertex -52.8473014831543 6.90534782409668 120
      vertex -52.8473014831543 6.90534782409668 0
    endloop
  endfacet
  facet normal -0.9431541673591923 -0.3323555574877435 0
    outer loop
      vertex -52.8473014831543 6.90534782409668 120
      vertex -52.68362045288086 6.440855979919434 0
      vertex -52.68362045288086 6.440855979919434 120
    endloop
  endfacet
  facet normal -0.7071067365350102 -0.707106825838082 0
    outer loop
      vertex -51.871646881103516 5.215463638305664 0
      vertex -45.264305114746094 -1.391877293586731 120
      vertex -51.871646881103516 5.215463638305664 120
    endloop
  endfacet
  facet normal -0.7071067365350102 -0.707106825838082 0
    outer loop
      vertex -45.264305114746094 -1.391877293586731 120
      vertex -51.871646881103516 5.215463638305664 0
      vertex -45.264305114746094 -1.391877293586731 0
    endloop
  endfacet
  facet normal 0.061561373773702466 0.9981032998939011 0
    outer loop
      vertex -48.508445739746094 11.969681739807129 0
      vertex -49 12 120
      vertex -48.508445739746094 11.969681739807129 120
    endloop
  endfacet
  facet normal 0.061561373773702466 0.9981032998939011 0
    outer loop
      vertex -49 12 120
      vertex -48.508445739746094 11.969681739807129 0
      vertex -49 12 0
    endloop
  endfacet
  facet normal -0.3031529822016567 0.9529419024170582 0
    outer loop
      vertex -49.97565460205078 11.87918758392334 0
      vertex -50.44496536254883 11.729888916015625 120
      vertex -49.97565460205078 11.87918758392334 120
    endloop
  endfacet
  facet normal -0.3031529822016567 0.9529419024170582 0
    outer loop
      vertex -50.44496536254883 11.729888916015625 120
      vertex -49.97565460205078 11.87918758392334 0
      vertex -50.44496536254883 11.729888916015625 0
    endloop
  endfacet
  facet normal -0.5264294764143314 0.8502187991112247 0
    outer loop
      vertex -50.892372131347656 11.5240478515625 0
      vertex -51.31109619140625 11.264786720275879 120
      vertex -50.892372131347656 11.5240478515625 120
    endloop
  endfacet
  facet normal -0.5264294764143314 0.8502187991112247 0
    outer loop
      vertex -51.31109619140625 11.264786720275879 120
      vertex -50.892372131347656 11.5240478515625 0
      vertex -51.31109619140625 11.264786720275879 0
    endloop
  endfacet
  facet normal -0.717911537277075 0.6961343438191129 0
    outer loop
      vertex -52.037620544433594 10.602472305297852 0
      vertex -51.69478225708008 10.956035614013672 120
      vertex -51.69478225708008 10.956035614013672 0
    endloop
  endfacet
  facet normal -0.717911537277075 0.6961343438191129 0
    outer loop
      vertex -51.69478225708008 10.956035614013672 120
      vertex -52.037620544433594 10.602472305297852 0
      vertex -52.037620544433594 10.602472305297852 120
    endloop
  endfacet
  facet normal -0.7594033878643295 -0.6506200846117332 0
    outer loop
      vertex -51.871646881103516 5.215463638305664 0
      vertex -52.19207000732422 5.589461326599121 120
      vertex -52.19207000732422 5.589461326599121 0
    endloop
  endfacet
  facet normal -0.7594033878643295 -0.6506200846117332 0
    outer loop
      vertex -52.19207000732422 5.589461326599121 120
      vertex -51.871646881103516 5.215463638305664 0
      vertex -51.871646881103516 5.215463638305664 120
    endloop
  endfacet
  facet normal 0.18374975040835234 0.9829730562049339 0
    outer loop
      vertex -48.02434539794922 11.87918758392334 0
      vertex -48.508445739746094 11.969681739807129 120
      vertex -48.02434539794922 11.87918758392334 120
    endloop
  endfacet
  facet normal 0.18374975040835234 0.9829730562049339 0
    outer loop
      vertex -48.508445739746094 11.969681739807129 120
      vertex -48.02434539794922 11.87918758392334 0
      vertex -48.508445739746094 11.969681739807129 0
    endloop
  endfacet
  facet normal -0.9881657823966076 0.15338965578063074 0
    outer loop
      vertex -52.98293685913086 8.369072914123535 0
      vertex -52.90739440917969 8.855731964111328 120
      vertex -52.90739440917969 8.855731964111328 0
    endloop
  endfacet
  facet normal -0.9881657823966076 0.15338965578063074 0
    outer loop
      vertex -52.90739440917969 8.855731964111328 120
      vertex -52.98293685913086 8.369072914123535 0
      vertex -52.98293685913086 8.369072914123535 120
    endloop
  endfacet
  facet normal 0.5264329432725345 0.8502166525288812 0
    outer loop
      vertex -46.68890380859375 11.264786720275879 0
      vertex -47.10762405395508 11.5240478515625 120
      vertex -46.68890380859375 11.264786720275879 120
    endloop
  endfacet
  facet normal 0.5264329432725345 0.8502166525288812 0
    outer loop
      vertex -47.10762405395508 11.5240478515625 120
      vertex -46.68890380859375 11.264786720275879 0
      vertex -47.10762405395508 11.5240478515625 0
    endloop
  endfacet
  facet normal -0.833605109717705 -0.552360861260583 0
    outer loop
      vertex -52.19207000732422 5.589461326599121 0
      vertex -52.4640998840332 6 120
      vertex -52.4640998840332 6 0
    endloop
  endfacet
  facet normal -0.833605109717705 -0.552360861260583 0
    outer loop
      vertex -52.4640998840332 6 120
      vertex -52.19207000732422 5.589461326599121 0
      vertex -52.19207000732422 5.589461326599121 120
    endloop
  endfacet
  facet normal 0.3031507445565112 0.9529426142611279 0
    outer loop
      vertex -47.555030822753906 11.729888916015625 0
      vertex -48.02434539794922 11.87918758392334 120
      vertex -47.555030822753906 11.729888916015625 120
    endloop
  endfacet
  facet normal 0.3031507445565112 0.9529426142611279 0
    outer loop
      vertex -48.02434539794922 11.87918758392334 120
      vertex -47.555030822753906 11.729888916015625 0
      vertex -48.02434539794922 11.87918758392334 0
    endloop
  endfacet
  facet normal -0.4179625052977487 0.9084642778696527 0
    outer loop
      vertex -50.44496536254883 11.729888916015625 0
      vertex -50.892372131347656 11.5240478515625 120
      vertex -50.44496536254883 11.729888916015625 120
    endloop
  endfacet
  facet normal -0.4179625052977487 0.9084642778696527 0
    outer loop
      vertex -50.892372131347656 11.5240478515625 120
      vertex -50.44496536254883 11.729888916015625 0
      vertex -50.892372131347656 11.5240478515625 0
    endloop
  endfacet
  facet normal -0.7980195507080253 0.6026315596513024 0
    outer loop
      vertex -52.334407806396484 10.20945930480957 0
      vertex -52.037620544433594 10.602472305297852 120
      vertex -52.037620544433594 10.602472305297852 0
    endloop
  endfacet
  facet normal -0.7980195507080253 0.6026315596513024 0
    outer loop
      vertex -52.037620544433594 10.602472305297852 120
      vertex -52.334407806396484 10.20945930480957 0
      vertex -52.334407806396484 10.20945930480957 120
    endloop
  endfacet
  facet normal -0.9209037104323217 0.38979014368244697 0
    outer loop
      vertex -52.77261734008789 9.329419136047363 0
      vertex -52.580650329589844 9.782953262329102 120
      vertex -52.580650329589844 9.782953262329102 0
    endloop
  endfacet
  facet normal -0.9209037104323217 0.38979014368244697 0
    outer loop
      vertex -52.580650329589844 9.782953262329102 120
      vertex -52.77261734008789 9.329419136047363 0
      vertex -52.77261734008789 9.329419136047363 120
    endloop
  endfacet
  facet normal -0.9995258909910334 0.03078949883614238 0
    outer loop
      vertex -52.99810028076172 7.876819610595703 0
      vertex -52.98293685913086 8.369072914123535 120
      vertex -52.98293685913086 8.369072914123535 0
    endloop
  endfacet
  facet normal -0.9995258909910334 0.03078949883614238 0
    outer loop
      vertex -52.98293685913086 8.369072914123535 120
      vertex -52.99810028076172 7.876819610595703 0
      vertex -52.99810028076172 7.876819610595703 120
    endloop
  endfacet
  facet normal -0.18374975040835234 0.9829730562049339 0
    outer loop
      vertex -49.491554260253906 11.969681739807129 0
      vertex -49.97565460205078 11.87918758392334 120
      vertex -49.491554260253906 11.969681739807129 120
    endloop
  endfacet
  facet normal -0.18374975040835234 0.9829730562049339 0
    outer loop
      vertex -49.97565460205078 11.87918758392334 120
      vertex -49.491554260253906 11.969681739807129 0
      vertex -49.97565460205078 11.87918758392334 0
    endloop
  endfacet
  facet normal -0.061561373773702466 0.9981032998939011 0
    outer loop
      vertex -49 12 0
      vertex -49.491554260253906 11.969681739807129 120
      vertex -49 12 120
    endloop
  endfacet
  facet normal -0.061561373773702466 0.9981032998939011 0
    outer loop
      vertex -49.491554260253906 11.969681739807129 120
      vertex -49 12 0
      vertex -49.491554260253906 11.969681739807129 0
    endloop
  endfacet
  facet normal -0.961824868929189 0.27366571124155914 0
    outer loop
      vertex -52.90739440917969 8.855731964111328 0
      vertex -52.77261734008789 9.329419136047363 120
      vertex -52.77261734008789 9.329419136047363 0
    endloop
  endfacet
  facet normal -0.961824868929189 0.27366571124155914 0
    outer loop
      vertex -52.77261734008789 9.329419136047363 120
      vertex -52.90739440917969 8.855731964111328 0
      vertex -52.90739440917969 8.855731964111328 120
    endloop
  endfacet
  facet normal 0.6269239019040002 0.7790804972667867 0
    outer loop
      vertex -46.30521774291992 10.956035614013672 0
      vertex -46.68890380859375 11.264786720275879 120
      vertex -46.30521774291992 10.956035614013672 120
    endloop
  endfacet
  facet normal 0.6269239019040002 0.7790804972667867 0
    outer loop
      vertex -46.68890380859375 11.264786720275879 120
      vertex -46.30521774291992 10.956035614013672 0
      vertex -46.68890380859375 11.264786720275879 0
    endloop
  endfacet
  facet normal -0.6269239019040002 0.7790804972667867 0
    outer loop
      vertex -51.31109619140625 11.264786720275879 0
      vertex -51.69478225708008 10.956035614013672 120
      vertex -51.31109619140625 11.264786720275879 120
    endloop
  endfacet
  facet normal -0.6269239019040002 0.7790804972667867 0
    outer loop
      vertex -51.69478225708008 10.956035614013672 120
      vertex -51.31109619140625 11.264786720275879 0
      vertex -51.69478225708008 10.956035614013672 0
    endloop
  endfacet
  facet normal -0.8660261557462675 0.4999986975616453 0
    outer loop
      vertex -52.580650329589844 9.782953262329102 0
      vertex -52.334407806396484 10.20945930480957 120
      vertex -52.334407806396484 10.20945930480957 0
    endloop
  endfacet
  facet normal -0.8660261557462675 0.4999986975616453 0
    outer loop
      vertex -52.334407806396484 10.20945930480957 120
      vertex -52.580650329589844 9.782953262329102 0
      vertex -52.580650329589844 9.782953262329102 120
    endloop
  endfacet
  facet normal -0.9768487754443658 -0.21393099334328156 0
    outer loop
      vertex -52.8473014831543 6.90534782409668 0
      vertex -52.952659606933594 7.386432647705078 120
      vertex -52.952659606933594 7.386432647705078 0
    endloop
  endfacet
  facet normal -0.9768487754443658 -0.21393099334328156 0
    outer loop
      vertex -52.952659606933594 7.386432647705078 120
      vertex -52.8473014831543 6.90534782409668 0
      vertex -52.8473014831543 6.90534782409668 120
    endloop
  endfacet
  facet normal 0.4179625052977487 0.9084642778696527 0
    outer loop
      vertex -47.10762405395508 11.5240478515625 0
      vertex -47.555030822753906 11.729888916015625 120
      vertex -47.10762405395508 11.5240478515625 120
    endloop
  endfacet
  facet normal 0.4179625052977487 0.9084642778696527 0
    outer loop
      vertex -47.555030822753906 11.729888916015625 120
      vertex -47.10762405395508 11.5240478515625 0
      vertex -47.555030822753906 11.729888916015625 0
    endloop
  endfacet
  facet normal 0 -1 0
    outer loop
      vertex -61 -15.1899995803833 0
      vertex 61 -15.1899995803833 120
      vertex -61 -15.1899995803833 120
    endloop
  endfacet
  facet normal 0 -1 0
    outer loop
      vertex 61 -15.1899995803833 120
      vertex -61 -15.1899995803833 0
      vertex 61 -15.1899995803833 0
    endloop
  endfacet
endsolid OpenSCAD_Model
