solid OpenSCAD_Model
  facet normal 0.8386702172332472 -0.54463957506404 0
    outer loop
      vertex 48.38996887207031 -52.474998474121094 4
      vertex 48.683563232421875 -52.02290344238281 0
      vertex 48.683563232421875 -52.02290344238281 4
    endloop
  endfacet
  facet normal 0.8386702172332472 -0.54463957506404 0
    outer loop
      vertex 48.683563232421875 -52.02290344238281 0
      vertex 48.38996887207031 -52.474998474121094 4
      vertex 48.38996887207031 -52.474998474121094 0
    endloop
  endfacet
  facet normal -0.6293256135784617 -0.7771417323076226 0
    outer loop
      vertex 55.87709426879883 -50.88356018066406 0
      vertex 56.029056549072266 -51.00661849975586 4
      vertex 55.87709426879883 -50.88356018066406 4
    endloop
  endfacet
  facet normal -0.6293256135784617 -0.7771417323076226 0
    outer loop
      vertex 56.029056549072266 -51.00661849975586 4
      vertex 55.87709426879883 -50.88356018066406 0
      vertex 56.029056549072266 -51.00661849975586 0
    endloop
  endfacet
  facet normal -0.6293152546653635 0.7771501207910017 0
    outer loop
      vertex 56.2960205078125 -58.877197265625 0
      vertex 56.099998474121094 -59.03593063354492 4
      vertex 56.2960205078125 -58.877197265625 4
    endloop
  endfacet
  facet normal -0.6293152546653635 0.7771501207910017 0
    outer loop
      vertex 56.099998474121094 -59.03593063354492 4
      vertex 56.2960205078125 -58.877197265625 0
      vertex 56.099998474121094 -59.03593063354492 0
    endloop
  endfacet
  facet normal 0.5446345976185062 -0.8386734496077289 0
    outer loop
      vertex 49.822906494140625 -50.88356018066406 0
      vertex 50.275001525878906 -50.589969635009766 4
      vertex 49.822906494140625 -50.88356018066406 4
    endloop
  endfacet
  facet normal 0.5446345976185062 -0.8386734496077289 0
    outer loop
      vertex 50.275001525878906 -50.589969635009766 4
      vertex 49.822906494140625 -50.88356018066406 0
      vertex 50.275001525878906 -50.589969635009766 0
    endloop
  endfacet
  facet normal 0.3583724962759835 -0.9335786811581123 0
    outer loop
      vertex 50.755306243896484 -50.34524154663086 0
      vertex 51.25856018066406 -50.15205764770508 4
      vertex 50.755306243896484 -50.34524154663086 4
    endloop
  endfacet
  facet normal 0.3583724962759835 -0.9335786811581123 0
    outer loop
      vertex 51.25856018066406 -50.15205764770508 4
      vertex 50.755306243896484 -50.34524154663086 0
      vertex 51.25856018066406 -50.15205764770508 0
    endloop
  endfacet
  facet normal -0.05233115032797541 -0.9986297866103088 0
    outer loop
      vertex 52.849998474121094 -49.900001525878906 0
      vertex 53.38832092285156 -49.9282112121582 4
      vertex 52.849998474121094 -49.900001525878906 4
    endloop
  endfacet
  facet normal -0.05233115032797541 -0.9986297866103088 0
    outer loop
      vertex 53.38832092285156 -49.9282112121582 4
      vertex 52.849998474121094 -49.900001525878906 0
      vertex 53.38832092285156 -49.9282112121582 0
    endloop
  endfacet
  facet normal -0.156434236504146 -0.9876883767916704 0
    outer loop
      vertex 53.38832092285156 -49.9282112121582 0
      vertex 53.920745849609375 -50.01253890991211 4
      vertex 53.38832092285156 -49.9282112121582 4
    endloop
  endfacet
  facet normal -0.156434236504146 -0.9876883767916704 0
    outer loop
      vertex 53.920745849609375 -50.01253890991211 4
      vertex 53.38832092285156 -49.9282112121582 0
      vertex 53.920745849609375 -50.01253890991211 0
    endloop
  endfacet
  facet normal 0.9659262878888546 -0.258817322382521 0
    outer loop
      vertex 47.812538146972656 -53.97925567626953 4
      vertex 47.952056884765625 -53.458560943603516 0
      vertex 47.952056884765625 -53.458560943603516 4
    endloop
  endfacet
  facet normal 0.9659262878888546 -0.258817322382521 0
    outer loop
      vertex 47.952056884765625 -53.458560943603516 0
      vertex 47.812538146972656 -53.97925567626953 4
      vertex 47.812538146972656 -53.97925567626953 0
    endloop
  endfacet
  facet normal 0.7071067811865476 -0.7071067811865476 0
    outer loop
      vertex 49.022804260253906 -51.60397720336914 4
      vertex 49.40397644042969 -51.22280502319336 0
      vertex 49.40397644042969 -51.22280502319336 4
    endloop
  endfacet
  facet normal 0.7071067811865476 -0.7071067811865476 0
    outer loop
      vertex 49.40397644042969 -51.22280502319336 0
      vertex 49.022804260253906 -51.60397720336914 4
      vertex 49.022804260253906 -51.60397720336914 0
    endloop
  endfacet
  facet normal -0.8386734496077289 0.5446345976185062 0
    outer loop
      vertex 57.01643753051758 -58.07709503173828 0
      vertex 57.310028076171875 -57.625 4
      vertex 57.310028076171875 -57.625 0
    endloop
  endfacet
  facet normal -0.8386734496077289 0.5446345976185062 0
    outer loop
      vertex 57.310028076171875 -57.625 4
      vertex 57.01643753051758 -58.07709503173828 0
      vertex 57.01643753051758 -58.07709503173828 4
    endloop
  endfacet
  facet normal -0.9986293973835549 0.05233857737231356 0
    outer loop
      vertex 57.97178649902344 -55.588321685791016 0
      vertex 58 -55.05000305175781 4
      vertex 58 -55.05000305175781 0
    endloop
  endfacet
  facet normal -0.9986293973835549 0.05233857737231356 0
    outer loop
      vertex 58 -55.05000305175781 4
      vertex 57.97178649902344 -55.588321685791016 0
      vertex 57.97178649902344 -55.588321685791016 4
    endloop
  endfacet
  facet normal -0.5446345976185062 -0.8386734496077289 0
    outer loop
      vertex 55.42499923706055 -50.589969635009766 0
      vertex 55.87709426879883 -50.88356018066406 4
      vertex 55.42499923706055 -50.589969635009766 4
    endloop
  endfacet
  facet normal -0.5446345976185062 -0.8386734496077289 0
    outer loop
      vertex 55.87709426879883 -50.88356018066406 4
      vertex 55.42499923706055 -50.589969635009766 0
      vertex 55.87709426879883 -50.88356018066406 0
    endloop
  endfacet
  facet normal 0.9876882036148316 -0.15643532989739606 0
    outer loop
      vertex 47.72821044921875 -54.51167678833008 4
      vertex 47.812538146972656 -53.97925567626953 0
      vertex 47.812538146972656 -53.97925567626953 4
    endloop
  endfacet
  facet normal 0.9876882036148316 -0.15643532989739606 0
    outer loop
      vertex 47.812538146972656 -53.97925567626953 0
      vertex 47.72821044921875 -54.51167678833008 4
      vertex 47.72821044921875 -54.51167678833008 0
    endloop
  endfacet
  facet normal 0.7771448288209493 -0.6293217897362662 0
    outer loop
      vertex 48.683563232421875 -52.02290344238281 4
      vertex 49.022804260253906 -51.60397720336914 0
      vertex 49.022804260253906 -51.60397720336914 4
    endloop
  endfacet
  facet normal 0.7771448288209493 -0.6293217897362662 0
    outer loop
      vertex 49.022804260253906 -51.60397720336914 0
      vertex 48.683563232421875 -52.02290344238281 4
      vertex 48.683563232421875 -52.02290344238281 0
    endloop
  endfacet
  facet normal 0.15643532989739606 -0.9876882036148316 0
    outer loop
      vertex 51.77925491333008 -50.01253890991211 0
      vertex 52.311676025390625 -49.9282112121582 4
      vertex 51.77925491333008 -50.01253890991211 4
    endloop
  endfacet
  facet normal 0.15643532989739606 -0.9876882036148316 0
    outer loop
      vertex 52.311676025390625 -49.9282112121582 4
      vertex 51.77925491333008 -50.01253890991211 0
      vertex 52.311676025390625 -49.9282112121582 0
    endloop
  endfacet
  facet normal -0.8910046616751733 0.4539941551089727 0
    outer loop
      vertex 57.310028076171875 -57.625 0
      vertex 57.55475997924805 -57.144691467285156 4
      vertex 57.55475997924805 -57.144691467285156 0
    endloop
  endfacet
  facet normal -0.8910046616751733 0.4539941551089727 0
    outer loop
      vertex 57.55475997924805 -57.144691467285156 4
      vertex 57.310028076171875 -57.625 0
      vertex 57.310028076171875 -57.625 4
    endloop
  endfacet
  facet normal 0.05233115032797541 -0.9986297866103088 0
    outer loop
      vertex 52.311676025390625 -49.9282112121582 0
      vertex 52.849998474121094 -49.900001525878906 4
      vertex 52.311676025390625 -49.9282112121582 4
    endloop
  endfacet
  facet normal 0.05233115032797541 -0.9986297866103088 0
    outer loop
      vertex 52.849998474121094 -49.900001525878906 4
      vertex 52.311676025390625 -49.9282112121582 0
      vertex 52.849998474121094 -49.900001525878906 0
    endloop
  endfacet
  facet normal -0.9876882036148316 0.15643532989739606 0
    outer loop
      vertex 57.88745880126953 -56.12074279785156 0
      vertex 57.97178649902344 -55.588321685791016 4
      vertex 57.97178649902344 -55.588321685791016 0
    endloop
  endfacet
  facet normal -0.9876882036148316 0.15643532989739606 0
    outer loop
      vertex 57.97178649902344 -55.588321685791016 4
      vertex 57.88745880126953 -56.12074279785156 0
      vertex 57.88745880126953 -56.12074279785156 4
    endloop
  endfacet
  facet normal -0.3583701286845347 -0.9335795900011044 0
    outer loop
      vertex 54.441436767578125 -50.15205764770508 0
      vertex 54.94469451904297 -50.34524154663086 4
      vertex 54.441436767578125 -50.15205764770508 4
    endloop
  endfacet
  facet normal -0.3583701286845347 -0.9335795900011044 0
    outer loop
      vertex 54.94469451904297 -50.34524154663086 4
      vertex 54.441436767578125 -50.15205764770508 0
      vertex 54.94469451904297 -50.34524154663086 0
    endloop
  endfacet
  facet normal -0.4539913996364624 -0.891006065667415 0
    outer loop
      vertex 54.94469451904297 -50.34524154663086 0
      vertex 55.42499923706055 -50.589969635009766 4
      vertex 54.94469451904297 -50.34524154663086 4
    endloop
  endfacet
  facet normal -0.4539913996364624 -0.891006065667415 0
    outer loop
      vertex 55.42499923706055 -50.589969635009766 4
      vertex 54.94469451904297 -50.34524154663086 0
      vertex 55.42499923706055 -50.589969635009766 0
    endloop
  endfacet
  facet normal 0.8910075241962847 -0.4539885371081602 0
    outer loop
      vertex 48.145240783691406 -52.95530700683594 4
      vertex 48.38996887207031 -52.474998474121094 0
      vertex 48.38996887207031 -52.474998474121094 4
    endloop
  endfacet
  facet normal 0.8910075241962847 -0.4539885371081602 0
    outer loop
      vertex 48.38996887207031 -52.474998474121094 0
      vertex 48.145240783691406 -52.95530700683594 4
      vertex 48.145240783691406 -52.95530700683594 0
    endloop
  endfacet
  facet normal -0.7071067811865476 0.7071067811865476 0
    outer loop
      vertex 56.2960205078125 -58.877197265625 0
      vertex 56.67719650268555 -58.49602127075195 4
      vertex 56.67719650268555 -58.49602127075195 0
    endloop
  endfacet
  facet normal -0.7071067811865476 0.7071067811865476 0
    outer loop
      vertex 56.67719650268555 -58.49602127075195 4
      vertex 56.2960205078125 -58.877197265625 0
      vertex 56.2960205078125 -58.877197265625 4
    endloop
  endfacet
  facet normal 0.9335786811581123 -0.3583724962759835 0
    outer loop
      vertex 47.952056884765625 -53.458560943603516 4
      vertex 48.145240783691406 -52.95530700683594 0
      vertex 48.145240783691406 -52.95530700683594 4
    endloop
  endfacet
  facet normal 0.9335786811581123 -0.3583724962759835 0
    outer loop
      vertex 48.145240783691406 -52.95530700683594 0
      vertex 47.952056884765625 -53.458560943603516 4
      vertex 47.952056884765625 -53.458560943603516 0
    endloop
  endfacet
  facet normal -0.258819091517897 -0.9659258138521044 0
    outer loop
      vertex 53.920745849609375 -50.01253890991211 0
      vertex 54.441436767578125 -50.15205764770508 4
      vertex 53.920745849609375 -50.01253890991211 4
    endloop
  endfacet
  facet normal -0.258819091517897 -0.9659258138521044 0
    outer loop
      vertex 54.441436767578125 -50.15205764770508 4
      vertex 53.920745849609375 -50.01253890991211 0
      vertex 54.441436767578125 -50.15205764770508 0
    endloop
  endfacet
  facet normal 0.9986297866103088 -0.05233115032797541 0
    outer loop
      vertex 47.70000076293945 -55.04999923706055 4
      vertex 47.72821044921875 -54.51167678833008 0
      vertex 47.72821044921875 -54.51167678833008 4
    endloop
  endfacet
  facet normal 0.9986297866103088 -0.05233115032797541 0
    outer loop
      vertex 47.72821044921875 -54.51167678833008 0
      vertex 47.70000076293945 -55.04999923706055 4
      vertex 47.70000076293945 -55.04999923706055 0
    endloop
  endfacet
  facet normal 0.4539913996364624 -0.891006065667415 0
    outer loop
      vertex 50.275001525878906 -50.589969635009766 0
      vertex 50.755306243896484 -50.34524154663086 4
      vertex 50.275001525878906 -50.589969635009766 4
    endloop
  endfacet
  facet normal 0.4539913996364624 -0.891006065667415 0
    outer loop
      vertex 50.755306243896484 -50.34524154663086 4
      vertex 50.275001525878906 -50.589969635009766 0
      vertex 50.755306243896484 -50.34524154663086 0
    endloop
  endfacet
  facet normal -0.9335810487496807 0.35836632851796535 0
    outer loop
      vertex 57.55475997924805 -57.144691467285156 0
      vertex 57.74794006347656 -56.64143753051758 4
      vertex 57.74794006347656 -56.64143753051758 0
    endloop
  endfacet
  facet normal -0.9335810487496807 0.35836632851796535 0
    outer loop
      vertex 57.74794006347656 -56.64143753051758 4
      vertex 57.55475997924805 -57.144691467285156 0
      vertex 57.55475997924805 -57.144691467285156 4
    endloop
  endfacet
  facet normal -0.9659262878888546 0.258817322382521 0
    outer loop
      vertex 57.74794006347656 -56.64143753051758 0
      vertex 57.88745880126953 -56.12074279785156 4
      vertex 57.88745880126953 -56.12074279785156 0
    endloop
  endfacet
  facet normal -0.9659262878888546 0.258817322382521 0
    outer loop
      vertex 57.88745880126953 -56.12074279785156 4
      vertex 57.74794006347656 -56.64143753051758 0
      vertex 57.74794006347656 -56.64143753051758 4
    endloop
  endfacet
  facet normal -0.7771448288209493 0.6293217897362662 0
    outer loop
      vertex 56.67719650268555 -58.49602127075195 0
      vertex 57.01643753051758 -58.07709503173828 4
      vertex 57.01643753051758 -58.07709503173828 0
    endloop
  endfacet
  facet normal -0.7771448288209493 0.6293217897362662 0
    outer loop
      vertex 57.01643753051758 -58.07709503173828 4
      vertex 56.67719650268555 -58.49602127075195 0
      vertex 56.67719650268555 -58.49602127075195 4
    endloop
  endfacet
  facet normal 0.6293226026866839 -0.7771441705035548 0
    outer loop
      vertex 49.40397644042969 -51.22280502319336 0
      vertex 49.822906494140625 -50.88356018066406 4
      vertex 49.40397644042969 -51.22280502319336 4
    endloop
  endfacet
  facet normal 0.6293226026866839 -0.7771441705035548 0
    outer loop
      vertex 49.822906494140625 -50.88356018066406 4
      vertex 49.40397644042969 -51.22280502319336 0
      vertex 49.822906494140625 -50.88356018066406 0
    endloop
  endfacet
  facet normal 0.258817322382521 -0.9659262878888546 0
    outer loop
      vertex 51.25856018066406 -50.15205764770508 0
      vertex 51.77925491333008 -50.01253890991211 4
      vertex 51.25856018066406 -50.15205764770508 4
    endloop
  endfacet
  facet normal 0.258817322382521 -0.9659262878888546 0
    outer loop
      vertex 51.77925491333008 -50.01253890991211 4
      vertex 51.25856018066406 -50.15205764770508 0
      vertex 51.77925491333008 -50.01253890991211 0
    endloop
  endfacet
  facet normal -1 0 0
    outer loop
      vertex 56.099998474121094 -59.55314636230469 0
      vertex 56.099998474121094 -59.03593063354492 4
      vertex 56.099998474121094 -59.03593063354492 0
    endloop
  endfacet
  facet normal -1 0 0
    outer loop
      vertex 56.099998474121094 -59.03593063354492 4
      vertex 56.099998474121094 -59.55314636230469 0
      vertex 56.099998474121094 -59.55314636230469 4
    endloop
  endfacet
  facet normal 1 0 0
    outer loop
      vertex 47.70000076293945 -59.55314636230469 4
      vertex 47.70000076293945 -55.04999923706055 0
      vertex 47.70000076293945 -55.04999923706055 4
    endloop
  endfacet
  facet normal 1 0 0
    outer loop
      vertex 47.70000076293945 -55.04999923706055 0
      vertex 47.70000076293945 -59.55314636230469 4
      vertex 47.70000076293945 -59.55314636230469 0
    endloop
  endfacet
  facet normal 0.7071058395357364 -0.7071077228361046 0
    outer loop
      vertex 46.26772689819336 -60.985416412353516 0
      vertex 47.70000076293945 -59.55314636230469 4
      vertex 46.26772689819336 -60.985416412353516 4
    endloop
  endfacet
  facet normal 0.7071058395357364 -0.7071077228361046 0
    outer loop
      vertex 47.70000076293945 -59.55314636230469 4
      vertex 46.26772689819336 -60.985416412353516 0
      vertex 47.70000076293945 -59.55314636230469 0
    endloop
  endfacet
  facet normal -0.7071058395357364 -0.7071077228361046 0
    outer loop
      vertex 56.099998474121094 -59.55314636230469 0
      vertex 57.53227233886719 -60.985416412353516 4
      vertex 56.099998474121094 -59.55314636230469 4
    endloop
  endfacet
  facet normal -0.7071058395357364 -0.7071077228361046 0
    outer loop
      vertex 57.53227233886719 -60.985416412353516 4
      vertex 56.099998474121094 -59.55314636230469 0
      vertex 57.53227233886719 -60.985416412353516 0
    endloop
  endfacet
  facet normal -1 0 0
    outer loop
      vertex 58 -55.05000305175781 0
      vertex 58 -55.04999923706055 4
      vertex 58 -55.04999923706055 0
    endloop
  endfacet
  facet normal -1 0 0
    outer loop
      vertex 58 -55.04999923706055 4
      vertex 58 -55.05000305175781 0
      vertex 58 -55.05000305175781 4
    endloop
  endfacet
  facet normal 0.8854551351245921 -0.464724868800337 0
    outer loop
      vertex 56.029056549072266 -49.36068344116211 4
      vertex 56.251487731933594 -48.9368782043457 0
      vertex 56.251487731933594 -48.9368782043457 4
    endloop
  endfacet
  facet normal 0.8854551351245921 -0.464724868800337 0
    outer loop
      vertex 56.251487731933594 -48.9368782043457 0
      vertex 56.029056549072266 -49.36068344116211 4
      vertex 56.029056549072266 -49.36068344116211 0
    endloop
  endfacet
  facet normal -0.7485119970490608 -0.6631212485463175 0
    outer loop
      vertex 57.88545608520508 -49.135276794433594 0
      vertex 57.56806564331055 -48.777015686035156 4
      vertex 57.56806564331055 -48.777015686035156 0
    endloop
  endfacet
  facet normal -0.7485119970490608 -0.6631212485463175 0
    outer loop
      vertex 57.56806564331055 -48.777015686035156 4
      vertex 57.88545608520508 -49.135276794433594 0
      vertex 57.88545608520508 -49.135276794433594 4
    endloop
  endfacet
  facet normal -0.9709416677639884 -0.23931627148960202 0
    outer loop
      vertex 58 -49.599998474121094 0
      vertex 57.88545608520508 -49.135276794433594 4
      vertex 57.88545608520508 -49.135276794433594 0
    endloop
  endfacet
  facet normal -0.9709416677639884 -0.23931627148960202 0
    outer loop
      vertex 57.88545608520508 -49.135276794433594 4
      vertex 58 -49.599998474121094 0
      vertex 58 -49.599998474121094 4
    endloop
  endfacet
  facet normal -0.35460161659040434 -0.9350174829977629 0
    outer loop
      vertex 57.12053680419922 -48.60729217529297 0
      vertex 57.56806564331055 -48.777015686035156 4
      vertex 57.12053680419922 -48.60729217529297 4
    endloop
  endfacet
  facet normal -0.35460161659040434 -0.9350174829977629 0
    outer loop
      vertex 57.56806564331055 -48.777015686035156 4
      vertex 57.12053680419922 -48.60729217529297 0
      vertex 57.56806564331055 -48.777015686035156 0
    endloop
  endfacet
  facet normal 1 0 0
    outer loop
      vertex 56.029056549072266 -51.00661849975586 4
      vertex 56.029056549072266 -49.36068344116211 0
      vertex 56.029056549072266 -49.36068344116211 4
    endloop
  endfacet
  facet normal 1 0 0
    outer loop
      vertex 56.029056549072266 -49.36068344116211 0
      vertex 56.029056549072266 -51.00661849975586 4
      vertex 56.029056549072266 -51.00661849975586 0
    endloop
  endfacet
  facet normal -1 0 0
    outer loop
      vertex 58 -55.04999923706055 0
      vertex 58 -49.599998474121094 4
      vertex 58 -49.599998474121094 0
    endloop
  endfacet
  facet normal -1 0 0
    outer loop
      vertex 58 -49.599998474121094 4
      vertex 58 -55.04999923706055 0
      vertex 58 -55.04999923706055 4
    endloop
  endfacet
  facet normal 0.5680634958521346 -0.8229847293117 0
    outer loop
      vertex 56.251487731933594 -48.9368782043457 0
      vertex 56.64539337158203 -48.66498565673828 4
      vertex 56.251487731933594 -48.9368782043457 4
    endloop
  endfacet
  facet normal 0.5680634958521346 -0.8229847293117 0
    outer loop
      vertex 56.64539337158203 -48.66498565673828 4
      vertex 56.251487731933594 -48.9368782043457 0
      vertex 56.64539337158203 -48.66498565673828 0
    endloop
  endfacet
  facet normal 0.12053796408237348 -0.992708718212385 0
    outer loop
      vertex 56.64539337158203 -48.66498565673828 0
      vertex 57.12053680419922 -48.60729217529297 4
      vertex 56.64539337158203 -48.66498565673828 4
    endloop
  endfacet
  facet normal 0.12053796408237348 -0.992708718212385 0
    outer loop
      vertex 57.12053680419922 -48.60729217529297 4
      vertex 56.64539337158203 -48.66498565673828 0
      vertex 57.12053680419922 -48.60729217529297 0
    endloop
  endfacet
  facet normal -0.6965499080223144 -0.7175083453410876 0
    outer loop
      vertex -46.258148193359375 -49.818450927734375 0
      vertex -45.901100158691406 -50.165069580078125 4
      vertex -46.258148193359375 -49.818450927734375 4
    endloop
  endfacet
  facet normal -0.6965499080223144 -0.7175083453410876 0
    outer loop
      vertex -45.901100158691406 -50.165069580078125 4
      vertex -46.258148193359375 -49.818450927734375 0
      vertex -45.901100158691406 -50.165069580078125 0
    endloop
  endfacet
  facet normal 0.059241945911139654 -0.9982436535458974 0
    outer loop
      vertex -49.49674606323242 -48.8294792175293 0
      vertex -49 -48.79999923706055 4
      vertex -49.49674606323242 -48.8294792175293 4
    endloop
  endfacet
  facet normal 0.059241945911139654 -0.9982436535458974 0
    outer loop
      vertex -49 -48.79999923706055 4
      vertex -49.49674606323242 -48.8294792175293 0
      vertex -49 -48.79999923706055 0
    endloop
  endfacet
  facet normal -0.5085242323023367 -0.8610476787967778 0
    outer loop
      vertex -47.082157135009766 -49.26344299316406 0
      vertex -46.653682708740234 -49.51649475097656 4
      vertex -47.082157135009766 -49.26344299316406 4
    endloop
  endfacet
  facet normal -0.5085242323023367 -0.8610476787967778 0
    outer loop
      vertex -46.653682708740234 -49.51649475097656 4
      vertex -47.082157135009766 -49.26344299316406 0
      vertex -46.653682708740234 -49.51649475097656 0
    endloop
  endfacet
  facet normal 0.9785554781391198 -0.205983436722273 0
    outer loop
      vertex -53.153968811035156 -52.3798828125 4
      vertex -53.05146789550781 -51.89293670654297 0
      vertex -53.05146789550781 -51.89293670654297 4
    endloop
  endfacet
  facet normal 0.9785554781391198 -0.205983436722273 0
    outer loop
      vertex -53.05146789550781 -51.89293670654297 0
      vertex -53.153968811035156 -52.3798828125 4
      vertex -53.153968811035156 -52.3798828125 0
    endloop
  endfacet
  facet normal 0.9266870314153081 0.37583393381476865 0
    outer loop
      vertex -52.791748046875 -54.8062744140625 4
      vertex -52.9787712097168 -54.34513473510742 0
      vertex -52.9787712097168 -54.34513473510742 4
    endloop
  endfacet
  facet normal 0.9266870314153081 0.37583393381476865 0
    outer loop
      vertex -52.9787712097168 -54.34513473510742 0
      vertex -52.791748046875 -54.8062744140625 4
      vertex -52.791748046875 -54.8062744140625 0
    endloop
  endfacet
  facet normal -0.7071067811865476 -0.7071067811865476 0
    outer loop
      vertex -35.080753326416016 -60.985416412353516 0
      vertex -45.901100158691406 -50.165069580078125 4
      vertex -45.901100158691406 -50.165069580078125 0
    endloop
  endfacet
  facet normal -0.7071067811865476 -0.7071067811865476 0
    outer loop
      vertex -45.901100158691406 -50.165069580078125 4
      vertex -35.080753326416016 -60.985416412353516 0
      vertex -35.080753326416016 -60.985416412353516 4
    endloop
  endfacet
  facet normal 0.8757360700126288 0.4827901569821368 0
    outer loop
      vertex -52.5515022277832 -55.24205780029297 4
      vertex -52.791748046875 -54.8062744140625 0
      vertex -52.791748046875 -54.8062744140625 4
    endloop
  endfacet
  facet normal 0.8757360700126288 0.4827901569821368 0
    outer loop
      vertex -52.791748046875 -54.8062744140625 0
      vertex -52.5515022277832 -55.24205780029297 4
      vertex -52.5515022277832 -55.24205780029297 0
    endloop
  endfacet
  facet normal 0.7071067811865475 0.7071067811865475 0
    outer loop
      vertex -46.95362854003906 -60.985416412353516 4
      vertex -51.925514221191406 -56.01353073120117 0
      vertex -51.925514221191406 -56.01353073120117 4
    endloop
  endfacet
  facet normal 0.7071067811865475 0.7071067811865475 0
    outer loop
      vertex -51.925514221191406 -56.01353073120117 0
      vertex -46.95362854003906 -60.985416412353516 4
      vertex -46.95362854003906 -60.985416412353516 0
    endloop
  endfacet
  facet normal 0.5085242323023367 -0.8610476787967778 0
    outer loop
      vertex -51.346317291259766 -49.51649475097656 0
      vertex -50.917842864990234 -49.26344299316406 4
      vertex -51.346317291259766 -49.51649475097656 4
    endloop
  endfacet
  facet normal 0.5085242323023367 -0.8610476787967778 0
    outer loop
      vertex -50.917842864990234 -49.26344299316406 4
      vertex -51.346317291259766 -49.51649475097656 0
      vertex -50.917842864990234 -49.26344299316406 0
    endloop
  endfacet
  facet normal 0.737834410636668 0.6749817645540069 0
    outer loop
      vertex -51.925514221191406 -56.01353073120117 4
      vertex -52.26139831542969 -55.64636993408203 0
      vertex -52.26139831542969 -55.64636993408203 4
    endloop
  endfacet
  facet normal 0.737834410636668 0.6749817645540069 0
    outer loop
      vertex -52.26139831542969 -55.64636993408203 0
      vertex -51.925514221191406 -56.01353073120117 4
      vertex -51.925514221191406 -56.01353073120117 0
    endloop
  endfacet
  facet normal -0.4031318887893597 -0.9151418907694715 0
    outer loop
      vertex -47.53755187988281 -49.062835693359375 0
      vertex -47.082157135009766 -49.26344299316406 4
      vertex -47.53755187988281 -49.062835693359375 4
    endloop
  endfacet
  facet normal -0.4031318887893597 -0.9151418907694715 0
    outer loop
      vertex -47.082157135009766 -49.26344299316406 4
      vertex -47.53755187988281 -49.062835693359375 0
      vertex -47.082157135009766 -49.26344299316406 0
    endloop
  endfacet
  facet normal -0.17689028472643883 -0.9842305762215474 0
    outer loop
      vertex -48.50325012207031 -48.8294792175293 0
      vertex -48.01347732543945 -48.917503356933594 4
      vertex -48.50325012207031 -48.8294792175293 4
    endloop
  endfacet
  facet normal -0.17689028472643883 -0.9842305762215474 0
    outer loop
      vertex -48.01347732543945 -48.917503356933594 4
      vertex -48.50325012207031 -48.8294792175293 0
      vertex -48.01347732543945 -48.917503356933594 0
    endloop
  endfacet
  facet normal -0.606801434209237 -0.7948534578408859 0
    outer loop
      vertex -46.653682708740234 -49.51649475097656 0
      vertex -46.258148193359375 -49.818450927734375 4
      vertex -46.653682708740234 -49.51649475097656 4
    endloop
  endfacet
  facet normal -0.606801434209237 -0.7948534578408859 0
    outer loop
      vertex -46.258148193359375 -49.818450927734375 4
      vertex -46.653682708740234 -49.51649475097656 0
      vertex -46.258148193359375 -49.818450927734375 0
    endloop
  endfacet
  facet normal 0.2920522095087191 -0.9564023770992391 0
    outer loop
      vertex -50.46244812011719 -49.062835693359375 0
      vertex -49.98651885986328 -48.917503356933594 4
      vertex -50.46244812011719 -49.062835693359375 4
    endloop
  endfacet
  facet normal 0.2920522095087191 -0.9564023770992391 0
    outer loop
      vertex -49.98651885986328 -48.917503356933594 4
      vertex -50.46244812011719 -49.062835693359375 0
      vertex -49.98651885986328 -48.917503356933594 0
    endloop
  endfacet
  facet normal 0.8124869425693967 0.5829793891332986 0
    outer loop
      vertex -52.26139831542969 -55.64636993408203 4
      vertex -52.5515022277832 -55.24205780029297 0
      vertex -52.5515022277832 -55.24205780029297 4
    endloop
  endfacet
  facet normal 0.8124869425693967 0.5829793891332986 0
    outer loop
      vertex -52.5515022277832 -55.24205780029297 0
      vertex -52.26139831542969 -55.64636993408203 4
      vertex -52.26139831542969 -55.64636993408203 0
    endloop
  endfacet
  facet normal 0.606801434209237 -0.7948534578408859 0
    outer loop
      vertex -51.741851806640625 -49.818450927734375 0
      vertex -51.346317291259766 -49.51649475097656 4
      vertex -51.741851806640625 -49.818450927734375 4
    endloop
  endfacet
  facet normal 0.606801434209237 -0.7948534578408859 0
    outer loop
      vertex -51.346317291259766 -49.51649475097656 4
      vertex -51.741851806640625 -49.818450927734375 0
      vertex -51.346317291259766 -49.51649475097656 0
    endloop
  endfacet
  facet normal 0.6965499080223144 -0.7175083453410876 0
    outer loop
      vertex -52.098899841308594 -50.165069580078125 0
      vertex -51.741851806640625 -49.818450927734375 4
      vertex -52.098899841308594 -50.165069580078125 4
    endloop
  endfacet
  facet normal 0.6965499080223144 -0.7175083453410876 0
    outer loop
      vertex -51.741851806640625 -49.818450927734375 4
      vertex -52.098899841308594 -50.165069580078125 0
      vertex -51.741851806640625 -49.818450927734375 0
    endloop
  endfacet
  facet normal 0.9890394052021394 0.14765180309565573 0
    outer loop
      vertex -53.10993576049805 -53.8651123046875 4
      vertex -53.18341064453125 -53.37294387817383 0
      vertex -53.18341064453125 -53.37294387817383 4
    endloop
  endfacet
  facet normal 0.9890394052021394 0.14765180309565573 0
    outer loop
      vertex -53.18341064453125 -53.37294387817383 0
      vertex -53.10993576049805 -53.8651123046875 4
      vertex -53.10993576049805 -53.8651123046875 0
    endloop
  endfacet
  facet normal 0.8455981807718901 -0.5338199290727818 0
    outer loop
      vertex -52.67808532714844 -50.97227478027344 4
      vertex -52.412445068359375 -50.55148696899414 0
      vertex -52.412445068359375 -50.55148696899414 4
    endloop
  endfacet
  facet normal 0.8455981807718901 -0.5338199290727818 0
    outer loop
      vertex -52.412445068359375 -50.55148696899414 0
      vertex -52.67808532714844 -50.97227478027344 4
      vertex -52.67808532714844 -50.97227478027344 0
    endloop
  endfacet
  facet normal 0.9027950437486472 -0.4300710510867689 0
    outer loop
      vertex -52.89209747314453 -51.42152404785156 4
      vertex -52.67808532714844 -50.97227478027344 0
      vertex -52.67808532714844 -50.97227478027344 4
    endloop
  endfacet
  facet normal 0.9027950437486472 -0.4300710510867689 0
    outer loop
      vertex -52.67808532714844 -50.97227478027344 0
      vertex -52.89209747314453 -51.42152404785156 4
      vertex -52.89209747314453 -51.42152404785156 0
    endloop
  endfacet
  facet normal 0.9473285820864545 -0.32026326289799073 0
    outer loop
      vertex -53.05146789550781 -51.89293670654297 4
      vertex -52.89209747314453 -51.42152404785156 0
      vertex -52.89209747314453 -51.42152404785156 4
    endloop
  endfacet
  facet normal 0.9473285820864545 -0.32026326289799073 0
    outer loop
      vertex -52.89209747314453 -51.42152404785156 0
      vertex -53.05146789550781 -51.89293670654297 4
      vertex -53.05146789550781 -51.89293670654297 0
    endloop
  endfacet
  facet normal -0.29205435073466623 -0.9564017232402671 0
    outer loop
      vertex -48.01347732543945 -48.917503356933594 0
      vertex -47.53755187988281 -49.062835693359375 4
      vertex -48.01347732543945 -48.917503356933594 4
    endloop
  endfacet
  facet normal -0.29205435073466623 -0.9564017232402671 0
    outer loop
      vertex -47.53755187988281 -49.062835693359375 4
      vertex -48.01347732543945 -48.917503356933594 0
      vertex -47.53755187988281 -49.062835693359375 0
    endloop
  endfacet
  facet normal 0.9995609765711954 0.029628603005174208 0
    outer loop
      vertex -53.18341064453125 -53.37294387817383 4
      vertex -53.19815444946289 -52.87554168701172 0
      vertex -53.19815444946289 -52.87554168701172 4
    endloop
  endfacet
  facet normal 0.9995609765711954 0.029628603005174208 0
    outer loop
      vertex -53.19815444946289 -52.87554168701172 0
      vertex -53.18341064453125 -53.37294387817383 4
      vertex -53.18341064453125 -53.37294387817383 0
    endloop
  endfacet
  facet normal 0.9646365138040626 0.2635837556374529 0
    outer loop
      vertex -52.9787712097168 -54.34513473510742 4
      vertex -53.10993576049805 -53.8651123046875 0
      vertex -53.10993576049805 -53.8651123046875 4
    endloop
  endfacet
  facet normal 0.9646365138040626 0.2635837556374529 0
    outer loop
      vertex -53.10993576049805 -53.8651123046875 0
      vertex -52.9787712097168 -54.34513473510742 4
      vertex -52.9787712097168 -54.34513473510742 0
    endloop
  endfacet
  facet normal 0.17689028472643883 -0.9842305762215474 0
    outer loop
      vertex -49.98651885986328 -48.917503356933594 0
      vertex -49.49674606323242 -48.8294792175293 4
      vertex -49.98651885986328 -48.917503356933594 4
    endloop
  endfacet
  facet normal 0.17689028472643883 -0.9842305762215474 0
    outer loop
      vertex -49.49674606323242 -48.8294792175293 4
      vertex -49.98651885986328 -48.917503356933594 0
      vertex -49.49674606323242 -48.8294792175293 0
    endloop
  endfacet
  facet normal 0.7765258233632877 -0.6300854272636116 0
    outer loop
      vertex -52.412445068359375 -50.55148696899414 4
      vertex -52.098899841308594 -50.165069580078125 0
      vertex -52.098899841308594 -50.165069580078125 4
    endloop
  endfacet
  facet normal 0.7765258233632877 -0.6300854272636116 0
    outer loop
      vertex -52.098899841308594 -50.165069580078125 0
      vertex -52.412445068359375 -50.55148696899414 4
      vertex -52.412445068359375 -50.55148696899414 0
    endloop
  endfacet
  facet normal 0.9960500880256475 -0.08879314243847704 0
    outer loop
      vertex -53.19815444946289 -52.87554168701172 4
      vertex -53.153968811035156 -52.3798828125 0
      vertex -53.153968811035156 -52.3798828125 4
    endloop
  endfacet
  facet normal 0.9960500880256475 -0.08879314243847704 0
    outer loop
      vertex -53.153968811035156 -52.3798828125 0
      vertex -53.19815444946289 -52.87554168701172 4
      vertex -53.19815444946289 -52.87554168701172 0
    endloop
  endfacet
  facet normal -0.05924149257039107 -0.998243680449835 0
    outer loop
      vertex -49 -48.79999923706055 0
      vertex -48.50325012207031 -48.8294792175293 4
      vertex -49 -48.79999923706055 4
    endloop
  endfacet
  facet normal -0.05924149257039107 -0.998243680449835 0
    outer loop
      vertex -48.50325012207031 -48.8294792175293 4
      vertex -49 -48.79999923706055 0
      vertex -48.50325012207031 -48.8294792175293 0
    endloop
  endfacet
  facet normal 0.4031318887893597 -0.9151418907694715 0
    outer loop
      vertex -50.917842864990234 -49.26344299316406 0
      vertex -50.46244812011719 -49.062835693359375 4
      vertex -50.917842864990234 -49.26344299316406 4
    endloop
  endfacet
  facet normal 0.4031318887893597 -0.9151418907694715 0
    outer loop
      vertex -50.46244812011719 -49.062835693359375 4
      vertex -50.917842864990234 -49.26344299316406 0
      vertex -50.46244812011719 -49.062835693359375 0
    endloop
  endfacet
  facet normal -0.4647261300517372 -0.8854544731645642 0
    outer loop
      vertex -60.136131286621094 -60.645965576171875 0
      vertex -59.70920944213867 -60.870033264160156 4
      vertex -60.136131286621094 -60.645965576171875 4
    endloop
  endfacet
  facet normal -0.4647261300517372 -0.8854544731645642 0
    outer loop
      vertex -59.70920944213867 -60.870033264160156 4
      vertex -60.136131286621094 -60.645965576171875 0
      vertex -59.70920944213867 -60.870033264160156 0
    endloop
  endfacet
  facet normal -1 0 0
    outer loop
      vertex -61 -59 0
      vertex -61 59 4
      vertex -61 59 0
    endloop
  endfacet
  facet normal -1 0 0
    outer loop
      vertex -61 59 4
      vertex -61 -59 0
      vertex -61 -59 4
    endloop
  endfacet
  facet normal 0.8229817994973584 0.5680677404113791 0
    outer loop
      vertex 60.770912170410156 59.929447174072266 4
      vertex 60.49702072143555 60.32624435424805 0
      vertex 60.49702072143555 60.32624435424805 4
    endloop
  endfacet
  facet normal 0.8229817994973584 0.5680677404113791 0
    outer loop
      vertex 60.49702072143555 60.32624435424805 0
      vertex 60.770912170410156 59.929447174072266 4
      vertex 60.770912170410156 59.929447174072266 0
    endloop
  endfacet
  facet normal 0 1 0
    outer loop
      vertex 59.24107360839844 60.985416412353516 0
      vertex -59.24107360839844 60.985416412353516 4
      vertex 59.24107360839844 60.985416412353516 4
    endloop
  endfacet
  facet normal 0 1 0
    outer loop
      vertex -59.24107360839844 60.985416412353516 4
      vertex 59.24107360839844 60.985416412353516 0
      vertex -59.24107360839844 60.985416412353516 0
    endloop
  endfacet
  facet normal -0.9350172469839487 -0.35460223891362763 0
    outer loop
      vertex -60.770912170410156 -59.929447174072266 0
      vertex -60.9418830871582 -59.47863006591797 4
      vertex -60.9418830871582 -59.47863006591797 0
    endloop
  endfacet
  facet normal -0.9350172469839487 -0.35460223891362763 0
    outer loop
      vertex -60.9418830871582 -59.47863006591797 4
      vertex -60.770912170410156 -59.929447174072266 0
      vertex -60.770912170410156 -59.929447174072266 4
    endloop
  endfacet
  facet normal -0.2393118090366464 -0.9709427676519393 0
    outer loop
      vertex -59.70920944213867 -60.870033264160156 0
      vertex -59.24107360839844 -60.985416412353516 4
      vertex -59.70920944213867 -60.870033264160156 4
    endloop
  endfacet
  facet normal -0.2393118090366464 -0.9709427676519393 0
    outer loop
      vertex -59.24107360839844 -60.985416412353516 4
      vertex -59.70920944213867 -60.870033264160156 0
      vertex -59.24107360839844 -60.985416412353516 0
    endloop
  endfacet
  facet normal 0 -1 0
    outer loop
      vertex 57.53227233886719 -60.985416412353516 0
      vertex 59.24107360839844 -60.985416412353516 4
      vertex 57.53227233886719 -60.985416412353516 4
    endloop
  endfacet
  facet normal 0 -1 0
    outer loop
      vertex 59.24107360839844 -60.985416412353516 4
      vertex 57.53227233886719 -60.985416412353516 0
      vertex 59.24107360839844 -60.985416412353516 0
    endloop
  endfacet
  facet normal 0 -1 0
    outer loop
      vertex -59.24107360839844 -60.985416412353516 0
      vertex -46.95362854003906 -60.985416412353516 4
      vertex -59.24107360839844 -60.985416412353516 4
    endloop
  endfacet
  facet normal 0 -1 0
    outer loop
      vertex -46.95362854003906 -60.985416412353516 4
      vertex -59.24107360839844 -60.985416412353516 0
      vertex -46.95362854003906 -60.985416412353516 0
    endloop
  endfacet
  facet normal 0 -1 0
    outer loop
      vertex -35.080753326416016 -60.985416412353516 0
      vertex 46.26772689819336 -60.985416412353516 4
      vertex -35.080753326416016 -60.985416412353516 4
    endloop
  endfacet
  facet normal 0 -1 0
    outer loop
      vertex 46.26772689819336 -60.985416412353516 4
      vertex -35.080753326416016 -60.985416412353516 0
      vertex 46.26772689819336 -60.985416412353516 0
    endloop
  endfacet
  facet normal 0.9350172469839487 0.35460223891362763 0
    outer loop
      vertex 60.9418830871582 59.47863006591797 4
      vertex 60.770912170410156 59.929447174072266 0
      vertex 60.770912170410156 59.929447174072266 4
    endloop
  endfacet
  facet normal 0.9350172469839487 0.35460223891362763 0
    outer loop
      vertex 60.770912170410156 59.929447174072266 0
      vertex 60.9418830871582 59.47863006591797 4
      vertex 60.9418830871582 59.47863006591797 0
    endloop
  endfacet
  facet normal 0.9350172469839487 -0.35460223891362763 0
    outer loop
      vertex 60.770912170410156 -59.929447174072266 4
      vertex 60.9418830871582 -59.47863006591797 0
      vertex 60.9418830871582 -59.47863006591797 4
    endloop
  endfacet
  facet normal 0.9350172469839487 -0.35460223891362763 0
    outer loop
      vertex 60.9418830871582 -59.47863006591797 0
      vertex 60.770912170410156 -59.929447174072266 4
      vertex 60.770912170410156 -59.929447174072266 0
    endloop
  endfacet
  facet normal 0.6631239152431042 0.7485096345623456 0
    outer loop
      vertex 60.49702072143555 60.32624435424805 0
      vertex 60.136131286621094 60.645965576171875 4
      vertex 60.49702072143555 60.32624435424805 4
    endloop
  endfacet
  facet normal 0.6631239152431042 0.7485096345623456 0
    outer loop
      vertex 60.136131286621094 60.645965576171875 4
      vertex 60.49702072143555 60.32624435424805 0
      vertex 60.136131286621094 60.645965576171875 0
    endloop
  endfacet
  facet normal 0.6631239152431042 -0.7485096345623456 0
    outer loop
      vertex 60.136131286621094 -60.645965576171875 0
      vertex 60.49702072143555 -60.32624435424805 4
      vertex 60.136131286621094 -60.645965576171875 4
    endloop
  endfacet
  facet normal 0.6631239152431042 -0.7485096345623456 0
    outer loop
      vertex 60.49702072143555 -60.32624435424805 4
      vertex 60.136131286621094 -60.645965576171875 0
      vertex 60.49702072143555 -60.32624435424805 0
    endloop
  endfacet
  facet normal 1 0 0
    outer loop
      vertex 61 -59 4
      vertex 61 59 0
      vertex 61 59 4
    endloop
  endfacet
  facet normal 1 0 0
    outer loop
      vertex 61 59 0
      vertex 61 -59 4
      vertex 61 -59 0
    endloop
  endfacet
  facet normal -0.2393118090366464 0.9709427676519393 0
    outer loop
      vertex -59.24107360839844 60.985416412353516 0
      vertex -59.70920944213867 60.870033264160156 4
      vertex -59.24107360839844 60.985416412353516 4
    endloop
  endfacet
  facet normal -0.2393118090366464 0.9709427676519393 0
    outer loop
      vertex -59.70920944213867 60.870033264160156 4
      vertex -59.24107360839844 60.985416412353516 0
      vertex -59.70920944213867 60.870033264160156 0
    endloop
  endfacet
  facet normal -0.9927087001223174 -0.12053811306578072 0
    outer loop
      vertex -60.9418830871582 -59.47863006591797 0
      vertex -61 -59 4
      vertex -61 -59 0
    endloop
  endfacet
  facet normal -0.9927087001223174 -0.12053811306578072 0
    outer loop
      vertex -61 -59 4
      vertex -60.9418830871582 -59.47863006591797 0
      vertex -60.9418830871582 -59.47863006591797 4
    endloop
  endfacet
  facet normal -0.4647261300517372 0.8854544731645642 0
    outer loop
      vertex -59.70920944213867 60.870033264160156 0
      vertex -60.136131286621094 60.645965576171875 4
      vertex -59.70920944213867 60.870033264160156 4
    endloop
  endfacet
  facet normal -0.4647261300517372 0.8854544731645642 0
    outer loop
      vertex -60.136131286621094 60.645965576171875 4
      vertex -59.70920944213867 60.870033264160156 0
      vertex -60.136131286621094 60.645965576171875 0
    endloop
  endfacet
  facet normal -0.8229817994973584 -0.5680677404113791 0
    outer loop
      vertex -60.49702072143555 -60.32624435424805 0
      vertex -60.770912170410156 -59.929447174072266 4
      vertex -60.770912170410156 -59.929447174072266 0
    endloop
  endfacet
  facet normal -0.8229817994973584 -0.5680677404113791 0
    outer loop
      vertex -60.770912170410156 -59.929447174072266 4
      vertex -60.49702072143555 -60.32624435424805 0
      vertex -60.49702072143555 -60.32624435424805 4
    endloop
  endfacet
  facet normal 0.9927087001223174 -0.12053811306578072 0
    outer loop
      vertex 60.9418830871582 -59.47863006591797 4
      vertex 61 -59 0
      vertex 61 -59 4
    endloop
  endfacet
  facet normal 0.9927087001223174 -0.12053811306578072 0
    outer loop
      vertex 61 -59 0
      vertex 60.9418830871582 -59.47863006591797 4
      vertex 60.9418830871582 -59.47863006591797 0
    endloop
  endfacet
  facet normal -0.6631239152431042 -0.7485096345623456 0
    outer loop
      vertex -60.49702072143555 -60.32624435424805 0
      vertex -60.136131286621094 -60.645965576171875 4
      vertex -60.49702072143555 -60.32624435424805 4
    endloop
  endfacet
  facet normal -0.6631239152431042 -0.7485096345623456 0
    outer loop
      vertex -60.136131286621094 -60.645965576171875 4
      vertex -60.49702072143555 -60.32624435424805 0
      vertex -60.136131286621094 -60.645965576171875 0
    endloop
  endfacet
  facet normal -0.6631239152431042 0.7485096345623456 0
    outer loop
      vertex -60.136131286621094 60.645965576171875 0
      vertex -60.49702072143555 60.32624435424805 4
      vertex -60.136131286621094 60.645965576171875 4
    endloop
  endfacet
  facet normal -0.6631239152431042 0.7485096345623456 0
    outer loop
      vertex -60.49702072143555 60.32624435424805 4
      vertex -60.136131286621094 60.645965576171875 0
      vertex -60.49702072143555 60.32624435424805 0
    endloop
  endfacet
  facet normal 0.8229817994973584 -0.5680677404113791 0
    outer loop
      vertex 60.49702072143555 -60.32624435424805 4
      vertex 60.770912170410156 -59.929447174072266 0
      vertex 60.770912170410156 -59.929447174072266 4
    endloop
  endfacet
  facet normal 0.8229817994973584 -0.5680677404113791 0
    outer loop
      vertex 60.770912170410156 -59.929447174072266 0
      vertex 60.49702072143555 -60.32624435424805 4
      vertex 60.49702072143555 -60.32624435424805 0
    endloop
  endfacet
  facet normal -0.9927087001223174 0.12053811306578072 0
    outer loop
      vertex -61 59 0
      vertex -60.9418830871582 59.47863006591797 4
      vertex -60.9418830871582 59.47863006591797 0
    endloop
  endfacet
  facet normal -0.9927087001223174 0.12053811306578072 0
    outer loop
      vertex -60.9418830871582 59.47863006591797 4
      vertex -61 59 0
      vertex -61 59 4
    endloop
  endfacet
  facet normal 0.4647261300517372 -0.8854544731645642 0
    outer loop
      vertex 59.70920944213867 -60.870033264160156 0
      vertex 60.136131286621094 -60.645965576171875 4
      vertex 59.70920944213867 -60.870033264160156 4
    endloop
  endfacet
  facet normal 0.4647261300517372 -0.8854544731645642 0
    outer loop
      vertex 60.136131286621094 -60.645965576171875 4
      vertex 59.70920944213867 -60.870033264160156 0
      vertex 60.136131286621094 -60.645965576171875 0
    endloop
  endfacet
  facet normal 0.2393118090366464 -0.9709427676519393 0
    outer loop
      vertex 59.24107360839844 -60.985416412353516 0
      vertex 59.70920944213867 -60.870033264160156 4
      vertex 59.24107360839844 -60.985416412353516 4
    endloop
  endfacet
  facet normal 0.2393118090366464 -0.9709427676519393 0
    outer loop
      vertex 59.70920944213867 -60.870033264160156 4
      vertex 59.24107360839844 -60.985416412353516 0
      vertex 59.70920944213867 -60.870033264160156 0
    endloop
  endfacet
  facet normal 0 0 -1
    outer loop
      vertex -53.10993576049805 -53.8651123046875 0
      vertex -61 -59 0
      vertex -53.18341064453125 -53.37294387817383 0
    endloop
  endfacet
  facet normal 0 0 -1
    outer loop
      vertex -52.9787712097168 -54.34513473510742 0
      vertex -61 -59 0
      vertex -53.10993576049805 -53.8651123046875 0
    endloop
  endfacet
  facet normal 0 0 -1
    outer loop
      vertex -52.791748046875 -54.8062744140625 0
      vertex -61 -59 0
      vertex -52.9787712097168 -54.34513473510742 0
    endloop
  endfacet
  facet normal 0 0 -1
    outer loop
      vertex -61 -59 0
      vertex -52.791748046875 -54.8062744140625 0
      vertex -59.24107360839844 -60.985416412353516 0
    endloop
  endfacet
  facet normal 0 0 -1
    outer loop
      vertex -52.5515022277832 -55.24205780029297 0
      vertex -59.24107360839844 -60.985416412353516 0
      vertex -52.791748046875 -54.8062744140625 0
    endloop
  endfacet
  facet normal 0 0 -1
    outer loop
      vertex -52.26139831542969 -55.64636993408203 0
      vertex -59.24107360839844 -60.985416412353516 0
      vertex -52.5515022277832 -55.24205780029297 0
    endloop
  endfacet
  facet normal 0 0 -1
    outer loop
      vertex -51.925514221191406 -56.01353073120117 0
      vertex -59.24107360839844 -60.985416412353516 0
      vertex -52.26139831542969 -55.64636993408203 0
    endloop
  endfacet
  facet normal 0 0 -1
    outer loop
      vertex -59.24107360839844 -60.985416412353516 0
      vertex -51.925514221191406 -56.01353073120117 0
      vertex -46.95362854003906 -60.985416412353516 0
    endloop
  endfacet
  facet normal 0 0 -1
    outer loop
      vertex 47.70000076293945 -59.55314636230469 0
      vertex 46.26772689819336 -60.985416412353516 0
      vertex 47.70000076293945 -55.04999923706055 0
    endloop
  endfacet
  facet normal 0 0 -1
    outer loop
      vertex 56.029056549072266 -51.00661849975586 0
      vertex 55.87709426879883 -50.88356018066406 0
      vertex 56.029056549072266 -49.36068344116211 0
    endloop
  endfacet
  facet normal 0 0 -1
    outer loop
      vertex 59.24107360839844 -60.985416412353516 0
      vertex 61 -59 0
      vertex 60.9418830871582 -59.47863006591797 0
    endloop
  endfacet
  facet normal 0 0 -1
    outer loop
      vertex 61 -59 0
      vertex 57.88545608520508 -49.135276794433594 0
      vertex 61 59 0
    endloop
  endfacet
  facet normal 0 0 -1
    outer loop
      vertex 59.24107360839844 -60.985416412353516 0
      vertex 60.9418830871582 -59.47863006591797 0
      vertex 60.770912170410156 -59.929447174072266 0
    endloop
  endfacet
  facet normal 0 0 -1
    outer loop
      vertex 61 -59 0
      vertex 58 -49.599998474121094 0
      vertex 57.88545608520508 -49.135276794433594 0
    endloop
  endfacet
  facet normal 0 0 -1
    outer loop
      vertex 59.24107360839844 -60.985416412353516 0
      vertex 60.770912170410156 -59.929447174072266 0
      vertex 60.49702072143555 -60.32624435424805 0
    endloop
  endfacet
  facet normal 0 0 -1
    outer loop
      vertex 57.56806564331055 -48.777015686035156 0
      vertex 61 59 0
      vertex 57.88545608520508 -49.135276794433594 0
    endloop
  endfacet
  facet normal 0 0 -1
    outer loop
      vertex 59.24107360839844 -60.985416412353516 0
      vertex 60.49702072143555 -60.32624435424805 0
      vertex 60.136131286621094 -60.645965576171875 0
    endloop
  endfacet
  facet normal 0 0 -1
    outer loop
      vertex 57.12053680419922 -48.60729217529297 0
      vertex 61 59 0
      vertex 57.56806564331055 -48.777015686035156 0
    endloop
  endfacet
  facet normal 0 0 -1
    outer loop
      vertex 59.24107360839844 -60.985416412353516 0
      vertex 60.136131286621094 -60.645965576171875 0
      vertex 59.70920944213867 -60.870033264160156 0
    endloop
  endfacet
  facet normal 0 0 -1
    outer loop
      vertex 56.64539337158203 -48.66498565673828 0
      vertex 61 59 0
      vertex 57.12053680419922 -48.60729217529297 0
    endloop
  endfacet
  facet normal 0 0 -1
    outer loop
      vertex 61 -59 0
      vertex 59.24107360839844 -60.985416412353516 0
      vertex 57.310028076171875 -57.625 0
    endloop
  endfacet
  facet normal 0 0 -1
    outer loop
      vertex 51.77925491333008 -50.01253890991211 0
      vertex 61 59 0
      vertex 56.64539337158203 -48.66498565673828 0
    endloop
  endfacet
  facet normal 0 0 -1
    outer loop
      vertex 61 -59 0
      vertex 58 -55.05000305175781 0
      vertex 58 -55.04999923706055 0
    endloop
  endfacet
  facet normal 0 0 -1
    outer loop
      vertex 61 -59 0
      vertex 57.97178649902344 -55.588321685791016 0
      vertex 58 -55.05000305175781 0
    endloop
  endfacet
  facet normal 0 0 -1
    outer loop
      vertex 61 -59 0
      vertex 57.88745880126953 -56.12074279785156 0
      vertex 57.97178649902344 -55.588321685791016 0
    endloop
  endfacet
  facet normal 0 0 -1
    outer loop
      vertex 61 -59 0
      vertex 57.74794006347656 -56.64143753051758 0
      vertex 57.88745880126953 -56.12074279785156 0
    endloop
  endfacet
  facet normal 0 0 -1
    outer loop
      vertex 61 -59 0
      vertex 57.55475997924805 -57.144691467285156 0
      vertex 57.74794006347656 -56.64143753051758 0
    endloop
  endfacet
  facet normal 0 0 -1
    outer loop
      vertex 57.01643753051758 -58.07709503173828 0
      vertex 59.24107360839844 -60.985416412353516 0
      vertex 57.53227233886719 -60.985416412353516 0
    endloop
  endfacet
  facet normal 0 0 -1
    outer loop
      vertex 61 -59 0
      vertex 57.310028076171875 -57.625 0
      vertex 57.55475997924805 -57.144691467285156 0
    endloop
  endfacet
  facet normal 0 0 -1
    outer loop
      vertex 59.24107360839844 -60.985416412353516 0
      vertex 57.01643753051758 -58.07709503173828 0
      vertex 57.310028076171875 -57.625 0
    endloop
  endfacet
  facet normal 0 0 -1
    outer loop
      vertex 57.53227233886719 -60.985416412353516 0
      vertex 56.67719650268555 -58.49602127075195 0
      vertex 57.01643753051758 -58.07709503173828 0
    endloop
  endfacet
  facet normal 0 0 -1
    outer loop
      vertex 56.099998474121094 -59.55314636230469 0
      vertex 56.67719650268555 -58.49602127075195 0
      vertex 57.53227233886719 -60.985416412353516 0
    endloop
  endfacet
  facet normal 0 0 -1
    outer loop
      vertex 56.67719650268555 -58.49602127075195 0
      vertex 56.099998474121094 -59.55314636230469 0
      vertex 56.2960205078125 -58.877197265625 0
    endloop
  endfacet
  facet normal 0 0 -1
    outer loop
      vertex 56.2960205078125 -58.877197265625 0
      vertex 56.099998474121094 -59.55314636230469 0
      vertex 56.099998474121094 -59.03593063354492 0
    endloop
  endfacet
  facet normal 0 0 -1
    outer loop
      vertex 61 -59 0
      vertex 58 -55.04999923706055 0
      vertex 58 -49.599998474121094 0
    endloop
  endfacet
  facet normal 0 0 -1
    outer loop
      vertex 51.25856018066406 -50.15205764770508 0
      vertex 61 59 0
      vertex 51.77925491333008 -50.01253890991211 0
    endloop
  endfacet
  facet normal 0 0 -1
    outer loop
      vertex 50.755306243896484 -50.34524154663086 0
      vertex 61 59 0
      vertex 51.25856018066406 -50.15205764770508 0
    endloop
  endfacet
  facet normal 0 0 -1
    outer loop
      vertex 50.275001525878906 -50.589969635009766 0
      vertex 61 59 0
      vertex 50.755306243896484 -50.34524154663086 0
    endloop
  endfacet
  facet normal 0 0 -1
    outer loop
      vertex 60.49702072143555 60.32624435424805 0
      vertex 59.24107360839844 60.985416412353516 0
      vertex 60.136131286621094 60.645965576171875 0
    endloop
  endfacet
  facet normal 0 0 -1
    outer loop
      vertex 60.136131286621094 60.645965576171875 0
      vertex 59.24107360839844 60.985416412353516 0
      vertex 59.70920944213867 60.870033264160156 0
    endloop
  endfacet
  facet normal 0 0 -1
    outer loop
      vertex 52.849998474121094 -49.900001525878906 0
      vertex 56.64539337158203 -48.66498565673828 0
      vertex 56.251487731933594 -48.9368782043457 0
    endloop
  endfacet
  facet normal 0 0 -1
    outer loop
      vertex 53.920745849609375 -50.01253890991211 0
      vertex 56.251487731933594 -48.9368782043457 0
      vertex 56.029056549072266 -49.36068344116211 0
    endloop
  endfacet
  facet normal 0 0 -1
    outer loop
      vertex 55.42499923706055 -50.589969635009766 0
      vertex 56.029056549072266 -49.36068344116211 0
      vertex 55.87709426879883 -50.88356018066406 0
    endloop
  endfacet
  facet normal 0 0 -1
    outer loop
      vertex 54.94469451904297 -50.34524154663086 0
      vertex 56.029056549072266 -49.36068344116211 0
      vertex 55.42499923706055 -50.589969635009766 0
    endloop
  endfacet
  facet normal 0 0 -1
    outer loop
      vertex 54.441436767578125 -50.15205764770508 0
      vertex 56.029056549072266 -49.36068344116211 0
      vertex 54.94469451904297 -50.34524154663086 0
    endloop
  endfacet
  facet normal 0 0 -1
    outer loop
      vertex 53.920745849609375 -50.01253890991211 0
      vertex 56.029056549072266 -49.36068344116211 0
      vertex 54.441436767578125 -50.15205764770508 0
    endloop
  endfacet
  facet normal 0 0 -1
    outer loop
      vertex 56.251487731933594 -48.9368782043457 0
      vertex 53.920745849609375 -50.01253890991211 0
      vertex 53.38832092285156 -49.9282112121582 0
    endloop
  endfacet
  facet normal 0 0 -1
    outer loop
      vertex 56.251487731933594 -48.9368782043457 0
      vertex 53.38832092285156 -49.9282112121582 0
      vertex 52.849998474121094 -49.900001525878906 0
    endloop
  endfacet
  facet normal 0 0 -1
    outer loop
      vertex 56.64539337158203 -48.66498565673828 0
      vertex 52.849998474121094 -49.900001525878906 0
      vertex 52.311676025390625 -49.9282112121582 0
    endloop
  endfacet
  facet normal 0 0 -1
    outer loop
      vertex 56.64539337158203 -48.66498565673828 0
      vertex 52.311676025390625 -49.9282112121582 0
      vertex 51.77925491333008 -50.01253890991211 0
    endloop
  endfacet
  facet normal 0 0 -1
    outer loop
      vertex 49.822906494140625 -50.88356018066406 0
      vertex 61 59 0
      vertex 50.275001525878906 -50.589969635009766 0
    endloop
  endfacet
  facet normal 0 0 -1
    outer loop
      vertex 60.770912170410156 59.929447174072266 0
      vertex 59.24107360839844 60.985416412353516 0
      vertex 60.49702072143555 60.32624435424805 0
    endloop
  endfacet
  facet normal 0 0 -1
    outer loop
      vertex 60.9418830871582 59.47863006591797 0
      vertex 59.24107360839844 60.985416412353516 0
      vertex 60.770912170410156 59.929447174072266 0
    endloop
  endfacet
  facet normal 0 0 -1
    outer loop
      vertex 61 59 0
      vertex 59.24107360839844 60.985416412353516 0
      vertex 60.9418830871582 59.47863006591797 0
    endloop
  endfacet
  facet normal 0 0 -1
    outer loop
      vertex 61 59 0
      vertex 49.822906494140625 -50.88356018066406 0
      vertex 59.24107360839844 60.985416412353516 0
    endloop
  endfacet
  facet normal 0 0 -1
    outer loop
      vertex -46.258148193359375 -49.818450927734375 0
      vertex 49.822906494140625 -50.88356018066406 0
      vertex 49.40397644042969 -51.22280502319336 0
    endloop
  endfacet
  facet normal 0 0 -1
    outer loop
      vertex -45.901100158691406 -50.165069580078125 0
      vertex 49.40397644042969 -51.22280502319336 0
      vertex 49.022804260253906 -51.60397720336914 0
    endloop
  endfacet
  facet normal 0 0 -1
    outer loop
      vertex -35.080753326416016 -60.985416412353516 0
      vertex 49.022804260253906 -51.60397720336914 0
      vertex 48.683563232421875 -52.02290344238281 0
    endloop
  endfacet
  facet normal 0 0 -1
    outer loop
      vertex -35.080753326416016 -60.985416412353516 0
      vertex 48.683563232421875 -52.02290344238281 0
      vertex 48.38996887207031 -52.474998474121094 0
    endloop
  endfacet
  facet normal 0 0 -1
    outer loop
      vertex -35.080753326416016 -60.985416412353516 0
      vertex 48.38996887207031 -52.474998474121094 0
      vertex 48.145240783691406 -52.95530700683594 0
    endloop
  endfacet
  facet normal 0 0 -1
    outer loop
      vertex -35.080753326416016 -60.985416412353516 0
      vertex 48.145240783691406 -52.95530700683594 0
      vertex 47.952056884765625 -53.458560943603516 0
    endloop
  endfacet
  facet normal 0 0 -1
    outer loop
      vertex -35.080753326416016 -60.985416412353516 0
      vertex 47.952056884765625 -53.458560943603516 0
      vertex 47.812538146972656 -53.97925567626953 0
    endloop
  endfacet
  facet normal 0 0 -1
    outer loop
      vertex -35.080753326416016 -60.985416412353516 0
      vertex 47.812538146972656 -53.97925567626953 0
      vertex 47.72821044921875 -54.51167678833008 0
    endloop
  endfacet
  facet normal 0 0 -1
    outer loop
      vertex 46.26772689819336 -60.985416412353516 0
      vertex 47.72821044921875 -54.51167678833008 0
      vertex 47.70000076293945 -55.04999923706055 0
    endloop
  endfacet
  facet normal 0 0 -1
    outer loop
      vertex -35.080753326416016 -60.985416412353516 0
      vertex 47.72821044921875 -54.51167678833008 0
      vertex 46.26772689819336 -60.985416412353516 0
    endloop
  endfacet
  facet normal 0 0 -1
    outer loop
      vertex 49.022804260253906 -51.60397720336914 0
      vertex -35.080753326416016 -60.985416412353516 0
      vertex -45.901100158691406 -50.165069580078125 0
    endloop
  endfacet
  facet normal 0 0 -1
    outer loop
      vertex 49.40397644042969 -51.22280502319336 0
      vertex -45.901100158691406 -50.165069580078125 0
      vertex -46.258148193359375 -49.818450927734375 0
    endloop
  endfacet
  facet normal 0 0 -1
    outer loop
      vertex 49.822906494140625 -50.88356018066406 0
      vertex -46.258148193359375 -49.818450927734375 0
      vertex 59.24107360839844 60.985416412353516 0
    endloop
  endfacet
  facet normal 0 0 -1
    outer loop
      vertex -46.653682708740234 -49.51649475097656 0
      vertex 59.24107360839844 60.985416412353516 0
      vertex -46.258148193359375 -49.818450927734375 0
    endloop
  endfacet
  facet normal 0 0 -1
    outer loop
      vertex -61 59 0
      vertex -46.653682708740234 -49.51649475097656 0
      vertex -47.082157135009766 -49.26344299316406 0
    endloop
  endfacet
  facet normal 0 0 -1
    outer loop
      vertex -61 59 0
      vertex -47.082157135009766 -49.26344299316406 0
      vertex -47.53755187988281 -49.062835693359375 0
    endloop
  endfacet
  facet normal 0 0 -1
    outer loop
      vertex -61 59 0
      vertex -47.53755187988281 -49.062835693359375 0
      vertex -48.01347732543945 -48.917503356933594 0
    endloop
  endfacet
  facet normal 0 0 -1
    outer loop
      vertex -61 59 0
      vertex -48.01347732543945 -48.917503356933594 0
      vertex -48.50325012207031 -48.8294792175293 0
    endloop
  endfacet
  facet normal 0 0 -1
    outer loop
      vertex -61 59 0
      vertex -48.50325012207031 -48.8294792175293 0
      vertex -49 -48.79999923706055 0
    endloop
  endfacet
  facet normal 0 0 -1
    outer loop
      vertex -61 59 0
      vertex -49 -48.79999923706055 0
      vertex -49.49674606323242 -48.8294792175293 0
    endloop
  endfacet
  facet normal 0 0 -1
    outer loop
      vertex -61 59 0
      vertex -49.49674606323242 -48.8294792175293 0
      vertex -49.98651885986328 -48.917503356933594 0
    endloop
  endfacet
  facet normal 0 0 -1
    outer loop
      vertex -61 59 0
      vertex -49.98651885986328 -48.917503356933594 0
      vertex -50.46244812011719 -49.062835693359375 0
    endloop
  endfacet
  facet normal 0 0 -1
    outer loop
      vertex -61 59 0
      vertex -50.46244812011719 -49.062835693359375 0
      vertex -50.917842864990234 -49.26344299316406 0
    endloop
  endfacet
  facet normal 0 0 -1
    outer loop
      vertex -61 59 0
      vertex -50.917842864990234 -49.26344299316406 0
      vertex -51.346317291259766 -49.51649475097656 0
    endloop
  endfacet
  facet normal 0 0 -1
    outer loop
      vertex -61 59 0
      vertex -51.346317291259766 -49.51649475097656 0
      vertex -51.741851806640625 -49.818450927734375 0
    endloop
  endfacet
  facet normal 0 0 -1
    outer loop
      vertex -61 59 0
      vertex -51.741851806640625 -49.818450927734375 0
      vertex -52.098899841308594 -50.165069580078125 0
    endloop
  endfacet
  facet normal 0 0 -1
    outer loop
      vertex -53.18341064453125 -53.37294387817383 0
      vertex -61 -59 0
      vertex -53.19815444946289 -52.87554168701172 0
    endloop
  endfacet
  facet normal 0 0 -1
    outer loop
      vertex -53.19815444946289 -52.87554168701172 0
      vertex -61 -59 0
      vertex -53.153968811035156 -52.3798828125 0
    endloop
  endfacet
  facet normal 0 0 -1
    outer loop
      vertex -53.153968811035156 -52.3798828125 0
      vertex -61 -59 0
      vertex -53.05146789550781 -51.89293670654297 0
    endloop
  endfacet
  facet normal 0 0 -1
    outer loop
      vertex -53.05146789550781 -51.89293670654297 0
      vertex -61 -59 0
      vertex -52.89209747314453 -51.42152404785156 0
    endloop
  endfacet
  facet normal 0 0 -1
    outer loop
      vertex -52.89209747314453 -51.42152404785156 0
      vertex -61 -59 0
      vertex -52.67808532714844 -50.97227478027344 0
    endloop
  endfacet
  facet normal 0 0 -1
    outer loop
      vertex -46.653682708740234 -49.51649475097656 0
      vertex -59.24107360839844 60.985416412353516 0
      vertex 59.24107360839844 60.985416412353516 0
    endloop
  endfacet
  facet normal 0 0 -1
    outer loop
      vertex -61 -59 0
      vertex -52.098899841308594 -50.165069580078125 0
      vertex -52.412445068359375 -50.55148696899414 0
    endloop
  endfacet
  facet normal 0 0 -1
    outer loop
      vertex -52.67808532714844 -50.97227478027344 0
      vertex -61 -59 0
      vertex -52.412445068359375 -50.55148696899414 0
    endloop
  endfacet
  facet normal 0 0 -1
    outer loop
      vertex -61 -59 0
      vertex -59.24107360839844 -60.985416412353516 0
      vertex -59.70920944213867 -60.870033264160156 0
    endloop
  endfacet
  facet normal 0 0 -1
    outer loop
      vertex -52.098899841308594 -50.165069580078125 0
      vertex -61 -59 0
      vertex -61 59 0
    endloop
  endfacet
  facet normal 0 0 -1
    outer loop
      vertex -61 -59 0
      vertex -59.70920944213867 -60.870033264160156 0
      vertex -60.136131286621094 -60.645965576171875 0
    endloop
  endfacet
  facet normal 0 0 -1
    outer loop
      vertex -46.653682708740234 -49.51649475097656 0
      vertex -61 59 0
      vertex -59.24107360839844 60.985416412353516 0
    endloop
  endfacet
  facet normal 0 0 -1
    outer loop
      vertex -61 -59 0
      vertex -60.136131286621094 -60.645965576171875 0
      vertex -60.49702072143555 -60.32624435424805 0
    endloop
  endfacet
  facet normal 0 0 -1
    outer loop
      vertex -59.24107360839844 60.985416412353516 0
      vertex -61 59 0
      vertex -59.70920944213867 60.870033264160156 0
    endloop
  endfacet
  facet normal 0 0 -1
    outer loop
      vertex -61 -59 0
      vertex -60.49702072143555 -60.32624435424805 0
      vertex -60.770912170410156 -59.929447174072266 0
    endloop
  endfacet
  facet normal 0 0 -1
    outer loop
      vertex -59.70920944213867 60.870033264160156 0
      vertex -61 59 0
      vertex -60.136131286621094 60.645965576171875 0
    endloop
  endfacet
  facet normal 0 0 -1
    outer loop
      vertex -61 -59 0
      vertex -60.770912170410156 -59.929447174072266 0
      vertex -60.9418830871582 -59.47863006591797 0
    endloop
  endfacet
  facet normal 0 0 -1
    outer loop
      vertex -60.136131286621094 60.645965576171875 0
      vertex -61 59 0
      vertex -60.49702072143555 60.32624435424805 0
    endloop
  endfacet
  facet normal 0 0 -1
    outer loop
      vertex -60.49702072143555 60.32624435424805 0
      vertex -61 59 0
      vertex -60.770912170410156 59.929447174072266 0
    endloop
  endfacet
  facet normal 0 0 -1
    outer loop
      vertex -60.770912170410156 59.929447174072266 0
      vertex -61 59 0
      vertex -60.9418830871582 59.47863006591797 0
    endloop
  endfacet
  facet normal -0.9350172469839487 0.35460223891362763 0
    outer loop
      vertex -60.9418830871582 59.47863006591797 0
      vertex -60.770912170410156 59.929447174072266 4
      vertex -60.770912170410156 59.929447174072266 0
    endloop
  endfacet
  facet normal -0.9350172469839487 0.35460223891362763 0
    outer loop
      vertex -60.770912170410156 59.929447174072266 4
      vertex -60.9418830871582 59.47863006591797 0
      vertex -60.9418830871582 59.47863006591797 4
    endloop
  endfacet
  facet normal 0.4647261300517372 0.8854544731645642 0
    outer loop
      vertex 60.136131286621094 60.645965576171875 0
      vertex 59.70920944213867 60.870033264160156 4
      vertex 60.136131286621094 60.645965576171875 4
    endloop
  endfacet
  facet normal 0.4647261300517372 0.8854544731645642 0
    outer loop
      vertex 59.70920944213867 60.870033264160156 4
      vertex 60.136131286621094 60.645965576171875 0
      vertex 59.70920944213867 60.870033264160156 0
    endloop
  endfacet
  facet normal 0.9927087001223174 0.12053811306578072 0
    outer loop
      vertex 61 59 4
      vertex 60.9418830871582 59.47863006591797 0
      vertex 60.9418830871582 59.47863006591797 4
    endloop
  endfacet
  facet normal 0.9927087001223174 0.12053811306578072 0
    outer loop
      vertex 60.9418830871582 59.47863006591797 0
      vertex 61 59 4
      vertex 61 59 0
    endloop
  endfacet
  facet normal 0 0 1
    outer loop
      vertex 59.24107360839844 60.985416412353516 4
      vertex 61 59 4
      vertex 60.9418830871582 59.47863006591797 4
    endloop
  endfacet
  facet normal 0 0 1
    outer loop
      vertex 61 59 4
      vertex 57.88545608520508 -49.135276794433594 4
      vertex 61 -59 4
    endloop
  endfacet
  facet normal 0 0 1
    outer loop
      vertex 59.24107360839844 60.985416412353516 4
      vertex 60.9418830871582 59.47863006591797 4
      vertex 60.770912170410156 59.929447174072266 4
    endloop
  endfacet
  facet normal 0 0 1
    outer loop
      vertex 58 -49.599998474121094 4
      vertex 61 -59 4
      vertex 57.88545608520508 -49.135276794433594 4
    endloop
  endfacet
  facet normal 0 0 1
    outer loop
      vertex 59.24107360839844 60.985416412353516 4
      vertex 60.770912170410156 59.929447174072266 4
      vertex 60.49702072143555 60.32624435424805 4
    endloop
  endfacet
  facet normal 0 0 1
    outer loop
      vertex 58 -55.05000305175781 4
      vertex 61 -59 4
      vertex 58 -55.04999923706055 4
    endloop
  endfacet
  facet normal 0 0 1
    outer loop
      vertex 59.24107360839844 60.985416412353516 4
      vertex 60.49702072143555 60.32624435424805 4
      vertex 60.136131286621094 60.645965576171875 4
    endloop
  endfacet
  facet normal 0 0 1
    outer loop
      vertex 57.97178649902344 -55.588321685791016 4
      vertex 61 -59 4
      vertex 58 -55.05000305175781 4
    endloop
  endfacet
  facet normal 0 0 1
    outer loop
      vertex 59.24107360839844 60.985416412353516 4
      vertex 60.136131286621094 60.645965576171875 4
      vertex 59.70920944213867 60.870033264160156 4
    endloop
  endfacet
  facet normal 0 0 1
    outer loop
      vertex 57.88745880126953 -56.12074279785156 4
      vertex 61 -59 4
      vertex 57.97178649902344 -55.588321685791016 4
    endloop
  endfacet
  facet normal 0 0 1
    outer loop
      vertex 49.822906494140625 -50.88356018066406 4
      vertex 61 59 4
      vertex 59.24107360839844 60.985416412353516 4
    endloop
  endfacet
  facet normal 0 0 1
    outer loop
      vertex 57.74794006347656 -56.64143753051758 4
      vertex 61 -59 4
      vertex 57.88745880126953 -56.12074279785156 4
    endloop
  endfacet
  facet normal 0 0 1
    outer loop
      vertex 57.55475997924805 -57.144691467285156 4
      vertex 61 -59 4
      vertex 57.74794006347656 -56.64143753051758 4
    endloop
  endfacet
  facet normal 0 0 1
    outer loop
      vertex 58 -55.04999923706055 4
      vertex 61 -59 4
      vertex 58 -49.599998474121094 4
    endloop
  endfacet
  facet normal 0 0 1
    outer loop
      vertex 61 59 4
      vertex 57.56806564331055 -48.777015686035156 4
      vertex 57.88545608520508 -49.135276794433594 4
    endloop
  endfacet
  facet normal 0 0 1
    outer loop
      vertex 61 59 4
      vertex 57.12053680419922 -48.60729217529297 4
      vertex 57.56806564331055 -48.777015686035156 4
    endloop
  endfacet
  facet normal 0 0 1
    outer loop
      vertex 61 59 4
      vertex 56.64539337158203 -48.66498565673828 4
      vertex 57.12053680419922 -48.60729217529297 4
    endloop
  endfacet
  facet normal 0 0 1
    outer loop
      vertex 61 59 4
      vertex 51.77925491333008 -50.01253890991211 4
      vertex 56.64539337158203 -48.66498565673828 4
    endloop
  endfacet
  facet normal 0 0 1
    outer loop
      vertex 52.311676025390625 -49.9282112121582 4
      vertex 56.64539337158203 -48.66498565673828 4
      vertex 51.77925491333008 -50.01253890991211 4
    endloop
  endfacet
  facet normal 0 0 1
    outer loop
      vertex 56.029056549072266 -49.36068344116211 4
      vertex 55.87709426879883 -50.88356018066406 4
      vertex 56.029056549072266 -51.00661849975586 4
    endloop
  endfacet
  facet normal 0 0 1
    outer loop
      vertex 56.64539337158203 -48.66498565673828 4
      vertex 52.849998474121094 -49.900001525878906 4
      vertex 56.251487731933594 -48.9368782043457 4
    endloop
  endfacet
  facet normal 0 0 1
    outer loop
      vertex 56.029056549072266 -49.36068344116211 4
      vertex 55.42499923706055 -50.589969635009766 4
      vertex 55.87709426879883 -50.88356018066406 4
    endloop
  endfacet
  facet normal 0 0 1
    outer loop
      vertex 56.029056549072266 -49.36068344116211 4
      vertex 54.94469451904297 -50.34524154663086 4
      vertex 55.42499923706055 -50.589969635009766 4
    endloop
  endfacet
  facet normal 0 0 1
    outer loop
      vertex 56.029056549072266 -49.36068344116211 4
      vertex 54.441436767578125 -50.15205764770508 4
      vertex 54.94469451904297 -50.34524154663086 4
    endloop
  endfacet
  facet normal 0 0 1
    outer loop
      vertex 56.029056549072266 -49.36068344116211 4
      vertex 53.920745849609375 -50.01253890991211 4
      vertex 54.441436767578125 -50.15205764770508 4
    endloop
  endfacet
  facet normal 0 0 1
    outer loop
      vertex 56.251487731933594 -48.9368782043457 4
      vertex 53.920745849609375 -50.01253890991211 4
      vertex 56.029056549072266 -49.36068344116211 4
    endloop
  endfacet
  facet normal 0 0 1
    outer loop
      vertex 53.920745849609375 -50.01253890991211 4
      vertex 56.251487731933594 -48.9368782043457 4
      vertex 53.38832092285156 -49.9282112121582 4
    endloop
  endfacet
  facet normal 0 0 1
    outer loop
      vertex 53.38832092285156 -49.9282112121582 4
      vertex 56.251487731933594 -48.9368782043457 4
      vertex 52.849998474121094 -49.900001525878906 4
    endloop
  endfacet
  facet normal 0 0 1
    outer loop
      vertex 52.849998474121094 -49.900001525878906 4
      vertex 56.64539337158203 -48.66498565673828 4
      vertex 52.311676025390625 -49.9282112121582 4
    endloop
  endfacet
  facet normal 0 0 1
    outer loop
      vertex 61 59 4
      vertex 51.25856018066406 -50.15205764770508 4
      vertex 51.77925491333008 -50.01253890991211 4
    endloop
  endfacet
  facet normal 0 0 1
    outer loop
      vertex 61 59 4
      vertex 50.755306243896484 -50.34524154663086 4
      vertex 51.25856018066406 -50.15205764770508 4
    endloop
  endfacet
  facet normal 0 0 1
    outer loop
      vertex 61 59 4
      vertex 50.275001525878906 -50.589969635009766 4
      vertex 50.755306243896484 -50.34524154663086 4
    endloop
  endfacet
  facet normal 0 0 1
    outer loop
      vertex 61 59 4
      vertex 49.822906494140625 -50.88356018066406 4
      vertex 50.275001525878906 -50.589969635009766 4
    endloop
  endfacet
  facet normal 0 0 1
    outer loop
      vertex -46.258148193359375 -49.818450927734375 4
      vertex 49.822906494140625 -50.88356018066406 4
      vertex 59.24107360839844 60.985416412353516 4
    endloop
  endfacet
  facet normal 0 0 1
    outer loop
      vertex 49.822906494140625 -50.88356018066406 4
      vertex -46.258148193359375 -49.818450927734375 4
      vertex 49.40397644042969 -51.22280502319336 4
    endloop
  endfacet
  facet normal 0 0 1
    outer loop
      vertex -45.901100158691406 -50.165069580078125 4
      vertex 49.40397644042969 -51.22280502319336 4
      vertex -46.258148193359375 -49.818450927734375 4
    endloop
  endfacet
  facet normal 0 0 1
    outer loop
      vertex 49.40397644042969 -51.22280502319336 4
      vertex -45.901100158691406 -50.165069580078125 4
      vertex 49.022804260253906 -51.60397720336914 4
    endloop
  endfacet
  facet normal 0 0 1
    outer loop
      vertex -35.080753326416016 -60.985416412353516 4
      vertex 49.022804260253906 -51.60397720336914 4
      vertex -45.901100158691406 -50.165069580078125 4
    endloop
  endfacet
  facet normal 0 0 1
    outer loop
      vertex 49.022804260253906 -51.60397720336914 4
      vertex -35.080753326416016 -60.985416412353516 4
      vertex 48.683563232421875 -52.02290344238281 4
    endloop
  endfacet
  facet normal 0 0 1
    outer loop
      vertex 48.683563232421875 -52.02290344238281 4
      vertex -35.080753326416016 -60.985416412353516 4
      vertex 48.38996887207031 -52.474998474121094 4
    endloop
  endfacet
  facet normal 0 0 1
    outer loop
      vertex 48.38996887207031 -52.474998474121094 4
      vertex -35.080753326416016 -60.985416412353516 4
      vertex 48.145240783691406 -52.95530700683594 4
    endloop
  endfacet
  facet normal 0 0 1
    outer loop
      vertex 47.70000076293945 -55.04999923706055 4
      vertex 46.26772689819336 -60.985416412353516 4
      vertex 47.70000076293945 -59.55314636230469 4
    endloop
  endfacet
  facet normal 0 0 1
    outer loop
      vertex 47.72821044921875 -54.51167678833008 4
      vertex 46.26772689819336 -60.985416412353516 4
      vertex 47.70000076293945 -55.04999923706055 4
    endloop
  endfacet
  facet normal 0 0 1
    outer loop
      vertex 48.145240783691406 -52.95530700683594 4
      vertex -35.080753326416016 -60.985416412353516 4
      vertex 47.952056884765625 -53.458560943603516 4
    endloop
  endfacet
  facet normal 0 0 1
    outer loop
      vertex 47.812538146972656 -53.97925567626953 4
      vertex -35.080753326416016 -60.985416412353516 4
      vertex 47.72821044921875 -54.51167678833008 4
    endloop
  endfacet
  facet normal 0 0 1
    outer loop
      vertex 47.72821044921875 -54.51167678833008 4
      vertex -35.080753326416016 -60.985416412353516 4
      vertex 46.26772689819336 -60.985416412353516 4
    endloop
  endfacet
  facet normal 0 0 1
    outer loop
      vertex 47.952056884765625 -53.458560943603516 4
      vertex -35.080753326416016 -60.985416412353516 4
      vertex 47.812538146972656 -53.97925567626953 4
    endloop
  endfacet
  facet normal 0 0 1
    outer loop
      vertex 59.24107360839844 60.985416412353516 4
      vertex -46.653682708740234 -49.51649475097656 4
      vertex -46.258148193359375 -49.818450927734375 4
    endloop
  endfacet
  facet normal 0 0 1
    outer loop
      vertex -59.24107360839844 60.985416412353516 4
      vertex -46.653682708740234 -49.51649475097656 4
      vertex 59.24107360839844 60.985416412353516 4
    endloop
  endfacet
  facet normal 0 0 1
    outer loop
      vertex -61 59 4
      vertex -46.653682708740234 -49.51649475097656 4
      vertex -59.24107360839844 60.985416412353516 4
    endloop
  endfacet
  facet normal 0 0 1
    outer loop
      vertex -46.653682708740234 -49.51649475097656 4
      vertex -61 59 4
      vertex -47.082157135009766 -49.26344299316406 4
    endloop
  endfacet
  facet normal 0 0 1
    outer loop
      vertex -47.082157135009766 -49.26344299316406 4
      vertex -61 59 4
      vertex -47.53755187988281 -49.062835693359375 4
    endloop
  endfacet
  facet normal 0 0 1
    outer loop
      vertex -47.53755187988281 -49.062835693359375 4
      vertex -61 59 4
      vertex -48.01347732543945 -48.917503356933594 4
    endloop
  endfacet
  facet normal 0 0 1
    outer loop
      vertex -48.01347732543945 -48.917503356933594 4
      vertex -61 59 4
      vertex -48.50325012207031 -48.8294792175293 4
    endloop
  endfacet
  facet normal 0 0 1
    outer loop
      vertex -48.50325012207031 -48.8294792175293 4
      vertex -61 59 4
      vertex -49 -48.79999923706055 4
    endloop
  endfacet
  facet normal 0 0 1
    outer loop
      vertex -49 -48.79999923706055 4
      vertex -61 59 4
      vertex -49.49674606323242 -48.8294792175293 4
    endloop
  endfacet
  facet normal 0 0 1
    outer loop
      vertex -49.49674606323242 -48.8294792175293 4
      vertex -61 59 4
      vertex -49.98651885986328 -48.917503356933594 4
    endloop
  endfacet
  facet normal 0 0 1
    outer loop
      vertex -49.98651885986328 -48.917503356933594 4
      vertex -61 59 4
      vertex -50.46244812011719 -49.062835693359375 4
    endloop
  endfacet
  facet normal 0 0 1
    outer loop
      vertex -50.46244812011719 -49.062835693359375 4
      vertex -61 59 4
      vertex -50.917842864990234 -49.26344299316406 4
    endloop
  endfacet
  facet normal 0 0 1
    outer loop
      vertex -50.917842864990234 -49.26344299316406 4
      vertex -61 59 4
      vertex -51.346317291259766 -49.51649475097656 4
    endloop
  endfacet
  facet normal 0 0 1
    outer loop
      vertex -52.89209747314453 -51.42152404785156 4
      vertex -61 -59 4
      vertex -53.05146789550781 -51.89293670654297 4
    endloop
  endfacet
  facet normal 0 0 1
    outer loop
      vertex -52.67808532714844 -50.97227478027344 4
      vertex -61 -59 4
      vertex -52.89209747314453 -51.42152404785156 4
    endloop
  endfacet
  facet normal 0 0 1
    outer loop
      vertex -52.412445068359375 -50.55148696899414 4
      vertex -61 -59 4
      vertex -52.67808532714844 -50.97227478027344 4
    endloop
  endfacet
  facet normal 0 0 1
    outer loop
      vertex -52.098899841308594 -50.165069580078125 4
      vertex -61 -59 4
      vertex -52.412445068359375 -50.55148696899414 4
    endloop
  endfacet
  facet normal 0 0 1
    outer loop
      vertex -61 -59 4
      vertex -52.098899841308594 -50.165069580078125 4
      vertex -61 59 4
    endloop
  endfacet
  facet normal 0 0 1
    outer loop
      vertex -51.741851806640625 -49.818450927734375 4
      vertex -61 59 4
      vertex -52.098899841308594 -50.165069580078125 4
    endloop
  endfacet
  facet normal 0 0 1
    outer loop
      vertex -51.346317291259766 -49.51649475097656 4
      vertex -61 59 4
      vertex -51.741851806640625 -49.818450927734375 4
    endloop
  endfacet
  facet normal 0 0 1
    outer loop
      vertex 57.310028076171875 -57.625 4
      vertex 61 -59 4
      vertex 57.55475997924805 -57.144691467285156 4
    endloop
  endfacet
  facet normal 0 0 1
    outer loop
      vertex 59.24107360839844 -60.985416412353516 4
      vertex 61 -59 4
      vertex 57.310028076171875 -57.625 4
    endloop
  endfacet
  facet normal 0 0 1
    outer loop
      vertex 61 -59 4
      vertex 59.24107360839844 -60.985416412353516 4
      vertex 60.9418830871582 -59.47863006591797 4
    endloop
  endfacet
  facet normal 0 0 1
    outer loop
      vertex 60.9418830871582 -59.47863006591797 4
      vertex 59.24107360839844 -60.985416412353516 4
      vertex 60.770912170410156 -59.929447174072266 4
    endloop
  endfacet
  facet normal 0 0 1
    outer loop
      vertex 60.770912170410156 -59.929447174072266 4
      vertex 59.24107360839844 -60.985416412353516 4
      vertex 60.49702072143555 -60.32624435424805 4
    endloop
  endfacet
  facet normal 0 0 1
    outer loop
      vertex 60.49702072143555 -60.32624435424805 4
      vertex 59.24107360839844 -60.985416412353516 4
      vertex 60.136131286621094 -60.645965576171875 4
    endloop
  endfacet
  facet normal 0 0 1
    outer loop
      vertex 60.136131286621094 -60.645965576171875 4
      vertex 59.24107360839844 -60.985416412353516 4
      vertex 59.70920944213867 -60.870033264160156 4
    endloop
  endfacet
  facet normal 0 0 1
    outer loop
      vertex 57.01643753051758 -58.07709503173828 4
      vertex 59.24107360839844 -60.985416412353516 4
      vertex 57.310028076171875 -57.625 4
    endloop
  endfacet
  facet normal 0 0 1
    outer loop
      vertex 59.24107360839844 -60.985416412353516 4
      vertex 57.01643753051758 -58.07709503173828 4
      vertex 57.53227233886719 -60.985416412353516 4
    endloop
  endfacet
  facet normal 0 0 1
    outer loop
      vertex 56.67719650268555 -58.49602127075195 4
      vertex 57.53227233886719 -60.985416412353516 4
      vertex 57.01643753051758 -58.07709503173828 4
    endloop
  endfacet
  facet normal 0 0 1
    outer loop
      vertex 56.099998474121094 -59.55314636230469 4
      vertex 56.67719650268555 -58.49602127075195 4
      vertex 56.2960205078125 -58.877197265625 4
    endloop
  endfacet
  facet normal 0 0 1
    outer loop
      vertex 56.099998474121094 -59.55314636230469 4
      vertex 56.2960205078125 -58.877197265625 4
      vertex 56.099998474121094 -59.03593063354492 4
    endloop
  endfacet
  facet normal 0 0 1
    outer loop
      vertex 56.67719650268555 -58.49602127075195 4
      vertex 56.099998474121094 -59.55314636230469 4
      vertex 57.53227233886719 -60.985416412353516 4
    endloop
  endfacet
  facet normal 0 0 1
    outer loop
      vertex -53.05146789550781 -51.89293670654297 4
      vertex -61 -59 4
      vertex -53.153968811035156 -52.3798828125 4
    endloop
  endfacet
  facet normal 0 0 1
    outer loop
      vertex -51.925514221191406 -56.01353073120117 4
      vertex -59.24107360839844 -60.985416412353516 4
      vertex -46.95362854003906 -60.985416412353516 4
    endloop
  endfacet
  facet normal 0 0 1
    outer loop
      vertex -52.26139831542969 -55.64636993408203 4
      vertex -59.24107360839844 -60.985416412353516 4
      vertex -51.925514221191406 -56.01353073120117 4
    endloop
  endfacet
  facet normal 0 0 1
    outer loop
      vertex -52.5515022277832 -55.24205780029297 4
      vertex -59.24107360839844 -60.985416412353516 4
      vertex -52.26139831542969 -55.64636993408203 4
    endloop
  endfacet
  facet normal 0 0 1
    outer loop
      vertex -52.791748046875 -54.8062744140625 4
      vertex -59.24107360839844 -60.985416412353516 4
      vertex -52.5515022277832 -55.24205780029297 4
    endloop
  endfacet
  facet normal 0 0 1
    outer loop
      vertex -61 -59 4
      vertex -52.791748046875 -54.8062744140625 4
      vertex -52.9787712097168 -54.34513473510742 4
    endloop
  endfacet
  facet normal 0 0 1
    outer loop
      vertex -61 -59 4
      vertex -52.9787712097168 -54.34513473510742 4
      vertex -53.10993576049805 -53.8651123046875 4
    endloop
  endfacet
  facet normal 0 0 1
    outer loop
      vertex -61 -59 4
      vertex -53.10993576049805 -53.8651123046875 4
      vertex -53.18341064453125 -53.37294387817383 4
    endloop
  endfacet
  facet normal 0 0 1
    outer loop
      vertex -53.153968811035156 -52.3798828125 4
      vertex -61 -59 4
      vertex -53.19815444946289 -52.87554168701172 4
    endloop
  endfacet
  facet normal 0 0 1
    outer loop
      vertex -61 59 4
      vertex -59.24107360839844 60.985416412353516 4
      vertex -59.70920944213867 60.870033264160156 4
    endloop
  endfacet
  facet normal 0 0 1
    outer loop
      vertex -53.19815444946289 -52.87554168701172 4
      vertex -61 -59 4
      vertex -53.18341064453125 -53.37294387817383 4
    endloop
  endfacet
  facet normal 0 0 1
    outer loop
      vertex -61 59 4
      vertex -59.70920944213867 60.870033264160156 4
      vertex -60.136131286621094 60.645965576171875 4
    endloop
  endfacet
  facet normal 0 0 1
    outer loop
      vertex -52.791748046875 -54.8062744140625 4
      vertex -61 -59 4
      vertex -59.24107360839844 -60.985416412353516 4
    endloop
  endfacet
  facet normal 0 0 1
    outer loop
      vertex -61 59 4
      vertex -60.136131286621094 60.645965576171875 4
      vertex -60.49702072143555 60.32624435424805 4
    endloop
  endfacet
  facet normal 0 0 1
    outer loop
      vertex -59.24107360839844 -60.985416412353516 4
      vertex -61 -59 4
      vertex -59.70920944213867 -60.870033264160156 4
    endloop
  endfacet
  facet normal 0 0 1
    outer loop
      vertex -61 59 4
      vertex -60.49702072143555 60.32624435424805 4
      vertex -60.770912170410156 59.929447174072266 4
    endloop
  endfacet
  facet normal 0 0 1
    outer loop
      vertex -59.70920944213867 -60.870033264160156 4
      vertex -61 -59 4
      vertex -60.136131286621094 -60.645965576171875 4
    endloop
  endfacet
  facet normal 0 0 1
    outer loop
      vertex -61 59 4
      vertex -60.770912170410156 59.929447174072266 4
      vertex -60.9418830871582 59.47863006591797 4
    endloop
  endfacet
  facet normal 0 0 1
    outer loop
      vertex -60.136131286621094 -60.645965576171875 4
      vertex -61 -59 4
      vertex -60.49702072143555 -60.32624435424805 4
    endloop
  endfacet
  facet normal 0 0 1
    outer loop
      vertex -60.49702072143555 -60.32624435424805 4
      vertex -61 -59 4
      vertex -60.770912170410156 -59.929447174072266 4
    endloop
  endfacet
  facet normal 0 0 1
    outer loop
      vertex -60.770912170410156 -59.929447174072266 4
      vertex -61 -59 4
      vertex -60.9418830871582 -59.47863006591797 4
    endloop
  endfacet
  facet normal 0.2393118090366464 0.9709427676519393 0
    outer loop
      vertex 59.70920944213867 60.870033264160156 0
      vertex 59.24107360839844 60.985416412353516 4
      vertex 59.70920944213867 60.870033264160156 4
    endloop
  endfacet
  facet normal 0.2393118090366464 0.9709427676519393 0
    outer loop
      vertex 59.24107360839844 60.985416412353516 4
      vertex 59.70920944213867 60.870033264160156 0
      vertex 59.24107360839844 60.985416412353516 0
    endloop
  endfacet
  facet normal -0.8229817994973584 0.5680677404113791 0
    outer loop
      vertex -60.770912170410156 59.929447174072266 0
      vertex -60.49702072143555 60.32624435424805 4
      vertex -60.49702072143555 60.32624435424805 0
    endloop
  endfacet
  facet normal -0.8229817994973584 0.5680677404113791 0
    outer loop
      vertex -60.49702072143555 60.32624435424805 4
      vertex -60.770912170410156 59.929447174072266 0
      vertex -60.770912170410156 59.929447174072266 4
    endloop
  endfacet
endsolid OpenSCAD_Model
