solid OpenSCAD_Model
  facet normal 0.3348800812106018 0.9422607554219696 0
    outer loop
      vertex 18.837116241455078 4.366728782653809 0
      vertex 18.37949562072754 4.529367446899414 120
      vertex 18.837116241455078 4.366728782653809 120
    endloop
  endfacet
  facet normal 0.3348800812106018 0.9422607554219696 0
    outer loop
      vertex 18.37949562072754 4.529367446899414 120
      vertex 18.837116241455078 4.366728782653809 0
      vertex 18.37949562072754 4.529367446899414 0
    endloop
  endfacet
  facet normal 0.06824111072848588 0.9976688582924409 0
    outer loop
      vertex 18.37949562072754 4.529367446899414 0
      vertex 17.89496612548828 4.562509536743164 120
      vertex 18.37949562072754 4.529367446899414 120
    endloop
  endfacet
  facet normal 0.06824111072848588 0.9976688582924409 0
    outer loop
      vertex 17.89496612548828 4.562509536743164 120
      vertex 18.37949562072754 4.529367446899414 0
      vertex 17.89496612548828 4.562509536743164 0
    endloop
  endfacet
  facet normal -0.2034555020590651 0.9790841938678685 0
    outer loop
      vertex 17.89496612548828 4.562509536743164 0
      vertex 17.419464111328125 4.4636993408203125 120
      vertex 17.89496612548828 4.562509536743164 120
    endloop
  endfacet
  facet normal -0.2034555020590651 0.9790841938678685 0
    outer loop
      vertex 17.419464111328125 4.4636993408203125 120
      vertex 17.89496612548828 4.562509536743164 0
      vertex 17.419464111328125 4.4636993408203125 0
    endloop
  endfacet
  facet normal -0.6825522460063969 0.7308368022148467 0
    outer loop
      vertex 16.988252639770508 4.240262985229492 0
      vertex 16.63331413269043 3.9087743759155273 120
      vertex 16.988252639770508 4.240262985229492 120
    endloop
  endfacet
  facet normal -0.6825522460063969 0.7308368022148467 0
    outer loop
      vertex 16.63331413269043 3.9087743759155273 120
      vertex 16.988252639770508 4.240262985229492 0
      vertex 16.63331413269043 3.9087743759155273 0
    endloop
  endfacet
  facet normal 0.5766804221653343 0.8169698223871013 0
    outer loop
      vertex 19.23388671875 4.086657524108887 0
      vertex 18.837116241455078 4.366728782653809 120
      vertex 19.23388671875 4.086657524108887 120
    endloop
  endfacet
  facet normal 0.5766804221653343 0.8169698223871013 0
    outer loop
      vertex 18.837116241455078 4.366728782653809 120
      vertex 19.23388671875 4.086657524108887 0
      vertex 18.837116241455078 4.366728782653809 0
    endloop
  endfacet
  facet normal 0 0 -1
    outer loop
      vertex 21 -2.30111026763916 0
      vertex 18.899999618530273 -0.19999980926513672 0
      vertex 21 -1.311110496520996 0
    endloop
  endfacet
  facet normal 0 0 -1
    outer loop
      vertex 16.233333587646484 -0.19999980926513672 0
      vertex 18.899999618530273 1.244327425956726 0
      vertex 18.899999618530273 -0.19999980926513672 0
    endloop
  endfacet
  facet normal 0 0 -1
    outer loop
      vertex 18.899999618530273 1.244327425956726 0
      vertex 16.249942779541016 2.7833337783813477 0
      vertex 18.837116241455078 4.366728782653809 0
    endloop
  endfacet
  facet normal 0 0 -1
    outer loop
      vertex 18.837116241455078 4.366728782653809 0
      vertex 16.249942779541016 2.7833337783813477 0
      vertex 18.37949562072754 4.529367446899414 0
    endloop
  endfacet
  facet normal 0 0 -1
    outer loop
      vertex 18.37949562072754 4.529367446899414 0
      vertex 16.249942779541016 2.7833337783813477 0
      vertex 17.89496612548828 4.562509536743164 0
    endloop
  endfacet
  facet normal 0 0 -1
    outer loop
      vertex 17.89496612548828 4.562509536743164 0
      vertex 16.249942779541016 2.7833337783813477 0
      vertex 17.419464111328125 4.4636993408203125 0
    endloop
  endfacet
  facet normal 0 0 -1
    outer loop
      vertex 17.419464111328125 4.4636993408203125 0
      vertex 16.249942779541016 2.7833337783813477 0
      vertex 16.988252639770508 4.240262985229492 0
    endloop
  endfacet
  facet normal 0 0 -1
    outer loop
      vertex 16.988252639770508 4.240262985229492 0
      vertex 16.249942779541016 2.7833337783813477 0
      vertex 16.63331413269043 3.9087743759155273 0
    endloop
  endfacet
  facet normal 0 0 -1
    outer loop
      vertex 16.63331413269043 3.9087743759155273 0
      vertex 16.249942779541016 2.7833337783813477 0
      vertex 16.38097381591797 3.4938154220581055 0
    endloop
  endfacet
  facet normal 0 0 -1
    outer loop
      vertex 18.899999618530273 1.244327425956726 0
      vertex 16.233333587646484 -0.19999980926513672 0
      vertex 16.249942779541016 2.7833337783813477 0
    endloop
  endfacet
  facet normal 0 0 -1
    outer loop
      vertex 21 -2.30111026763916 0
      vertex 16.233333587646484 -0.19999980926513672 0
      vertex 18.899999618530273 -0.19999980926513672 0
    endloop
  endfacet
  facet normal 0 0 -1
    outer loop
      vertex 21 -2.30111026763916 0
      vertex -12.249726295471191 -0.19999980926513672 0
      vertex 16.233333587646484 -0.19999980926513672 0
    endloop
  endfacet
  facet normal 0 0 -1
    outer loop
      vertex -21 -2.30111026763916 0
      vertex -12.249726295471191 -0.19999980926513672 0
      vertex 21 -2.30111026763916 0
    endloop
  endfacet
  facet normal 0 0 -1
    outer loop
      vertex -12.249726295471191 -0.19999980926513672 0
      vertex -21 -2.30111026763916 0
      vertex -15.777873992919922 -0.4229942858219147 0
    endloop
  endfacet
  facet normal 0 0 -1
    outer loop
      vertex -15.777873992919922 -0.4229942858219147 0
      vertex -21 -2.30111026763916 0
      vertex -21 -1.311110496520996 0
    endloop
  endfacet
  facet normal 0 0 -1
    outer loop
      vertex 19.733867645263672 2.302196502685547 0
      vertex 19.733867645263672 3.2644710540771484 0
      vertex 19.799999237060547 2.7833337783813477 0
    endloop
  endfacet
  facet normal 0 0 -1
    outer loop
      vertex 19.540380477905273 1.8567428588867188 0
      vertex 19.733867645263672 3.2644710540771484 0
      vertex 19.733867645263672 2.302196502685547 0
    endloop
  endfacet
  facet normal 0 0 -1
    outer loop
      vertex 19.540380477905273 1.8567428588867188 0
      vertex 19.540380477905273 3.709925651550293 0
      vertex 19.733867645263672 3.2644710540771484 0
    endloop
  endfacet
  facet normal 0 0 -1
    outer loop
      vertex 18.899999618530273 1.244327425956726 0
      vertex 19.540380477905273 1.8567428588867188 0
      vertex 19.23388671875 1.4800100326538086 0
    endloop
  endfacet
  facet normal 0 0 -1
    outer loop
      vertex 19.540380477905273 1.8567428588867188 0
      vertex 18.899999618530273 1.244327425956726 0
      vertex 19.540380477905273 3.709925651550293 0
    endloop
  endfacet
  facet normal 0 0 -1
    outer loop
      vertex 19.540380477905273 3.709925651550293 0
      vertex 18.899999618530273 1.244327425956726 0
      vertex 19.23388671875 4.086657524108887 0
    endloop
  endfacet
  facet normal 0 0 -1
    outer loop
      vertex 19.23388671875 4.086657524108887 0
      vertex 18.899999618530273 1.244327425956726 0
      vertex 18.837116241455078 4.366728782653809 0
    endloop
  endfacet
  facet normal 0 0 -1
    outer loop
      vertex 16.38097381591797 3.4938154220581055 0
      vertex 16.249942779541016 2.7833337783813477 0
      vertex 16.249942779541016 3.0261640548706055 0
    endloop
  endfacet
  facet normal 0 0 -1
    outer loop
      vertex 16.249942779541016 2.7833337783813477 0
      vertex 16.233333587646484 -0.19999980926513672 0
      vertex 16.233333587646484 2.7833337783813477 0
    endloop
  endfacet
  facet normal 0 0 -1
    outer loop
      vertex -15.777873992919922 -0.4229942858219147 0
      vertex -16.10173797607422 3.6520118713378906 0
      vertex -12.249726295471191 -0.19999980926513672 0
    endloop
  endfacet
  facet normal 0 0 -1
    outer loop
      vertex -18.064022064208984 1.8631534576416016 0
      vertex -16.10173797607422 3.6520118713378906 0
      vertex -15.777873992919922 -0.4229942858219147 0
    endloop
  endfacet
  facet normal 0 0 -1
    outer loop
      vertex -16.10173797607422 3.6520118713378906 0
      vertex -18.064022064208984 1.8631534576416016 0
      vertex -16.51834487915039 3.9099626541137695 0
    endloop
  endfacet
  facet normal 0 0 -1
    outer loop
      vertex -16.51834487915039 3.9099626541137695 0
      vertex -18.064022064208984 1.8631534576416016 0
      vertex -17 4 0
    endloop
  endfacet
  facet normal 0 0 -1
    outer loop
      vertex -17 4 0
      vertex -18.064022064208984 1.8631534576416016 0
      vertex -17.48165512084961 3.9099626541137695 0
    endloop
  endfacet
  facet normal 0 0 -1
    outer loop
      vertex -17.48165512084961 3.9099626541137695 0
      vertex -18.064022064208984 1.8631534576416016 0
      vertex -17.89826011657715 3.6520118713378906 0
    endloop
  endfacet
  facet normal 0 0 -1
    outer loop
      vertex -18.064022064208984 1.8631534576416016 0
      vertex -18.19355010986328 3.260984420776367 0
      vertex -17.89826011657715 3.6520118713378906 0
    endloop
  endfacet
  facet normal 0 0 -1
    outer loop
      vertex -18.282432556152344 2.3017826080322266 0
      vertex -18.19355010986328 3.260984420776367 0
      vertex -18.064022064208984 1.8631534576416016 0
    endloop
  endfacet
  facet normal 0 0 -1
    outer loop
      vertex -18.19355010986328 3.260984420776367 0
      vertex -18.282432556152344 2.3017826080322266 0
      vertex -18.32764434814453 2.7896909713745117 0
    endloop
  endfacet
  facet normal 0.990685725101654 -0.13616825650572953 0
    outer loop
      vertex 19.733867645263672 2.302196502685547 120
      vertex 19.799999237060547 2.7833337783813477 0
      vertex 19.799999237060547 2.7833337783813477 120
    endloop
  endfacet
  facet normal 0.990685725101654 -0.13616825650572953 0
    outer loop
      vertex 19.799999237060547 2.7833337783813477 0
      vertex 19.733867645263672 2.302196502685547 120
      vertex 19.733867645263672 2.302196502685547 0
    endloop
  endfacet
  facet normal 0.7757116461127387 0.6310875074702915 0
    outer loop
      vertex 19.540380477905273 3.709925651550293 120
      vertex 19.23388671875 4.086657524108887 0
      vertex 19.23388671875 4.086657524108887 120
    endloop
  endfacet
  facet normal 0.7757116461127387 0.6310875074702915 0
    outer loop
      vertex 19.23388671875 4.086657524108887 0
      vertex 19.540380477905273 3.709925651550293 120
      vertex 19.540380477905273 3.709925651550293 0
    endloop
  endfacet
  facet normal 0.990685725101654 0.13616825650572953 0
    outer loop
      vertex 19.799999237060547 2.7833337783813477 120
      vertex 19.733867645263672 3.2644710540771484 0
      vertex 19.733867645263672 3.2644710540771484 120
    endloop
  endfacet
  facet normal 0.990685725101654 0.13616825650572953 0
    outer loop
      vertex 19.733867645263672 3.2644710540771484 0
      vertex 19.799999237060547 2.7833337783813477 120
      vertex 19.799999237060547 2.7833337783813477 0
    endloop
  endfacet
  facet normal 0.9172117941676349 -0.3983999556222217 0
    outer loop
      vertex 19.540380477905273 1.8567428588867188 120
      vertex 19.733867645263672 2.302196502685547 0
      vertex 19.733867645263672 2.302196502685547 120
    endloop
  endfacet
  facet normal 0.9172117941676349 -0.3983999556222217 0
    outer loop
      vertex 19.733867645263672 2.302196502685547 0
      vertex 19.540380477905273 1.8567428588867188 120
      vertex 19.540380477905273 1.8567428588867188 0
    endloop
  endfacet
  facet normal 0.9172121058445172 0.3983992380668747 0
    outer loop
      vertex 19.733867645263672 3.2644710540771484 120
      vertex 19.540380477905273 3.709925651550293 0
      vertex 19.540380477905273 3.709925651550293 120
    endloop
  endfacet
  facet normal 0.9172121058445172 0.3983992380668747 0
    outer loop
      vertex 19.540380477905273 3.709925651550293 0
      vertex 19.733867645263672 3.2644710540771484 120
      vertex 19.733867645263672 3.2644710540771484 0
    endloop
  endfacet
  facet normal -0.460065980076247 0.8878847301178697 0
    outer loop
      vertex 17.419464111328125 4.4636993408203125 0
      vertex 16.988252639770508 4.240262985229492 120
      vertex 17.419464111328125 4.4636993408203125 120
    endloop
  endfacet
  facet normal -0.460065980076247 0.8878847301178697 0
    outer loop
      vertex 16.988252639770508 4.240262985229492 120
      vertex 17.419464111328125 4.4636993408203125 0
      vertex 16.988252639770508 4.240262985229492 0
    endloop
  endfacet
  facet normal 0.5766792695868118 -0.816970635964856 0
    outer loop
      vertex 18.899999618530273 1.244327425956726 0
      vertex 19.23388671875 1.4800100326538086 120
      vertex 18.899999618530273 1.244327425956726 120
    endloop
  endfacet
  facet normal 0.5766792695868118 -0.816970635964856 0
    outer loop
      vertex 19.23388671875 1.4800100326538086 120
      vertex 18.899999618530273 1.244327425956726 0
      vertex 19.23388671875 1.4800100326538086 0
    endloop
  endfacet
  facet normal 0.7757124281837863 -0.6310865461735136 0
    outer loop
      vertex 19.23388671875 1.4800100326538086 120
      vertex 19.540380477905273 1.8567428588867188 0
      vertex 19.540380477905273 1.8567428588867188 120
    endloop
  endfacet
  facet normal 0.7757124281837863 -0.6310865461735136 0
    outer loop
      vertex 19.540380477905273 1.8567428588867188 0
      vertex 19.23388671875 1.4800100326538086 120
      vertex 19.23388671875 1.4800100326538086 0
    endloop
  endfacet
  facet normal -0.8544210618967746 0.5195812246292086 0
    outer loop
      vertex 16.38097381591797 3.4938154220581055 0
      vertex 16.63331413269043 3.9087743759155273 120
      vertex 16.63331413269043 3.9087743759155273 0
    endloop
  endfacet
  facet normal -0.8544210618967746 0.5195812246292086 0
    outer loop
      vertex 16.63331413269043 3.9087743759155273 120
      vertex 16.38097381591797 3.4938154220581055 0
      vertex 16.38097381591797 3.4938154220581055 120
    endloop
  endfacet
  facet normal -1 0 0
    outer loop
      vertex 16.249942779541016 2.7833337783813477 0
      vertex 16.249942779541016 3.0261640548706055 120
      vertex 16.249942779541016 3.0261640548706055 0
    endloop
  endfacet
  facet normal -1 0 0
    outer loop
      vertex 16.249942779541016 3.0261640548706055 120
      vertex 16.249942779541016 2.7833337783813477 0
      vertex 16.249942779541016 2.7833337783813477 120
    endloop
  endfacet
  facet normal -0.9629166089315075 0.26979919244476275 0
    outer loop
      vertex 16.249942779541016 3.0261640548706055 0
      vertex 16.38097381591797 3.4938154220581055 120
      vertex 16.38097381591797 3.4938154220581055 0
    endloop
  endfacet
  facet normal -0.9629166089315075 0.26979919244476275 0
    outer loop
      vertex 16.38097381591797 3.4938154220581055 120
      vertex 16.249942779541016 3.0261640548706055 0
      vertex 16.249942779541016 3.0261640548706055 120
    endloop
  endfacet
  facet normal 0 0 1
    outer loop
      vertex 19.733867645263672 3.2644710540771484 120
      vertex 19.733867645263672 2.302196502685547 120
      vertex 19.799999237060547 2.7833337783813477 120
    endloop
  endfacet
  facet normal 0 0 1
    outer loop
      vertex 19.540380477905273 3.709925651550293 120
      vertex 19.733867645263672 2.302196502685547 120
      vertex 19.733867645263672 3.2644710540771484 120
    endloop
  endfacet
  facet normal 0 0 1
    outer loop
      vertex 19.540380477905273 3.709925651550293 120
      vertex 19.540380477905273 1.8567428588867188 120
      vertex 19.733867645263672 2.302196502685547 120
    endloop
  endfacet
  facet normal 0 0 1
    outer loop
      vertex 19.23388671875 4.086657524108887 120
      vertex 19.540380477905273 1.8567428588867188 120
      vertex 19.540380477905273 3.709925651550293 120
    endloop
  endfacet
  facet normal 0 0 1
    outer loop
      vertex 18.899999618530273 1.244327425956726 120
      vertex 19.540380477905273 1.8567428588867188 120
      vertex 19.23388671875 4.086657524108887 120
    endloop
  endfacet
  facet normal 0 0 1
    outer loop
      vertex 19.540380477905273 1.8567428588867188 120
      vertex 18.899999618530273 1.244327425956726 120
      vertex 19.23388671875 1.4800100326538086 120
    endloop
  endfacet
  facet normal 0 0 1
    outer loop
      vertex 16.249942779541016 2.7833337783813477 120
      vertex 18.899999618530273 1.244327425956726 120
      vertex 18.837116241455078 4.366728782653809 120
    endloop
  endfacet
  facet normal 0 0 1
    outer loop
      vertex 18.837116241455078 4.366728782653809 120
      vertex 18.899999618530273 1.244327425956726 120
      vertex 19.23388671875 4.086657524108887 120
    endloop
  endfacet
  facet normal 0 0 1
    outer loop
      vertex 18.899999618530273 -0.19999980926513672 120
      vertex 21 -2.30111026763916 120
      vertex 21 -1.311110496520996 120
    endloop
  endfacet
  facet normal 0 0 1
    outer loop
      vertex 16.249942779541016 2.7833337783813477 120
      vertex 18.837116241455078 4.366728782653809 120
      vertex 18.37949562072754 4.529367446899414 120
    endloop
  endfacet
  facet normal 0 0 1
    outer loop
      vertex 16.249942779541016 2.7833337783813477 120
      vertex 18.37949562072754 4.529367446899414 120
      vertex 17.89496612548828 4.562509536743164 120
    endloop
  endfacet
  facet normal 0 0 1
    outer loop
      vertex 16.249942779541016 2.7833337783813477 120
      vertex 17.89496612548828 4.562509536743164 120
      vertex 17.419464111328125 4.4636993408203125 120
    endloop
  endfacet
  facet normal 0 0 1
    outer loop
      vertex 16.249942779541016 2.7833337783813477 120
      vertex 17.419464111328125 4.4636993408203125 120
      vertex 16.988252639770508 4.240262985229492 120
    endloop
  endfacet
  facet normal 0 0 1
    outer loop
      vertex 16.249942779541016 2.7833337783813477 120
      vertex 16.988252639770508 4.240262985229492 120
      vertex 16.63331413269043 3.9087743759155273 120
    endloop
  endfacet
  facet normal 0 0 1
    outer loop
      vertex 16.249942779541016 2.7833337783813477 120
      vertex 16.63331413269043 3.9087743759155273 120
      vertex 16.38097381591797 3.4938154220581055 120
    endloop
  endfacet
  facet normal 0 0 1
    outer loop
      vertex 16.249942779541016 2.7833337783813477 120
      vertex 16.38097381591797 3.4938154220581055 120
      vertex 16.249942779541016 3.0261640548706055 120
    endloop
  endfacet
  facet normal 0 0 1
    outer loop
      vertex 16.233333587646484 -0.19999980926513672 120
      vertex 18.899999618530273 1.244327425956726 120
      vertex 16.249942779541016 2.7833337783813477 120
    endloop
  endfacet
  facet normal 0 0 1
    outer loop
      vertex 16.233333587646484 -0.19999980926513672 120
      vertex 16.249942779541016 2.7833337783813477 120
      vertex 16.233333587646484 2.7833337783813477 120
    endloop
  endfacet
  facet normal 0 0 1
    outer loop
      vertex 18.899999618530273 1.244327425956726 120
      vertex 16.233333587646484 -0.19999980926513672 120
      vertex 18.899999618530273 -0.19999980926513672 120
    endloop
  endfacet
  facet normal 0 0 1
    outer loop
      vertex 16.233333587646484 -0.19999980926513672 120
      vertex 21 -2.30111026763916 120
      vertex 18.899999618530273 -0.19999980926513672 120
    endloop
  endfacet
  facet normal 0 0 1
    outer loop
      vertex -12.249726295471191 -0.19999980926513672 120
      vertex 21 -2.30111026763916 120
      vertex 16.233333587646484 -0.19999980926513672 120
    endloop
  endfacet
  facet normal 0 0 1
    outer loop
      vertex -21 -2.30111026763916 120
      vertex -12.249726295471191 -0.19999980926513672 120
      vertex -15.777873992919922 -0.4229942858219147 120
    endloop
  endfacet
  facet normal 0 0 1
    outer loop
      vertex -21 -2.30111026763916 120
      vertex -15.777873992919922 -0.4229942858219147 120
      vertex -21 -1.311110496520996 120
    endloop
  endfacet
  facet normal 0 0 1
    outer loop
      vertex -12.249726295471191 -0.19999980926513672 120
      vertex -21 -2.30111026763916 120
      vertex 21 -2.30111026763916 120
    endloop
  endfacet
  facet normal 0 0 1
    outer loop
      vertex -16.10173797607422 3.6520118713378906 120
      vertex -15.777873992919922 -0.4229942858219147 120
      vertex -12.249726295471191 -0.19999980926513672 120
    endloop
  endfacet
  facet normal 0 0 1
    outer loop
      vertex -18.064022064208984 1.8631534576416016 120
      vertex -16.10173797607422 3.6520118713378906 120
      vertex -16.51834487915039 3.9099626541137695 120
    endloop
  endfacet
  facet normal 0 0 1
    outer loop
      vertex -18.064022064208984 1.8631534576416016 120
      vertex -16.51834487915039 3.9099626541137695 120
      vertex -17 4 120
    endloop
  endfacet
  facet normal 0 0 1
    outer loop
      vertex -18.064022064208984 1.8631534576416016 120
      vertex -17 4 120
      vertex -17.48165512084961 3.9099626541137695 120
    endloop
  endfacet
  facet normal 0 0 1
    outer loop
      vertex -18.064022064208984 1.8631534576416016 120
      vertex -17.48165512084961 3.9099626541137695 120
      vertex -17.89826011657715 3.6520118713378906 120
    endloop
  endfacet
  facet normal 0 0 1
    outer loop
      vertex -16.10173797607422 3.6520118713378906 120
      vertex -18.064022064208984 1.8631534576416016 120
      vertex -15.777873992919922 -0.4229942858219147 120
    endloop
  endfacet
  facet normal 0 0 1
    outer loop
      vertex -18.19355010986328 3.260984420776367 120
      vertex -18.064022064208984 1.8631534576416016 120
      vertex -17.89826011657715 3.6520118713378906 120
    endloop
  endfacet
  facet normal 0 0 1
    outer loop
      vertex -18.19355010986328 3.260984420776367 120
      vertex -18.282432556152344 2.3017826080322266 120
      vertex -18.064022064208984 1.8631534576416016 120
    endloop
  endfacet
  facet normal 0 0 1
    outer loop
      vertex -18.282432556152344 2.3017826080322266 120
      vertex -18.19355010986328 3.260984420776367 120
      vertex -18.32764434814453 2.7896909713745117 120
    endloop
  endfacet
  facet normal 1 0 0
    outer loop
      vertex 18.899999618530273 -0.19999980926513672 120
      vertex 18.899999618530273 1.244327425956726 0
      vertex 18.899999618530273 1.244327425956726 120
    endloop
  endfacet
  facet normal 1 0 0
    outer loop
      vertex 18.899999618530273 1.244327425956726 0
      vertex 18.899999618530273 -0.19999980926513672 120
      vertex 18.899999618530273 -0.19999980926513672 0
    endloop
  endfacet
  facet normal -1 0 0
    outer loop
      vertex 16.233333587646484 -0.19999980926513672 0
      vertex 16.233333587646484 2.7833337783813477 120
      vertex 16.233333587646484 2.7833337783813477 0
    endloop
  endfacet
  facet normal -1 0 0
    outer loop
      vertex 16.233333587646484 2.7833337783813477 120
      vertex 16.233333587646484 -0.19999980926513672 0
      vertex 16.233333587646484 -0.19999980926513672 120
    endloop
  endfacet
  facet normal 0 1 0
    outer loop
      vertex 16.249942779541016 2.7833337783813477 0
      vertex 16.233333587646484 2.7833337783813477 120
      vertex 16.249942779541016 2.7833337783813477 120
    endloop
  endfacet
  facet normal 0 1 0
    outer loop
      vertex 16.233333587646484 2.7833337783813477 120
      vertex 16.249942779541016 2.7833337783813477 0
      vertex 16.233333587646484 2.7833337783813477 0
    endloop
  endfacet
  facet normal 0 1 0
    outer loop
      vertex 16.233333587646484 -0.19999980926513672 0
      vertex -12.249726295471191 -0.19999980926513672 120
      vertex 16.233333587646484 -0.19999980926513672 120
    endloop
  endfacet
  facet normal 0 1 0
    outer loop
      vertex -12.249726295471191 -0.19999980926513672 120
      vertex 16.233333587646484 -0.19999980926513672 0
      vertex -12.249726295471191 -0.19999980926513672 0
    endloop
  endfacet
  facet normal 0.46767262412830196 0.8839017573469057 0
    outer loop
      vertex 21 -1.311110496520996 0
      vertex 18.899999618530273 -0.19999980926513672 120
      vertex 21 -1.311110496520996 120
    endloop
  endfacet
  facet normal 0.46767262412830196 0.8839017573469057 0
    outer loop
      vertex 18.899999618530273 -0.19999980926513672 120
      vertex 21 -1.311110496520996 0
      vertex 18.899999618530273 -0.19999980926513672 0
    endloop
  endfacet
  facet normal -1 0 0
    outer loop
      vertex -21 -2.30111026763916 0
      vertex -21 -1.311110496520996 120
      vertex -21 -1.311110496520996 0
    endloop
  endfacet
  facet normal -1 0 0
    outer loop
      vertex -21 -1.311110496520996 120
      vertex -21 -2.30111026763916 0
      vertex -21 -2.30111026763916 120
    endloop
  endfacet
  facet normal 1 0 0
    outer loop
      vertex 21 -2.30111026763916 120
      vertex 21 -1.311110496520996 0
      vertex 21 -1.311110496520996 120
    endloop
  endfacet
  facet normal 1 0 0
    outer loop
      vertex 21 -1.311110496520996 0
      vertex 21 -2.30111026763916 120
      vertex 21 -2.30111026763916 0
    endloop
  endfacet
  facet normal -0.1676605902394302 0.9858447780865738 0
    outer loop
      vertex -15.777873992919922 -0.4229942858219147 0
      vertex -21 -1.311110496520996 120
      vertex -15.777873992919922 -0.4229942858219147 120
    endloop
  endfacet
  facet normal -0.1676605902394302 0.9858447780865738 0
    outer loop
      vertex -21 -1.311110496520996 120
      vertex -15.777873992919922 -0.4229942858219147 0
      vertex -21 -1.311110496520996 0
    endloop
  endfacet
  facet normal -0.7980174533274134 0.6026343370443057 0
    outer loop
      vertex -18.19355010986328 3.260984420776367 0
      vertex -17.89826011657715 3.6520118713378906 120
      vertex -17.89826011657715 3.6520118713378906 0
    endloop
  endfacet
  facet normal -0.7980174533274134 0.6026343370443057 0
    outer loop
      vertex -17.89826011657715 3.6520118713378906 120
      vertex -18.19355010986328 3.260984420776367 0
      vertex -18.19355010986328 3.260984420776367 120
    endloop
  endfacet
  facet normal 0.18375030572848466 0.9829729523973122 0
    outer loop
      vertex -16.51834487915039 3.9099626541137695 0
      vertex -17 4 120
      vertex -16.51834487915039 3.9099626541137695 120
    endloop
  endfacet
  facet normal 0.18375030572848466 0.9829729523973122 0
    outer loop
      vertex -17 4 120
      vertex -16.51834487915039 3.9099626541137695 0
      vertex -17 4 0
    endloop
  endfacet
  facet normal -0.7071067304882366 -0.7071068318848549 0
    outer loop
      vertex -18.064022064208984 1.8631534576416016 0
      vertex -15.777873992919922 -0.4229942858219147 120
      vertex -18.064022064208984 1.8631534576416016 120
    endloop
  endfacet
  facet normal -0.7071067304882366 -0.7071068318848549 0
    outer loop
      vertex -15.777873992919922 -0.4229942858219147 120
      vertex -18.064022064208984 1.8631534576416016 0
      vertex -15.777873992919922 -0.4229942858219147 0
    endloop
  endfacet
  facet normal -0.9957340967922339 -0.09226921743113632 0
    outer loop
      vertex -18.282432556152344 2.3017826080322266 0
      vertex -18.32764434814453 2.7896909713745117 120
      vertex -18.32764434814453 2.7896909713745117 0
    endloop
  endfacet
  facet normal -0.9957340967922339 -0.09226921743113632 0
    outer loop
      vertex -18.32764434814453 2.7896909713745117 120
      vertex -18.282432556152344 2.3017826080322266 0
      vertex -18.282432556152344 2.3017826080322266 120
    endloop
  endfacet
  facet normal 0.7071067811865475 0.7071067811865475 0
    outer loop
      vertex -12.249726295471191 -0.19999980926513672 120
      vertex -16.10173797607422 3.6520118713378906 0
      vertex -16.10173797607422 3.6520118713378906 120
    endloop
  endfacet
  facet normal 0.7071067811865475 0.7071067811865475 0
    outer loop
      vertex -16.10173797607422 3.6520118713378906 0
      vertex -12.249726295471191 -0.19999980926513672 120
      vertex -12.249726295471191 -0.19999980926513672 0
    endloop
  endfacet
  facet normal 0.5264302587968991 0.85021831468337 0
    outer loop
      vertex -16.10173797607422 3.6520118713378906 0
      vertex -16.51834487915039 3.9099626541137695 120
      vertex -16.10173797607422 3.6520118713378906 120
    endloop
  endfacet
  facet normal 0.5264302587968991 0.85021831468337 0
    outer loop
      vertex -16.51834487915039 3.9099626541137695 120
      vertex -16.10173797607422 3.6520118713378906 0
      vertex -16.51834487915039 3.9099626541137695 0
    endloop
  endfacet
  facet normal -0.5264320010311142 0.850217235940543 0
    outer loop
      vertex -17.48165512084961 3.9099626541137695 0
      vertex -17.89826011657715 3.6520118713378906 120
      vertex -17.48165512084961 3.9099626541137695 120
    endloop
  endfacet
  facet normal -0.5264320010311142 0.850217235940543 0
    outer loop
      vertex -17.89826011657715 3.6520118713378906 120
      vertex -17.48165512084961 3.9099626541137695 0
      vertex -17.89826011657715 3.6520118713378906 0
    endloop
  endfacet
  facet normal -0.9618258093725436 0.27366240593996727 0
    outer loop
      vertex -18.32764434814453 2.7896909713745117 0
      vertex -18.19355010986328 3.260984420776367 120
      vertex -18.19355010986328 3.260984420776367 0
    endloop
  endfacet
  facet normal -0.9618258093725436 0.27366240593996727 0
    outer loop
      vertex -18.19355010986328 3.260984420776367 120
      vertex -18.32764434814453 2.7896909713745117 0
      vertex -18.32764434814453 2.7896909713745117 120
    endloop
  endfacet
  facet normal -0.8951640022233104 -0.4457369281577927 0
    outer loop
      vertex -18.064022064208984 1.8631534576416016 0
      vertex -18.282432556152344 2.3017826080322266 120
      vertex -18.282432556152344 2.3017826080322266 0
    endloop
  endfacet
  facet normal -0.8951640022233104 -0.4457369281577927 0
    outer loop
      vertex -18.282432556152344 2.3017826080322266 120
      vertex -18.064022064208984 1.8631534576416016 0
      vertex -18.064022064208984 1.8631534576416016 120
    endloop
  endfacet
  facet normal -0.18375030572848466 0.9829729523973122 0
    outer loop
      vertex -17 4 0
      vertex -17.48165512084961 3.9099626541137695 120
      vertex -17 4 120
    endloop
  endfacet
  facet normal -0.18375030572848466 0.9829729523973122 0
    outer loop
      vertex -17.48165512084961 3.9099626541137695 120
      vertex -17 4 0
      vertex -17.48165512084961 3.9099626541137695 0
    endloop
  endfacet
  facet normal 0 -1 0
    outer loop
      vertex -21 -2.30111026763916 0
      vertex 21 -2.30111026763916 120
      vertex -21 -2.30111026763916 120
    endloop
  endfacet
  facet normal 0 -1 0
    outer loop
      vertex 21 -2.30111026763916 120
      vertex -21 -2.30111026763916 0
      vertex 21 -2.30111026763916 0
    endloop
  endfacet
endsolid OpenSCAD_Model
