solid OpenSCAD_Model
  facet normal 0.9914444487446 0.13052932641179218 0
    outer loop
      vertex 19.700000762939453 3.183333396911621 120
      vertex 19.635826110839844 3.6707763671875 0
      vertex 19.635826110839844 3.6707763671875 120
    endloop
  endfacet
  facet normal 0.9914444487446 0.13052932641179218 0
    outer loop
      vertex 19.635826110839844 3.6707763671875 0
      vertex 19.700000762939453 3.183333396911621 120
      vertex 19.700000762939453 3.183333396911621 0
    endloop
  endfacet
  facet normal -0.9914446997702387 0.1305274197151734 0
    outer loop
      vertex 15.933332443237305 3.183333396911621 0
      vertex 15.997506141662598 3.6707763671875 120
      vertex 15.997506141662598 3.6707763671875 0
    endloop
  endfacet
  facet normal -0.9914446997702387 0.1305274197151734 0
    outer loop
      vertex 15.997506141662598 3.6707763671875 120
      vertex 15.933332443237305 3.183333396911621 0
      vertex 15.933332443237305 3.183333396911621 120
    endloop
  endfacet
  facet normal 0.6087611806424054 0.7933535308693501 0
    outer loop
      vertex 19.14838409423828 4.51505184173584 0
      vertex 18.758333206176758 4.814348220825195 120
      vertex 19.14838409423828 4.51505184173584 120
    endloop
  endfacet
  facet normal 0.6087611806424054 0.7933535308693501 0
    outer loop
      vertex 18.758333206176758 4.814348220825195 120
      vertex 19.14838409423828 4.51505184173584 0
      vertex 18.758333206176758 4.814348220825195 0
    endloop
  endfacet
  facet normal 0.7933525940427644 -0.6087624015374281 0
    outer loop
      vertex 19.14838409423828 1.8516159057617188 120
      vertex 19.447681427001953 2.241666793823242 0
      vertex 19.447681427001953 2.241666793823242 120
    endloop
  endfacet
  facet normal 0.7933525940427644 -0.6087624015374281 0
    outer loop
      vertex 19.447681427001953 2.241666793823242 0
      vertex 19.14838409423828 1.8516159057617188 120
      vertex 19.14838409423828 1.8516159057617188 0
    endloop
  endfacet
  facet normal 0.9238801834735659 0.3826818607993462 0
    outer loop
      vertex 19.635826110839844 3.6707763671875 120
      vertex 19.447681427001953 4.125 0
      vertex 19.447681427001953 4.125 120
    endloop
  endfacet
  facet normal 0.9238801834735659 0.3826818607993462 0
    outer loop
      vertex 19.447681427001953 4.125 0
      vertex 19.635826110839844 3.6707763671875 120
      vertex 19.635826110839844 3.6707763671875 0
    endloop
  endfacet
  facet normal -0.13052767073952087 0.991444666721908 0
    outer loop
      vertex 17.816665649414062 5.066667556762695 0
      vertex 17.3292236328125 5.002493858337402 120
      vertex 17.816665649414062 5.066667556762695 120
    endloop
  endfacet
  facet normal -0.13052767073952087 0.991444666721908 0
    outer loop
      vertex 17.3292236328125 5.002493858337402 120
      vertex 17.816665649414062 5.066667556762695 0
      vertex 17.3292236328125 5.002493858337402 0
    endloop
  endfacet
  facet normal 0 0 -1
    outer loop
      vertex -20.449098587036133 -2.956538200378418 0
      vertex -14.654105186462402 -0.7300971150398254 0
      vertex -11.760308265686035 -2.9609785079956055 0
    endloop
  endfacet
  facet normal 0 0 -1
    outer loop
      vertex -20.449098587036133 -2.956538200378418 0
      vertex -20.449098587036133 -1.6434612274169922 0
      vertex -14.654105186462402 -0.7300971150398254 0
    endloop
  endfacet
  facet normal 0 0 -1
    outer loop
      vertex -20.84402847290039 -2.7285242080688477 0
      vertex -20.449098587036133 -1.6434612274169922 0
      vertex -20.449098587036133 -2.956538200378418 0
    endloop
  endfacet
  facet normal 0 0 -1
    outer loop
      vertex -20.84402847290039 -2.7285242080688477 0
      vertex -20.84402847290039 -1.871474266052246 0
      vertex -20.449098587036133 -1.6434612274169922 0
    endloop
  endfacet
  facet normal 0 0 -1
    outer loop
      vertex -20.84402847290039 -1.871474266052246 0
      vertex -20.84402847290039 -2.7285242080688477 0
      vertex -21 -2.299999237060547 0
    endloop
  endfacet
  facet normal 0 0 -1
    outer loop
      vertex 20.84402847290039 -2.7285242080688477 0
      vertex 20.84402847290039 -1.871474266052246 0
      vertex 21 -2.299999237060547 0
    endloop
  endfacet
  facet normal 0 0 -1
    outer loop
      vertex 20.449098587036133 -2.956538200378418 0
      vertex 20.84402847290039 -1.871474266052246 0
      vertex 20.84402847290039 -2.7285242080688477 0
    endloop
  endfacet
  facet normal 0 0 -1
    outer loop
      vertex 20.449098587036133 -2.956538200378418 0
      vertex 20.449098587036133 -1.6434612274169922 0
      vertex 20.84402847290039 -1.871474266052246 0
    endloop
  endfacet
  facet normal 0 0 -1
    outer loop
      vertex 20.449098587036133 -2.956538200378418 0
      vertex 18.599998474121094 -0.7834831476211548 0
      vertex 20.449098587036133 -1.6434612274169922 0
    endloop
  endfacet
  facet normal 0 0 -1
    outer loop
      vertex 15.933332443237305 -0.30568695068359375 0
      vertex 18.599998474121094 1.4867357015609741 0
      vertex 18.599998474121094 -0.7834831476211548 0
    endloop
  endfacet
  facet normal 0 0 -1
    outer loop
      vertex 18.599998474121094 1.4867357015609741 0
      vertex 15.933332443237305 3.183333396911621 0
      vertex 18.304107666015625 5.002493858337402 0
    endloop
  endfacet
  facet normal 0 0 -1
    outer loop
      vertex 17.389690399169922 -2.9609785079956055 0
      vertex 18.599998474121094 -0.7834831476211548 0
      vertex 20.449098587036133 -2.956538200378418 0
    endloop
  endfacet
  facet normal 0 0 -1
    outer loop
      vertex 15.933332443237305 -0.30568695068359375 0
      vertex 18.599998474121094 -0.7834831476211548 0
      vertex 17.389690399169922 -2.9609785079956055 0
    endloop
  endfacet
  facet normal 0 0 -1
    outer loop
      vertex 18.599998474121094 1.4867357015609741 0
      vertex 15.933332443237305 -0.30568695068359375 0
      vertex 15.933332443237305 3.183333396911621 0
    endloop
  endfacet
  facet normal 0 0 -1
    outer loop
      vertex 18.304107666015625 5.002493858337402 0
      vertex 15.933332443237305 3.183333396911621 0
      vertex 17.816665649414062 5.066667556762695 0
    endloop
  endfacet
  facet normal 0 0 -1
    outer loop
      vertex 17.816665649414062 5.066667556762695 0
      vertex 15.933332443237305 3.183333396911621 0
      vertex 17.3292236328125 5.002493858337402 0
    endloop
  endfacet
  facet normal 0 0 -1
    outer loop
      vertex 17.3292236328125 5.002493858337402 0
      vertex 15.933332443237305 3.183333396911621 0
      vertex 16.875 4.814348220825195 0
    endloop
  endfacet
  facet normal 0 0 -1
    outer loop
      vertex 16.484947204589844 4.51505184173584 0
      vertex 15.933332443237305 3.183333396911621 0
      vertex 16.185651779174805 4.125 0
    endloop
  endfacet
  facet normal 0 0 -1
    outer loop
      vertex 16.875 4.814348220825195 0
      vertex 15.933332443237305 3.183333396911621 0
      vertex 16.484947204589844 4.51505184173584 0
    endloop
  endfacet
  facet normal 0 0 -1
    outer loop
      vertex -11.760308265686035 -2.9609785079956055 0
      vertex 15.933332443237305 -0.30568695068359375 0
      vertex 17.389690399169922 -2.9609785079956055 0
    endloop
  endfacet
  facet normal 0 0 -1
    outer loop
      vertex 15.933332443237305 -0.30568695068359375 0
      vertex -11.760308265686035 -2.9609785079956055 0
      vertex -11.327372550964355 -0.30568695068359375 0
    endloop
  endfacet
  facet normal 0 0 -1
    outer loop
      vertex -14.654105186462402 -0.7300971150398254 0
      vertex -11.327372550964355 -0.30568695068359375 0
      vertex -11.760308265686035 -2.9609785079956055 0
    endloop
  endfacet
  facet normal 0 0 -1
    outer loop
      vertex -14.654105186462402 -0.7300971150398254 0
      vertex -15.714653968811035 4.081594467163086 0
      vertex -11.327372550964355 -0.30568695068359375 0
    endloop
  endfacet
  facet normal 0 0 -1
    outer loop
      vertex -17.50351333618164 2.1193103790283203 0
      vertex -15.714653968811035 4.081594467163086 0
      vertex -14.654105186462402 -0.7300971150398254 0
    endloop
  endfacet
  facet normal 0 0 -1
    outer loop
      vertex -15.714653968811035 4.081594467163086 0
      vertex -17.50351333618164 2.1193103790283203 0
      vertex -16.105682373046875 4.376884460449219 0
    endloop
  endfacet
  facet normal 0 0 -1
    outer loop
      vertex -16.105682373046875 4.376884460449219 0
      vertex -17.50351333618164 2.1193103790283203 0
      vertex -16.576974868774414 4.510979652404785 0
    endloop
  endfacet
  facet normal 0 0 -1
    outer loop
      vertex -16.576974868774414 4.510979652404785 0
      vertex -17.50351333618164 2.1193103790283203 0
      vertex -17.064884185791016 4.465767860412598 0
    endloop
  endfacet
  facet normal 0 0 -1
    outer loop
      vertex -17.50351333618164 2.1193103790283203 0
      vertex -17.50351333618164 4.247356414794922 0
      vertex -17.064884185791016 4.465767860412598 0
    endloop
  endfacet
  facet normal 0 0 -1
    outer loop
      vertex -17.833621978759766 2.481424331665039 0
      vertex -17.50351333618164 4.247356414794922 0
      vertex -17.50351333618164 2.1193103790283203 0
    endloop
  endfacet
  facet normal 0 0 -1
    outer loop
      vertex -17.833621978759766 2.481424331665039 0
      vertex -17.833621978759766 3.8852434158325195 0
      vertex -17.50351333618164 4.247356414794922 0
    endloop
  endfacet
  facet normal 0 0 -1
    outer loop
      vertex -18.010631561279297 2.9383344650268555 0
      vertex -17.833621978759766 3.8852434158325195 0
      vertex -17.833621978759766 2.481424331665039 0
    endloop
  endfacet
  facet normal 0 0 -1
    outer loop
      vertex -17.833621978759766 3.8852434158325195 0
      vertex -18.010631561279297 2.9383344650268555 0
      vertex -18.010631561279297 3.428333282470703 0
    endloop
  endfacet
  facet normal 0 0 -1
    outer loop
      vertex 19.635826110839844 2.6958913803100586 0
      vertex 19.635826110839844 3.6707763671875 0
      vertex 19.700000762939453 3.183333396911621 0
    endloop
  endfacet
  facet normal 0 0 -1
    outer loop
      vertex 19.447681427001953 2.241666793823242 0
      vertex 19.635826110839844 3.6707763671875 0
      vertex 19.635826110839844 2.6958913803100586 0
    endloop
  endfacet
  facet normal 0 0 -1
    outer loop
      vertex 19.447681427001953 2.241666793823242 0
      vertex 19.447681427001953 4.125 0
      vertex 19.635826110839844 3.6707763671875 0
    endloop
  endfacet
  facet normal 0 0 -1
    outer loop
      vertex 18.599998474121094 1.4867357015609741 0
      vertex 19.447681427001953 2.241666793823242 0
      vertex 19.14838409423828 1.8516159057617188 0
    endloop
  endfacet
  facet normal 0 0 -1
    outer loop
      vertex 19.447681427001953 2.241666793823242 0
      vertex 18.599998474121094 1.4867357015609741 0
      vertex 19.447681427001953 4.125 0
    endloop
  endfacet
  facet normal 0 0 -1
    outer loop
      vertex 18.599998474121094 1.4867357015609741 0
      vertex 19.14838409423828 1.8516159057617188 0
      vertex 18.758333206176758 1.5523195266723633 0
    endloop
  endfacet
  facet normal 0 0 -1
    outer loop
      vertex 19.447681427001953 4.125 0
      vertex 18.599998474121094 1.4867357015609741 0
      vertex 19.14838409423828 4.51505184173584 0
    endloop
  endfacet
  facet normal 0 0 -1
    outer loop
      vertex 19.14838409423828 4.51505184173584 0
      vertex 18.599998474121094 1.4867357015609741 0
      vertex 18.758333206176758 4.814348220825195 0
    endloop
  endfacet
  facet normal 0 0 -1
    outer loop
      vertex 18.758333206176758 4.814348220825195 0
      vertex 18.599998474121094 1.4867357015609741 0
      vertex 18.304107666015625 5.002493858337402 0
    endloop
  endfacet
  facet normal 0 0 -1
    outer loop
      vertex 16.185651779174805 4.125 0
      vertex 15.933332443237305 3.183333396911621 0
      vertex 15.997506141662598 3.6707763671875 0
    endloop
  endfacet
  facet normal 0.6087611806424054 -0.7933535308693501 0
    outer loop
      vertex 18.758333206176758 1.5523195266723633 0
      vertex 19.14838409423828 1.8516159057617188 120
      vertex 18.758333206176758 1.5523195266723633 120
    endloop
  endfacet
  facet normal 0.6087611806424054 -0.7933535308693501 0
    outer loop
      vertex 19.14838409423828 1.8516159057617188 120
      vertex 18.758333206176758 1.5523195266723633 0
      vertex 19.14838409423828 1.8516159057617188 0
    endloop
  endfacet
  facet normal 0.3826821448750738 0.9238800658060617 0
    outer loop
      vertex 18.758333206176758 4.814348220825195 0
      vertex 18.304107666015625 5.002493858337402 120
      vertex 18.758333206176758 4.814348220825195 120
    endloop
  endfacet
  facet normal 0.3826821448750738 0.9238800658060617 0
    outer loop
      vertex 18.304107666015625 5.002493858337402 120
      vertex 18.758333206176758 4.814348220825195 0
      vertex 18.304107666015625 5.002493858337402 0
    endloop
  endfacet
  facet normal 0.38268060195787396 -0.9238807048992631 0
    outer loop
      vertex 18.599998474121094 1.4867357015609741 0
      vertex 18.758333206176758 1.5523195266723633 120
      vertex 18.599998474121094 1.4867357015609741 120
    endloop
  endfacet
  facet normal 0.38268060195787396 -0.9238807048992631 0
    outer loop
      vertex 18.758333206176758 1.5523195266723633 120
      vertex 18.599998474121094 1.4867357015609741 0
      vertex 18.758333206176758 1.5523195266723633 0
    endloop
  endfacet
  facet normal -0.7933551865445599 0.6087590229169886 0
    outer loop
      vertex 16.185651779174805 4.125 0
      vertex 16.484947204589844 4.51505184173584 120
      vertex 16.484947204589844 4.51505184173584 0
    endloop
  endfacet
  facet normal -0.7933551865445599 0.6087590229169886 0
    outer loop
      vertex 16.484947204589844 4.51505184173584 120
      vertex 16.185651779174805 4.125 0
      vertex 16.185651779174805 4.125 120
    endloop
  endfacet
  facet normal 0.7933533128951238 0.6087614647120263 0
    outer loop
      vertex 19.447681427001953 4.125 120
      vertex 19.14838409423828 4.51505184173584 0
      vertex 19.14838409423828 4.51505184173584 120
    endloop
  endfacet
  facet normal 0.7933533128951238 0.6087614647120263 0
    outer loop
      vertex 19.14838409423828 4.51505184173584 0
      vertex 19.447681427001953 4.125 120
      vertex 19.447681427001953 4.125 0
    endloop
  endfacet
  facet normal 0.13052767073952087 0.991444666721908 0
    outer loop
      vertex 18.304107666015625 5.002493858337402 0
      vertex 17.816665649414062 5.066667556762695 120
      vertex 18.304107666015625 5.002493858337402 120
    endloop
  endfacet
  facet normal 0.13052767073952087 0.991444666721908 0
    outer loop
      vertex 17.816665649414062 5.066667556762695 120
      vertex 18.304107666015625 5.002493858337402 0
      vertex 17.816665649414062 5.066667556762695 0
    endloop
  endfacet
  facet normal -0.9238794976693377 0.3826835164809848 0
    outer loop
      vertex 15.997506141662598 3.6707763671875 0
      vertex 16.185651779174805 4.125 120
      vertex 16.185651779174805 4.125 0
    endloop
  endfacet
  facet normal -0.9238794976693377 0.3826835164809848 0
    outer loop
      vertex 16.185651779174805 4.125 120
      vertex 15.997506141662598 3.6707763671875 0
      vertex 15.997506141662598 3.6707763671875 120
    endloop
  endfacet
  facet normal 0.9238804675404444 -0.38268117499721604 0
    outer loop
      vertex 19.447681427001953 2.241666793823242 120
      vertex 19.635826110839844 2.6958913803100586 0
      vertex 19.635826110839844 2.6958913803100586 120
    endloop
  endfacet
  facet normal 0.9238804675404444 -0.38268117499721604 0
    outer loop
      vertex 19.635826110839844 2.6958913803100586 0
      vertex 19.447681427001953 2.241666793823242 120
      vertex 19.447681427001953 2.241666793823242 0
    endloop
  endfacet
  facet normal 0.991444415695312 -0.1305295774396794 0
    outer loop
      vertex 19.635826110839844 2.6958913803100586 120
      vertex 19.700000762939453 3.183333396911621 0
      vertex 19.700000762939453 3.183333396911621 120
    endloop
  endfacet
  facet normal 0.991444415695312 -0.1305295774396794 0
    outer loop
      vertex 19.700000762939453 3.183333396911621 0
      vertex 19.635826110839844 2.6958913803100586 120
      vertex 19.635826110839844 2.6958913803100586 0
    endloop
  endfacet
  facet normal -0.6087593069929693 0.7933549685666813 0
    outer loop
      vertex 16.875 4.814348220825195 0
      vertex 16.484947204589844 4.51505184173584 120
      vertex 16.875 4.814348220825195 120
    endloop
  endfacet
  facet normal -0.6087593069929693 0.7933549685666813 0
    outer loop
      vertex 16.484947204589844 4.51505184173584 120
      vertex 16.875 4.814348220825195 0
      vertex 16.484947204589844 4.51505184173584 0
    endloop
  endfacet
  facet normal -0.3826835164809848 0.9238794976693377 0
    outer loop
      vertex 17.3292236328125 5.002493858337402 0
      vertex 16.875 4.814348220825195 120
      vertex 17.3292236328125 5.002493858337402 120
    endloop
  endfacet
  facet normal -0.3826835164809848 0.9238794976693377 0
    outer loop
      vertex 16.875 4.814348220825195 120
      vertex 17.3292236328125 5.002493858337402 0
      vertex 16.875 4.814348220825195 0
    endloop
  endfacet
  facet normal 0 0 1
    outer loop
      vertex 19.635826110839844 3.6707763671875 120
      vertex 19.635826110839844 2.6958913803100586 120
      vertex 19.700000762939453 3.183333396911621 120
    endloop
  endfacet
  facet normal 0 0 1
    outer loop
      vertex 19.447681427001953 4.125 120
      vertex 19.635826110839844 2.6958913803100586 120
      vertex 19.635826110839844 3.6707763671875 120
    endloop
  endfacet
  facet normal 0 0 1
    outer loop
      vertex 19.447681427001953 4.125 120
      vertex 19.447681427001953 2.241666793823242 120
      vertex 19.635826110839844 2.6958913803100586 120
    endloop
  endfacet
  facet normal 0 0 1
    outer loop
      vertex 19.14838409423828 4.51505184173584 120
      vertex 19.447681427001953 2.241666793823242 120
      vertex 19.447681427001953 4.125 120
    endloop
  endfacet
  facet normal 0 0 1
    outer loop
      vertex 18.599998474121094 1.4867357015609741 120
      vertex 19.447681427001953 2.241666793823242 120
      vertex 19.14838409423828 4.51505184173584 120
    endloop
  endfacet
  facet normal 0 0 1
    outer loop
      vertex 18.599998474121094 1.4867357015609741 120
      vertex 19.14838409423828 4.51505184173584 120
      vertex 18.758333206176758 4.814348220825195 120
    endloop
  endfacet
  facet normal 0 0 1
    outer loop
      vertex 19.447681427001953 2.241666793823242 120
      vertex 18.599998474121094 1.4867357015609741 120
      vertex 19.14838409423828 1.8516159057617188 120
    endloop
  endfacet
  facet normal 0 0 1
    outer loop
      vertex 19.14838409423828 1.8516159057617188 120
      vertex 18.599998474121094 1.4867357015609741 120
      vertex 18.758333206176758 1.5523195266723633 120
    endloop
  endfacet
  facet normal 0 0 1
    outer loop
      vertex 15.933332443237305 3.183333396911621 120
      vertex 18.599998474121094 1.4867357015609741 120
      vertex 18.304107666015625 5.002493858337402 120
    endloop
  endfacet
  facet normal 0 0 1
    outer loop
      vertex 18.304107666015625 5.002493858337402 120
      vertex 18.599998474121094 1.4867357015609741 120
      vertex 18.758333206176758 4.814348220825195 120
    endloop
  endfacet
  facet normal 0 0 1
    outer loop
      vertex 20.84402847290039 -1.871474266052246 120
      vertex 20.84402847290039 -2.7285242080688477 120
      vertex 21 -2.299999237060547 120
    endloop
  endfacet
  facet normal 0 0 1
    outer loop
      vertex 20.449098587036133 -1.6434612274169922 120
      vertex 20.84402847290039 -2.7285242080688477 120
      vertex 20.84402847290039 -1.871474266052246 120
    endloop
  endfacet
  facet normal 0 0 1
    outer loop
      vertex 20.449098587036133 -1.6434612274169922 120
      vertex 20.449098587036133 -2.956538200378418 120
      vertex 20.84402847290039 -2.7285242080688477 120
    endloop
  endfacet
  facet normal 0 0 1
    outer loop
      vertex 18.599998474121094 -0.7834831476211548 120
      vertex 20.449098587036133 -2.956538200378418 120
      vertex 20.449098587036133 -1.6434612274169922 120
    endloop
  endfacet
  facet normal 0 0 1
    outer loop
      vertex 15.933332443237305 3.183333396911621 120
      vertex 18.304107666015625 5.002493858337402 120
      vertex 17.816665649414062 5.066667556762695 120
    endloop
  endfacet
  facet normal 0 0 1
    outer loop
      vertex 18.599998474121094 -0.7834831476211548 120
      vertex 17.389690399169922 -2.9609785079956055 120
      vertex 20.449098587036133 -2.956538200378418 120
    endloop
  endfacet
  facet normal 0 0 1
    outer loop
      vertex 15.933332443237305 -0.30568695068359375 120
      vertex 18.599998474121094 1.4867357015609741 120
      vertex 15.933332443237305 3.183333396911621 120
    endloop
  endfacet
  facet normal 0 0 1
    outer loop
      vertex 15.933332443237305 3.183333396911621 120
      vertex 17.816665649414062 5.066667556762695 120
      vertex 17.3292236328125 5.002493858337402 120
    endloop
  endfacet
  facet normal 0 0 1
    outer loop
      vertex 15.933332443237305 3.183333396911621 120
      vertex 17.3292236328125 5.002493858337402 120
      vertex 16.875 4.814348220825195 120
    endloop
  endfacet
  facet normal 0 0 1
    outer loop
      vertex 15.933332443237305 3.183333396911621 120
      vertex 16.875 4.814348220825195 120
      vertex 16.484947204589844 4.51505184173584 120
    endloop
  endfacet
  facet normal 0 0 1
    outer loop
      vertex 15.933332443237305 3.183333396911621 120
      vertex 16.484947204589844 4.51505184173584 120
      vertex 16.185651779174805 4.125 120
    endloop
  endfacet
  facet normal 0 0 1
    outer loop
      vertex 15.933332443237305 3.183333396911621 120
      vertex 16.185651779174805 4.125 120
      vertex 15.997506141662598 3.6707763671875 120
    endloop
  endfacet
  facet normal 0 0 1
    outer loop
      vertex 18.599998474121094 1.4867357015609741 120
      vertex 15.933332443237305 -0.30568695068359375 120
      vertex 18.599998474121094 -0.7834831476211548 120
    endloop
  endfacet
  facet normal 0 0 1
    outer loop
      vertex 18.599998474121094 -0.7834831476211548 120
      vertex 15.933332443237305 -0.30568695068359375 120
      vertex 17.389690399169922 -2.9609785079956055 120
    endloop
  endfacet
  facet normal 0 0 1
    outer loop
      vertex -11.760308265686035 -2.9609785079956055 120
      vertex 15.933332443237305 -0.30568695068359375 120
      vertex -11.327372550964355 -0.30568695068359375 120
    endloop
  endfacet
  facet normal 0 0 1
    outer loop
      vertex 15.933332443237305 -0.30568695068359375 120
      vertex -11.760308265686035 -2.9609785079956055 120
      vertex 17.389690399169922 -2.9609785079956055 120
    endloop
  endfacet
  facet normal 0 0 1
    outer loop
      vertex -11.327372550964355 -0.30568695068359375 120
      vertex -14.654105186462402 -0.7300971150398254 120
      vertex -11.760308265686035 -2.9609785079956055 120
    endloop
  endfacet
  facet normal 0 0 1
    outer loop
      vertex -15.714653968811035 4.081594467163086 120
      vertex -14.654105186462402 -0.7300971150398254 120
      vertex -11.327372550964355 -0.30568695068359375 120
    endloop
  endfacet
  facet normal 0 0 1
    outer loop
      vertex -17.50351333618164 2.1193103790283203 120
      vertex -15.714653968811035 4.081594467163086 120
      vertex -16.105682373046875 4.376884460449219 120
    endloop
  endfacet
  facet normal 0 0 1
    outer loop
      vertex -17.50351333618164 2.1193103790283203 120
      vertex -16.105682373046875 4.376884460449219 120
      vertex -16.576974868774414 4.510979652404785 120
    endloop
  endfacet
  facet normal 0 0 1
    outer loop
      vertex -17.50351333618164 2.1193103790283203 120
      vertex -16.576974868774414 4.510979652404785 120
      vertex -17.064884185791016 4.465767860412598 120
    endloop
  endfacet
  facet normal 0 0 1
    outer loop
      vertex -17.50351333618164 2.1193103790283203 120
      vertex -17.064884185791016 4.465767860412598 120
      vertex -17.50351333618164 4.247356414794922 120
    endloop
  endfacet
  facet normal 0 0 1
    outer loop
      vertex -15.714653968811035 4.081594467163086 120
      vertex -17.50351333618164 2.1193103790283203 120
      vertex -14.654105186462402 -0.7300971150398254 120
    endloop
  endfacet
  facet normal 0 0 1
    outer loop
      vertex -17.833621978759766 3.8852434158325195 120
      vertex -17.50351333618164 2.1193103790283203 120
      vertex -17.50351333618164 4.247356414794922 120
    endloop
  endfacet
  facet normal 0 0 1
    outer loop
      vertex -17.833621978759766 3.8852434158325195 120
      vertex -17.833621978759766 2.481424331665039 120
      vertex -17.50351333618164 2.1193103790283203 120
    endloop
  endfacet
  facet normal 0 0 1
    outer loop
      vertex -18.010631561279297 3.428333282470703 120
      vertex -17.833621978759766 2.481424331665039 120
      vertex -17.833621978759766 3.8852434158325195 120
    endloop
  endfacet
  facet normal 0 0 1
    outer loop
      vertex -17.833621978759766 2.481424331665039 120
      vertex -18.010631561279297 3.428333282470703 120
      vertex -18.010631561279297 2.9383344650268555 120
    endloop
  endfacet
  facet normal 0 0 1
    outer loop
      vertex -20.449098587036133 -2.956538200378418 120
      vertex -14.654105186462402 -0.7300971150398254 120
      vertex -20.449098587036133 -1.6434612274169922 120
    endloop
  endfacet
  facet normal 0 0 1
    outer loop
      vertex -14.654105186462402 -0.7300971150398254 120
      vertex -20.449098587036133 -2.956538200378418 120
      vertex -11.760308265686035 -2.9609785079956055 120
    endloop
  endfacet
  facet normal 0 0 1
    outer loop
      vertex -20.84402847290039 -1.871474266052246 120
      vertex -20.449098587036133 -2.956538200378418 120
      vertex -20.449098587036133 -1.6434612274169922 120
    endloop
  endfacet
  facet normal 0 0 1
    outer loop
      vertex -20.84402847290039 -1.871474266052246 120
      vertex -20.84402847290039 -2.7285242080688477 120
      vertex -20.449098587036133 -2.956538200378418 120
    endloop
  endfacet
  facet normal 0 0 1
    outer loop
      vertex -20.84402847290039 -2.7285242080688477 120
      vertex -20.84402847290039 -1.871474266052246 120
      vertex -21 -2.299999237060547 120
    endloop
  endfacet
  facet normal 1 0 0
    outer loop
      vertex 18.599998474121094 -0.7834831476211548 120
      vertex 18.599998474121094 1.4867357015609741 0
      vertex 18.599998474121094 1.4867357015609741 120
    endloop
  endfacet
  facet normal 1 0 0
    outer loop
      vertex 18.599998474121094 1.4867357015609741 0
      vertex 18.599998474121094 -0.7834831476211548 120
      vertex 18.599998474121094 -0.7834831476211548 0
    endloop
  endfacet
  facet normal -1 0 0
    outer loop
      vertex 15.933332443237305 -0.30568695068359375 0
      vertex 15.933332443237305 3.183333396911621 120
      vertex 15.933332443237305 3.183333396911621 0
    endloop
  endfacet
  facet normal -1 0 0
    outer loop
      vertex 15.933332443237305 3.183333396911621 120
      vertex 15.933332443237305 -0.30568695068359375 0
      vertex 15.933332443237305 -0.30568695068359375 120
    endloop
  endfacet
  facet normal -0.5000018360686188 -0.8660243437271321 0
    outer loop
      vertex -20.84402847290039 -2.7285242080688477 0
      vertex -20.449098587036133 -2.956538200378418 120
      vertex -20.84402847290039 -2.7285242080688477 120
    endloop
  endfacet
  facet normal -0.5000018360686188 -0.8660243437271321 0
    outer loop
      vertex -20.449098587036133 -2.956538200378418 120
      vertex -20.84402847290039 -2.7285242080688477 0
      vertex -20.449098587036133 -2.956538200378418 0
    endloop
  endfacet
  facet normal 0.4217031400385236 0.9067339530874806 0
    outer loop
      vertex 20.449098587036133 -1.6434612274169922 0
      vertex 18.599998474121094 -0.7834831476211548 120
      vertex 20.449098587036133 -1.6434612274169922 120
    endloop
  endfacet
  facet normal 0.4217031400385236 0.9067339530874806 0
    outer loop
      vertex 18.599998474121094 -0.7834831476211548 120
      vertex 20.449098587036133 -1.6434612274169922 0
      vertex 18.599998474121094 -0.7834831476211548 0
    endloop
  endfacet
  facet normal 0 1 0
    outer loop
      vertex 15.933332443237305 -0.30568695068359375 0
      vertex -11.327372550964355 -0.30568695068359375 120
      vertex 15.933332443237305 -0.30568695068359375 120
    endloop
  endfacet
  facet normal 0 1 0
    outer loop
      vertex -11.327372550964355 -0.30568695068359375 120
      vertex 15.933332443237305 -0.30568695068359375 0
      vertex -11.327372550964355 -0.30568695068359375 0
    endloop
  endfacet
  facet normal 0 -1 0
    outer loop
      vertex -11.760308265686035 -2.9609785079956055 0
      vertex 17.389690399169922 -2.9609785079956055 120
      vertex -11.760308265686035 -2.9609785079956055 120
    endloop
  endfacet
  facet normal 0 -1 0
    outer loop
      vertex 17.389690399169922 -2.9609785079956055 120
      vertex -11.760308265686035 -2.9609785079956055 0
      vertex 17.389690399169922 -2.9609785079956055 0
    endloop
  endfacet
  facet normal 0.9396917799846269 0.3420224533993688 0
    outer loop
      vertex 21 -2.299999237060547 120
      vertex 20.84402847290039 -1.871474266052246 0
      vertex 20.84402847290039 -1.871474266052246 120
    endloop
  endfacet
  facet normal 0.9396917799846269 0.3420224533993688 0
    outer loop
      vertex 20.84402847290039 -1.871474266052246 0
      vertex 21 -2.299999237060547 120
      vertex 21 -2.299999237060547 0
    endloop
  endfacet
  facet normal -0.9396917799846269 0.3420224533993688 0
    outer loop
      vertex -21 -2.299999237060547 0
      vertex -20.84402847290039 -1.871474266052246 120
      vertex -20.84402847290039 -1.871474266052246 0
    endloop
  endfacet
  facet normal -0.9396917799846269 0.3420224533993688 0
    outer loop
      vertex -20.84402847290039 -1.871474266052246 120
      vertex -21 -2.299999237060547 0
      vertex -21 -2.299999237060547 120
    endloop
  endfacet
  facet normal 0.9396917799846269 -0.3420224533993688 0
    outer loop
      vertex 20.84402847290039 -2.7285242080688477 120
      vertex 21 -2.299999237060547 0
      vertex 21 -2.299999237060547 120
    endloop
  endfacet
  facet normal 0.9396917799846269 -0.3420224533993688 0
    outer loop
      vertex 21 -2.299999237060547 0
      vertex 20.84402847290039 -2.7285242080688477 120
      vertex 20.84402847290039 -2.7285242080688477 0
    endloop
  endfacet
  facet normal 0.5000018360686188 -0.8660243437271321 0
    outer loop
      vertex 20.449098587036133 -2.956538200378418 0
      vertex 20.84402847290039 -2.7285242080688477 120
      vertex 20.449098587036133 -2.956538200378418 120
    endloop
  endfacet
  facet normal 0.5000018360686188 -0.8660243437271321 0
    outer loop
      vertex 20.84402847290039 -2.7285242080688477 120
      vertex 20.449098587036133 -2.956538200378418 0
      vertex 20.84402847290039 -2.7285242080688477 0
    endloop
  endfacet
  facet normal 0.0014513600892359455 -0.999998946776391 0
    outer loop
      vertex 17.389690399169922 -2.9609785079956055 0
      vertex 20.449098587036133 -2.956538200378418 120
      vertex 17.389690399169922 -2.9609785079956055 120
    endloop
  endfacet
  facet normal 0.0014513600892359455 -0.999998946776391 0
    outer loop
      vertex 20.449098587036133 -2.956538200378418 120
      vertex 17.389690399169922 -2.9609785079956055 0
      vertex 20.449098587036133 -2.956538200378418 0
    endloop
  endfacet
  facet normal -0.0005110385765047665 -0.9999998694197781 0
    outer loop
      vertex -20.449098587036133 -2.956538200378418 0
      vertex -11.760308265686035 -2.9609785079956055 120
      vertex -20.449098587036133 -2.956538200378418 120
    endloop
  endfacet
  facet normal -0.0005110385765047665 -0.9999998694197781 0
    outer loop
      vertex -11.760308265686035 -2.9609785079956055 120
      vertex -20.449098587036133 -2.956538200378418 0
      vertex -11.760308265686035 -2.9609785079956055 0
    endloop
  endfacet
  facet normal 0.5000002676172106 0.8660252492755148 0
    outer loop
      vertex 20.84402847290039 -1.871474266052246 0
      vertex 20.449098587036133 -1.6434612274169922 120
      vertex 20.84402847290039 -1.871474266052246 120
    endloop
  endfacet
  facet normal 0.5000002676172106 0.8660252492755148 0
    outer loop
      vertex 20.449098587036133 -1.6434612274169922 120
      vertex 20.84402847290039 -1.871474266052246 0
      vertex 20.449098587036133 -1.6434612274169922 0
    endloop
  endfacet
  facet normal -0.9396917799846269 -0.3420224533993688 0
    outer loop
      vertex -20.84402847290039 -2.7285242080688477 0
      vertex -21 -2.299999237060547 120
      vertex -21 -2.299999237060547 0
    endloop
  endfacet
  facet normal -0.9396917799846269 -0.3420224533993688 0
    outer loop
      vertex -21 -2.299999237060547 120
      vertex -20.84402847290039 -2.7285242080688477 0
      vertex -20.84402847290039 -2.7285242080688477 120
    endloop
  endfacet
  facet normal -0.1556906727813269 0.9878058586629753 0
    outer loop
      vertex -14.654105186462402 -0.7300971150398254 0
      vertex -20.449098587036133 -1.6434612274169922 120
      vertex -14.654105186462402 -0.7300971150398254 120
    endloop
  endfacet
  facet normal -0.1556906727813269 0.9878058586629753 0
    outer loop
      vertex -20.449098587036133 -1.6434612274169922 120
      vertex -14.654105186462402 -0.7300971150398254 0
      vertex -20.449098587036133 -1.6434612274169922 0
    endloop
  endfacet
  facet normal -0.5000002676172106 0.8660252492755148 0
    outer loop
      vertex -20.449098587036133 -1.6434612274169922 0
      vertex -20.84402847290039 -1.871474266052246 120
      vertex -20.449098587036133 -1.6434612274169922 120
    endloop
  endfacet
  facet normal -0.5000002676172106 0.8660252492755148 0
    outer loop
      vertex -20.84402847290039 -1.871474266052246 120
      vertex -20.449098587036133 -1.6434612274169922 0
      vertex -20.84402847290039 -1.871474266052246 0
    endloop
  endfacet
  facet normal -0.9324710924713067 -0.3612446009359416 0
    outer loop
      vertex -17.833621978759766 2.481424331665039 0
      vertex -18.010631561279297 2.9383344650268555 120
      vertex -18.010631561279297 2.9383344650268555 0
    endloop
  endfacet
  facet normal -0.9324710924713067 -0.3612446009359416 0
    outer loop
      vertex -18.010631561279297 2.9383344650268555 120
      vertex -17.833621978759766 2.481424331665039 0
      vertex -17.833621978759766 2.481424331665039 120
    endloop
  endfacet
  facet normal -0.44573848774569935 0.8951632256422161 0
    outer loop
      vertex -17.064884185791016 4.465767860412598 0
      vertex -17.50351333618164 4.247356414794922 120
      vertex -17.064884185791016 4.465767860412598 120
    endloop
  endfacet
  facet normal -0.44573848774569935 0.8951632256422161 0
    outer loop
      vertex -17.50351333618164 4.247356414794922 120
      vertex -17.064884185791016 4.465767860412598 0
      vertex -17.50351333618164 4.247356414794922 0
    endloop
  endfacet
  facet normal -0.7390099063090154 0.6736945586667153 0
    outer loop
      vertex -17.833621978759766 3.8852434158325195 0
      vertex -17.50351333618164 4.247356414794922 120
      vertex -17.50351333618164 4.247356414794922 0
    endloop
  endfacet
  facet normal -0.7390099063090154 0.6736945586667153 0
    outer loop
      vertex -17.50351333618164 4.247356414794922 120
      vertex -17.833621978759766 3.8852434158325195 0
      vertex -17.833621978759766 3.8852434158325195 120
    endloop
  endfacet
  facet normal 0.27366471875327136 0.9618251513189353 0
    outer loop
      vertex -16.105682373046875 4.376884460449219 0
      vertex -16.576974868774414 4.510979652404785 120
      vertex -16.105682373046875 4.376884460449219 120
    endloop
  endfacet
  facet normal 0.27366471875327136 0.9618251513189353 0
    outer loop
      vertex -16.576974868774414 4.510979652404785 120
      vertex -16.105682373046875 4.376884460449219 0
      vertex -16.576974868774414 4.510979652404785 0
    endloop
  endfacet
  facet normal -0.7071066998336157 -0.70710686253947 0
    outer loop
      vertex -17.50351333618164 2.1193103790283203 0
      vertex -14.654105186462402 -0.7300971150398254 120
      vertex -17.50351333618164 2.1193103790283203 120
    endloop
  endfacet
  facet normal -0.7071066998336157 -0.70710686253947 0
    outer loop
      vertex -14.654105186462402 -0.7300971150398254 120
      vertex -17.50351333618164 2.1193103790283203 0
      vertex -14.654105186462402 -0.7300971150398254 0
    endloop
  endfacet
  facet normal -0.7390107896560875 -0.673693589677003 0
    outer loop
      vertex -17.50351333618164 2.1193103790283203 0
      vertex -17.833621978759766 2.481424331665039 120
      vertex -17.833621978759766 2.481424331665039 0
    endloop
  endfacet
  facet normal -0.7390107896560875 -0.673693589677003 0
    outer loop
      vertex -17.833621978759766 2.481424331665039 120
      vertex -17.50351333618164 2.1193103790283203 0
      vertex -17.50351333618164 2.1193103790283203 120
    endloop
  endfacet
  facet normal 0.7071067811865475 0.7071067811865475 0
    outer loop
      vertex -11.327372550964355 -0.30568695068359375 120
      vertex -15.714653968811035 4.081594467163086 0
      vertex -15.714653968811035 4.081594467163086 120
    endloop
  endfacet
  facet normal 0.7071067811865475 0.7071067811865475 0
    outer loop
      vertex -15.714653968811035 4.081594467163086 0
      vertex -11.327372550964355 -0.30568695068359375 120
      vertex -11.327372550964355 -0.30568695068359375 0
    endloop
  endfacet
  facet normal 0.6026334010547316 0.7980181601525163 0
    outer loop
      vertex -15.714653968811035 4.081594467163086 0
      vertex -16.105682373046875 4.376884460449219 120
      vertex -15.714653968811035 4.081594467163086 120
    endloop
  endfacet
  facet normal 0.6026334010547316 0.7980181601525163 0
    outer loop
      vertex -16.105682373046875 4.376884460449219 120
      vertex -15.714653968811035 4.081594467163086 0
      vertex -16.105682373046875 4.376884460449219 0
    endloop
  endfacet
  facet normal -0.09226903861587524 0.9957341133620472 0
    outer loop
      vertex -16.576974868774414 4.510979652404785 0
      vertex -17.064884185791016 4.465767860412598 120
      vertex -16.576974868774414 4.510979652404785 120
    endloop
  endfacet
  facet normal -0.09226903861587524 0.9957341133620472 0
    outer loop
      vertex -17.064884185791016 4.465767860412598 120
      vertex -16.576974868774414 4.510979652404785 0
      vertex -17.064884185791016 4.465767860412598 0
    endloop
  endfacet
  facet normal -1 0 0
    outer loop
      vertex -18.010631561279297 2.9383344650268555 0
      vertex -18.010631561279297 3.428333282470703 120
      vertex -18.010631561279297 3.428333282470703 0
    endloop
  endfacet
  facet normal -1 0 0
    outer loop
      vertex -18.010631561279297 3.428333282470703 120
      vertex -18.010631561279297 2.9383344650268555 0
      vertex -18.010631561279297 2.9383344650268555 120
    endloop
  endfacet
  facet normal -0.9324710924713067 0.3612446009359416 0
    outer loop
      vertex -18.010631561279297 3.428333282470703 0
      vertex -17.833621978759766 3.8852434158325195 120
      vertex -17.833621978759766 3.8852434158325195 0
    endloop
  endfacet
  facet normal -0.9324710924713067 0.3612446009359416 0
    outer loop
      vertex -17.833621978759766 3.8852434158325195 120
      vertex -18.010631561279297 3.428333282470703 0
      vertex -18.010631561279297 3.428333282470703 120
    endloop
  endfacet
endsolid OpenSCAD_Model
