solid OpenSCAD_Model
  facet normal -0.6374208238402056 0.7705158618321063 0
    outer loop
      vertex 19.462453842163086 -19.574352264404297 0
      vertex 19.099998474121094 -19.87419891357422 4
      vertex 19.462453842163086 -19.574352264404297 4
    endloop
  endfacet
  facet normal -0.6374208238402056 0.7705158618321063 0
    outer loop
      vertex 19.099998474121094 -19.87419891357422 4
      vertex 19.462453842163086 -19.574352264404297 0
      vertex 19.099998474121094 -19.87419891357422 0
    endloop
  endfacet
  facet normal 0.0627887177285786 -0.9980268417863324 0
    outer loop
      vertex 17.64502716064453 -16.268463134765625 0
      vertex 18.029056549072266 -16.24430274963379 4
      vertex 17.64502716064453 -16.268463134765625 4
    endloop
  endfacet
  facet normal 0.0627887177285786 -0.9980268417863324 0
    outer loop
      vertex 18.029056549072266 -16.24430274963379 4
      vertex 17.64502716064453 -16.268463134765625 0
      vertex 18.029056549072266 -16.24430274963379 0
    endloop
  endfacet
  facet normal 1 0 0
    outer loop
      vertex 16.048973083496094 -18.21666717529297 4
      vertex 16.048973083496094 -17.968088150024414 0
      vertex 16.048973083496094 -17.968088150024414 4
    endloop
  endfacet
  facet normal 1 0 0
    outer loop
      vertex 16.048973083496094 -17.968088150024414 0
      vertex 16.048973083496094 -18.21666717529297 4
      vertex 16.048973083496094 -18.21666717529297 0
    endloop
  endfacet
  facet normal 0.7289712858723775 -0.6845442749549312 0
    outer loop
      vertex 16.41211700439453 -17.050891876220703 4
      vertex 16.75244140625 -16.688480377197266 0
      vertex 16.75244140625 -16.688480377197266 4
    endloop
  endfacet
  facet normal 0.7289712858723775 -0.6845442749549312 0
    outer loop
      vertex 16.75244140625 -16.688480377197266 0
      vertex 16.41211700439453 -17.050891876220703 4
      vertex 16.41211700439453 -17.050891876220703 0
    endloop
  endfacet
  facet normal -0.8090173638246766 0.5877847437882093 0
    outer loop
      vertex 19.462453842163086 -19.574352264404297 0
      vertex 19.754674911499023 -19.172143936157227 4
      vertex 19.754674911499023 -19.172143936157227 0
    endloop
  endfacet
  facet normal -0.8090173638246766 0.5877847437882093 0
    outer loop
      vertex 19.754674911499023 -19.172143936157227 4
      vertex 19.462453842163086 -19.574352264404297 0
      vertex 19.462453842163086 -19.574352264404297 4
    endloop
  endfacet
  facet normal -0.9921148310483547 0.12533220661065 0
    outer loop
      vertex 19.93769073486328 -18.70989990234375 0
      vertex 20 -18.21666717529297 4
      vertex 20 -18.21666717529297 0
    endloop
  endfacet
  facet normal -0.9921148310483547 0.12533220661065 0
    outer loop
      vertex 20 -18.21666717529297 4
      vertex 19.93769073486328 -18.70989990234375 0
      vertex 19.93769073486328 -18.70989990234375 4
    endloop
  endfacet
  facet normal 0.30901597755741966 -0.9510568466785949 0
    outer loop
      vertex 17.172203063964844 -16.42209243774414 0
      vertex 17.64502716064453 -16.268463134765625 4
      vertex 17.172203063964844 -16.42209243774414 4
    endloop
  endfacet
  facet normal 0.30901597755741966 -0.9510568466785949 0
    outer loop
      vertex 17.64502716064453 -16.268463134765625 4
      vertex 17.172203063964844 -16.42209243774414 0
      vertex 17.64502716064453 -16.268463134765625 0
    endloop
  endfacet
  facet normal 0.5358254916672393 -0.844328752607396 0
    outer loop
      vertex 16.75244140625 -16.688480377197266 0
      vertex 17.172203063964844 -16.42209243774414 4
      vertex 16.75244140625 -16.688480377197266 4
    endloop
  endfacet
  facet normal 0.5358254916672393 -0.844328752607396 0
    outer loop
      vertex 17.172203063964844 -16.42209243774414 4
      vertex 16.75244140625 -16.688480377197266 0
      vertex 17.172203063964844 -16.42209243774414 0
    endloop
  endfacet
  facet normal -0.9297761668006657 0.36812535860690276 0
    outer loop
      vertex 19.754674911499023 -19.172143936157227 0
      vertex 19.93769073486328 -18.70989990234375 4
      vertex 19.93769073486328 -18.70989990234375 0
    endloop
  endfacet
  facet normal -0.9297761668006657 0.36812535860690276 0
    outer loop
      vertex 19.93769073486328 -18.70989990234375 4
      vertex 19.754674911499023 -19.172143936157227 0
      vertex 19.754674911499023 -19.172143936157227 4
    endloop
  endfacet
  facet normal 0.8763059667812169 -0.4817549715193781 0
    outer loop
      vertex 16.172609329223633 -17.486553192138672 4
      vertex 16.41211700439453 -17.050891876220703 0
      vertex 16.41211700439453 -17.050891876220703 4
    endloop
  endfacet
  facet normal 0.8763059667812169 -0.4817549715193781 0
    outer loop
      vertex 16.41211700439453 -17.050891876220703 0
      vertex 16.172609329223633 -17.486553192138672 4
      vertex 16.172609329223633 -17.486553192138672 0
    endloop
  endfacet
  facet normal 0.9685836056419387 -0.24868815589340262 0
    outer loop
      vertex 16.048973083496094 -17.968088150024414 4
      vertex 16.172609329223633 -17.486553192138672 0
      vertex 16.172609329223633 -17.486553192138672 4
    endloop
  endfacet
  facet normal 0.9685836056419387 -0.24868815589340262 0
    outer loop
      vertex 16.172609329223633 -17.486553192138672 0
      vertex 16.048973083496094 -17.968088150024414 4
      vertex 16.048973083496094 -17.968088150024414 0
    endloop
  endfacet
  facet normal -1 0 0
    outer loop
      vertex 19.099998474121094 -20.65771484375 0
      vertex 19.099998474121094 -19.87419891357422 4
      vertex 19.099998474121094 -19.87419891357422 0
    endloop
  endfacet
  facet normal -1 0 0
    outer loop
      vertex 19.099998474121094 -19.87419891357422 4
      vertex 19.099998474121094 -20.65771484375 0
      vertex 19.099998474121094 -20.65771484375 4
    endloop
  endfacet
  facet normal 1 0 0
    outer loop
      vertex 16.03333282470703 -20.65771484375 4
      vertex 16.03333282470703 -18.21666717529297 0
      vertex 16.03333282470703 -18.21666717529297 4
    endloop
  endfacet
  facet normal 1 0 0
    outer loop
      vertex 16.03333282470703 -18.21666717529297 0
      vertex 16.03333282470703 -20.65771484375 4
      vertex 16.03333282470703 -20.65771484375 0
    endloop
  endfacet
  facet normal 0 -1 0
    outer loop
      vertex 16.03333282470703 -18.21666717529297 0
      vertex 16.048973083496094 -18.21666717529297 4
      vertex 16.03333282470703 -18.21666717529297 4
    endloop
  endfacet
  facet normal 0 -1 0
    outer loop
      vertex 16.048973083496094 -18.21666717529297 4
      vertex 16.03333282470703 -18.21666717529297 0
      vertex 16.048973083496094 -18.21666717529297 0
    endloop
  endfacet
  facet normal 0.7071057522792273 -0.7071078100923706 0
    outer loop
      vertex 15.7056303024292 -20.985416412353516 0
      vertex 16.03333282470703 -20.65771484375 4
      vertex 15.7056303024292 -20.985416412353516 4
    endloop
  endfacet
  facet normal 0.7071057522792273 -0.7071078100923706 0
    outer loop
      vertex 16.03333282470703 -20.65771484375 4
      vertex 15.7056303024292 -20.985416412353516 0
      vertex 16.03333282470703 -20.65771484375 0
    endloop
  endfacet
  facet normal -0.7071044622296215 -0.7071091001358685 0
    outer loop
      vertex 19.099998474121094 -20.65771484375 0
      vertex 19.390798568725586 -20.94851303100586 4
      vertex 19.099998474121094 -20.65771484375 4
    endloop
  endfacet
  facet normal -0.7071044622296215 -0.7071091001358685 0
    outer loop
      vertex 19.390798568725586 -20.94851303100586 4
      vertex 19.099998474121094 -20.65771484375 0
      vertex 19.390798568725586 -20.94851303100586 0
    endloop
  endfacet
  facet normal -0.3546051005036283 -0.9350161617302728 0
    outer loop
      vertex 19.12053680419922 -13.273957252502441 0
      vertex 19.568065643310547 -13.443682670593262 4
      vertex 19.12053680419922 -13.273957252502441 4
    endloop
  endfacet
  facet normal -0.3546051005036283 -0.9350161617302728 0
    outer loop
      vertex 19.568065643310547 -13.443682670593262 4
      vertex 19.12053680419922 -13.273957252502441 0
      vertex 19.568065643310547 -13.443682670593262 0
    endloop
  endfacet
  facet normal 1 0 0
    outer loop
      vertex 18.029056549072266 -16.24430274963379 4
      vertex 18.029056549072266 -14.027350425720215 0
      vertex 18.029056549072266 -14.027350425720215 4
    endloop
  endfacet
  facet normal 1 0 0
    outer loop
      vertex 18.029056549072266 -14.027350425720215 0
      vertex 18.029056549072266 -16.24430274963379 4
      vertex 18.029056549072266 -16.24430274963379 0
    endloop
  endfacet
  facet normal -0.9709418959937222 -0.23931534552576447 0
    outer loop
      vertex 20 -14.266666412353516 0
      vertex 19.885456085205078 -13.801942825317383 4
      vertex 19.885456085205078 -13.801942825317383 0
    endloop
  endfacet
  facet normal -0.9709418959937222 -0.23931534552576447 0
    outer loop
      vertex 19.885456085205078 -13.801942825317383 4
      vertex 20 -14.266666412353516 0
      vertex 20 -14.266666412353516 4
    endloop
  endfacet
  facet normal 0.5680648453819412 -0.822983797799927 0
    outer loop
      vertex 18.251487731933594 -13.603543281555176 0
      vertex 18.64539337158203 -13.331649780273438 4
      vertex 18.251487731933594 -13.603543281555176 4
    endloop
  endfacet
  facet normal 0.5680648453819412 -0.822983797799927 0
    outer loop
      vertex 18.64539337158203 -13.331649780273438 4
      vertex 18.251487731933594 -13.603543281555176 0
      vertex 18.64539337158203 -13.331649780273438 0
    endloop
  endfacet
  facet normal 0.12053600053664341 -0.992708956630608 0
    outer loop
      vertex 18.64539337158203 -13.331649780273438 0
      vertex 19.12053680419922 -13.273957252502441 4
      vertex 18.64539337158203 -13.331649780273438 4
    endloop
  endfacet
  facet normal 0.12053600053664341 -0.992708956630608 0
    outer loop
      vertex 19.12053680419922 -13.273957252502441 4
      vertex 18.64539337158203 -13.331649780273438 0
      vertex 19.12053680419922 -13.273957252502441 0
    endloop
  endfacet
  facet normal -0.7485111208837645 -0.6631222375349286 0
    outer loop
      vertex 19.885456085205078 -13.801942825317383 0
      vertex 19.568065643310547 -13.443682670593262 4
      vertex 19.568065643310547 -13.443682670593262 0
    endloop
  endfacet
  facet normal -0.7485111208837645 -0.6631222375349286 0
    outer loop
      vertex 19.568065643310547 -13.443682670593262 4
      vertex 19.885456085205078 -13.801942825317383 0
      vertex 19.885456085205078 -13.801942825317383 4
    endloop
  endfacet
  facet normal -1 0 0
    outer loop
      vertex 20 -18.21666717529297 0
      vertex 20 -14.266666412353516 4
      vertex 20 -14.266666412353516 0
    endloop
  endfacet
  facet normal -1 0 0
    outer loop
      vertex 20 -14.266666412353516 4
      vertex 20 -18.21666717529297 0
      vertex 20 -18.21666717529297 4
    endloop
  endfacet
  facet normal 0.8854559957612744 -0.46472322899808866 0
    outer loop
      vertex 18.029056549072266 -14.027350425720215 4
      vertex 18.251487731933594 -13.603543281555176 0
      vertex 18.251487731933594 -13.603543281555176 4
    endloop
  endfacet
  facet normal 0.8854559957612744 -0.46472322899808866 0
    outer loop
      vertex 18.251487731933594 -13.603543281555176 0
      vertex 18.029056549072266 -14.027350425720215 4
      vertex 18.029056549072266 -14.027350425720215 0
    endloop
  endfacet
  facet normal 0.987688353526168 -0.15643438339689722 0
    outer loop
      vertex -18.53333282470703 -18.33333396911621 4
      vertex -18.45828628540039 -17.859508514404297 0
      vertex -18.45828628540039 -17.859508514404297 4
    endloop
  endfacet
  facet normal 0.987688353526168 -0.15643438339689722 0
    outer loop
      vertex -18.45828628540039 -17.859508514404297 0
      vertex -18.53333282470703 -18.33333396911621 4
      vertex -18.53333282470703 -18.33333396911621 0
    endloop
  endfacet
  facet normal 0.7071067811865475 0.7071067811865475 0
    outer loop
      vertex -16.48967933654785 -20.985416412353516 4
      vertex -18.24049186706543 -19.234603881835938 0
      vertex -18.24049186706543 -19.234603881835938 4
    endloop
  endfacet
  facet normal 0.7071067811865475 0.7071067811865475 0
    outer loop
      vertex -18.24049186706543 -19.234603881835938 0
      vertex -16.48967933654785 -20.985416412353516 4
      vertex -16.48967933654785 -20.985416412353516 0
    endloop
  endfacet
  facet normal -0.7071066079465681 -0.7071069544264846 0
    outer loop
      vertex -16.09872817993164 -17.09284210205078 0
      vertex -12.206151962280273 -20.985416412353516 4
      vertex -16.09872817993164 -17.09284210205078 4
    endloop
  endfacet
  facet normal -0.7071066079465681 -0.7071069544264846 0
    outer loop
      vertex -12.206151962280273 -20.985416412353516 4
      vertex -16.09872817993164 -17.09284210205078 0
      vertex -12.206151962280273 -20.985416412353516 0
    endloop
  endfacet
  facet normal 0.8910060277690803 0.4539914740159389 0
    outer loop
      vertex -18.24049186706543 -19.234603881835938 4
      vertex -18.45828628540039 -18.807159423828125 0
      vertex -18.45828628540039 -18.807159423828125 4
    endloop
  endfacet
  facet normal 0.8910060277690803 0.4539914740159389 0
    outer loop
      vertex -18.45828628540039 -18.807159423828125 0
      vertex -18.24049186706543 -19.234603881835938 4
      vertex -18.24049186706543 -19.234603881835938 0
    endloop
  endfacet
  facet normal 0.4539946304094522 -0.891004419494867 0
    outer loop
      vertex -17.901269912719727 -17.09284210205078 0
      vertex -17.473825454711914 -16.875045776367188 4
      vertex -17.901269912719727 -17.09284210205078 4
    endloop
  endfacet
  facet normal 0.4539946304094522 -0.891004419494867 0
    outer loop
      vertex -17.473825454711914 -16.875045776367188 4
      vertex -17.901269912719727 -17.09284210205078 0
      vertex -17.473825454711914 -16.875045776367188 0
    endloop
  endfacet
  facet normal 0.8910060277690803 -0.4539914740159389 0
    outer loop
      vertex -18.45828628540039 -17.859508514404297 4
      vertex -18.24049186706543 -17.432064056396484 0
      vertex -18.24049186706543 -17.432064056396484 4
    endloop
  endfacet
  facet normal 0.8910060277690803 -0.4539914740159389 0
    outer loop
      vertex -18.24049186706543 -17.432064056396484 0
      vertex -18.45828628540039 -17.859508514404297 4
      vertex -18.45828628540039 -17.859508514404297 0
    endloop
  endfacet
  facet normal 0.7071067811865476 -0.7071067811865476 0
    outer loop
      vertex -18.24049186706543 -17.432064056396484 4
      vertex -17.901269912719727 -17.09284210205078 0
      vertex -17.901269912719727 -17.09284210205078 4
    endloop
  endfacet
  facet normal 0.7071067811865476 -0.7071067811865476 0
    outer loop
      vertex -17.901269912719727 -17.09284210205078 0
      vertex -18.24049186706543 -17.432064056396484 4
      vertex -18.24049186706543 -17.432064056396484 0
    endloop
  endfacet
  facet normal 0.987688353526168 0.15643438339689722 0
    outer loop
      vertex -18.45828628540039 -18.807159423828125 4
      vertex -18.53333282470703 -18.33333396911621 0
      vertex -18.53333282470703 -18.33333396911621 4
    endloop
  endfacet
  facet normal 0.987688353526168 0.15643438339689722 0
    outer loop
      vertex -18.53333282470703 -18.33333396911621 0
      vertex -18.45828628540039 -18.807159423828125 4
      vertex -18.45828628540039 -18.807159423828125 0
    endloop
  endfacet
  facet normal 0.15643438339689722 -0.987688353526168 0
    outer loop
      vertex -17.473825454711914 -16.875045776367188 0
      vertex -17 -16.799999237060547 4
      vertex -17.473825454711914 -16.875045776367188 4
    endloop
  endfacet
  facet normal 0.15643438339689722 -0.987688353526168 0
    outer loop
      vertex -17 -16.799999237060547 4
      vertex -17.473825454711914 -16.875045776367188 0
      vertex -17 -16.799999237060547 0
    endloop
  endfacet
  facet normal -0.1564337690946692 -0.9876884508218347 0
    outer loop
      vertex -17 -16.799999237060547 0
      vertex -16.526172637939453 -16.875045776367188 4
      vertex -17 -16.799999237060547 4
    endloop
  endfacet
  facet normal -0.1564337690946692 -0.9876884508218347 0
    outer loop
      vertex -16.526172637939453 -16.875045776367188 4
      vertex -17 -16.799999237060547 0
      vertex -16.526172637939453 -16.875045776367188 0
    endloop
  endfacet
  facet normal -0.4539946304094522 -0.891004419494867 0
    outer loop
      vertex -16.526172637939453 -16.875045776367188 0
      vertex -16.09872817993164 -17.09284210205078 4
      vertex -16.526172637939453 -16.875045776367188 4
    endloop
  endfacet
  facet normal -0.4539946304094522 -0.891004419494867 0
    outer loop
      vertex -16.09872817993164 -17.09284210205078 4
      vertex -16.526172637939453 -16.875045776367188 0
      vertex -16.09872817993164 -17.09284210205078 0
    endloop
  endfacet
  facet normal -0.464724656319929 -0.8854552466433997 0
    outer loop
      vertex -20.13612937927246 -20.645967483520508 0
      vertex -19.709209442138672 -20.870033264160156 4
      vertex -20.13612937927246 -20.645967483520508 4
    endloop
  endfacet
  facet normal -0.464724656319929 -0.8854552466433997 0
    outer loop
      vertex -19.709209442138672 -20.870033264160156 4
      vertex -20.13612937927246 -20.645967483520508 0
      vertex -19.709209442138672 -20.870033264160156 0
    endloop
  endfacet
  facet normal -1 0 0
    outer loop
      vertex -21 -19 0
      vertex -21 19 4
      vertex -21 19 0
    endloop
  endfacet
  facet normal -1 0 0
    outer loop
      vertex -21 19 4
      vertex -21 -19 0
      vertex -21 -19 4
    endloop
  endfacet
  facet normal 0.8229817994973584 0.5680677404113791 0
    outer loop
      vertex 20.770912170410156 19.929447174072266 4
      vertex 20.497020721435547 20.326244354248047 0
      vertex 20.497020721435547 20.326244354248047 4
    endloop
  endfacet
  facet normal 0.8229817994973584 0.5680677404113791 0
    outer loop
      vertex 20.497020721435547 20.326244354248047 0
      vertex 20.770912170410156 19.929447174072266 4
      vertex 20.770912170410156 19.929447174072266 0
    endloop
  endfacet
  facet normal 0 1 0
    outer loop
      vertex 19.241073608398438 20.985416412353516 0
      vertex -19.241073608398438 20.985416412353516 4
      vertex 19.241073608398438 20.985416412353516 4
    endloop
  endfacet
  facet normal 0 1 0
    outer loop
      vertex -19.241073608398438 20.985416412353516 4
      vertex 19.241073608398438 20.985416412353516 0
      vertex -19.241073608398438 20.985416412353516 0
    endloop
  endfacet
  facet normal -0.9350172469839487 -0.35460223891362763 0
    outer loop
      vertex -20.770912170410156 -19.929447174072266 0
      vertex -20.941883087158203 -19.47863006591797 4
      vertex -20.941883087158203 -19.47863006591797 0
    endloop
  endfacet
  facet normal -0.9350172469839487 -0.35460223891362763 0
    outer loop
      vertex -20.941883087158203 -19.47863006591797 4
      vertex -20.770912170410156 -19.929447174072266 0
      vertex -20.770912170410156 -19.929447174072266 4
    endloop
  endfacet
  facet normal -0.2393118090366464 -0.9709427676519393 0
    outer loop
      vertex -19.709209442138672 -20.870033264160156 0
      vertex -19.241073608398438 -20.985416412353516 4
      vertex -19.709209442138672 -20.870033264160156 4
    endloop
  endfacet
  facet normal -0.2393118090366464 -0.9709427676519393 0
    outer loop
      vertex -19.241073608398438 -20.985416412353516 4
      vertex -19.709209442138672 -20.870033264160156 0
      vertex -19.241073608398438 -20.985416412353516 0
    endloop
  endfacet
  facet normal 0 -1 0
    outer loop
      vertex -19.241073608398438 -20.985416412353516 0
      vertex -16.48967933654785 -20.985416412353516 4
      vertex -19.241073608398438 -20.985416412353516 4
    endloop
  endfacet
  facet normal 0 -1 0
    outer loop
      vertex -16.48967933654785 -20.985416412353516 4
      vertex -19.241073608398438 -20.985416412353516 0
      vertex -16.48967933654785 -20.985416412353516 0
    endloop
  endfacet
  facet normal 0 -1 0
    outer loop
      vertex -12.206151962280273 -20.985416412353516 0
      vertex 15.7056303024292 -20.985416412353516 4
      vertex -12.206151962280273 -20.985416412353516 4
    endloop
  endfacet
  facet normal 0 -1 0
    outer loop
      vertex 15.7056303024292 -20.985416412353516 4
      vertex -12.206151962280273 -20.985416412353516 0
      vertex 15.7056303024292 -20.985416412353516 0
    endloop
  endfacet
  facet normal 0.9350172469839487 0.35460223891362763 0
    outer loop
      vertex 20.941883087158203 19.47863006591797 4
      vertex 20.770912170410156 19.929447174072266 0
      vertex 20.770912170410156 19.929447174072266 4
    endloop
  endfacet
  facet normal 0.9350172469839487 0.35460223891362763 0
    outer loop
      vertex 20.770912170410156 19.929447174072266 0
      vertex 20.941883087158203 19.47863006591797 4
      vertex 20.941883087158203 19.47863006591797 0
    endloop
  endfacet
  facet normal 0.9350172469839487 -0.35460223891362763 0
    outer loop
      vertex 20.770912170410156 -19.929447174072266 4
      vertex 20.941883087158203 -19.47863006591797 0
      vertex 20.941883087158203 -19.47863006591797 4
    endloop
  endfacet
  facet normal 0.9350172469839487 -0.35460223891362763 0
    outer loop
      vertex 20.941883087158203 -19.47863006591797 0
      vertex 20.770912170410156 -19.929447174072266 4
      vertex 20.770912170410156 -19.929447174072266 0
    endloop
  endfacet
  facet normal 0.663124168075928 0.7485094105711754 0
    outer loop
      vertex 20.497020721435547 20.326244354248047 0
      vertex 20.13612937927246 20.645967483520508 4
      vertex 20.497020721435547 20.326244354248047 4
    endloop
  endfacet
  facet normal 0.663124168075928 0.7485094105711754 0
    outer loop
      vertex 20.13612937927246 20.645967483520508 4
      vertex 20.497020721435547 20.326244354248047 0
      vertex 20.13612937927246 20.645967483520508 0
    endloop
  endfacet
  facet normal 0.663124168075928 -0.7485094105711754 0
    outer loop
      vertex 20.13612937927246 -20.645967483520508 0
      vertex 20.497020721435547 -20.326244354248047 4
      vertex 20.13612937927246 -20.645967483520508 4
    endloop
  endfacet
  facet normal 0.663124168075928 -0.7485094105711754 0
    outer loop
      vertex 20.497020721435547 -20.326244354248047 4
      vertex 20.13612937927246 -20.645967483520508 0
      vertex 20.497020721435547 -20.326244354248047 0
    endloop
  endfacet
  facet normal 1 0 0
    outer loop
      vertex 21 -19 4
      vertex 21 19 0
      vertex 21 19 4
    endloop
  endfacet
  facet normal 1 0 0
    outer loop
      vertex 21 19 0
      vertex 21 -19 4
      vertex 21 -19 0
    endloop
  endfacet
  facet normal -0.2393118090366464 0.9709427676519393 0
    outer loop
      vertex -19.241073608398438 20.985416412353516 0
      vertex -19.709209442138672 20.870033264160156 4
      vertex -19.241073608398438 20.985416412353516 4
    endloop
  endfacet
  facet normal -0.2393118090366464 0.9709427676519393 0
    outer loop
      vertex -19.709209442138672 20.870033264160156 4
      vertex -19.241073608398438 20.985416412353516 0
      vertex -19.709209442138672 20.870033264160156 0
    endloop
  endfacet
  facet normal -0.9927087001223174 -0.12053811306578072 0
    outer loop
      vertex -20.941883087158203 -19.47863006591797 0
      vertex -21 -19 4
      vertex -21 -19 0
    endloop
  endfacet
  facet normal -0.9927087001223174 -0.12053811306578072 0
    outer loop
      vertex -21 -19 4
      vertex -20.941883087158203 -19.47863006591797 0
      vertex -20.941883087158203 -19.47863006591797 4
    endloop
  endfacet
  facet normal -0.464724656319929 0.8854552466433997 0
    outer loop
      vertex -19.709209442138672 20.870033264160156 0
      vertex -20.13612937927246 20.645967483520508 4
      vertex -19.709209442138672 20.870033264160156 4
    endloop
  endfacet
  facet normal -0.464724656319929 0.8854552466433997 0
    outer loop
      vertex -20.13612937927246 20.645967483520508 4
      vertex -19.709209442138672 20.870033264160156 0
      vertex -20.13612937927246 20.645967483520508 0
    endloop
  endfacet
  facet normal -0.8229817994973584 -0.5680677404113791 0
    outer loop
      vertex -20.497020721435547 -20.326244354248047 0
      vertex -20.770912170410156 -19.929447174072266 4
      vertex -20.770912170410156 -19.929447174072266 0
    endloop
  endfacet
  facet normal -0.8229817994973584 -0.5680677404113791 0
    outer loop
      vertex -20.770912170410156 -19.929447174072266 4
      vertex -20.497020721435547 -20.326244354248047 0
      vertex -20.497020721435547 -20.326244354248047 4
    endloop
  endfacet
  facet normal 0.9927087001223174 -0.12053811306578072 0
    outer loop
      vertex 20.941883087158203 -19.47863006591797 4
      vertex 21 -19 0
      vertex 21 -19 4
    endloop
  endfacet
  facet normal 0.9927087001223174 -0.12053811306578072 0
    outer loop
      vertex 21 -19 0
      vertex 20.941883087158203 -19.47863006591797 4
      vertex 20.941883087158203 -19.47863006591797 0
    endloop
  endfacet
  facet normal -0.663124168075928 -0.7485094105711754 0
    outer loop
      vertex -20.497020721435547 -20.326244354248047 0
      vertex -20.13612937927246 -20.645967483520508 4
      vertex -20.497020721435547 -20.326244354248047 4
    endloop
  endfacet
  facet normal -0.663124168075928 -0.7485094105711754 0
    outer loop
      vertex -20.13612937927246 -20.645967483520508 4
      vertex -20.497020721435547 -20.326244354248047 0
      vertex -20.13612937927246 -20.645967483520508 0
    endloop
  endfacet
  facet normal -0.663124168075928 0.7485094105711754 0
    outer loop
      vertex -20.13612937927246 20.645967483520508 0
      vertex -20.497020721435547 20.326244354248047 4
      vertex -20.13612937927246 20.645967483520508 4
    endloop
  endfacet
  facet normal -0.663124168075928 0.7485094105711754 0
    outer loop
      vertex -20.497020721435547 20.326244354248047 4
      vertex -20.13612937927246 20.645967483520508 0
      vertex -20.497020721435547 20.326244354248047 0
    endloop
  endfacet
  facet normal 0.8229817994973584 -0.5680677404113791 0
    outer loop
      vertex 20.497020721435547 -20.326244354248047 4
      vertex 20.770912170410156 -19.929447174072266 0
      vertex 20.770912170410156 -19.929447174072266 4
    endloop
  endfacet
  facet normal 0.8229817994973584 -0.5680677404113791 0
    outer loop
      vertex 20.770912170410156 -19.929447174072266 0
      vertex 20.497020721435547 -20.326244354248047 4
      vertex 20.497020721435547 -20.326244354248047 0
    endloop
  endfacet
  facet normal -0.9927087001223174 0.12053811306578072 0
    outer loop
      vertex -21 19 0
      vertex -20.941883087158203 19.47863006591797 4
      vertex -20.941883087158203 19.47863006591797 0
    endloop
  endfacet
  facet normal -0.9927087001223174 0.12053811306578072 0
    outer loop
      vertex -20.941883087158203 19.47863006591797 4
      vertex -21 19 0
      vertex -21 19 4
    endloop
  endfacet
  facet normal 0.464724656319929 -0.8854552466433997 0
    outer loop
      vertex 19.709209442138672 -20.870033264160156 0
      vertex 20.13612937927246 -20.645967483520508 4
      vertex 19.709209442138672 -20.870033264160156 4
    endloop
  endfacet
  facet normal 0.464724656319929 -0.8854552466433997 0
    outer loop
      vertex 20.13612937927246 -20.645967483520508 4
      vertex 19.709209442138672 -20.870033264160156 0
      vertex 20.13612937927246 -20.645967483520508 0
    endloop
  endfacet
  facet normal 0.23931145343002286 -0.9709428552995331 0
    outer loop
      vertex 19.390798568725586 -20.94851303100586 0
      vertex 19.709209442138672 -20.870033264160156 4
      vertex 19.390798568725586 -20.94851303100586 4
    endloop
  endfacet
  facet normal 0.23931145343002286 -0.9709428552995331 0
    outer loop
      vertex 19.709209442138672 -20.870033264160156 4
      vertex 19.390798568725586 -20.94851303100586 0
      vertex 19.709209442138672 -20.870033264160156 0
    endloop
  endfacet
  facet normal 0 0 -1
    outer loop
      vertex -20.13612937927246 -20.645967483520508 0
      vertex -18.24049186706543 -19.234603881835938 0
      vertex -19.709209442138672 -20.870033264160156 0
    endloop
  endfacet
  facet normal 0 0 -1
    outer loop
      vertex -19.709209442138672 -20.870033264160156 0
      vertex -18.24049186706543 -19.234603881835938 0
      vertex -19.241073608398438 -20.985416412353516 0
    endloop
  endfacet
  facet normal 0 0 -1
    outer loop
      vertex -19.241073608398438 -20.985416412353516 0
      vertex -18.24049186706543 -19.234603881835938 0
      vertex -16.48967933654785 -20.985416412353516 0
    endloop
  endfacet
  facet normal 0 0 -1
    outer loop
      vertex 16.03333282470703 -20.65771484375 0
      vertex 15.7056303024292 -20.985416412353516 0
      vertex 16.03333282470703 -18.21666717529297 0
    endloop
  endfacet
  facet normal 0 0 -1
    outer loop
      vertex 16.048973083496094 -18.21666717529297 0
      vertex 16.03333282470703 -18.21666717529297 0
      vertex 16.048973083496094 -17.968088150024414 0
    endloop
  endfacet
  facet normal 0 0 -1
    outer loop
      vertex 18.029056549072266 -16.24430274963379 0
      vertex 17.64502716064453 -16.268463134765625 0
      vertex 18.029056549072266 -14.027350425720215 0
    endloop
  endfacet
  facet normal 0 0 -1
    outer loop
      vertex 19.754674911499023 -19.172143936157227 0
      vertex 21 -19 0
      vertex 20.941883087158203 -19.47863006591797 0
    endloop
  endfacet
  facet normal 0 0 -1
    outer loop
      vertex 21 -19 0
      vertex 20 -14.266666412353516 0
      vertex 21 19 0
    endloop
  endfacet
  facet normal 0 0 -1
    outer loop
      vertex 19.754674911499023 -19.172143936157227 0
      vertex 20.941883087158203 -19.47863006591797 0
      vertex 20.770912170410156 -19.929447174072266 0
    endloop
  endfacet
  facet normal 0 0 -1
    outer loop
      vertex 19.885456085205078 -13.801942825317383 0
      vertex 21 19 0
      vertex 20 -14.266666412353516 0
    endloop
  endfacet
  facet normal 0 0 -1
    outer loop
      vertex 19.462453842163086 -19.574352264404297 0
      vertex 20.770912170410156 -19.929447174072266 0
      vertex 20.497020721435547 -20.326244354248047 0
    endloop
  endfacet
  facet normal 0 0 -1
    outer loop
      vertex 19.568065643310547 -13.443682670593262 0
      vertex 21 19 0
      vertex 19.885456085205078 -13.801942825317383 0
    endloop
  endfacet
  facet normal 0 0 -1
    outer loop
      vertex 19.462453842163086 -19.574352264404297 0
      vertex 20.497020721435547 -20.326244354248047 0
      vertex 20.13612937927246 -20.645967483520508 0
    endloop
  endfacet
  facet normal 0 0 -1
    outer loop
      vertex 19.12053680419922 -13.273957252502441 0
      vertex 21 19 0
      vertex 19.568065643310547 -13.443682670593262 0
    endloop
  endfacet
  facet normal 0 0 -1
    outer loop
      vertex 21 -19 0
      vertex 20 -18.21666717529297 0
      vertex 20 -14.266666412353516 0
    endloop
  endfacet
  facet normal 0 0 -1
    outer loop
      vertex 21 -19 0
      vertex 19.93769073486328 -18.70989990234375 0
      vertex 20 -18.21666717529297 0
    endloop
  endfacet
  facet normal 0 0 -1
    outer loop
      vertex 21 -19 0
      vertex 19.754674911499023 -19.172143936157227 0
      vertex 19.93769073486328 -18.70989990234375 0
    endloop
  endfacet
  facet normal 0 0 -1
    outer loop
      vertex 19.099998474121094 -19.87419891357422 0
      vertex 20.13612937927246 -20.645967483520508 0
      vertex 19.709209442138672 -20.870033264160156 0
    endloop
  endfacet
  facet normal 0 0 -1
    outer loop
      vertex 20.770912170410156 -19.929447174072266 0
      vertex 19.462453842163086 -19.574352264404297 0
      vertex 19.754674911499023 -19.172143936157227 0
    endloop
  endfacet
  facet normal 0 0 -1
    outer loop
      vertex 19.099998474121094 -20.65771484375 0
      vertex 19.709209442138672 -20.870033264160156 0
      vertex 19.390798568725586 -20.94851303100586 0
    endloop
  endfacet
  facet normal 0 0 -1
    outer loop
      vertex 19.099998474121094 -19.87419891357422 0
      vertex 19.709209442138672 -20.870033264160156 0
      vertex 19.099998474121094 -20.65771484375 0
    endloop
  endfacet
  facet normal 0 0 -1
    outer loop
      vertex 20.13612937927246 -20.645967483520508 0
      vertex 19.099998474121094 -19.87419891357422 0
      vertex 19.462453842163086 -19.574352264404297 0
    endloop
  endfacet
  facet normal 0 0 -1
    outer loop
      vertex 18.64539337158203 -13.331649780273438 0
      vertex 21 19 0
      vertex 19.12053680419922 -13.273957252502441 0
    endloop
  endfacet
  facet normal 0 0 -1
    outer loop
      vertex 18.251487731933594 -13.603543281555176 0
      vertex 21 19 0
      vertex 18.64539337158203 -13.331649780273438 0
    endloop
  endfacet
  facet normal 0 0 -1
    outer loop
      vertex 19.241073608398438 20.985416412353516 0
      vertex 21 19 0
      vertex 18.251487731933594 -13.603543281555176 0
    endloop
  endfacet
  facet normal 0 0 -1
    outer loop
      vertex 20.941883087158203 19.47863006591797 0
      vertex 19.241073608398438 20.985416412353516 0
      vertex 20.770912170410156 19.929447174072266 0
    endloop
  endfacet
  facet normal 0 0 -1
    outer loop
      vertex 20.770912170410156 19.929447174072266 0
      vertex 19.241073608398438 20.985416412353516 0
      vertex 20.497020721435547 20.326244354248047 0
    endloop
  endfacet
  facet normal 0 0 -1
    outer loop
      vertex 20.497020721435547 20.326244354248047 0
      vertex 19.241073608398438 20.985416412353516 0
      vertex 20.13612937927246 20.645967483520508 0
    endloop
  endfacet
  facet normal 0 0 -1
    outer loop
      vertex 20.13612937927246 20.645967483520508 0
      vertex 19.241073608398438 20.985416412353516 0
      vertex 19.709209442138672 20.870033264160156 0
    endloop
  endfacet
  facet normal 0 0 -1
    outer loop
      vertex 21 19 0
      vertex 19.241073608398438 20.985416412353516 0
      vertex 20.941883087158203 19.47863006591797 0
    endloop
  endfacet
  facet normal 0 0 -1
    outer loop
      vertex -16.09872817993164 -17.09284210205078 0
      vertex 18.251487731933594 -13.603543281555176 0
      vertex 18.029056549072266 -14.027350425720215 0
    endloop
  endfacet
  facet normal 0 0 -1
    outer loop
      vertex 17.172203063964844 -16.42209243774414 0
      vertex 18.029056549072266 -14.027350425720215 0
      vertex 17.64502716064453 -16.268463134765625 0
    endloop
  endfacet
  facet normal 0 0 -1
    outer loop
      vertex 16.75244140625 -16.688480377197266 0
      vertex 18.029056549072266 -14.027350425720215 0
      vertex 17.172203063964844 -16.42209243774414 0
    endloop
  endfacet
  facet normal 0 0 -1
    outer loop
      vertex 16.41211700439453 -17.050891876220703 0
      vertex 18.029056549072266 -14.027350425720215 0
      vertex 16.75244140625 -16.688480377197266 0
    endloop
  endfacet
  facet normal 0 0 -1
    outer loop
      vertex -12.206151962280273 -20.985416412353516 0
      vertex 18.029056549072266 -14.027350425720215 0
      vertex 16.41211700439453 -17.050891876220703 0
    endloop
  endfacet
  facet normal 0 0 -1
    outer loop
      vertex -12.206151962280273 -20.985416412353516 0
      vertex 16.41211700439453 -17.050891876220703 0
      vertex 16.172609329223633 -17.486553192138672 0
    endloop
  endfacet
  facet normal 0 0 -1
    outer loop
      vertex -12.206151962280273 -20.985416412353516 0
      vertex 16.172609329223633 -17.486553192138672 0
      vertex 16.048973083496094 -17.968088150024414 0
    endloop
  endfacet
  facet normal 0 0 -1
    outer loop
      vertex -12.206151962280273 -20.985416412353516 0
      vertex 16.03333282470703 -18.21666717529297 0
      vertex 15.7056303024292 -20.985416412353516 0
    endloop
  endfacet
  facet normal 0 0 -1
    outer loop
      vertex 16.03333282470703 -18.21666717529297 0
      vertex -12.206151962280273 -20.985416412353516 0
      vertex 16.048973083496094 -17.968088150024414 0
    endloop
  endfacet
  facet normal 0 0 -1
    outer loop
      vertex 18.029056549072266 -14.027350425720215 0
      vertex -12.206151962280273 -20.985416412353516 0
      vertex -16.09872817993164 -17.09284210205078 0
    endloop
  endfacet
  facet normal 0 0 -1
    outer loop
      vertex 18.251487731933594 -13.603543281555176 0
      vertex -16.09872817993164 -17.09284210205078 0
      vertex -19.241073608398438 20.985416412353516 0
    endloop
  endfacet
  facet normal 0 0 -1
    outer loop
      vertex -21 19 0
      vertex -16.09872817993164 -17.09284210205078 0
      vertex -16.526172637939453 -16.875045776367188 0
    endloop
  endfacet
  facet normal 0 0 -1
    outer loop
      vertex -21 19 0
      vertex -16.526172637939453 -16.875045776367188 0
      vertex -17 -16.799999237060547 0
    endloop
  endfacet
  facet normal 0 0 -1
    outer loop
      vertex -21 19 0
      vertex -17 -16.799999237060547 0
      vertex -17.473825454711914 -16.875045776367188 0
    endloop
  endfacet
  facet normal 0 0 -1
    outer loop
      vertex -21 19 0
      vertex -17.473825454711914 -16.875045776367188 0
      vertex -17.901269912719727 -17.09284210205078 0
    endloop
  endfacet
  facet normal 0 0 -1
    outer loop
      vertex -21 -19 0
      vertex -17.901269912719727 -17.09284210205078 0
      vertex -18.24049186706543 -17.432064056396484 0
    endloop
  endfacet
  facet normal 0 0 -1
    outer loop
      vertex -18.24049186706543 -19.234603881835938 0
      vertex -20.13612937927246 -20.645967483520508 0
      vertex -18.45828628540039 -18.807159423828125 0
    endloop
  endfacet
  facet normal 0 0 -1
    outer loop
      vertex 18.251487731933594 -13.603543281555176 0
      vertex -19.241073608398438 20.985416412353516 0
      vertex 19.241073608398438 20.985416412353516 0
    endloop
  endfacet
  facet normal 0 0 -1
    outer loop
      vertex -21 -19 0
      vertex -18.24049186706543 -17.432064056396484 0
      vertex -18.45828628540039 -17.859508514404297 0
    endloop
  endfacet
  facet normal 0 0 -1
    outer loop
      vertex -20.497020721435547 -20.326244354248047 0
      vertex -18.45828628540039 -18.807159423828125 0
      vertex -20.13612937927246 -20.645967483520508 0
    endloop
  endfacet
  facet normal 0 0 -1
    outer loop
      vertex -20.770912170410156 -19.929447174072266 0
      vertex -18.45828628540039 -18.807159423828125 0
      vertex -20.497020721435547 -20.326244354248047 0
    endloop
  endfacet
  facet normal 0 0 -1
    outer loop
      vertex -17.901269912719727 -17.09284210205078 0
      vertex -21 -19 0
      vertex -21 19 0
    endloop
  endfacet
  facet normal 0 0 -1
    outer loop
      vertex -20.941883087158203 -19.47863006591797 0
      vertex -18.45828628540039 -18.807159423828125 0
      vertex -20.770912170410156 -19.929447174072266 0
    endloop
  endfacet
  facet normal 0 0 -1
    outer loop
      vertex -16.09872817993164 -17.09284210205078 0
      vertex -21 19 0
      vertex -19.241073608398438 20.985416412353516 0
    endloop
  endfacet
  facet normal 0 0 -1
    outer loop
      vertex -21 -19 0
      vertex -18.45828628540039 -18.807159423828125 0
      vertex -20.941883087158203 -19.47863006591797 0
    endloop
  endfacet
  facet normal 0 0 -1
    outer loop
      vertex -19.241073608398438 20.985416412353516 0
      vertex -21 19 0
      vertex -19.709209442138672 20.870033264160156 0
    endloop
  endfacet
  facet normal 0 0 -1
    outer loop
      vertex -18.45828628540039 -18.807159423828125 0
      vertex -21 -19 0
      vertex -18.53333282470703 -18.33333396911621 0
    endloop
  endfacet
  facet normal 0 0 -1
    outer loop
      vertex -19.709209442138672 20.870033264160156 0
      vertex -21 19 0
      vertex -20.13612937927246 20.645967483520508 0
    endloop
  endfacet
  facet normal 0 0 -1
    outer loop
      vertex -18.53333282470703 -18.33333396911621 0
      vertex -21 -19 0
      vertex -18.45828628540039 -17.859508514404297 0
    endloop
  endfacet
  facet normal 0 0 -1
    outer loop
      vertex -20.13612937927246 20.645967483520508 0
      vertex -21 19 0
      vertex -20.497020721435547 20.326244354248047 0
    endloop
  endfacet
  facet normal 0 0 -1
    outer loop
      vertex -20.497020721435547 20.326244354248047 0
      vertex -21 19 0
      vertex -20.770912170410156 19.929447174072266 0
    endloop
  endfacet
  facet normal 0 0 -1
    outer loop
      vertex -20.770912170410156 19.929447174072266 0
      vertex -21 19 0
      vertex -20.941883087158203 19.47863006591797 0
    endloop
  endfacet
  facet normal -0.9350172469839487 0.35460223891362763 0
    outer loop
      vertex -20.941883087158203 19.47863006591797 0
      vertex -20.770912170410156 19.929447174072266 4
      vertex -20.770912170410156 19.929447174072266 0
    endloop
  endfacet
  facet normal -0.9350172469839487 0.35460223891362763 0
    outer loop
      vertex -20.770912170410156 19.929447174072266 4
      vertex -20.941883087158203 19.47863006591797 0
      vertex -20.941883087158203 19.47863006591797 4
    endloop
  endfacet
  facet normal 0.464724656319929 0.8854552466433997 0
    outer loop
      vertex 20.13612937927246 20.645967483520508 0
      vertex 19.709209442138672 20.870033264160156 4
      vertex 20.13612937927246 20.645967483520508 4
    endloop
  endfacet
  facet normal 0.464724656319929 0.8854552466433997 0
    outer loop
      vertex 19.709209442138672 20.870033264160156 4
      vertex 20.13612937927246 20.645967483520508 0
      vertex 19.709209442138672 20.870033264160156 0
    endloop
  endfacet
  facet normal 0.9927087001223174 0.12053811306578072 0
    outer loop
      vertex 21 19 4
      vertex 20.941883087158203 19.47863006591797 0
      vertex 20.941883087158203 19.47863006591797 4
    endloop
  endfacet
  facet normal 0.9927087001223174 0.12053811306578072 0
    outer loop
      vertex 20.941883087158203 19.47863006591797 0
      vertex 21 19 4
      vertex 21 19 0
    endloop
  endfacet
  facet normal 0 0 1
    outer loop
      vertex 19.241073608398438 20.985416412353516 4
      vertex 21 19 4
      vertex 20.941883087158203 19.47863006591797 4
    endloop
  endfacet
  facet normal 0 0 1
    outer loop
      vertex 21 19 4
      vertex 20 -14.266666412353516 4
      vertex 21 -19 4
    endloop
  endfacet
  facet normal 0 0 1
    outer loop
      vertex 19.241073608398438 20.985416412353516 4
      vertex 20.941883087158203 19.47863006591797 4
      vertex 20.770912170410156 19.929447174072266 4
    endloop
  endfacet
  facet normal 0 0 1
    outer loop
      vertex 20 -18.21666717529297 4
      vertex 21 -19 4
      vertex 20 -14.266666412353516 4
    endloop
  endfacet
  facet normal 0 0 1
    outer loop
      vertex 19.241073608398438 20.985416412353516 4
      vertex 20.770912170410156 19.929447174072266 4
      vertex 20.497020721435547 20.326244354248047 4
    endloop
  endfacet
  facet normal 0 0 1
    outer loop
      vertex 19.93769073486328 -18.70989990234375 4
      vertex 21 -19 4
      vertex 20 -18.21666717529297 4
    endloop
  endfacet
  facet normal 0 0 1
    outer loop
      vertex 19.241073608398438 20.985416412353516 4
      vertex 20.497020721435547 20.326244354248047 4
      vertex 20.13612937927246 20.645967483520508 4
    endloop
  endfacet
  facet normal 0 0 1
    outer loop
      vertex 19.754674911499023 -19.172143936157227 4
      vertex 21 -19 4
      vertex 19.93769073486328 -18.70989990234375 4
    endloop
  endfacet
  facet normal 0 0 1
    outer loop
      vertex 21 -19 4
      vertex 19.754674911499023 -19.172143936157227 4
      vertex 20.941883087158203 -19.47863006591797 4
    endloop
  endfacet
  facet normal 0 0 1
    outer loop
      vertex 21 19 4
      vertex 19.885456085205078 -13.801942825317383 4
      vertex 20 -14.266666412353516 4
    endloop
  endfacet
  facet normal 0 0 1
    outer loop
      vertex 19.241073608398438 20.985416412353516 4
      vertex 20.13612937927246 20.645967483520508 4
      vertex 19.709209442138672 20.870033264160156 4
    endloop
  endfacet
  facet normal 0 0 1
    outer loop
      vertex 21 19 4
      vertex 19.568065643310547 -13.443682670593262 4
      vertex 19.885456085205078 -13.801942825317383 4
    endloop
  endfacet
  facet normal 0 0 1
    outer loop
      vertex 21 19 4
      vertex 19.241073608398438 20.985416412353516 4
      vertex 18.251487731933594 -13.603543281555176 4
    endloop
  endfacet
  facet normal 0 0 1
    outer loop
      vertex 21 19 4
      vertex 19.12053680419922 -13.273957252502441 4
      vertex 19.568065643310547 -13.443682670593262 4
    endloop
  endfacet
  facet normal 0 0 1
    outer loop
      vertex 21 19 4
      vertex 18.64539337158203 -13.331649780273438 4
      vertex 19.12053680419922 -13.273957252502441 4
    endloop
  endfacet
  facet normal 0 0 1
    outer loop
      vertex 21 19 4
      vertex 18.251487731933594 -13.603543281555176 4
      vertex 18.64539337158203 -13.331649780273438 4
    endloop
  endfacet
  facet normal 0 0 1
    outer loop
      vertex -19.241073608398438 20.985416412353516 4
      vertex 18.251487731933594 -13.603543281555176 4
      vertex 19.241073608398438 20.985416412353516 4
    endloop
  endfacet
  facet normal 0 0 1
    outer loop
      vertex 18.029056549072266 -14.027350425720215 4
      vertex 17.64502716064453 -16.268463134765625 4
      vertex 18.029056549072266 -16.24430274963379 4
    endloop
  endfacet
  facet normal 0 0 1
    outer loop
      vertex -16.09872817993164 -17.09284210205078 4
      vertex 18.251487731933594 -13.603543281555176 4
      vertex -19.241073608398438 20.985416412353516 4
    endloop
  endfacet
  facet normal 0 0 1
    outer loop
      vertex 18.029056549072266 -14.027350425720215 4
      vertex 17.172203063964844 -16.42209243774414 4
      vertex 17.64502716064453 -16.268463134765625 4
    endloop
  endfacet
  facet normal 0 0 1
    outer loop
      vertex 18.029056549072266 -14.027350425720215 4
      vertex 16.75244140625 -16.688480377197266 4
      vertex 17.172203063964844 -16.42209243774414 4
    endloop
  endfacet
  facet normal 0 0 1
    outer loop
      vertex -12.206151962280273 -20.985416412353516 4
      vertex 18.029056549072266 -14.027350425720215 4
      vertex -16.09872817993164 -17.09284210205078 4
    endloop
  endfacet
  facet normal 0 0 1
    outer loop
      vertex 18.029056549072266 -14.027350425720215 4
      vertex 16.41211700439453 -17.050891876220703 4
      vertex 16.75244140625 -16.688480377197266 4
    endloop
  endfacet
  facet normal 0 0 1
    outer loop
      vertex 18.029056549072266 -14.027350425720215 4
      vertex -12.206151962280273 -20.985416412353516 4
      vertex 16.41211700439453 -17.050891876220703 4
    endloop
  endfacet
  facet normal 0 0 1
    outer loop
      vertex 16.048973083496094 -17.968088150024414 4
      vertex 16.03333282470703 -18.21666717529297 4
      vertex 16.048973083496094 -18.21666717529297 4
    endloop
  endfacet
  facet normal 0 0 1
    outer loop
      vertex 16.03333282470703 -18.21666717529297 4
      vertex 15.7056303024292 -20.985416412353516 4
      vertex 16.03333282470703 -20.65771484375 4
    endloop
  endfacet
  facet normal 0 0 1
    outer loop
      vertex -12.206151962280273 -20.985416412353516 4
      vertex 16.03333282470703 -18.21666717529297 4
      vertex 16.048973083496094 -17.968088150024414 4
    endloop
  endfacet
  facet normal 0 0 1
    outer loop
      vertex 16.41211700439453 -17.050891876220703 4
      vertex -12.206151962280273 -20.985416412353516 4
      vertex 16.172609329223633 -17.486553192138672 4
    endloop
  endfacet
  facet normal 0 0 1
    outer loop
      vertex 16.172609329223633 -17.486553192138672 4
      vertex -12.206151962280273 -20.985416412353516 4
      vertex 16.048973083496094 -17.968088150024414 4
    endloop
  endfacet
  facet normal 0 0 1
    outer loop
      vertex 16.03333282470703 -18.21666717529297 4
      vertex -12.206151962280273 -20.985416412353516 4
      vertex 15.7056303024292 -20.985416412353516 4
    endloop
  endfacet
  facet normal 0 0 1
    outer loop
      vertex 18.251487731933594 -13.603543281555176 4
      vertex -16.09872817993164 -17.09284210205078 4
      vertex 18.029056549072266 -14.027350425720215 4
    endloop
  endfacet
  facet normal 0 0 1
    outer loop
      vertex -21 19 4
      vertex -16.09872817993164 -17.09284210205078 4
      vertex -19.241073608398438 20.985416412353516 4
    endloop
  endfacet
  facet normal 0 0 1
    outer loop
      vertex -16.09872817993164 -17.09284210205078 4
      vertex -21 19 4
      vertex -16.526172637939453 -16.875045776367188 4
    endloop
  endfacet
  facet normal 0 0 1
    outer loop
      vertex -16.526172637939453 -16.875045776367188 4
      vertex -21 19 4
      vertex -17 -16.799999237060547 4
    endloop
  endfacet
  facet normal 0 0 1
    outer loop
      vertex -17 -16.799999237060547 4
      vertex -21 19 4
      vertex -17.473825454711914 -16.875045776367188 4
    endloop
  endfacet
  facet normal 0 0 1
    outer loop
      vertex -17.901269912719727 -17.09284210205078 4
      vertex -21 -19 4
      vertex -18.24049186706543 -17.432064056396484 4
    endloop
  endfacet
  facet normal 0 0 1
    outer loop
      vertex -21 -19 4
      vertex -17.901269912719727 -17.09284210205078 4
      vertex -21 19 4
    endloop
  endfacet
  facet normal 0 0 1
    outer loop
      vertex -17.473825454711914 -16.875045776367188 4
      vertex -21 19 4
      vertex -17.901269912719727 -17.09284210205078 4
    endloop
  endfacet
  facet normal 0 0 1
    outer loop
      vertex 20.941883087158203 -19.47863006591797 4
      vertex 19.754674911499023 -19.172143936157227 4
      vertex 20.770912170410156 -19.929447174072266 4
    endloop
  endfacet
  facet normal 0 0 1
    outer loop
      vertex 19.462453842163086 -19.574352264404297 4
      vertex 20.770912170410156 -19.929447174072266 4
      vertex 19.754674911499023 -19.172143936157227 4
    endloop
  endfacet
  facet normal 0 0 1
    outer loop
      vertex 20.770912170410156 -19.929447174072266 4
      vertex 19.462453842163086 -19.574352264404297 4
      vertex 20.497020721435547 -20.326244354248047 4
    endloop
  endfacet
  facet normal 0 0 1
    outer loop
      vertex 20.497020721435547 -20.326244354248047 4
      vertex 19.462453842163086 -19.574352264404297 4
      vertex 20.13612937927246 -20.645967483520508 4
    endloop
  endfacet
  facet normal 0 0 1
    outer loop
      vertex 19.099998474121094 -19.87419891357422 4
      vertex 20.13612937927246 -20.645967483520508 4
      vertex 19.462453842163086 -19.574352264404297 4
    endloop
  endfacet
  facet normal 0 0 1
    outer loop
      vertex 20.13612937927246 -20.645967483520508 4
      vertex 19.099998474121094 -19.87419891357422 4
      vertex 19.709209442138672 -20.870033264160156 4
    endloop
  endfacet
  facet normal 0 0 1
    outer loop
      vertex 19.709209442138672 -20.870033264160156 4
      vertex 19.099998474121094 -19.87419891357422 4
      vertex 19.099998474121094 -20.65771484375 4
    endloop
  endfacet
  facet normal 0 0 1
    outer loop
      vertex 19.709209442138672 -20.870033264160156 4
      vertex 19.099998474121094 -20.65771484375 4
      vertex 19.390798568725586 -20.94851303100586 4
    endloop
  endfacet
  facet normal 0 0 1
    outer loop
      vertex -18.24049186706543 -19.234603881835938 4
      vertex -19.241073608398438 -20.985416412353516 4
      vertex -16.48967933654785 -20.985416412353516 4
    endloop
  endfacet
  facet normal 0 0 1
    outer loop
      vertex -20.13612937927246 -20.645967483520508 4
      vertex -18.24049186706543 -19.234603881835938 4
      vertex -18.45828628540039 -18.807159423828125 4
    endloop
  endfacet
  facet normal 0 0 1
    outer loop
      vertex -21 -19 4
      vertex -18.45828628540039 -18.807159423828125 4
      vertex -18.53333282470703 -18.33333396911621 4
    endloop
  endfacet
  facet normal 0 0 1
    outer loop
      vertex -18.24049186706543 -17.432064056396484 4
      vertex -21 -19 4
      vertex -18.45828628540039 -17.859508514404297 4
    endloop
  endfacet
  facet normal 0 0 1
    outer loop
      vertex -21 19 4
      vertex -19.241073608398438 20.985416412353516 4
      vertex -19.709209442138672 20.870033264160156 4
    endloop
  endfacet
  facet normal 0 0 1
    outer loop
      vertex -18.45828628540039 -17.859508514404297 4
      vertex -21 -19 4
      vertex -18.53333282470703 -18.33333396911621 4
    endloop
  endfacet
  facet normal 0 0 1
    outer loop
      vertex -21 19 4
      vertex -19.709209442138672 20.870033264160156 4
      vertex -20.13612937927246 20.645967483520508 4
    endloop
  endfacet
  facet normal 0 0 1
    outer loop
      vertex -18.45828628540039 -18.807159423828125 4
      vertex -21 -19 4
      vertex -20.941883087158203 -19.47863006591797 4
    endloop
  endfacet
  facet normal 0 0 1
    outer loop
      vertex -21 19 4
      vertex -20.13612937927246 20.645967483520508 4
      vertex -20.497020721435547 20.326244354248047 4
    endloop
  endfacet
  facet normal 0 0 1
    outer loop
      vertex -18.24049186706543 -19.234603881835938 4
      vertex -19.709209442138672 -20.870033264160156 4
      vertex -19.241073608398438 -20.985416412353516 4
    endloop
  endfacet
  facet normal 0 0 1
    outer loop
      vertex -21 19 4
      vertex -20.497020721435547 20.326244354248047 4
      vertex -20.770912170410156 19.929447174072266 4
    endloop
  endfacet
  facet normal 0 0 1
    outer loop
      vertex -18.24049186706543 -19.234603881835938 4
      vertex -20.13612937927246 -20.645967483520508 4
      vertex -19.709209442138672 -20.870033264160156 4
    endloop
  endfacet
  facet normal 0 0 1
    outer loop
      vertex -21 19 4
      vertex -20.770912170410156 19.929447174072266 4
      vertex -20.941883087158203 19.47863006591797 4
    endloop
  endfacet
  facet normal 0 0 1
    outer loop
      vertex -18.45828628540039 -18.807159423828125 4
      vertex -20.497020721435547 -20.326244354248047 4
      vertex -20.13612937927246 -20.645967483520508 4
    endloop
  endfacet
  facet normal 0 0 1
    outer loop
      vertex -18.45828628540039 -18.807159423828125 4
      vertex -20.770912170410156 -19.929447174072266 4
      vertex -20.497020721435547 -20.326244354248047 4
    endloop
  endfacet
  facet normal 0 0 1
    outer loop
      vertex -18.45828628540039 -18.807159423828125 4
      vertex -20.941883087158203 -19.47863006591797 4
      vertex -20.770912170410156 -19.929447174072266 4
    endloop
  endfacet
  facet normal 0.2393118090366464 0.9709427676519393 0
    outer loop
      vertex 19.709209442138672 20.870033264160156 0
      vertex 19.241073608398438 20.985416412353516 4
      vertex 19.709209442138672 20.870033264160156 4
    endloop
  endfacet
  facet normal 0.2393118090366464 0.9709427676519393 0
    outer loop
      vertex 19.241073608398438 20.985416412353516 4
      vertex 19.709209442138672 20.870033264160156 0
      vertex 19.241073608398438 20.985416412353516 0
    endloop
  endfacet
  facet normal -0.8229817994973584 0.5680677404113791 0
    outer loop
      vertex -20.770912170410156 19.929447174072266 0
      vertex -20.497020721435547 20.326244354248047 4
      vertex -20.497020721435547 20.326244354248047 0
    endloop
  endfacet
  facet normal -0.8229817994973584 0.5680677404113791 0
    outer loop
      vertex -20.497020721435547 20.326244354248047 4
      vertex -20.770912170410156 19.929447174072266 0
      vertex -20.770912170410156 19.929447174072266 4
    endloop
  endfacet
endsolid OpenSCAD_Model
